<svg xmlns="http://www.w3.org/2000/svg" viewBox="0 0 387.62 550.22"><defs><style>.cls-1,.cls-2,.cls-3,.cls-4{fill:#27a041;}.cls-10,.cls-12,.cls-13,.cls-14,.cls-15,.cls-16,.cls-2,.cls-3,.cls-4,.cls-6,.cls-7,.cls-9{stroke:#000;stroke-miterlimit:10;}.cls-2{stroke-width:0.75px;}.cls-4,.cls-6{stroke-width:2px;}.cls-5{fill:#26913a;}.cls-6{fill:#fff;}.cls-7{fill:#227a2f;stroke-linecap:round;}.cls-8{fill:#c9c9b3;}.cls-9{fill:#e5e5e5;}.cls-10,.cls-11{fill:#d1d1d1;}.cls-13,.cls-14,.cls-15,.cls-16{fill:none;}.cls-14{stroke-dasharray:6.78 6.78;}.cls-15{stroke-dasharray:7.9 7.9;}.cls-16{stroke-dasharray:7.3 7.3;}.cls-17{fill:#b7b6a7;}</style></defs><title>sprite_TrexBakerBody</title><g id="Layer_2" data-name="Layer 2"><g id="Layer_7" data-name="Layer 7"><path class="cls-1" d="M280.54,402c-8.19-13.13,1.38-28.67,20.71-32.66.5-.11,1-.2,1.52-.3a41.25,41.25,0,0,1,35.64,10.84,17.08,17.08,0,0,1,4.81,7.88c3.35,12.36,13.84,53,8.16,57.36a265.67,265.67,0,0,1-26.58,17.41c-8.21,4.44-21.55,5.78-27.29-5.67-2.15-4.28-.17-17.74-3.86-28.34A137.46,137.46,0,0,0,280.54,402Z"/><path d="M279.7,402.52a21.18,21.18,0,0,1-3-8.49A18,18,0,0,1,278,385.1a22.71,22.71,0,0,1,4.92-7.5,17,17,0,0,1,1.64-1.53,13.9,13.9,0,0,1,1.73-1.42l1.82-1.3,1.92-1.11,1-.55,1-.46,2-.92,2.1-.73c.7-.23,1.39-.49,2.11-.65,1.43-.34,2.86-.73,4.3-1s2.91-.46,4.39-.52a41,41,0,0,1,17.37,2.48,42.5,42.5,0,0,1,14.83,9.31,18.19,18.19,0,0,1,4.75,7.61c.79,2.84,1.46,5.58,2.16,8.39q2.08,8.37,3.82,16.83c1.14,5.64,2.18,11.3,2.89,17a75.42,75.42,0,0,1,.65,8.63,23.52,23.52,0,0,1-.3,4.35,7.82,7.82,0,0,1-.65,2.13,3,3,0,0,1-.68.95,9.88,9.88,0,0,1-.87.68c-4.64,3.41-9.46,6.55-14.28,9.67-2.42,1.55-4.85,3.07-7.32,4.55a50.82,50.82,0,0,1-7.64,4,26.38,26.38,0,0,1-8.41,1.72,19,19,0,0,1-8.4-1.55,15.39,15.39,0,0,1-6.39-5.63c-.35-.63-.76-1.22-1.07-1.88a8.89,8.89,0,0,1-.62-2.08,38.32,38.32,0,0,1-.5-4.29c-.4-5.73-.54-11.5-1.8-17.06a46.08,46.08,0,0,0-2.7-8.07c-1.09-2.64-2.31-5.22-3.57-7.78A160.57,160.57,0,0,0,279.7,402.52Zm1.69-1.06a157.58,157.58,0,0,1,8.2,15.26c1.23,2.61,2.33,5.29,3.34,8a48.66,48.66,0,0,1,2.43,8.34c1.05,5.72,1,11.51,1.19,17.24.15,2.82.22,5.83,2,8.2a14.89,14.89,0,0,0,6.31,5.66,18.12,18.12,0,0,0,8.38,1.55,26.43,26.43,0,0,0,8.38-1.78,51.56,51.56,0,0,0,7.59-4c2.45-1.49,4.88-3,7.28-4.6,4.8-3.14,9.52-6.42,14.08-9.89a9.81,9.81,0,0,0,.82-.66,2.84,2.84,0,0,0,.55-.8,7.72,7.72,0,0,0,.56-2,24.9,24.9,0,0,0,.21-4.24,74.21,74.21,0,0,0-.83-8.52c-1.71-11.33-4.52-22.48-7.39-33.58-.74-2.75-1.48-5.58-2.27-8.26a16.43,16.43,0,0,0-4.4-6.78,41.94,41.94,0,0,0-14.24-8.73,39,39,0,0,0-16.5-2.24c-1.39.06-2.77.33-4.16.52s-2.73.62-4.09,1a17,17,0,0,0-2,.63l-2,.69-1.9.86-.95.42-.91.51-1.81,1-1.69,1.19a13.46,13.46,0,0,0-1.61,1.3,16.81,16.81,0,0,0-1.52,1.4,20.44,20.44,0,0,0-4.51,6.77,16,16,0,0,0-1.19,7.93A19.2,19.2,0,0,0,281.39,401.46Z"/><path class="cls-1" d="M292.41,441.56c-5.88,9.86,5,27.75,1.76,34.55-1.59,3.34-14.29,9.72-14.29,9.72s9.47,9.4,8.36,12.86c-1.35,4.24-12.23,7.16-14,14.22s24.31,4.23,24.31,4.23l46.32,1.43-17.74-10.44a23.33,23.33,0,0,0-6.17-8c-4-3,4.61-27.63,10.32-33.56,0,0,14.68-10.53,18.11-14.79,4.4-5.47,9-19.06-15.6-22.61a53.27,53.27,0,0,0-40.81,11Z"/><path d="M293.31,442c-2.14,3.62-1.86,8-1.19,12.25s2,8.46,2.91,12.82a24.35,24.35,0,0,1,.71,6.84,6.39,6.39,0,0,1-1.31,3.6,15.61,15.61,0,0,1-2.63,2.37,86.81,86.81,0,0,1-11.48,6.83l.26-1.6a65.23,65.23,0,0,1,5.28,6,29.61,29.61,0,0,1,2.27,3.37,11.61,11.61,0,0,1,.9,1.95,4.22,4.22,0,0,1,.18,2.54,8,8,0,0,1-2.79,3.48c-1.08.85-2.18,1.58-3.27,2.32a31.22,31.22,0,0,0-5.91,4.73,9.54,9.54,0,0,0-1.84,3,6.5,6.5,0,0,0-.23.78,1.21,1.21,0,0,0,0,.57,1.65,1.65,0,0,0,.74,1,9.15,9.15,0,0,0,3.26,1.22,30.91,30.91,0,0,0,3.76.5,93.27,93.27,0,0,0,15.49-.38h.14l46.32,1.43-.54,1.86L326.6,509h0l-.28-.18-.12-.28a24.57,24.57,0,0,0-2.86-4.75,18.31,18.31,0,0,0-1.86-2.07c-.33-.33-.68-.61-1-.91a3.1,3.1,0,0,1-1-1.62,9.72,9.72,0,0,1-.24-3.14,26,26,0,0,1,.37-3,54.63,54.63,0,0,1,1.39-5.71,94.56,94.56,0,0,1,4.08-10.94c.8-1.78,1.65-3.53,2.61-5.23a24.8,24.8,0,0,1,3.37-4.81l0,0,0,0c3.47-2.46,6.91-5,10.27-7.6,1.68-1.31,3.34-2.64,4.93-4.06A20.32,20.32,0,0,0,350.5,450a15.24,15.24,0,0,0,2.17-5.92,9.93,9.93,0,0,0-1.13-6.12,12.7,12.7,0,0,0-4.44-4.45,26.17,26.17,0,0,0-5.82-2.59,44.2,44.2,0,0,0-6.22-1.45,54.12,54.12,0,0,0-6.35-.72A50.14,50.14,0,0,0,304,433.88a46.53,46.53,0,0,0-5.48,3.18,34,34,0,0,0-4.89,3.88l.26-.38Zm-1.8-.89.52-1.3.1-.26.16-.11a54.3,54.3,0,0,1,11.38-6.29,58.87,58.87,0,0,1,12.3-3.63,56.07,56.07,0,0,1,12.74-.8,54.2,54.2,0,0,1,6.36.67,45.68,45.68,0,0,1,6.23,1.42,26.58,26.58,0,0,1,5.86,2.56,13,13,0,0,1,4.53,4.48,10.14,10.14,0,0,1,1.19,6.23,15.45,15.45,0,0,1-2.16,6,20.26,20.26,0,0,1-4.24,4.8c-1.6,1.43-3.24,2.79-4.89,4.14-3.32,2.69-6.71,5.28-10.14,7.82l0,0a24.06,24.06,0,0,0-3.17,4.74c-.91,1.69-1.72,3.44-2.47,5.21a78,78,0,0,0-3.75,10.91,49.51,49.51,0,0,0-1.18,5.61,22.25,22.25,0,0,0-.26,2.8,8.46,8.46,0,0,0,.26,2.62,1.62,1.62,0,0,0,.5.82c.39.31.8.62,1.17,1a20.58,20.58,0,0,1,2.11,2.17,25.86,25.86,0,0,1,3.32,5l-.4-.46h0l17.74,10.45,3.36,2-3.9-.12-46.32-1.43h.14a95.37,95.37,0,0,1-15.86.39,32.88,32.88,0,0,1-4-.55,10.83,10.83,0,0,1-4-1.55,3.61,3.61,0,0,1-1.52-2.13,3.22,3.22,0,0,1,0-1.38,9,9,0,0,1,.32-1.1,11.39,11.39,0,0,1,2.22-3.65,32.6,32.6,0,0,1,6.3-5.07c1.08-.73,2.16-1.45,3.13-2.23a6.13,6.13,0,0,0,2.12-2.5,2.35,2.35,0,0,0-.16-1.31,9.61,9.61,0,0,0-.74-1.61,27.35,27.35,0,0,0-2.12-3.13,63.48,63.48,0,0,0-5.1-5.78l-1-1,1.22-.63a84.75,84.75,0,0,0,11.17-6.64,13.81,13.81,0,0,0,2.28-2,4.34,4.34,0,0,0,.86-2.51,22.92,22.92,0,0,0-.66-6.24c-.92-4.24-2.2-8.48-2.94-12.91a31.88,31.88,0,0,1-.48-6.79,17.79,17.79,0,0,1,.53-3.45,12.86,12.86,0,0,1,.56-1.69A15.82,15.82,0,0,1,291.51,441.12Z"/><path class="cls-2" d="M340.94,508.49c3.14.55,12,4.2,13.52,7.08l-10.08-3.22Z"/><path class="cls-3" d="M333.25,507.83s17.7.55,21.07,11.18l-14.83-3.24Z"/><path class="cls-4" d="M308.29,508.76a79.66,79.66,0,0,1,23.08-.48c13,1.84,15.42,10.23,16.61,13.06,0,0-18.82-2.36-22.52-6.09"/><path class="cls-1" d="M332.38,157.67q.06-1.08.15-2.16c.72-9.52,2-19.51-1.85-28.25-4.88-11.11-16.86-17.38-28.61-20.44-24.17-6.31-53.08-.91-67.93,19.19-6.84,9.25-10.11,20.61-12.9,31.77-13.91,55.72-19.08,113.48-35.61,168.47-5,16.47-11.27,33.21-23.48,45.33-24.18,24-65.53,22.36-94.78,4.89-15.92-9.5-29.16-22.81-40.43-37.41C21.22,331.65,16,323.9,11,316c-2.49-4-4.86-8-7.3-12-.82-1.34-2.45-2.56-3.38-.43-.66,1.51,0,4.43,0,6.06a127.14,127.14,0,0,0,12.21,48.26,133.5,133.5,0,0,0,29.36,40.34,122.6,122.6,0,0,0,31.78,21.59c21.89,10.19,46.15,13.94,69.16,21.28,22.21,7.09,43.24,17.53,65.41,24.77s46.32,11.18,68.77,4.86c28.62-8.06,50.81-32.25,62-59.78s12.68-58.14,10.42-87.79C345.28,267.77,328.69,213.05,332.38,157.67Z"/><path d="M331.38,157.6c.46-6.81,1.36-13.56.79-20.22a38.55,38.55,0,0,0-.76-4.91,30.56,30.56,0,0,0-1.52-4.69,27.28,27.28,0,0,0-5.5-8.13c-4.62-4.77-10.66-8-17-10.28-.79-.29-1.58-.56-2.38-.81s-1.61-.49-2.42-.71c-1.62-.45-3.27-.78-4.91-1.17s-3.32-.57-5-.86-3.35-.37-5-.5a74.39,74.39,0,0,0-20.09,1.31,61.4,61.4,0,0,0-18.76,7.12,19.49,19.49,0,0,0-2.12,1.35l-2.08,1.42c-1.35,1-2.6,2.12-3.9,3.17-1.17,1.21-2.42,2.34-3.53,3.59l-1.59,2a22.9,22.9,0,0,0-1.55,2,67.62,67.62,0,0,0-8.74,18.15c-2.11,6.43-3.67,13-5.27,19.66-.82,3.29-1.54,6.62-2.29,9.93s-1.46,6.65-2.15,10c-2.79,13.32-5.27,26.69-7.7,40.08-4.87,26.77-9.58,53.61-16.22,80l-2.6,9.88c-.89,3.28-1.87,6.54-2.8,9.82a201,201,0,0,1-6.61,19.33c-1.29,3.15-2.69,6.26-4.26,9.29a91.66,91.66,0,0,1-5.23,8.79,60.44,60.44,0,0,1-32.16,24.08,75,75,0,0,1-20.1,3.45,92.54,92.54,0,0,1-39.83-7.6,97.32,97.32,0,0,1-17.76-10,132.15,132.15,0,0,1-15.72-13,198.51,198.51,0,0,1-26-31.37q-5.77-8.42-11-17.19L5,306.11l-1.33-2.17a4.49,4.49,0,0,0-.82-1,1.91,1.91,0,0,0-1.13-.54A1.2,1.2,0,0,0,.64,303a3,3,0,0,0-.5,1.16,9,9,0,0,0-.06,2.54l.25,2.54.16,2.55a125.92,125.92,0,0,0,9.28,39.55,133.76,133.76,0,0,0,21.06,34.73,125.79,125.79,0,0,0,30.66,26.48C73,419.7,85.87,424.37,98.89,428.1s26.37,6.57,39.5,10.36c26.36,7.54,50.79,20.19,76.75,27.64,13,3.69,26.32,6,39.68,5.8a85.59,85.59,0,0,0,19.73-2.63A81.21,81.21,0,0,0,293,461.91a88.53,88.53,0,0,0,16.24-11.52,102.94,102.94,0,0,0,13.49-14.73,117.05,117.05,0,0,0,18.14-35.58,168,168,0,0,0,7.22-39.61,267.5,267.5,0,0,0-.55-40.52c-2.15-27-7.05-53.83-11-80.78-2-13.47-3.75-27-4.77-40.62A284.1,284.1,0,0,1,331.38,157.6Zm2,.14c-1.7,27.09,1.49,54.22,5.66,81s9.4,53.63,11.83,80.88a267.63,267.63,0,0,1,.89,41,172.58,172.58,0,0,1-7.08,40.57,120.67,120.67,0,0,1-18.73,36.82,107.73,107.73,0,0,1-14,15.34,93.81,93.81,0,0,1-17,12.06,81.6,81.6,0,0,1-19.4,7.69,89.1,89.1,0,0,1-20.66,2.64,121,121,0,0,1-20.67-1.59,161.79,161.79,0,0,1-20.09-4.69c-26.38-7.84-50.48-20.92-76.43-28.76-13-4-26.24-7-39.3-11s-26-8.88-37.51-16.28a128.16,128.16,0,0,1-30.48-27.1,134.24,134.24,0,0,1-20.8-35A126.71,126.71,0,0,1,.45,311.79L.3,309.24.05,306.7a9.4,9.4,0,0,1,.07-2.54A2.88,2.88,0,0,1,.63,303a1.2,1.2,0,0,1,1.07-.58,1.91,1.91,0,0,1,1.13.54,4.74,4.74,0,0,1,.82,1L5,306.11l2.66,4.36c3.5,5.83,7.17,11.57,11,17.17a198.93,198.93,0,0,0,26.08,31.3,131.67,131.67,0,0,0,15.73,12.95,97.08,97.08,0,0,0,17.75,10,92.24,92.24,0,0,0,39.73,7.5,74.62,74.62,0,0,0,20-3.48,59.8,59.8,0,0,0,31.91-24,89.48,89.48,0,0,0,5.19-8.75c1.56-3,2.94-6.12,4.23-9.26a198.25,198.25,0,0,0,6.55-19.3c.93-3.27,1.9-6.53,2.78-9.81l2.58-9.87c6.61-26.4,11.15-53.26,15.9-80,2.38-13.4,4.79-26.8,7.52-40.14.68-3.33,1.36-6.67,2.11-10s1.44-6.66,2.25-10c1.56-6.62,3.1-13.27,5.2-19.78A69.07,69.07,0,0,1,233,126.44c.48-.72,1-1.38,1.58-2l1.64-2c1.13-1.29,2.4-2.47,3.6-3.71s2.63-2.24,4-3.28l2.13-1.47a20.62,20.62,0,0,1,2.18-1.39,62.48,62.48,0,0,1,19.18-7.39,76.33,76.33,0,0,1,20.51-1.44c1.71.13,3.42.33,5.13.5s3.4.52,5.09.84,3.36.72,5,1.18c.83.22,1.66.45,2.48.72s1.65.52,2.46.81c6.47,2.29,12.76,5.61,17.68,10.64a28.74,28.74,0,0,1,5.9,8.66,31.36,31.36,0,0,1,1.65,5,41.51,41.51,0,0,1,.83,5.17C334.69,144.15,333.79,151,333.37,157.74Z"/><path class="cls-5" d="M338.85,256.57s-9.5-15.5-33.5,5.5c-9.84,8.61-14.11,24.26-17.76,36.25-5.39,17.67-9.19,35.83-12.5,54q-3.87,21.24-6.71,42.66a37.28,37.28,0,0,1-4.52,14.34q-2.72,4.8-5.46,9.58c-4.75,8.27-9.59,16.5-14.6,24.61-3.81,6.17-7.68,12.33-12,18.17-1.17,1.58-4.88,7.83-7.46,7.4-6-1,9.18,15,62.5-3.5,50.41-17.47,61-84,62.34-99.68s-.34-44.32-3.34-62.32C343.9,291.85,338.85,256.57,338.85,256.57Z"/><path class="cls-6" d="M310.84,157.57c.07,0-.25-6.68-.26-7.29a65.39,65.39,0,0,1,.29-7.41,38.26,38.26,0,0,1,1.38-7.21c.58-1.93,1.46-4,3.3-5.06a4.28,4.28,0,0,1,1-.4,8.45,8.45,0,0,1,5.31.37c3.85,2.11,5.39,6.65,6.47,10.9s.91,8.72.56,13.1Z"/><path class="cls-1" d="M305.85,157.57c25.9-1,27-8,39-11,20.74-5.19,31.63,3.48,37,11,5,7,5.9,29.25,4,37-2,8.18-12.15,11.9-16,18-9.38,14.86-31.28,18-57.76,15.11-14.17-1.57-29.66-4.89-45.24-9.11"/><path d="M305.83,157.05a91.73,91.73,0,0,0,15.62-1.81,47.5,47.5,0,0,0,7.47-2.32c2.42-1,4.72-2.22,7.07-3.44a41,41,0,0,1,7.39-3.09c1.29-.41,2.59-.65,3.9-.95s2.62-.46,3.94-.67a37.12,37.12,0,0,1,15.95,1.12,29.71,29.71,0,0,1,13.36,8.83c.44.51.88,1,1.28,1.57l.61.8c.19.29.37.6.55.9a11,11,0,0,1,.94,1.84,16,16,0,0,1,.74,1.91,48.65,48.65,0,0,1,1.85,7.83,93.26,93.26,0,0,1,1.11,15.92,51.94,51.94,0,0,1-.64,8,13.86,13.86,0,0,1-.48,2,11.54,11.54,0,0,1-.78,2,18.27,18.27,0,0,1-1,1.82,20.62,20.62,0,0,1-1.27,1.65c-3.57,4.21-8.39,6.85-11.63,10.68a15.89,15.89,0,0,0-1.1,1.49l-1.18,1.68a27.1,27.1,0,0,1-2.63,3.15,15.15,15.15,0,0,1-1.49,1.4c-.52.45-1,.93-1.56,1.35l-1.67,1.18-.84.59c-.28.19-.59.35-.88.52a49.27,49.27,0,0,1-15.18,5.64,89,89,0,0,1-16,1.63,127.35,127.35,0,0,1-16-.83c-2.65-.26-5.28-.65-7.91-1.05s-5.24-.86-7.85-1.38a241.34,241.34,0,0,1-30.69-8.2l.14-.54c10.36,2.12,20.69,4.2,31.06,5.84,5.2.78,10.39,1.54,15.6,2s10.42.84,15.63.85a87,87,0,0,0,15.49-1.11A45.17,45.17,0,0,0,359.24,221c.28-.16.57-.3.84-.47l.79-.53,1.59-1.07c.51-.37,1-.81,1.46-1.21a14.3,14.3,0,0,0,1.42-1.27,26.22,26.22,0,0,0,2.5-2.87l1.13-1.54a17.21,17.21,0,0,1,1.27-1.68,42.85,42.85,0,0,1,6-5.42,42.06,42.06,0,0,0,5.73-5.2,13,13,0,0,0,3.23-6.59,51.9,51.9,0,0,0,.68-7.73,93.08,93.08,0,0,0-1-15.65,46,46,0,0,0-1.72-7.58,15.32,15.32,0,0,0-.67-1.79,10.13,10.13,0,0,0-.84-1.68l-.48-.8-.58-.77c-.37-.53-.8-1-1.21-1.51a28.23,28.23,0,0,0-12.66-8.52A35.85,35.85,0,0,0,351.37,146a38.79,38.79,0,0,0-3.86.63c-1.28.27-2.57.5-3.81.89a38.46,38.46,0,0,0-7.2,3c-2.34,1.21-4.69,2.48-7.17,3.47a47.92,47.92,0,0,1-7.65,2.35,92.59,92.59,0,0,1-15.81,1.8Z"/><path class="cls-6" d="M299.87,157.57c-.58-8-1.51-16.23-5.07-23.44a14.45,14.45,0,0,0-3.56-4.89,6.71,6.71,0,0,0-5.68-1.55c-3.54.86-5.18,4.7-6.07,7.84a54.21,54.21,0,0,0-1.9,12.22,149.17,149.17,0,0,0,.33,15.82Z"/><path d="M382,201.67a23.38,23.38,0,0,1-5.6,4.74,21.06,21.06,0,0,1-6.87,2.74,6,6,0,0,1-1,.17,3.57,3.57,0,0,1-1.1-.13,7.12,7.12,0,0,1-1.82-.87,18.52,18.52,0,0,1-2.89-2.45,46.5,46.5,0,0,1-4.7-5.76h0l1.44.26-12,9-.81.61-.6-.82-8-11,1.28.29-15,8-.84.45-.49-.82-6-10,1.56.2-10.16,9.9-.66.63-.69-.58-13-11,1.33,0L283.53,206.3l-.36.34-.49-.09h0c-1.93-.41-3.81-.89-5.69-1.42s-3.73-1.13-5.56-1.83a25.34,25.34,0,0,1-5.28-2.65,6.13,6.13,0,0,1-2.09-2.25,2.44,2.44,0,0,1-.16-1.62,3.24,3.24,0,0,1,.29-.75c.14-.22.31-.42.46-.63l.4.34a2.11,2.11,0,0,0-.35,2.36,5.44,5.44,0,0,0,1.94,1.8,24,24,0,0,0,5.21,2.2c1.82.57,3.67,1,5.54,1.45s3.76.75,5.63,1h0l-.85.26L294,193.73l.65-.61.68.58,13,11-1.34.05,10.16-9.9.91-.88.65,1.08,6,10-1.33-.36,15-8,.77-.41.51.7,8,11-1.41-.21,12-9,.86-.65.58.91h0a42.22,42.22,0,0,0,4.17,5.76,16.75,16.75,0,0,0,2.51,2.41,5.33,5.33,0,0,0,1.41.78,2.54,2.54,0,0,0,1.51,0,20.31,20.31,0,0,0,6.71-2.25,22.9,22.9,0,0,0,5.72-4.3Z"/><path class="cls-7" d="M365.85,170.57s-11-6-6-8c3.71-1.49,8,12,8,12"/><path class="cls-8" d="M342,255.89c10,35.6,10.14,73.53,10.18,110.68,0,15.06,0,30.24-2.81,45-3,15.54-9.36,30.85-20.65,41.94-6.8,6.68-16.21,11.84-25.57,10-6.65-1.27-12.2-5.85-16.64-11-11.4-13.11-17.24-30.33-19.28-47.58s-.54-34.71,1.2-52c-22.3-2.79-45.29-5.8-64.69-17.15-6-3.51-11.87-8.24-13.8-14.9s.41-13.53,2.71-20c-1.61,10,7.21,18.52,16,23.5,16.85,9.56,36.24,13.42,55.29,16.88,1.81.33,3.74.65,5.44-.05a9.42,9.42,0,0,0,3.45-2.93,108.38,108.38,0,0,0,14.2-22c3-6.24,5.47-13.19,4.14-20s-6.28-12.36-11.19-17.31c-21.61-21.76-46.59-39.83-71.45-57.8.27-1.34.45-2.75.85-4,2.35.5,5.1,2.79,7.22,4,2.52,1.47,5,2.94,7.52,4.42q7.5,4.46,14.93,9,14.83,9.16,29.29,18.93,3.6,2.46,7.18,5c13.81,9.64,29.2,20.32,45.88,17.93,5.16-.73,10.3-2.88,13.67-6.85,6.14-7.25,4.83-18,2.63-27.29Q340.08,249.09,342,255.89Z"/><path d="M342,255.88A258.36,258.36,0,0,1,350,299.77c1.51,14.82,2,29.71,2.23,44.59.11,7.44.14,14.89.15,22.33s0,14.89-.3,22.33a159.23,159.23,0,0,1-2.38,22.21,96.76,96.76,0,0,1-6.49,21.37,69.27,69.27,0,0,1-12,18.81,47,47,0,0,1-8.4,7.41,34.28,34.28,0,0,1-4.88,2.81,27.26,27.26,0,0,1-5.3,1.92,21.59,21.59,0,0,1-11.2,0,26.77,26.77,0,0,1-9.84-5.39,52.65,52.65,0,0,1-7.71-8.16,69,69,0,0,1-6.15-9.37,87.55,87.55,0,0,1-8.15-20.83,116.4,116.4,0,0,1-3.42-22.1c-1-14.92.33-29.84,1.8-44.64v0l.43.54c-9-1.21-18-2.45-26.85-4.24a138.84,138.84,0,0,1-26.08-7.57,99.82,99.82,0,0,1-12.17-6A35.57,35.57,0,0,1,192.92,327a18.8,18.8,0,0,1-3-6,19.34,19.34,0,0,1-.6-6.73c.33-4.54,1.76-8.89,2.88-13.3v0l1,.24a13.4,13.4,0,0,0,.43,7.84,21.41,21.41,0,0,0,4.14,6.86,42.93,42.93,0,0,0,12.78,9.71c9.48,5.12,19.79,8.51,30.22,11.08,5.23,1.29,10.5,2.38,15.78,3.39l7.94,1.46a10.94,10.94,0,0,0,4,.15,6.3,6.3,0,0,0,3.35-2.05,102.69,102.69,0,0,0,9.56-13,97.88,97.88,0,0,0,7.44-14.29,37.13,37.13,0,0,0,2.29-7.71,20.84,20.84,0,0,0-1.1-11.84,27.42,27.42,0,0,0-1.81-3.59,42.46,42.46,0,0,0-4.87-6.39,299.14,299.14,0,0,0-23.5-22.09c-8.2-7-16.66-13.63-25.26-20.09-4.29-3.25-8.63-6.43-13-9.61L215,226.23l-3.27-2.37-1.64-1.18a4.08,4.08,0,0,0-1.81-.94h-.06l-.27-.13.07-.37a41.12,41.12,0,0,1,.84-4s0,0,0-.05l.51-.43.07.09a2.4,2.4,0,0,0,1.24.74,11.72,11.72,0,0,1,1.23.61c.79.43,1.55.93,2.3,1.42,1.48,1,3,1.93,4.58,2.83,3.1,1.81,6.21,3.63,9.28,5.5,6.15,3.72,12.34,7.4,18.41,11.25s12.13,7.74,18.11,11.73S276.47,259,282.42,263a99.3,99.3,0,0,0,18.8,10.36,39.16,39.16,0,0,0,21,2.68,23.16,23.16,0,0,0,9.74-4,17,17,0,0,0,6-8.45,25.27,25.27,0,0,0,1-5.18,37.78,37.78,0,0,0,0-5.32,65.45,65.45,0,0,0-1.76-10.55l0-.06,1-.29c.72,2.26,1.4,4.52,2,6.8l.92,3.42C341.41,253.6,341.68,254.75,342,255.88Zm-.1,0c-.29-1.15-.67-2.27-1.05-3.38l-1.16-3.34c-.8-2.22-1.63-4.42-2.51-6.61l1-.28,0,.06a66.5,66.5,0,0,1,1.71,10.72,39.66,39.66,0,0,1-.07,5.45,25.23,25.23,0,0,1-1.1,5.37,17.84,17.84,0,0,1-6.35,8.8,24,24,0,0,1-10.08,4.05A39.9,39.9,0,0,1,301,274a99.78,99.78,0,0,1-18.89-10.47c-6-4-11.8-8.22-17.78-12.21s-12-7.93-18.07-11.78S234,232,227.89,228.23c-3.07-1.88-6.16-3.71-9.26-5.53-1.55-.9-3.12-1.82-4.59-2.85-.75-.5-1.5-1-2.28-1.42a13.16,13.16,0,0,0-1.19-.59c-.4-.16-.82-.4-1.32-.09l.58-.34s0,0,0,.06c-.38,1.25-.55,2.59-.82,3.95l-.19-.5,0,.06a4,4,0,0,0,1.46,1.42l1.63,1.18L215.2,226l6.52,4.75c4.34,3.19,8.68,6.38,13,9.63,8.59,6.48,17.05,13.15,25.24,20.14a299.64,299.64,0,0,1,23.49,22.14,43.17,43.17,0,0,1,4.89,6.44,28.43,28.43,0,0,1,1.81,3.62,22.1,22.1,0,0,1,1.14,3.88,22.74,22.74,0,0,1,0,8.06,37.89,37.89,0,0,1-2.31,7.74,98.68,98.68,0,0,1-7.48,14.3,102.3,102.3,0,0,1-9.59,13,6.37,6.37,0,0,1-3.42,2.08,10.93,10.93,0,0,1-4-.15l-7.94-1.47c-5.28-1-10.55-2.12-15.78-3.42-10.43-2.59-20.74-6-30.22-11.13a43,43,0,0,1-12.76-9.72,24.56,24.56,0,0,1-4.24-6.84,18.38,18.38,0,0,1-1.32-8l1,.24,0,0a37.79,37.79,0,0,0-3.78,13,19.3,19.3,0,0,0,.63,6.72,18.33,18.33,0,0,0,3.06,6,35.33,35.33,0,0,0,10.32,8.67,98.84,98.84,0,0,0,12.18,6,138.82,138.82,0,0,0,26.1,7.26c8.9,1.65,17.89,2.69,26.89,3.73l.48.06,0,.49v0c-1.51,14.79-2.84,29.65-1.92,44.48a117.13,117.13,0,0,0,3.34,22,86.75,86.75,0,0,0,8,20.65,69.54,69.54,0,0,0,6.06,9.29,51.23,51.23,0,0,0,7.58,8.06,26.23,26.23,0,0,0,9.56,5.29,21,21,0,0,0,10.86,0A26.45,26.45,0,0,0,317.6,461a34,34,0,0,0,4.8-2.74,46.53,46.53,0,0,0,8.31-7.3,68.77,68.77,0,0,0,12-18.62,96.62,96.62,0,0,0,6.5-21.24A156.67,156.67,0,0,0,351.61,389c.35-7.43.36-14.87.36-22.31s0-14.88-.09-22.32c-.19-14.88-.65-29.77-2.12-44.58A259,259,0,0,0,341.93,255.91Z"/><path class="cls-1" d="M208.62,423c-8.19-13.9,1.38-30.35,20.71-34.58l1.51-.31c15.47-2.94,28.29,4,35.65,11.47a18.33,18.33,0,0,1,4.81,8.35c3.35,13.08,13.84,56.11,8.16,60.73a265.32,265.32,0,0,1-26.58,18.43c-8.21,4.7-21.55,6.12-27.29-6-2.15-4.54-.17-18.79-3.86-30A149.35,149.35,0,0,0,208.62,423Z"/><path d="M207.76,423.47a23.56,23.56,0,0,1-3-8.79,20.39,20.39,0,0,1,1.13-9.23,23.3,23.3,0,0,1,4.77-7.94,29.16,29.16,0,0,1,7.13-5.83,36.81,36.81,0,0,1,4.09-2.12c.7-.3,1.43-.53,2.15-.8a19,19,0,0,1,2.17-.71c1.48-.39,3-.81,4.45-1.07s3-.49,4.54-.56a39.07,39.07,0,0,1,17.91,3A42.12,42.12,0,0,1,268,399.78a19.08,19.08,0,0,1,4.23,8.22q1.08,4.33,2.08,8.68c1.35,5.8,2.6,11.62,3.71,17.47s2.12,11.72,2.81,17.64a88.91,88.91,0,0,1,.63,8.93,28.32,28.32,0,0,1-.27,4.5,9.72,9.72,0,0,1-.59,2.22,3.83,3.83,0,0,1-.61,1,5.53,5.53,0,0,1-.87.77c-4.7,3.67-9.59,7-14.5,10.41-2.46,1.67-4.93,3.31-7.45,4.9a45.22,45.22,0,0,1-7.83,4.24,25,25,0,0,1-8.72,1.7,16.76,16.76,0,0,1-8.54-2.14A16.2,16.2,0,0,1,226,482a10.1,10.1,0,0,1-1.34-4.24c-.19-1.48-.3-3-.4-4.45-.36-5.93-.55-11.9-1.83-17.66a53.7,53.7,0,0,0-2.73-8.39c-1.08-2.75-2.3-5.45-3.55-8.13A168.58,168.58,0,0,0,207.76,423.47Zm1.73-1a171.09,171.09,0,0,1,8.11,16c1.22,2.73,2.3,5.51,3.3,8.33a54.43,54.43,0,0,1,2.45,8.65c1.09,5.92,1.08,11.9,1.24,17.83,0,1.49.12,3,.28,4.44a9.81,9.81,0,0,0,1.25,4.21,15.59,15.59,0,0,0,6,6.43,16.11,16.11,0,0,0,8.53,2.13,25.07,25.07,0,0,0,8.68-1.76,44.46,44.46,0,0,0,7.79-4.29c2.5-1.6,5-3.26,7.41-4.94,4.88-3.38,9.68-6.91,14.29-10.63,1.27-.78,1.58-2.27,1.8-3.7a26.74,26.74,0,0,0,.18-4.39,82.23,82.23,0,0,0-.8-8.84c-1.67-11.74-4.41-23.31-7.21-34.84q-1.08-4.32-2.2-8.63a17.37,17.37,0,0,0-4-7.42,41.45,41.45,0,0,0-14.25-9.72,36.63,36.63,0,0,0-17-2.69c-1.44.07-2.87.34-4.29.55s-2.83.67-4.22,1a18.28,18.28,0,0,0-2.05.69c-.67.26-1.36.48-2,.77a34.67,34.67,0,0,0-3.84,2,27.06,27.06,0,0,0-6.64,5.35,21,21,0,0,0-4.4,7.21,18.17,18.17,0,0,0-1.08,8.29A21.19,21.19,0,0,0,209.49,422.45Z"/><path class="cls-1" d="M220.49,464.86c-5.89,10.44,5,29.38,1.76,36.58C220.66,505,208,511.73,208,511.73s9.47,9.95,8.36,13.61c-1.35,4.49-12.23,7.58-14,15.07s24.31,4.47,24.31,4.47l51.92.23-23.34-9.77a24.59,24.59,0,0,0-6.17-8.42c-4-3.23,4.61-29.26,10.32-35.54,0,0,14.68-11.15,18.11-15.66,4.4-5.79,9-20.18-15.6-23.93A51.4,51.4,0,0,0,221,463.41Z"/><path d="M221.4,465.29c-2.14,3.85-1.87,8.46-1.23,12.88s1.93,8.87,2.88,13.42a29.84,29.84,0,0,1,.79,7.08,7.72,7.72,0,0,1-1,3.79,13.27,13.27,0,0,1-2.61,2.67,83.61,83.61,0,0,1-11.79,7.48l.26-1.57a69.52,69.52,0,0,1,5.22,6.26,33.58,33.58,0,0,1,2.25,3.49,13.67,13.67,0,0,1,.89,2,5.21,5.21,0,0,1,.33,2.44,5.13,5.13,0,0,1-1.07,2.25,12,12,0,0,1-1.52,1.58c-1.07.93-2.18,1.71-3.27,2.49a34,34,0,0,0-6,5,10.38,10.38,0,0,0-1.93,3.09,4.54,4.54,0,0,0-.39,1.56,1.49,1.49,0,0,0,.51,1.09,7.26,7.26,0,0,0,3.13,1.43,27.91,27.91,0,0,0,3.82.6,87.24,87.24,0,0,0,15.82-.38h.12l51.92.23-.39,1.93-23.35-9.78-.37-.16-.16-.38a26,26,0,0,0-2.88-5.06,17.64,17.64,0,0,0-1.9-2.22c-.17-.17-.34-.34-.52-.5l-.58-.53a3.44,3.44,0,0,1-.9-1.71,11.28,11.28,0,0,1-.19-3.25,28.64,28.64,0,0,1,.37-3.09,60.52,60.52,0,0,1,1.39-6,105.67,105.67,0,0,1,4.05-11.53c.8-1.88,1.65-3.73,2.61-5.53a26.27,26.27,0,0,1,3.39-5.14l0,0,0,0c3.46-2.6,6.89-5.27,10.24-8,1.67-1.38,3.32-2.79,4.9-4.27a21.56,21.56,0,0,0,4.2-4.9,17,17,0,0,0,2.2-6.05,11.1,11.1,0,0,0-.81-6.31,12.32,12.32,0,0,0-4.16-4.87,22.79,22.79,0,0,0-5.78-2.93,48.53,48.53,0,0,0-25.68-1.48,48,48,0,0,0-12.16,4.41,45.13,45.13,0,0,0-5.5,3.36,35.34,35.34,0,0,0-4.88,4.07l.25-.37Zm-1.82-.85.53-1.38.09-.26.15-.12A54.28,54.28,0,0,1,231.76,456a56.51,56.51,0,0,1,12.47-3.88,53.3,53.3,0,0,1,13-.8A50.48,50.48,0,0,1,270,453.7a23,23,0,0,1,5.82,2.9,12.48,12.48,0,0,1,4.24,4.9,11.2,11.2,0,0,1,.86,6.41,17.25,17.25,0,0,1-2.19,6.14,21.67,21.67,0,0,1-4.21,5c-1.58,1.5-3.22,2.92-4.86,4.34-3.3,2.84-6.68,5.57-10.11,8.25l0,0a25.3,25.3,0,0,0-3.19,5.06c-.91,1.79-1.72,3.64-2.47,5.51a88.31,88.31,0,0,0-3.74,11.51,57.31,57.31,0,0,0-1.17,5.89,16.34,16.34,0,0,0,0,5.75,2,2,0,0,0,.49,1l.56.47a7.7,7.7,0,0,1,.6.54,21.49,21.49,0,0,1,2.14,2.33,27.34,27.34,0,0,1,3.34,5.35l-.53-.54,23.34,9.78,4.64,1.95-5,0-51.92-.23h.12a89.81,89.81,0,0,1-16.24.38,28.29,28.29,0,0,1-4.11-.65,8.92,8.92,0,0,1-4-1.94,3.54,3.54,0,0,1-1.11-2.47,4.05,4.05,0,0,1,.18-1.27,10,10,0,0,1,.34-1.06,12.4,12.4,0,0,1,2.29-3.68,34.81,34.81,0,0,1,6.32-5.29c1.08-.78,2.16-1.55,3.11-2.38a9.05,9.05,0,0,0,1.26-1.3,3.23,3.23,0,0,0,.67-1.32,3.35,3.35,0,0,0-.24-1.49,13,13,0,0,0-.76-1.68,30,30,0,0,0-2.11-3.25,66.45,66.45,0,0,0-5.05-6.06l-.88-.95,1.14-.63a81.84,81.84,0,0,0,11.45-7.26,11.47,11.47,0,0,0,2.2-2.21,5.94,5.94,0,0,0,.71-2.8,28.48,28.48,0,0,0-.76-6.58c-.92-4.44-2.18-8.89-2.89-13.51a33.91,33.91,0,0,1-.45-7.07,19.19,19.19,0,0,1,.52-3.59,13.83,13.83,0,0,1,.56-1.76A13.67,13.67,0,0,1,219.58,464.44Z"/><path class="cls-2" d="M286,542.07c3.14.58,12,4.45,13.52,7.5l-10.09-3.41Z"/><path class="cls-3" d="M270.33,537.14s17.7.58,21.07,11.84l-14.83-3.43Z"/><path class="cls-4" d="M236.37,532.83a75.21,75.21,0,0,1,23.08-.51c11.81,1.78,16.61,13.83,16.61,13.83s-18.82-2.5-22.52-6.45"/><path class="cls-3" d="M212.28,199.08s-21.93,10-26.93,24c0,0,23-10.16,23.51-5.58l-.51,4.58s-16,4-24,18c0,0,21.58-9.64,20.79-1.82l-.79,6.82a33.28,33.28,0,0,0-14,13s10.61-2.49,11.31-.75S212.28,199.08,212.28,199.08Z"/><path class="cls-9" d="M306.35,57.07s34-37-9-53-57,27-57,27c-31-30-58,17-58,17-20,10-36,32-14,52s33-9,33-9l17,35s31.8-19,44-23c12.52-4.06,51.57-7.63,51.57-7.63l-7.57-38.37s-7,10-26,6"/><path class="cls-10" d="M313.35,93.07l4.94,20.53c-68.05-.47-95.05,36.61-95.05,36.61l-4.89-24.14S239.35,101.07,313.35,93.07Z"/><path class="cls-11" d="M275.35,61.07s17.5,6.5,27.5-1.5c9-7,7.5-12.5,7.5-12.5Z"/><path class="cls-11" d="M200.88,90.58a48.08,48.08,0,0,1-6,9.88,16.92,16.92,0,0,1-9.63,6,15.06,15.06,0,0,1-8.37-1.11,20,20,0,0,1-3.78-2.11c-.88-.61-2.8-1.71-3.17-2.7,2.06-.51,4.45-.36,6.57-.63a43.52,43.52,0,0,0,6.4-1.22C189.25,96.94,194.9,93.36,200.88,90.58Z"/><path class="cls-11" d="M282,63.86c6.06,1.3,12.07,3,18.09,4.51l4.43,1.11,2.17.54a12.36,12.36,0,0,1,2.18.55l-2.4-13a11.94,11.94,0,0,1-4.59,4,27.06,27.06,0,0,1-6,2.29,22.46,22.46,0,0,1-6.89.51C286.65,64.24,284.28,64.09,282,63.86Z"/><path class="cls-12" d="M284.72,161.71s-3.37-16.64,2.63-17.64c7-1.16,4.82,15.6,4.82,15.6Z"/><path class="cls-12" d="M315.78,155.75s-.43-13.68,4.57-12.68c4,.81,3,11,3,11l-7.18,1.68"/><path class="cls-8" d="M311.35,416.07c16-5,13-36,13-36-19,9-41,2-41,2s-4,33,18,35Z"/><path class="cls-13" d="M324.55,384.06c-.05-2.45-.2-4-.2-4-1.22.58-2.45,1.09-3.69,1.54"/><path class="cls-14" d="M314.14,383.47a65.18,65.18,0,0,1-23.59.22"/><path class="cls-13" d="M287.22,383.05c-2.44-.53-3.87-1-3.87-1s-.19,1.54-.26,4"/><path class="cls-15" d="M283.36,394c1,9.68,4.85,21.92,18,23.12l10-1c10.77-3.37,12.93-18.52,13.19-28.06"/><path class="cls-8" d="M348.63,373.74c-1.73,3.67-9.28,4.33-9.28,4.33s-4,25.7,3,25C352.35,402.07,348.63,373.74,348.63,373.74Z"/><path class="cls-13" d="M349,377.72c-.19-2.41-.39-4-.39-4a6,6,0,0,1-2.92,2.63"/><path class="cls-13" d="M343.27,377.3a22.37,22.37,0,0,1-3.92.77s-.25,1.59-.52,4"/><path class="cls-16" d="M338.26,389.31c-.28,6.81.29,14.14,4.09,13.76,6.6-.66,7.22-13.24,6.88-21.7"/><path class="cls-5" d="M265.25,136a63.55,63.55,0,0,1,6.12-7.21,27,27,0,0,1,7.68-5.72,10.43,10.43,0,0,1,2.41-.7c.79-.13,1.59-.22,2.39-.31a33.7,33.7,0,0,1,4.82-.09,54.63,54.63,0,0,1,9.45,1.53l-.54,2.15a52.71,52.71,0,0,0-9-2,32,32,0,0,0-4.59-.14c-.77,0-1.54.09-2.3.17a8.9,8.9,0,0,0-2.14.51,25.92,25.92,0,0,0-7.62,5.1,64,64,0,0,0-6.44,6.82Z"/><path class="cls-5" d="M308.35,122.64a17.51,17.51,0,0,1,5.13-1.45,11.61,11.61,0,0,1,5.29.48,9.84,9.84,0,0,1,2.34,1.24l2.09,1.41,2.07,1.43a5.23,5.23,0,0,0,2.08,1.09v.45a2.78,2.78,0,0,1-1.31-.37c-.39-.19-.76-.4-1.12-.61l-2.17-1.26-2.19-1.23a8.36,8.36,0,0,0-2.17-.93,10.14,10.14,0,0,0-4.65,0,16,16,0,0,0-4.39,1.64Z"/><path class="cls-17" d="M323.85,379.57c-14,8-37,4-41,1.58"/><path class="cls-17" d="M338.85,377.57c2.84,0,7,0,10-5.43"/></g></g></svg>