<svg xmlns="http://www.w3.org/2000/svg" viewBox="0 0 82.69 72.33"><defs><style>.cls-1{fill:#27a041;stroke:#000;stroke-miterlimit:10;}</style></defs><title>sprite_BakerFrontArm</title><g id="Layer_2" data-name="Layer 2"><g id="Layer_7" data-name="Layer 7"><path class="cls-1" d="M19.21,36.58C27.8,47.7,41.6,54.64,48.6,55.73,64.16,58.16,67.5,69.8,67.5,69.8l1-8,6.84,6L72.81,59l6.91,4-9.51-9.7S65,50.88,59.84,51.69,41.28,37.92,34.34,31.07c-1.71-1.69-7.73-8.66-13.83-4.85C15.32,29.45,17.58,34.47,19.21,36.58Z"/><path class="cls-1" d="M2.05,14.87C.16,10.64-.14,7.07,1.92,4.79A12.09,12.09,0,0,1,14.66,1a16.17,16.17,0,0,1,11.4,10.76l4.73,16s-3.16,7.38-8.55,6.54C17.05,33.49,15.71,31.15,11,27,6,22.62,2.05,14.87,2.05,14.87Z"/></g></g></svg>