<svg xmlns="http://www.w3.org/2000/svg" viewBox="0 0 103.36 34.31"><defs><style>.cls-1{fill:#27a041;stroke:#000;stroke-miterlimit:10;}</style></defs><title>sprite_BakerBackArm</title><g id="Layer_2" data-name="Layer 2"><g id="Layer_7" data-name="Layer 7"><path class="cls-1" d="M32.82,29.67c13.47,5,29.21,3.52,35.87.66,14.81-6.33,24,2,24,2l-3.55-7.5,9.17,1.47L91.43,20l8.19-.25L86.11,16.51s-5.81.71-9.87,4.22-23.56-1.86-33.3-4c-2.39-.54-11.39-3.32-14.62,3.29C25.58,25.6,30.26,28.73,32.82,29.67Z"/><path class="cls-1" d="M6.16,20.16C2.23,17.52,0,14.58.58,11.49a12.35,12.35,0,0,1,9-10.21A16.53,16.53,0,0,1,25.28,4.42L38.07,15.75s1.27,8.11-3.86,10.31c-4.94,2.11-7.37.8-13.69-.22C13.77,24.76,6.16,20.16,6.16,20.16Z"/></g></g></svg>