<svg xmlns="http://www.w3.org/2000/svg" viewBox="0 0 33.8 27.63"><defs><style>.cls-1{fill:#603813;}.cls-2{fill:#8c6239;}</style></defs><title>Asset 3</title><g id="Layer_2" data-name="Layer 2"><g id="Layer_1-2" data-name="Layer 1"><path class="cls-1" d="M20.36,3.16s-.44-1.48-.63-.72c-.82,3.25-.07,4,.81,6.1a28.39,28.39,0,0,0,3.66,5.29c5.43,7.15,12.73,13.8,8.16,13.8H.64c-2.83,0,4.47-8.11,8.13-13,1.42-1.9,3.12-4.67,4.47-6.91C15.91,3.3,18,0,19.75,0c1.4,0,1.6,4.83,1.6,4.83Z"/><path class="cls-2" d="M20.1,2.37c-.48-.6-.6,0-.79.79-.78,3.15-.06,3.88.79,5.92a27.7,27.7,0,0,0,3.56,5.13c5.27,6.94,11.57,12.42,7.14,12.42-7.9,0-22.14.21-29.25.21-2.75,0,4.35-7.11,7.9-11.84,1.38-1.84,3-4.53,4.34-6.71C16.38,4,18.45.79,20.1.79c.79,0,.79,3.16.79,3.16Z"/><path class="cls-1" d="M3.59,21.91S13.8,18.63,17.8,18.63s-3-5-7-3C8.48,16.78,3.59,21.91,3.59,21.91Z"/><path class="cls-1" d="M19.6,2.27s-2.8,1.36-1.8,3.36S20,8.56,19.6,7.94C18.8,6.63,19.6,2.27,19.6,2.27Z"/></g></g></svg>