<svg xmlns="http://www.w3.org/2000/svg" viewBox="0 0 54.48 54.54"><defs><style>.cls-1{fill:#42210b;}.cls-2{fill:#603813;}.cls-3{fill:#8c6239;}.cls-4{fill:#754c24;}.cls-5{fill:#5e3b1e;}.cls-6{fill:#a67c52;}</style></defs><title>Asset 2</title><g id="Layer_2" data-name="Layer 2"><g id="Layer_1-2" data-name="Layer 1"><polygon class="cls-1" points="19.93 3.99 0 27.94 10.63 43.9 47.83 54.54 54.48 26.61 49.16 2.66 30.56 0 19.93 3.99"/><polygon class="cls-2" points="19.87 4.88 0.48 28.15 10.82 43.66 47.02 54 53.48 26.85 48.31 3.58 30.21 1 19.87 4.88"/><path class="cls-3" d="M23.75,26.85H53.48L49.6,10.05Z"/><polygon class="cls-3" points="23.75 26.85 0.48 28.15 14.7 11.34 23.75 26.85"/><polyline class="cls-3" points="19.87 4.88 31.5 10.05 30.21 1 19.87 4.88"/><polygon class="cls-4" points="31.5 10.05 48.31 3.58 49.6 10.05 23.75 26.85 31.5 10.05"/><polygon class="cls-5" points="23.75 26.85 31.5 10.05 19.87 4.88 15.06 10.65 23.75 26.85"/><polygon class="cls-4" points="23.75 26.85 47.02 52.71 53.48 26.85 23.75 26.85"/><polygon class="cls-6" points="31.5 10.05 48.31 3.58 30.21 1 31.5 10.05"/></g></g></svg>