<svg xmlns="http://www.w3.org/2000/svg" viewBox="0 0 165.24 130.4"><defs><style>.cls-1{fill:#7ca5a3;}.cls-2{fill:#688785;}.cls-3,.cls-6,.cls-7{fill:#9ad7d7;}.cls-4,.cls-5{fill:#64c7c7;}.cls-5,.cls-6,.cls-7,.cls-8,.cls-9{stroke:#64c7c7;stroke-miterlimit:10;}.cls-7{stroke-width:0.25px;}.cls-8,.cls-9{fill:none;}.cls-8{stroke-width:0.5px;}.cls-10{fill:#f2f2f2;}.cls-11{fill:#142626;}.cls-12{fill:#a58355;}.cls-13{fill:#e6e6e6;}</style></defs><title>HazzardDino-001</title><g id="Layer_2" data-name="Layer 2"><g id="Layer_2-2" data-name="Layer 2"><path class="cls-1" d="M30.55,66.18c11.47,1.27,19.24-6.53,22.69-12,.75-1.18,1.92-3.75-.8-5.54s-5.85,2.54-5.85,2.54c-4.5,2.6-6.85,9.13-9.75,9.72,0,0-10.3,2.11-12,3.47a6,6,0,0,0-2.11,2.79S24.61,65,25,65.3l-2.18,2.46a9.92,9.92,0,0,1,2.7-1.56c.72-.15-1.09,1.23-1.09,1.23s2.7-.89,3.15-1A15.06,15.06,0,0,1,30.55,66.18Z"/><path class="cls-2" d="M53.05,125.56c-11.82-1.17-13.49.44-14.18,2.73Z"/><path class="cls-1" d="M61,78.54c-3,.83-7.16,5.77-8.16,10.62-1.2,5.77-1,11,2.78,15.88,11.93,15.4-2.94,21.5-7,21-8.27-.95-10.78,2.86-10.78,2.86l15.42.25s5.35-1.53,7.94-1.52a62.81,62.81,0,0,1,9.45,1.47s3.62.21,3-.78c-.8-1.38-5.74-4.48-4.56-8.19,2-6.35,7.49-11.73,5.46-13.54-5.71-5.08-6.4-7.18-3.68-11.38,1.41-2.19,3.34-3.54,4.79-6.27C80,80.89,74,77.12,70.7,76.21S63.74,77.79,61,78.54Z"/><path class="cls-3" d="M7.15,36.56C3,34.59-4.69,27,3.86,19.14c2.55-2.36,7.23-2.3,13.8-1.65S24.57,4.35,24.57,4.35,29.17-1.57,36.07.4C46.88,3.49,52,5.83,54.15,10.26,58.45,19,64.34,40.83,68.61,47.08,72.29,52.46,86.69,76,108.38,68.77s56.86-18.08,56.86-18.08S127.58,78.9,108.05,89.15c-20,10.51-24,18.07-45,9.2S31.14,59.89,29.17,50,12.9,39.68,7.15,36.56Z"/><path class="cls-4" d="M27.36,45.92s6.08-3.12,11,1.48S57.54,84.2,57.54,84.2s3.18,10.21,2.52,11.52-6.83-2.56-12.94-9.49-13-11.49-18.23-37.29A15.2,15.2,0,0,0,27.36,45.92Z"/><path class="cls-5" d="M55.79,126.29c-11.83-1-13.47.66-14.13,3Z"/><path class="cls-6" d="M63,79.15C60,80,56,85,55,89.89c-1.1,5.79-.83,11,3,15.84,12.18,15.21-2.59,21.54-6.64,21.14-8.29-.82-10.74,3-10.74,3H56.09s5.33-1.61,7.92-1.64a63,63,0,0,1,9.47,1.31s3.62.16,3-.82c-.82-1.37-5.81-4.4-4.69-8.12,1.93-6.38,7.3-11.84,5.24-13.62-5.79-5-6.51-7.09-3.86-11.33,1.38-2.2,3.28-3.59,4.68-6.34C82,81.19,76,77.52,72.66,76.67S65.72,78.35,63,79.15Z"/><path class="cls-7" d="M30.48,62.52c11,3.56,20.16-2.53,24.65-7.23,1-1,2.63-3.28.33-5.59S49.22,51,49.22,51c-4.93,1.64-8.55,7.56-11.51,7.56,0,0-10.51,0-12.49,1a5.92,5.92,0,0,0-2.63,2.3s2.31-1.65,2.63-1.32l-2.63,2a10.06,10.06,0,0,1,3-1c.74,0-1.31,1-1.31,1s2.82-.33,3.28-.33A15.08,15.08,0,0,1,30.48,62.52Z"/><path class="cls-8" d="M10.44,37.78s19.88,7.49,30.07.59c0,0,10-6.41,9.37-8.39"/><path class="cls-9" d="M4.68,30.48s-.33-.66,0-3a3.66,3.66,0,0,1,2-3,1.91,1.91,0,0,1,1.48,1.15"/><path class="cls-10" d="M21.44,18.32S25.39,6.81,27.69,7.47s3.29,6.57,2,9.2a26.13,26.13,0,0,1-3,4.6Z"/><path class="cls-9" d="M25.39,5.83a7.05,7.05,0,0,1,7.89,3.94c2.63,5.26,3.61,4.93,3.61,4.93"/><path class="cls-11" d="M22.3,18.79s2.48-7.57,4.4-6.72c3,1.32-1.44,8.39-1.44,8.39Z"/><path class="cls-9" d="M4.29,34.64c2.2,0,3-3.18,3-3.18l3,4.6,5.59-3.61,2.63,4.93,2.63-3.29,2,3.29,3.28-2.63L29,38l1.65-3,2.63,1.64s.65.33.65-1"/><path class="cls-12" d="M67.16,44.52s-1.34,9,0,10.94,7.45-.14,7.45-.14l-7.42-10.8"/><path class="cls-12" d="M93.43,77.48s-5.26,6.9-1.32,8.87S103,85.37,103,85s0-9.53-3.95-9.2-5.58,1.31-5.58,1.31"/><path class="cls-12" d="M36.89,41s2,4.61,5.59,3.95,5.59-3.29,5.59-3.95-4-3.28-4.28-3S36.89,41,36.89,41Z"/><path class="cls-12" d="M14.21,22.26c1.32,3,2.63,3.94,3.95,3.29s1.64-2.63.65-3-2.3-3-3.61-2S14.21,22.26,14.21,22.26Z"/><path class="cls-12" d="M45.11,9.11c1,2.3,3.94,5.26,4.93,3.62a3.06,3.06,0,0,0-4.93-3.62Z"/><path class="cls-12" d="M144.06,66s-1.66-3.66-5.93-1-3.83,7.78-3.83,7.78Z"/><path class="cls-12" d="M60.23,83.39c-.66,3,1.64,7.56,2.63,7.24S68.45,88,66.8,86s-2-3.28-3.61-3.28A7.37,7.37,0,0,0,60.23,83.39Z"/><path class="cls-12" d="M62.53,126.12c3.61.66,4.6.33,4.6-1.64s-1-4.93-3.61-3A3.42,3.42,0,0,0,62.53,126.12Z"/><path class="cls-13" d="M74.24,101.4c-1-1.43,5.38-4.86,7.35-4.53s5.92,2.63,5.59,3.29-4.6,2-4.6,2S75,102.49,74.24,101.4Z"/><path class="cls-13" d="M55.63,65c2.63,3.29,8.21,6.57,8.54,3.61s-3-8.54-5.58-6.57S55.63,65,55.63,65Z"/><path class="cls-13" d="M39.52,22.92c.66,3.61,3.95,5.58,4.27,2.3S41.49,18,39.85,19.3,39.52,22.92,39.52,22.92Z"/><path class="cls-13" d="M58.59,35.74c-.66,1-.66,3.61.32,3.61a5.19,5.19,0,0,0,3-2C61.87,37.05,58.59,35.74,58.59,35.74Z"/><path class="cls-13" d="M121.36,70.9c.66,2,4.61,2,4.61.66s-.33-3.61-1-3.28S121.36,70.9,121.36,70.9Z"/><path class="cls-13" d="M153.25,54.42s-1.65,3-3.29,3.34-3.67-1.16-3.67-1.16Z"/></g></g></svg>