<svg xmlns="http://www.w3.org/2000/svg" xmlns:xlink="http://www.w3.org/1999/xlink" viewBox="0 0 1432.66 340.46"><defs><style>.cls-1{fill:#7d695c;}.cls-2{fill:url(#radial-gradient);}.cls-3{fill:#fff;}</style><radialGradient id="radial-gradient" cx="716.33" cy="161.65" fx="832.5340403753427" fy="115.73425528743327" r="716.33" gradientTransform="translate(0 107.67) scale(1 0.33)" gradientUnits="userSpaceOnUse"><stop offset="0" stop-color="#fff"/><stop offset="0.26" stop-color="#fdfaf7"/><stop offset="0.66" stop-color="#f6ebe2"/><stop offset="1" stop-color="#efdbca"/></radialGradient></defs><title>Asset 1</title><g id="Layer_2" data-name="Layer 2"><g id="milk_puddle" data-name="milk puddle"><g id="puddle"><path id="border" class="cls-1" d="M1431.54,244.45c-17.31-52.33-181.33-85-216.39-131.62-24.71-32.89-124.21-11.4-164-24.88C983.69,65.07,952.84,0,697.65,0,547.94,0,421.1,81.1,389,91.06s-155.85,19.58-199.2,30.06C85.08,146.43,5.17,186.73.19,234.32c-7,66.48,175,106.42,369.76,88.34,59.07-5.48,100.93-31,263.58-31.73s341.75,59.14,459.73,48.19C1263,323.36,1448.85,296.78,1431.54,244.45Z"/><path id="puddle-2" data-name="puddle" class="cls-2" d="M1394.91,233.09c-16.42-49.65-155.68-74.53-188.94-118.78-23.44-31.2-122.88-10.82-160.6-23.6C981.32,69,940.73,3.19,698.61,3.19c-142.05,0-275,81-305.39,90.47S257.93,112.24,216.8,122.18c-99.4,24-175.21,53.1-179.93,98.24-6.61,63.08,166,100,350.81,82.81,56.05-5.2,95.77-29.37,250.09-30.11S962,329.24,1074,318.84C1235,303.89,1411.34,282.74,1394.91,233.09Z"/><g id="edge_highlight" data-name="edge highlight"><path class="cls-3" d="M51.16,221.49a26.65,26.65,0,0,0,4,9.66A37.9,37.9,0,0,0,62,239a73.91,73.91,0,0,0,17.64,11c12.66,5.85,26.2,9.64,39.84,12.63,27.37,5.86,55.35,8.71,83.35,10.2q21,1.16,42,1.31T287,273.7c14-.41,28-1,42.05-1.83s28-1.9,42-3.13q10.47-.93,20.94-2c3.45-.37,7-.73,10.36-1.15s6.73-.92,10.09-1.49c13.45-2.25,27-5.65,40.74-8.95s27.74-6.48,41.82-9,28.25-4.67,42.45-6.34S565.81,236.91,580,236s28.45-1.45,42.67-1.74c3.55-.1,7.1-.13,10.66-.17s7.1-.09,10.7-.07c7.18,0,14.34.14,21.5.41,14.3.51,28.57,1.48,42.77,2.77,28.41,2.64,56.58,6.64,84.56,11.16s55.77,9.75,83.5,14.79,55.38,10,83.06,13.84c13.84,1.91,27.69,3.53,41.53,4.56a382,382,0,0,0,41.38,1.15c6.87-.2,13.58-.77,20.71-1.38l21.09-1.72,42.19-3.39,42.15-3.44q21.08-1.73,42.12-3.65c28-2.51,56.08-5.37,83.91-9.38,13.92-2,27.79-4.33,41.45-7.57a178.72,178.72,0,0,0,20.2-5.85,83.78,83.78,0,0,0,9.63-4.17,36.87,36.87,0,0,0,8.67-5.94,37.42,37.42,0,0,1-8.24,6.68,84,84,0,0,1-9.46,4.92,179.74,179.74,0,0,1-20,7.36c-13.59,4.13-27.42,7.31-41.28,10.19s-27.84,5.24-41.8,7.51-28,4.31-42,6.26-28,3.7-42,5.45l-42.07,5-42.07,4.76-21,2.35c-3.54.38-6.94.79-10.62,1.14s-7.24.63-10.86.83c-29,1.61-57.62-.69-85.89-4s-56.25-8-84.11-12.72-55.57-9.7-83.32-14-55.48-8.23-83.27-10.79c-13.89-1.3-27.78-2.28-41.67-2.81-7-.29-13.89-.42-20.82-.46-3.45,0-7,0-10.45,0s-7,0-10.5.1c-28,.35-55.91,1.76-83.61,4.58q-20.76,2.15-41.33,5.59c-13.71,2.33-27.33,5.11-41.05,8.15s-27.66,6.27-42.09,8.38c-3.61.52-7.23,1-10.88,1.33s-7.13.63-10.7.92q-10.61.84-21.23,1.51-21.24,1.38-42.52,2c-14.18.41-28.37.6-42.56.47-28.38-.22-56.76-1.49-85-4.28-14.13-1.44-28.23-3.24-42.24-5.59a394.36,394.36,0,0,1-41.69-9c-6.86-1.92-13.65-4.07-20.33-6.57a153.12,153.12,0,0,1-19.54-8.75,76.37,76.37,0,0,1-17.35-12.56,39.24,39.24,0,0,1-6.51-8.51A27.11,27.11,0,0,1,51.16,221.49Z"/></g></g></g></g></svg>