<svg xmlns="http://www.w3.org/2000/svg" viewBox="0 0 568.99 445.69"><defs><style>.cls-1{fill:#62cbc9;}.cls-2{fill:#99d9d9;}.cls-3{fill:#fff;}.cls-4,.cls-5{fill:none;stroke:#000;stroke-linecap:round;stroke-miterlimit:10;}.cls-4{stroke-width:1.18px;}.cls-5{stroke-width:0.51px;}.cls-6{font-size:25px;font-family:MarketDeco, Market Deco;}.cls-7{letter-spacing:-0.05em;}.cls-8{opacity:0.5;}.cls-9{fill:#bc955c;}.cls-10{opacity:0.3;}</style></defs><title>Main Menu Screen</title><g id="Layer_2" data-name="Layer 2"><g id="Layer_1-2" data-name="Layer 1"><rect class="cls-1" x="84.27" y="195.87" width="484.72" height="130.01"/><rect class="cls-2" x="99.5" y="195.87" width="26.72" height="130.01"/><rect class="cls-2" x="152.94" y="195.87" width="26.72" height="130.01"/><rect class="cls-2" x="206.38" y="195.87" width="26.72" height="130.01"/><rect class="cls-2" x="259.82" y="195.87" width="26.72" height="130.01"/><rect class="cls-2" x="313.27" y="195.87" width="26.72" height="130.01"/><rect class="cls-2" x="366.71" y="195.87" width="26.72" height="130.01"/><rect class="cls-2" x="420.15" y="195.87" width="26.72" height="130.01"/><rect class="cls-2" x="473.59" y="195.87" width="26.72" height="130.01"/><rect class="cls-2" x="527.03" y="195.87" width="26.72" height="130.01"/><path class="cls-3" d="M498.31,260.87c-5.88,3.58-10,12.71-10,23.47a8.64,8.64,0,0,1-8.75,8.53H173.68a8.64,8.64,0,0,1-8.75-8.53c0-10.76-4.11-19.89-10-23.47,5.88-3.57,10-12.7,10-23.47a8.65,8.65,0,0,1,8.75-8.53H479.57a8.65,8.65,0,0,1,8.75,8.53C488.32,248.17,492.43,257.3,498.31,260.87Z"/><path class="cls-1" d="M479.57,234.42a3.08,3.08,0,0,1,3.17,3c0,9.22,2.66,17.71,7.33,23.47-4.67,5.76-7.33,14.25-7.33,23.47a3.08,3.08,0,0,1-3.17,3H173.68a3.07,3.07,0,0,1-3.16-3c0-9.22-2.67-17.71-7.34-23.47,4.67-5.76,7.34-14.25,7.34-23.47a3.07,3.07,0,0,1,3.16-3H479.57m0-1H173.68a4.07,4.07,0,0,0-4.15,4c0,9.34-2.87,18-7.64,23.47,4.77,5.49,7.64,14.13,7.64,23.47a4.07,4.07,0,0,0,4.15,4H479.57a4.07,4.07,0,0,0,4.16-4c0-9.34,2.86-18,7.63-23.47-4.77-5.48-7.63-14.13-7.63-23.47a4.07,4.07,0,0,0-4.16-4Z"/><line class="cls-4" x1="466.37" y1="350.43" x2="538.8" y2="422.86"/><line class="cls-4" x1="538.8" y1="350.43" x2="466.37" y2="422.86"/><line class="cls-4" x1="532.58" y1="386.65" x2="472.59" y2="386.65"/><line class="cls-4" x1="502.58" y1="335.43" x2="502.58" y2="437.87"/><line class="cls-4" x1="538.8" y1="386.65" x2="542.16" y2="386.65"/><line class="cls-4" x1="464.4" y1="386.65" x2="467.76" y2="386.65"/><path d="M502.53,329.88a1,1,0,0,0,0-2,1,1,0,0,0,0,2Z"/><path d="M503.12,445.69a1,1,0,0,0,0-2,1,1,0,0,0,0,2Z"/><line class="cls-5" x1="114.35" y1="332.31" x2="125.71" y2="375.56"/><line class="cls-5" x1="141.66" y1="348.25" x2="98.41" y2="359.62"/><line class="cls-5" x1="131.34" y1="360.54" x2="108.72" y2="347.33"/><line class="cls-5" x1="131.3" y1="334.63" x2="108.76" y2="373.24"/><line class="cls-5" x1="133.68" y1="361.91" x2="134.95" y2="362.65"/><line class="cls-5" x1="105.64" y1="345.53" x2="106.9" y2="346.27"/><path d="M132.73,332.58a.44.44,0,0,0,0-.88.44.44,0,0,0,0,.88Z"/><path d="M107.46,376.37a.44.44,0,0,0,0-.88.44.44,0,0,0,0,.88Z"/><line class="cls-5" x1="486.68" y1="144.13" x2="498.04" y2="187.38"/><line class="cls-5" x1="513.99" y1="160.07" x2="470.74" y2="171.43"/><line class="cls-5" x1="503.67" y1="172.35" x2="481.06" y2="159.15"/><line class="cls-5" x1="503.63" y1="146.44" x2="481.09" y2="185.06"/><line class="cls-5" x1="506.01" y1="173.72" x2="507.28" y2="174.46"/><line class="cls-5" x1="477.97" y1="157.35" x2="479.23" y2="158.09"/><path d="M505.06,144.4a.44.44,0,0,0,0-.88.44.44,0,0,0,0,.88Z"/><path d="M479.79,188.19a.44.44,0,0,0,0-.88.44.44,0,0,0,0,.88Z"/><text class="cls-6" transform="translate(198.38 269.99)">T-Rex <tspan class="cls-7" x="75.24" y="0">C</tspan><tspan x="89.56" y="0">ookie Rescue</tspan></text><path class="cls-3" d="M222,0a30.25,30.25,0,0,0-8.28,1.25A36,36,0,0,0,202.9,6.31a41.75,41.75,0,0,0-10.7,11.35,28.73,28.73,0,0,0-3,5.57,22,22,0,0,0-3.42,3.2c-6,7-7.56,15.89-4.36,25.17A17.89,17.89,0,0,0,187,59.51a22.8,22.8,0,0,0,7.3,4.11,20.09,20.09,0,0,0,11.77,4.3l0,.16a51.45,51.45,0,0,0-4.72,7.9c-.87,1.87-1.61,3.58-2.26,5.23a16.16,16.16,0,0,0-1.06,7.23l-2.38,6a20.82,20.82,0,0,0-2,.89A20,20,0,0,0,189,98.72c-.49-.38-1-.75-1.5-1.09A25.91,25.91,0,0,0,172.59,93h-24.3a37.17,37.17,0,0,0-16.53,3.82,26.6,26.6,0,0,0-26-21.36H0v45.94H18.14v16.86H10.8v32.37H73.46a36.81,36.81,0,0,0-1.79,11.58,35.44,35.44,0,0,0,35,35.39H107a29.84,29.84,0,0,0,14.86-3.82,29,29,0,0,0,10.57,3.53l.28,0,.24,0h.24l5.37.13h.25l.25,0,.3,0a28.51,28.51,0,0,0,12.86-4.31,28.81,28.81,0,0,0,11.62,4.16l.28,0,.24,0h.23l5,.12v.09h38.81a22.56,22.56,0,0,0,6.58-1,22.81,22.81,0,0,0,6.67,1,22.4,22.4,0,0,0,8.88-1.79,29.35,29.35,0,0,0,10.25,1.79,30,30,0,0,0,14.75-3.87,29.08,29.08,0,0,0,11.16-10.9,24.17,24.17,0,0,0,2.88-13.58l0-.38c1,.06,2,.09,3,.09h.88a48.19,48.19,0,0,0,11.23-1.57,61,61,0,0,0,13.47-5.28,61.73,61.73,0,0,0,10.6-7.16c.89-.76,1.71-1.49,2.38-2.11l2.61-2.43a14.94,14.94,0,0,0,2.24-2.55l.38-.36a3,3,0,0,1,.43,0c1.9,0,4.78,1.82,6.69,3.62a15.3,15.3,0,0,0,3.87,4l.63.45.51.37.61.21,3.66,1.26.6.22.62.23.66,0,.68,0c.32,0,.64,0,1,0a15.43,15.43,0,0,0,4.44-.65,19.12,19.12,0,0,0,3.1-1.1,40.45,40.45,0,0,0,12-8.24,63.57,63.57,0,0,0,11-14.64,67.48,67.48,0,0,0,5.12-12.14,64.4,64.4,0,0,0,3-13.46c0-.31.08-.59.13-.95l0-.18a37.51,37.51,0,0,0,.45-4.61c.09-3.13,0-6-.12-8.5a67.19,67.19,0,0,0-.74-8.21c-.12-.72-.25-1.43-.4-2.14-.43-2.11-1-4.27-1.71-6.61-.89-2.88-1.92-5.59-2.76-7.76l-.18-.46c-.27-.72-.64-1.67-1.07-2.69l-.1-.23c-.47-1.1-.95-2.1-1.43-3-1.48-2.83-3-5.47-4.49-8.15a66,66,0,0,0-7.73-10.73c-1.72-2-3.46-3.71-5-5.23l-1.1-1.09c-1.47-1.46-3.3-3.28-5.39-5a77.48,77.48,0,0,0-7.77-5.64,74.44,74.44,0,0,0-7.83-4.25C325.13,41,322.6,40,320,39c-1.27-.49-3-1.15-4.88-1.69-.75-.22-1.47-.4-2.15-.55a73.39,73.39,0,0,0-13.77-2l-1.56,0c-.92,0-1.89,0-2.95.08a17.1,17.1,0,0,0-10.26,4l-.17.15-.14.12-.14.14-.16.16c-.1.09-.23.23-.39.4-.07-.16-.15-.31-.22-.47a22.75,22.75,0,0,0-7-8.16,19.75,19.75,0,0,0-11.73-3.72,24.32,24.32,0,0,0-4.77.49,22.56,22.56,0,0,0-2.34-1.55A19.46,19.46,0,0,0,256.14,21a21.25,21.25,0,0,0-7.25-9.53,22.77,22.77,0,0,0-9.17-4.17A24.9,24.9,0,0,0,228.32.84,23.31,23.31,0,0,0,222,0Z"/><path d="M375.42,113.47a67.19,67.19,0,0,0-.74-8.21c-.12-.72-.25-1.43-.4-2.14-.43-2.11-1-4.27-1.71-6.61-.89-2.88-1.92-5.59-2.76-7.76l-.18-.46c-.27-.72-.64-1.67-1.07-2.69l-.1-.23c-.47-1.1-.95-2.1-1.43-3-1.48-2.83-3-5.47-4.49-8.15a66,66,0,0,0-7.73-10.73c-1.72-2-3.46-3.71-5-5.23l-1.1-1.09c-1.47-1.46-3.3-3.28-5.39-5a77.48,77.48,0,0,0-7.77-5.64,74.44,74.44,0,0,0-7.83-4.25C325.13,41,322.6,40,320,39c-1.27-.49-3-1.15-4.88-1.69-.75-.22-1.47-.4-2.15-.55a73.39,73.39,0,0,0-13.77-2l-1.56,0c-.92,0-1.89,0-2.95.08a17.08,17.08,0,0,0-10.26,4l-.17.15-.14.12-.14.14-.16.16c-.1.09-.23.23-.39.4-.07-.16-.15-.31-.22-.47a22.75,22.75,0,0,0-7-8.16,19.75,19.75,0,0,0-11.73-3.72,24.32,24.32,0,0,0-4.77.49,22.56,22.56,0,0,0-2.34-1.55A19.46,19.46,0,0,0,256.14,21a21.33,21.33,0,0,0-7.25-9.54,22.89,22.89,0,0,0-9.17-4.16A24.9,24.9,0,0,0,228.32.84,23.31,23.31,0,0,0,222,0a30.25,30.25,0,0,0-8.28,1.25A36,36,0,0,0,202.9,6.31a41.75,41.75,0,0,0-10.7,11.35,28.73,28.73,0,0,0-3,5.57,22,22,0,0,0-3.42,3.2c-6,7-7.56,15.89-4.36,25.17A17.89,17.89,0,0,0,187,59.51a22.8,22.8,0,0,0,7.3,4.11,20.09,20.09,0,0,0,11.77,4.3l0,.16a51.45,51.45,0,0,0-4.72,7.9c-.87,1.87-1.61,3.58-2.26,5.23a16.16,16.16,0,0,0-1.06,7.23l-2.38,6a20.82,20.82,0,0,0-2,.89A19.8,19.8,0,0,0,189,98.72c-.49-.38-1-.75-1.5-1.1A26,26,0,0,0,172.59,93h-24.3a37.17,37.17,0,0,0-16.53,3.82,26.6,26.6,0,0,0-26-21.36H0v45.94H18.14v16.86H10.8v32.37H73.46a36.81,36.81,0,0,0-1.79,11.58,35.44,35.44,0,0,0,35,35.39H107a29.84,29.84,0,0,0,14.86-3.82,29,29,0,0,0,10.57,3.53l.28,0,.24,0h.24l5.37.13h.25l.25,0,.3,0a28.51,28.51,0,0,0,12.86-4.31,28.81,28.81,0,0,0,11.62,4.16l.28,0,.24,0h.23l5,.12v.09h38.81a22.56,22.56,0,0,0,6.58-1,22.81,22.81,0,0,0,6.67,1,22.4,22.4,0,0,0,8.88-1.79,29.35,29.35,0,0,0,10.25,1.79,30,30,0,0,0,14.75-3.87,29.08,29.08,0,0,0,11.16-10.9,24.17,24.17,0,0,0,2.88-13.58l0-.38c1,.06,2,.09,3,.09h.88a48.19,48.19,0,0,0,11.23-1.57,61,61,0,0,0,13.47-5.28,61.73,61.73,0,0,0,10.6-7.16c.89-.76,1.71-1.49,2.38-2.11l2.61-2.43a14.94,14.94,0,0,0,2.24-2.55l.38-.36a3,3,0,0,1,.43,0c1.9,0,4.78,1.82,6.69,3.62a15.3,15.3,0,0,0,3.87,4l.62.45.52.37.61.21,3.66,1.26.6.22.62.23.66,0,.68,0c.32,0,.64,0,1,0a15.43,15.43,0,0,0,4.44-.65,19.12,19.12,0,0,0,3.1-1.1,40.45,40.45,0,0,0,12-8.24,63.57,63.57,0,0,0,11-14.64,67.48,67.48,0,0,0,5.12-12.14,64.4,64.4,0,0,0,3-13.46c0-.31.08-.59.13-.95l0-.18a37.51,37.51,0,0,0,.45-4.61C375.63,118.84,375.53,115.92,375.42,113.47Zm-4.29,8.37a33.22,33.22,0,0,1-.42,4.1c-.08.55-.14,1-.18,1.37a60.37,60.37,0,0,1-2.86,12.55,63.22,63.22,0,0,1-4.78,11.34,58.91,58.91,0,0,1-10.21,13.62,36,36,0,0,1-10.7,7.35,15.48,15.48,0,0,1-2.51.87,10.54,10.54,0,0,1-3.21.48c-.22,0-.43,0-.65,0l-.74,0-.65-.24-3.7-1.28-.63-.44a11,11,0,0,1-2.83-3l-.15-.24c-1.71-1.71-6.05-5.23-10.14-5.23a6.51,6.51,0,0,0-2.77.62l-1.42,1.3a10.69,10.69,0,0,1-1.85,2.2l-2.6,2.42c-.73.67-1.47,1.33-2.25,2a57.61,57.61,0,0,1-9.85,6.65,56.8,56.8,0,0,1-12.49,4.9,44.18,44.18,0,0,1-10.14,1.42h-.85a45.49,45.49,0,0,1-8-.69c.12.76.21,1.53.28,2.31l.33,3.54a20.09,20.09,0,0,1-2.31,10.91,24.66,24.66,0,0,1-9.5,9.26,25.57,25.57,0,0,1-12.59,3.32A24.67,24.67,0,0,1,230.4,211,18.31,18.31,0,0,1,215,212a18.13,18.13,0,0,1-11.28.64v.61H174v-.72a26,26,0,0,1-3.67.61l-.3,0-5.37-.13-.28,0a24.36,24.36,0,0,1-12.21-5.2A24.22,24.22,0,0,1,139,213.09l-.3,0-5.37-.13-.28,0a24.3,24.3,0,0,1-11.13-4.39q-.54.38-1.08.72A25.32,25.32,0,0,1,107,213.2h-.31a31.06,31.06,0,0,1-30.62-31,30.56,30.56,0,0,1,4.24-16H15.22V142.69h7.34V117H4.42V79.89H105.73A22.09,22.09,0,0,1,127.82,102a22.69,22.69,0,0,1-.16,2.75,32.16,32.16,0,0,1,20.91-7.31,38,38,0,0,1,4.32.25v-.25h19.71A21.6,21.6,0,0,1,185,101.27a27.18,27.18,0,0,1,4.46,3.82,16.46,16.46,0,0,1,6.24-5.82A15.82,15.82,0,0,1,199,98l3.56-9a11.79,11.79,0,0,1,.65-6.2c.62-1.57,1.33-3.2,2.16-5a53.24,53.24,0,0,1,5.33-8.63c-.18-1.22-.37-2.52-.5-3.85-.07-.64-.14-1.39-.18-2.23-.71.13-1.44.23-2.2.31-.43,0-.89.07-1.35.07a15.84,15.84,0,0,1-10.06-3.86,18,18,0,0,1-6.59-3.52,13.56,13.56,0,0,1-4.2-6C183,42.43,184.22,35,189.15,29.33a17.39,17.39,0,0,1,3.73-3.25,26.1,26.1,0,0,1,3-5.92,37.63,37.63,0,0,1,9.58-10.22,31.6,31.6,0,0,1,9.5-4.44A26.27,26.27,0,0,1,222,4.42a19,19,0,0,1,5.13.68,20,20,0,0,1,10.34,6.26,18.51,18.51,0,0,1,8.77,3.6A17.06,17.06,0,0,1,252,22.55a15.11,15.11,0,0,1,1,6.59,18.45,18.45,0,0,1,5.58,3.59l.74-.18a22.09,22.09,0,0,1,5.19-.68,15.39,15.39,0,0,1,9.15,2.89,18.23,18.23,0,0,1,5.64,6.55A18.54,18.54,0,0,1,281.14,48c.77.14,1.54.31,2.33.5A15,15,0,0,1,287,42.52l.16-.16.17-.14a12.68,12.68,0,0,1,7.61-3c.93,0,1.84-.07,2.75-.07l1.42,0a68.85,68.85,0,0,1,13,1.89c.62.13,1.25.29,1.86.47,1.71.49,3.27,1.09,4.51,1.57,2.53,1,4.94,1.92,7.39,3.09a70.53,70.53,0,0,1,7.37,4,71.94,71.94,0,0,1,7.32,5.31c1.93,1.59,3.68,3.33,5.08,4.74l1.11,1.1c1.56,1.54,3.18,3.13,4.77,5a61.52,61.52,0,0,1,7.23,10c1.49,2.63,2.95,5.22,4.41,8,.43.84.86,1.74,1.31,2.78l.07.17c.38.88.71,1.74,1,2.53l.18.47c.85,2.23,1.82,4.77,2.66,7.48C369,100,369.55,102,370,104c.13.66.25,1.31.36,2a62.54,62.54,0,0,1,.68,7.69C371.11,116.06,371.21,118.88,371.13,121.84Z"/><path d="M333,121.51a10,10,0,0,0-.6-2.72,9.06,9.06,0,0,0-1.31-2.33c-.19-.25-.41-.51-.63-.76A25,25,0,0,0,327.7,113a17.82,17.82,0,0,0-5.77-3.35,38.63,38.63,0,0,0-4.76-1.34c-1.15-.25-2.32-.46-3.53-.62l-.38,0c-1.21-.15-2.44-.26-3.67-.35l-.71,0-3.29-.18-.63,0c-.27,0-.54,0-.81,0-.49,0-1,.07-1.46.12l-1,.11a.37.37,0,0,0-.34.39,1.64,1.64,0,0,0,0,.22h0v0a.34.34,0,0,0,.09.19.23.23,0,0,0,.1,0,.17.17,0,0,0,.11.06l1,.14h.05c.77.11,1.55.22,2.33.29l2.18.19a38.27,38.27,0,0,1,7.7,1.43l.35.12a41.76,41.76,0,0,1,5.71,2.16,18.41,18.41,0,0,1,3.66,2.33c.58.48,1.16,1,1.71,1.51a10.28,10.28,0,0,1,2.92,4.43l0,.13a6.8,6.8,0,0,1-.27,4.5,3.5,3.5,0,0,1-.25.47,9.11,9.11,0,0,1-2.23,2.45,10.77,10.77,0,0,1-2.48,1.63,8.2,8.2,0,0,1-2.81.72c-.21,0-.42,0-.63.07l-.76.15-.38.08-.39.08a.51.51,0,0,0-.18.09.44.44,0,0,0-.1.16.34.34,0,0,0,0,.2.32.32,0,0,0,.09.17l.11.11.09.1.42.45a2.56,2.56,0,0,1,.8,2.13,2.93,2.93,0,0,1-1.49,2.07l-.14.07a5.27,5.27,0,0,1-3.81.7h0l-.15,0h-.15l-.09,0h0a.52.52,0,0,0-.13.06l-.05,0a.37.37,0,0,0-.06.51h0c.19.26.4.5.6.76a16.5,16.5,0,0,1,1.25,1.64,1.72,1.72,0,0,1,.25.55.32.32,0,0,1,0,.14h0c0,.09-.19.24-.71.42a10.43,10.43,0,0,1-3.86.46c-.53,0-1.06-.07-1.58-.13h-.07a43.77,43.77,0,0,1-4.56-.8l-.38-.1a37.24,37.24,0,0,1-4.2-1.23c-1.06-.38-2.11-.83-3.17-1.32-.46-.21-.92-.41-1.39-.65a7.37,7.37,0,0,1-.92-.57l-.21-.14c.55.13,1.12.24,1.69.33l.3,0c.52.09,1,.16,1.58.21l.21,0c.61.06,1.22.11,1.86.14h.33l1.49,0h.77l1,0,.85,0,1.69-.1h.26a1.59,1.59,0,0,0,.38-.07l.39-.11.18-.06.23-.07a.37.37,0,0,0,.27-.33h0a.37.37,0,0,0-.23-.36l-.65-.26-.5-.21-1-.42-1.17-.49-.26-.11-.22-.1c-1-.44-2-.89-3-1.41l-.07,0c-.88-.47-1.75-1-2.58-1.54l-.06,0-.55-.35c-.57-.35-1.14-.71-1.7-1.08a38.64,38.64,0,0,0,5.5.89h.09l.33,0,1.52.15.55.05h.12l.89.06.73,0h1c.12,0,1.42,0,2.9-.1h.09c1.65-.11,3.47-.35,4.09-.84l.1-.07a.42.42,0,0,0,.1-.2.39.39,0,0,0,0-.21.35.35,0,0,0-.35-.22h0c-2.05.08-3.93.08-5.71,0l-.64,0c-.65,0-1.28-.09-1.9-.15l-.67-.06c-.76-.09-1.52-.19-2.26-.31h-.09l.08-.13.3-.55c.25-.46.5-.9.74-1.35.63-1.14,1.24-2.25,1.84-3.36l.26-.48a25.28,25.28,0,0,0,1.43-2.85,3.45,3.45,0,0,0,.33-2.29.14.14,0,0,1,0-.06,2.4,2.4,0,0,0-.17-.4l-.07-.11a2.48,2.48,0,0,0-.19-.26l-.08-.08a1.39,1.39,0,0,0-.27-.21l-.06,0-.17-.1a.66.66,0,0,0-.15,0l-.14,0-.34,0h-.16a1.58,1.58,0,0,0-.37,0,1.74,1.74,0,0,0-.29.07l-.27.07a6.93,6.93,0,0,0-.64.28,12,12,0,0,0-3.82,3.72l-.21.27-.14.19c-1.43,1.86-2.77,3.83-4.06,5.74l-.32.48a.9.9,0,0,1-.19.23l0,0-.16.1h0a.64.64,0,0,1-.2,0,1.63,1.63,0,0,1-.34-.06l-.19-.06-.13,0-.25-.07a4.84,4.84,0,0,0-.51-.14c-.2,0-.41-.06-.61-.08l-.29,0-.38,0s0,0-.07,0a.33.33,0,0,0-.17,0,.42.42,0,0,0-.12.14s0,0,0,0v0l0,.07,0,.09a.34.34,0,0,0,0,.2.37.37,0,0,0,.08.18l.32.37.1.12c.18.21.38.42.57.62s.32.39.51.57a1.06,1.06,0,0,1,.18.21.47.47,0,0,1,0,.51,1,1,0,0,1-.08.14c-.3.45-.58.9-.88,1.35s-.55.84-.81,1.26l0,0a.85.85,0,0,1-.1.14.36.36,0,0,1-.41.07h0a8.14,8.14,0,0,0-.91-.18l-.22,0-.61-.09h0a.33.33,0,0,0-.33.17l0,0a.38.38,0,0,0,.06.43l.4.39.38.39s.05,0,.06.06l0,0,.34.39a1.08,1.08,0,0,1,.08.19l0,0c-.34.51-.69,1-1,1.52-.57.83-1.13,1.66-1.71,2.49l-.13.18-.43.63h0a.26.26,0,0,1-.1.09h0l0,0h0a.59.59,0,0,1-.22-.06l-1.22-.6h0l-.09,0-.86-.43-2-1c-1-.48-2-.94-3-1.38-3.31-1.45-5.89-2.49-8.35-3.38-.86-.32-1.75-.6-2.64-.86l-.4-.14-.85-.23-2.21-.63-.63-.17c-1.87-.52-3.58-1-5.17-1.35l-.37-.08-1.18-.28c-.71-.16-1.52-.33-2.4-.49s-1.82-.3-2.77-.4l-.41,0c-.78-.07-1.56-.13-2.36-.16-.3,0-.61,0-.91,0-.53,0-1.05,0-1.58,0h-.69a2.44,2.44,0,0,0-1.68.74,2.48,2.48,0,0,0-.19.26,2,2,0,0,0-.21.28h0a3.84,3.84,0,0,0-.14.36,2.34,2.34,0,0,0,.19,2.09c.18.3.4.63.63,1l.25.36.38.52c.15.19.29.36.44.53l.25.3a9.24,9.24,0,0,0,.76.77v0c.3.27.62.51.93.77.72.62,1.45,1.22,2.22,1.79s1.48,1.11,2.25,1.62c2.1,1.39,4.43,2.76,6.94,4.08s5,2.53,7.58,3.62c3.52,1.51,6.46,2.66,9.24,3.62a36,36,0,0,0,5.49,1.25l.22,0c.52.09,1,.15,1.55.19a16.81,16.81,0,0,0,1.87.05,15.66,15.66,0,0,0,2-.23c.42-.08.83-.16,1.23-.27a1.84,1.84,0,0,0,1.07-.74s.11-.09.13-.15a1.59,1.59,0,0,0,0-1.38,4.32,4.32,0,0,0-.4-.77,4.24,4.24,0,0,0-.31-.4c-.07-.09-.14-.19-.22-.28a30.86,30.86,0,0,0-7.5-5.6c-.36-.19-.69-.4-1.06-.58-1.61-.82-3.29-1.56-4.91-2.27l-1.62-.72-.12,0a25.92,25.92,0,0,0-5.58-1.67c-.65-.13-1.3-.26-2-.37l-.35,0h0l-.33,0h-.09a2.24,2.24,0,0,0-.57.08l-.1,0a1.65,1.65,0,0,0-.42.21h0a1.85,1.85,0,0,0-.28.28,1.66,1.66,0,0,0-.17.32l0,0a1.38,1.38,0,0,0-.09.43,2.16,2.16,0,0,0,1,1.63l.07.06.66.54c.91.75,1.85,1.53,2.84,2.2a45,45,0,0,0,4.07,2.41,28.5,28.5,0,0,0,8,2.84,6,6,0,0,0,.77.09h.75l.29,0,.44,0,.73-.11a1.29,1.29,0,0,0,.21-.06l.15,0h0a.8.8,0,0,0,.45-.49,1.06,1.06,0,0,0-.41-1.09l-.3-.25a4.54,4.54,0,0,0-.41-.33c-.14-.09-.27-.19-.41-.27-1.14-.57-2.35-1.18-3.58-1.75l-.57-.27c-.55-.25-1.12-.45-1.67-.64l-.23-.08-.56-.2h0a.36.36,0,0,0-.29,0,.38.38,0,0,0-.19.22l-.06.15a.42.42,0,0,0,0,.27.32.32,0,0,0,.18.2l.91.43.71.33a33.59,33.59,0,0,1,3.43,1.75l.12.08c.32.2.64.41.95.64-4-.37-13-4.95-15.21-7.67h.16l.39.1,1.12.27c.55.14,1.09.28,1.64.4s1.36.34,2,.54a38.63,38.63,0,0,1,5.2,2.15,36.63,36.63,0,0,1,8.31,5,21.21,21.21,0,0,1,1.78,1.77c.28.3.56.6.84.92a.33.33,0,0,1,.08.11l0,0a.1.1,0,0,1,0,0l-.1.06-.13,0h-.05l-.56.12c-.24.06-.48.09-.71.13l-.34.06h0a18.92,18.92,0,0,1-2.13,0h0c-.7,0-1.39-.12-2.05-.22h0c-.63-.09-1.22-.21-1.8-.34l-.32-.07-1.47-.36H279l-.08,0c-1-.26-1.93-.56-2.87-.89-.37-.12-.73-.27-1.1-.41-.58-.22-1.16-.43-1.72-.66s-1.4-.59-2.1-.9l-.62-.27c-.86-.38-1.72-.78-2.61-1.19l-.18-.09c-1.15-.53-2.3-1.1-3.43-1.67-.36-.19-.71-.38-1.08-.56l-2.3-1.2-1.29-.68a43.52,43.52,0,0,1-7.32-4.67c-.54-.44-1.07-.88-1.57-1.33a16.6,16.6,0,0,1-1.27-1.37l-.13-.15c-.44-.54-.86-1.1-1.27-1.65l-.06-.09a1.57,1.57,0,0,1-.14-.7v-.14H248a2.26,2.26,0,0,1,.65-.08L250,132c1.76.24,3.58.5,5.33.87,2.54.55,5.09,1.23,7.56,1.88l1.37.36a66.4,66.4,0,0,1,9.4,2.95c1.26.53,2.54,1,3.81,1.55,1.6.64,3.26,1.31,4.87,2l.33.16c1.09.49,2.16,1,3.27,1.62l1.78.93a.37.37,0,0,0,.48-.15l4.18-6.92.19.14c1.05.76,2,1.47,2.94,2.15a.27.27,0,0,1,0,.08c-.55,1.06-1.13,2.11-1.76,3.23s-1.12,2-1.72,3a1.08,1.08,0,0,0,.2,1.58l.24.19c.55.38,1.14.8,1.73,1.27a16.3,16.3,0,0,1,4.15,4.67c.05.08.11.16.16.25a2.44,2.44,0,0,1,.41,1.88,2,2,0,0,1-1.23,1,6.54,6.54,0,0,1-.75.24c-.45.12-.9.21-1.32.28a8.74,8.74,0,0,1-1.37.11,22.9,22.9,0,0,1-4.32-.5h-.06l-.2,0-.3-.06c-2.6-.48-5.19-1.14-7.16-1.66l-1.24-.36c-.65-.18-1.29-.36-1.94-.56l-2.16-.67-.92-.29-.42-.13-.4-.14-.52-.19-.91-.37-.77-.31-.18-.07-.5-.2-4.54-1.84L265.5,149l-1.07-.45h0a.34.34,0,0,0-.31.05s-.08,0-.11.08a.34.34,0,0,0-.06.24.31.31,0,0,0,.09.22,3.38,3.38,0,0,0,.35.31l.16.11a2.86,2.86,0,0,0,.42.24l.73.35c1.06.52,2.12,1,3.19,1.52l.84.4.39.17.46.22c.85.4,1.72.78,2.6,1.14.33.14.66.29,1,.41,2.6.93,5.17,1.76,7.63,2.48,1.69.49,3.57.93,5.73,1.35.83.16,1.67.29,2.51.41l1.3.19,1.92.28c.7.1,1.39.2,2.08.28a19.69,19.69,0,0,0,2,.12c.29,0,.58,0,.87-.06s.57,0,.83-.05a3.08,3.08,0,0,0,2.52-1.6,3.68,3.68,0,0,0,.28-3.39v0l-.09-.2c-.23-.47-.45-.95-.7-1.42l-.09-.16c-.12-.23-.26-.44-.4-.66l-.06-.1a7,7,0,0,0-.53-.69c-.68-.77-1.41-1.5-2.15-2.22l-1.23-1.19-.8-.76-.5-.48a3.13,3.13,0,0,0-.39-.31l-.23-.16a.38.38,0,0,1-.09-.08,1.3,1.3,0,0,1,.24-.44l.23-.38a1,1,0,0,0,.07-.18l0-.08,0,0,.57-1.07c.47-.88.95-1.76,1.44-2.62l0,0a.53.53,0,0,1,.23-.11,4.41,4.41,0,0,1,.79.28l.14.05.45.19.06,0,1.18.47a22,22,0,0,0,2.86,1,69.94,69.94,0,0,0,6.91,1.42c.66.09,1.27.15,1.86.19h.12a11.28,11.28,0,0,0,4.83-.72,3.22,3.22,0,0,0,2-1.79,2.47,2.47,0,0,0-.23-2.07c-.11-.21-.22-.41-.32-.62a12.41,12.41,0,0,0,1.55-.63,4.25,4.25,0,0,0,2.56-2.57,6.28,6.28,0,0,0,.16-2.48h0c.28-.07.56-.14.84-.24l.37-.12.83-.29c.62-.2,1.24-.42,1.84-.68a8.33,8.33,0,0,0,1.09-.51,12.88,12.88,0,0,0,3.71-3.1A9.39,9.39,0,0,0,333,121.51Zm-33,4.61c.25-.34.49-.69.75-1,1.05-1.37,2.15-2.69,3.23-3.95l.84-1,.14-.11a2,2,0,0,1,.31-.27c.16-.11.35-.21.53-.31l.22-.13a.34.34,0,0,1,.16,0h0a.39.39,0,0,1,0,.2v0l-.1.25c-.22.56-.46,1.12-.7,1.67-.16.36-.32.72-.5,1.06-.48.91-1,1.8-1.48,2.69l-.43.8c-.48.86-1,1.72-1.43,2.58l-.09.16s-.05.09-.07.14c-.26.44-.38.5-.89.44l-.31,0-.69-.1L298,129h0l.63-.94,1-1.49C299.77,126.39,299.87,126.26,300,126.12Zm-4.08,6.22c.45.31.88.65,1.32,1l.4.3.57.43.12.1a.43.43,0,0,1,.1.12l0,.09s0,0-.05.07a.84.84,0,0,0-.06.14,1.79,1.79,0,0,0-.12.24.94.94,0,0,1-.06.15l0,.06a1.26,1.26,0,0,1-.17.28.31.31,0,0,1-.12.11l-.05,0a.42.42,0,0,1-.2,0,1.34,1.34,0,0,1-.36-.06h0l-.54-.12c-.63-.16-1.27-.28-1.95-.39h-.08l-.53-.09.18-.28c.53-.79,1-1.51,1.51-2.2h0Zm4.49,3.47-.49,0c.05-.11.1-.21.14-.31a.63.63,0,0,1,.08-.18v0l0,0h0a.68.68,0,0,1,.28.12c.3.18.61.34.92.49Z"/><path d="M360.16,107.73a52.77,52.77,0,0,0-1.65-6.8c-.56-1.81-1.22-3.6-1.89-5.37-.17-.44-.34-.9-.51-1.35l-.22-.57c-.27-.71-.53-1.36-.79-2a2.29,2.29,0,0,0-.1-.23c-.32-.74-.64-1.45-1-2.13-1.39-2.67-2.85-5.26-4.23-7.68l0,0a50.57,50.57,0,0,0-6-8.27c-.67-.77-1.37-1.52-2.08-2.25-.33-.34-.67-.66-1-1l-1.14-1.14-.28-.27-.84-.84C337,66.41,335.58,65,334,63.7c-.57-.47-1.18-.92-1.77-1.37-1.43-1.1-2.91-2.16-4.46-3.14l-.37-.23c-1.34-.83-2.83-1.65-4.56-2.51l-1.33-.65c-1.09-.52-2.19-1-3.3-1.45h0c-1.07-.44-2.14-.86-3.23-1.28-.73-.28-1.51-.58-2.31-.86l-.08,0-.11,0c-.67-.22-1.35-.42-2-.59l-.39-.1A71.79,71.79,0,0,0,301.94,50l-.18,0c-.9-.09-1.8-.16-2.7-.19h0c-.5,0-1,0-1.58,0s-1.17,0-1.75.05a2.06,2.06,0,0,0-.56.11,1.74,1.74,0,0,0-1.3,1.31,1.09,1.09,0,0,0,0,.36,1.83,1.83,0,0,0,.85,1.24l0,0,.87.7c.73.59,1.49,1.2,2.2,1.83,1.09,1,2.16,2,3.23,3l1.39,1.28.37.35.36.33a32.27,32.27,0,0,1,4.95,5.35c1.28,1.86,2.76,4.05,4,6.31.36.63.66,1.27,1,1.91a30,30,0,0,1,1.36,3.31,58,58,0,0,1,1.65,6.32c.05.21.09.42.14.63l.07.4c.36,1.81.73,3.66.92,5.5,0,.08,0,.15,0,.23.05.54.09,1.08.11,1.62a72.46,72.46,0,0,1-.4,8.47l-.08.86a30,30,0,0,1-.51,3.27c-.12.56-.23,1.12-.32,1.68-.06.33-.09.66-.12,1,0,.17,0,.33-.05.5a.39.39,0,0,0,.14.33.29.29,0,0,0,.16.07h0a.4.4,0,0,0,.19,0,1.21,1.21,0,0,0,.39-.22.7.7,0,0,0,.1-.16.76.76,0,0,0,.11-.16c.24-.74.47-1.49.71-2.23.43-1.34.85-2.67,1.3-4a21.61,21.61,0,0,0,.86-6.35c0-.56,0-1.13.07-1.69a39.79,39.79,0,0,0-.56-8.51A43.63,43.63,0,0,0,314.92,71a45.9,45.9,0,0,0-6.28-9,40.6,40.6,0,0,0-3.51-3.32l-.69-.61c-1.79-1.57-3.59-3.12-5.4-4.67l-1.38-1.18c-.26-.23-.53-.44-.83-.67h.57a53.85,53.85,0,0,1,10.42,1.6c.51.12,1,.24,1.53.39a75,75,0,0,1,12.54,5.21A43.81,43.81,0,0,1,330.06,64q1.11.88,2.22,1.86c1.42,1.27,2.76,2.67,4.08,4.06l.35.36,1,1c1.39,1.45,2.83,3,4.09,4.54a63.18,63.18,0,0,1,5.08,7.44c.42.71.83,1.43,1.25,2.18.31.56.6,1.13.89,1.7l.28.53c.32.64.63,1.28.93,1.91a2.59,2.59,0,0,1,.14.29c.41.86.79,1.7,1.16,2.52.24.55.49,1.09.71,1.61A83,83,0,0,1,356,105.21a45.06,45.06,0,0,1,1.22,10.1c0,.67,0,1.33,0,2,0,1.45-.08,2.89-.2,4.29-.14,1.69-.34,3.32-.55,4.82a43.69,43.69,0,0,1-1.52,6.55c-.26.87-.53,1.74-.82,2.64s-.68,2-1.09,3l-.09.23,0,.07c-.44,1.1-.93,2.22-1.48,3.4-1,2-1.89,3.84-2.82,5.46-.31.54-.62,1.06-.93,1.57-.48.77-1,1.53-1.56,2.27s-1.11,1.47-1.67,2.18l-.9,1.17c-.4.52-.82,1-1.25,1.48s-.8.82-1.21,1.22c-.1.1-.2.21-.31.31l-.18.16c-.93.87-1.89,1.68-2.84,2.46-.35.29-.68.59-1,.9l-.05,0h0l0,0-.49.45a.38.38,0,0,0-.08.46l.08.12.07.12h0s0,0,.05.05.05.06.09.07h0a.28.28,0,0,0,.13,0h0l.11,0,.38-.11a4.69,4.69,0,0,0,.85-.28c.52-.24,1-.5,1.52-.77a25.07,25.07,0,0,0,6.07-4.43,48.39,48.39,0,0,0,8.37-11.15,54.77,54.77,0,0,0,3-6.69c.05-.12.1-.23.14-.35q.44-1.2.81-2.4a51.34,51.34,0,0,0,2.43-10.35c.05-.66.15-1.31.25-2a27.35,27.35,0,0,0,.3-2.87c.08-2.66,0-5.29-.11-7.36A56.31,56.31,0,0,0,360.16,107.73Z"/><path d="M303.94,158.77h0l-.17-.17s-.07,0-.11,0a.33.33,0,0,0-.37,0l-.24.18-1,.73a24.93,24.93,0,0,1-2.61,1.83,78.32,78.32,0,0,1-7.12,3.75,41.22,41.22,0,0,1-7,2.34,48.73,48.73,0,0,1-6.68,1.14,42.83,42.83,0,0,1-4.77.19,36.58,36.58,0,0,1-4.6-.39c-.54-.08-1.06-.18-1.59-.29a28.65,28.65,0,0,1-14.44-7.43l-.46-.41c-.39-.38-.74-.78-1.1-1.16a31.22,31.22,0,0,1-2.48-3c-.16-.22-.29-.44-.43-.66a28.55,28.55,0,0,1-2.28-3.92c-.15-.33-.29-.66-.43-1a35.77,35.77,0,0,1-2.91-13.79v-3.17a.38.38,0,0,0-.32-.37.36.36,0,0,0-.25.05h0a.43.43,0,0,0-.15.2,34.26,34.26,0,0,0-1,11,36.45,36.45,0,0,0,2.14,9.7,32,32,0,0,0,4.12,7.64,29,29,0,0,0,6.78,6.62,28.09,28.09,0,0,0,5.86,3.16c.52.21,1.07.4,1.62.58l.65.23.37.11c.69.2,1.38.4,2.08.56l.65.13c.62.13,1.23.26,1.86.35s1.25.16,1.88.22c.23,0,.45.06.68.07.87.07,1.74.1,2.62.1h.67a32.78,32.78,0,0,0,7.67-1.09,45.38,45.38,0,0,0,10.15-4,46,46,0,0,0,8-5.41c1.11-.94,2.2-1.95,3.25-2.93.32-.31.65-.61,1-.91l.35-.33h0A.37.37,0,0,0,304,159a.38.38,0,0,0-.1-.27Z"/><path d="M310.63,94.94a5.62,5.62,0,0,0-.87-.89,1.21,1.21,0,0,0-.57-.21h0l-.26,0a1.55,1.55,0,0,0-.31.06h0a.46.46,0,0,0-.18.13s0,0-.06,0h0a1.28,1.28,0,0,0-.26.77v.06a6,6,0,0,0,.28,1.37,41.79,41.79,0,0,0,2.7,6.42c.57,1.1,1.18,2.2,1.85,3.26.19.3.41.59.62.88l.08.12.39.53a.37.37,0,0,0,.3.16h0a.53.53,0,0,0,.12,0h0l0,0,.18-.1,0,0h0a.38.38,0,0,0,.09-.12s.06,0,.07-.09a.29.29,0,0,0,0-.16.21.21,0,0,0,0-.11h0v0l-.09-.17a74.92,74.92,0,0,1-4.08-9.39l.12.06c.16.09.31.15.46.24.58.31,1.15.61,1.73.87l.06,0,.28.09a1.53,1.53,0,0,0,.3,0l.12,0h0a1.46,1.46,0,0,0,.22,0,1.13,1.13,0,0,0,.18,0,.77.77,0,0,0,.32-.18h0a1.2,1.2,0,0,0,.28-.65,2.45,2.45,0,0,0,0-.27s0-.07,0-.11,0-.27,0-.4a1.8,1.8,0,0,0-.25-.78s-.05-.11-.07-.17l0-.07a37.61,37.61,0,0,1-2.55-7.88c0-.18,0-.37-.06-.57l0,0,.1.08.66.54a12,12,0,0,0,1.66,1.24,2,2,0,0,0,.22.09l.2.08a2.25,2.25,0,0,0,.36.06l.13,0a1.71,1.71,0,0,0,.32,0h.18a2.72,2.72,0,0,0,.45-.1.52.52,0,0,0,.23-.18.55.55,0,0,0,.1-.22s0-.05,0-.08a4.31,4.31,0,0,0,.1-1V88a1.47,1.47,0,0,0-.15-.64,1.55,1.55,0,0,1-.08-.23c-.49-1.89-1-3.77-1.48-5.67l-.05-.21c-.24-.89-.47-1.77-.7-2.66l0,0a.35.35,0,0,0-.2-.21.65.65,0,0,0-.15,0,.38.38,0,0,0-.32.27s0,0,0,0a20.6,20.6,0,0,0,.7,7.37c.09.44.19.88.28,1.31a15.35,15.35,0,0,1-1.81-1.5,14.49,14.49,0,0,1-1.13-1.25.1.1,0,0,0,0,0,1.4,1.4,0,0,0-.86-.46,1,1,0,0,0-.39,0,1.36,1.36,0,0,0-.66,1.23A33.05,33.05,0,0,0,311.24,93c.25.75.53,1.5.84,2.24a.76.76,0,0,0,0,.11l.34.88h0a3.91,3.91,0,0,1-1.62-1Z"/><path d="M262.31,50.7a3.74,3.74,0,0,1,.18-.62,3.66,3.66,0,0,1,.22-.41l.06-.1.12-.15.07-.08.08-.06a.18.18,0,0,1,.09,0h0a.72.72,0,0,1,.33.06l.1,0a3.1,3.1,0,0,1,.57.38,1.66,1.66,0,0,1,.28.3,14.83,14.83,0,0,1,2.32,4.51h0a.35.35,0,0,0,.17.19h0l.11,0h.1s0,0,0,0,0,0,.07,0a.4.4,0,0,0,.15-.1s0,0,0,0a.36.36,0,0,0,.08-.2.33.33,0,0,0,0-.14c0-.13,0-.25,0-.38v-.06c-.05-.4-.1-.81-.18-1.2a8.37,8.37,0,0,0-2.84-4.95,2.67,2.67,0,0,0-.43-.25,1.59,1.59,0,0,0-1.83.12c-.05,0-.1.05-.14.09a6,6,0,0,0-.81,1,3.71,3.71,0,0,0-.35.64,10.36,10.36,0,0,0-.54,5.08v0l0,.23c.05.42.11.85.18,1.27a5.36,5.36,0,0,0,.79,2.13,2.43,2.43,0,0,0,.34.4.59.59,0,0,0,.11.08,2.39,2.39,0,0,0,.22.16l.14.06.16.07.14,0,.1,0h.14l.2,0a.68.68,0,0,0,.2-.07l.11,0a1.49,1.49,0,0,0,.24-.14l.1-.07a3.42,3.42,0,0,0,.33-.33h0a2.92,2.92,0,0,0,.43-.68,4.82,4.82,0,0,0,.28-2.78,5,5,0,0,0-.82-2,4.11,4.11,0,0,0-1.33-1.23l-.12-.06c-.1-.08-.1-.12,0-.3Zm-.49,3.36a3.91,3.91,0,0,1,.71,1.58,2.05,2.05,0,0,1-.09,1.17s-.06.06-.1.1l0,0-.1-.12A5,5,0,0,1,261.82,54.06Z"/><path d="M290.42,76.78a1.84,1.84,0,0,0,1.42-1c.06-.11.09-.22.14-.33a5.15,5.15,0,0,0,.18-4.37l0,0a1.33,1.33,0,0,0-.83-.8,1.25,1.25,0,0,0-1.11.23A3.58,3.58,0,0,0,289,71.83a9.46,9.46,0,0,0-.77,5.79,10.1,10.1,0,0,0,.52,1.64h0c.09.23.18.45.25.68,0,0,.07.07.1.1s.05.09.1.11a.42.42,0,0,0,.15,0h0a.31.31,0,0,0,.13,0l.18-.06a.38.38,0,0,0,.12-.1.24.24,0,0,0,.08-.06.39.39,0,0,0,0-.24l-.11-.76c-.11-.71-.21-1.43-.32-2.19A2.78,2.78,0,0,0,290.42,76.78Zm-.2-1.71a.46.46,0,0,1-.15.09,2,2,0,0,1-.21-.22l0,0h0c-.05-.07-.09-.11-.09-.12a18.9,18.9,0,0,1,.89-2.63l.08-.05a2.12,2.12,0,0,1,.11.21,2.09,2.09,0,0,1,.07.36l0,.21A.4.4,0,0,0,291,73c-.05.13-.09.27-.13.4a15.74,15.74,0,0,1-.54,1.55.38.38,0,0,1-.09.08Z"/><path d="M214.09,44.39a.41.41,0,0,0,.14.2l4,2.62a.2.2,0,0,0,.13,0,.49.49,0,0,0,.25-.08l0,0,.15-.12h0a.5.5,0,0,0,.05-.13s0-.05,0-.07a.29.29,0,0,0-.06-.22l-2.75-4.2-.13-.2,0,0a.37.37,0,0,0-.28-.13h0l-.08,0-.1,0a.53.53,0,0,0-.13.13l-1.18,1.89a.39.39,0,0,0,0,.28Z"/><path d="M214.37,49.15l.88,1,.89,1a.29.29,0,0,0,.26.12h0c.07,0,.18,0,.24-.11h0l.26-.27a.38.38,0,0,0,0-.48l-2.45-3.27-.91-1.21a.34.34,0,0,0-.29-.14h0a.4.4,0,0,0-.24.14l-.06.06c-.06.13-.11.25-.17.37l-.14.29c-.2.41-.37.77-.57,1.12-.85,1.45-2.25,2.1-4.1,2.64a3.43,3.43,0,0,1-.76.12,2.75,2.75,0,0,1-.75-.09h0a4.09,4.09,0,0,1-1.16-.53c-.15-.09-.3-.17-.45-.28a.74.74,0,0,1-.3-.42,1.9,1.9,0,0,1,0-.6,3.64,3.64,0,0,0,0-.66h0a.15.15,0,0,0,0-.07.35.35,0,0,0-.06-.14l0,0,0,0-.1-.09a.31.31,0,0,0-.18-.09.27.27,0,0,0-.2,0l-.2.07-.45.18-.14.06c-.09,0-.19.06-.28.09a2,2,0,0,1-.87.2l-.3,0A3.68,3.68,0,0,1,201,48l-.2,0a2.25,2.25,0,0,1-.42-.13l-.28-.11a4,4,0,0,1-.4-.22l-.22-.13A2.86,2.86,0,0,1,199,47a1.45,1.45,0,0,1-.17-.18,3.93,3.93,0,0,1-.31-.38c0-.06-.09-.12-.13-.19a3.64,3.64,0,0,1-.3-.59v0a10,10,0,0,1-.55-3.69,6.94,6.94,0,0,1,.66-2.89,5.85,5.85,0,0,1,1.8-2.14,10.17,10.17,0,0,1,1.94-1.13,7.67,7.67,0,0,1,1.21-.45A1.52,1.52,0,0,0,204.26,34a24.6,24.6,0,0,1,1.07-3.24,24.15,24.15,0,0,1,6-8,17,17,0,0,1,3.81-2.7A18.34,18.34,0,0,1,220,18.38a9.49,9.49,0,0,1,1.37-.17l.38,0c.25,0,.49,0,.74,0a7.32,7.32,0,0,1,3.8,1.29l.2.14c.23.18.45.37.67.58l.28.3a5.68,5.68,0,0,1,.5.6c.13.18.25.37.37.57s.21.33.31.51a11.63,11.63,0,0,1,.55,1.29c.12.38.21.78.31,1.19l.14.57a.45.45,0,0,0,.06.12.52.52,0,0,0,.11.1l.07,0h0a.32.32,0,0,0,.14,0,.51.51,0,0,0,.15-.07h0a6.27,6.27,0,0,1,.63-.42l.25-.16.13-.05a7.21,7.21,0,0,1,3.21-.7c.25,0,.48,0,.71.05s.21,0,.31,0a4.94,4.94,0,0,1,.78.19l.15,0a4.8,4.8,0,0,1,.65.3,1.63,1.63,0,0,1,.19.09,3.65,3.65,0,0,1,.45.32c.09.07.19.13.27.2s.2.21.3.32.2.21.29.32.14.25.21.37a3.07,3.07,0,0,1,.23.39,4.64,4.64,0,0,1,.26.77.32.32,0,0,1,0,.09,4.36,4.36,0,0,1,.13,1,4.81,4.81,0,0,1-1.15,2.86,3.35,3.35,0,0,1-2,1.43,1,1,0,0,0-.37.11,1.14,1.14,0,0,0-.63.91,2,2,0,0,1-.19.64,1.32,1.32,0,0,1-.9.74h0a.35.35,0,0,1-.11,0h0l-.06,0c-.25-.37-.46-.77-.67-1.16l-.32-.58-.72-1.24,0,0,0-.06-.26-.45h0a.32.32,0,0,0-.32-.17h0l-.05,0a.33.33,0,0,0-.17.07.33.33,0,0,0-.09.11l-.15.25c-1.43,2.63-3.12,4.15-5.23,4.68a7.11,7.11,0,0,1-1.62.22,9.63,9.63,0,0,1-1.06,0c-.12,0-.23,0-.36,0h0a.35.35,0,0,0-.35.22s0,0,0,0h0a.36.36,0,0,0,.2.44,10,10,0,0,1,2.93,2.19c.36.36.71.72,1.06,1.1l.87.92a.37.37,0,0,0,.46.06.37.37,0,0,0,.15-.44,1,1,0,0,0,0-.1c-.22-.6-.48-1.17-.73-1.73l-.21-.47c-.05-.13-.11-.27-.17-.4a.2.2,0,0,1,0-.11l.1,0,.08,0a5.35,5.35,0,0,1,.65.62l.09.1.14.15,1.73,1.81.07.07.14.15a.36.36,0,0,0,.49,0l0,0h0l.13-.1h0a.53.53,0,0,0,.06-.1.6.6,0,0,0,.06-.11.28.28,0,0,0,0-.2s0,0,0,0h0l-.49-1-1-1.84.06,0,.11.07c.25.29.48.59.71.88s.44.52.65.79l.63.8a2.47,2.47,0,0,0,.28.28l.08.08.11.1,0,0s0,0,.07,0a.35.35,0,0,0,.39,0,.37.37,0,0,0,.14-.44h0l-.26-.64c-.4-1-.8-1.91-1.22-2.74-.29-.56-.34-.66.07-.92l2.51,4h0l-.86.63-1.71,1.27c-.23.18-.47.34-.71.51a9.78,9.78,0,0,0-1.64,1.32.5.5,0,0,1-.08.07l-.08.09a43,43,0,0,0-4.1,5c-.31.47-.62.94-.89,1.44s-.49.94-.71,1.4a21.35,21.35,0,0,0-1.58,4.2,16.09,16.09,0,0,0-.31,1.63,27.8,27.8,0,0,0,.05,6.22c.16,1.6.42,3.21.67,4.77a54.37,54.37,0,0,1,.81,6.9c0,.86.08,1.72.13,2.58l.09,1.67c0,.07,0,.15,0,.22,0,.53,0,1.07,0,1.6,0,2.71,0,5.42,0,8.13v3.53c0,1,0,2-.09,3.1a30.65,30.65,0,0,1-.4,3.34c-.09.5-.18,1-.31,1.52-.37,1.5-.75,2.85-1.14,4.09-.11.37-.23.73-.35,1.08-.16.5-.35,1-.53,1.47-.39,1-.78,2.07-1.18,3l-.3.73c-.41,1-.85,2-1.29,3l-.86,2c-.51,1.19-1,2.4-1.44,3.62a46.53,46.53,0,0,0-1.65,7.08,23.64,23.64,0,0,0,.86,11.2q.3.95.69,1.89a33.87,33.87,0,0,0,3.88,6.74A25.72,25.72,0,0,0,223,152c.51.43,1,.86,1.63,1.3l.16.12h0c.2.15.38.28.54.42a1.7,1.7,0,0,1,.74,1.53.82.82,0,0,0,.06.27l0,.06a27.68,27.68,0,0,0,1.34,3.81c.08.18.14.36.23.53a14.27,14.27,0,0,0,.8,1.42q.22.36.48.72a10.06,10.06,0,0,0,1.75,2.05,15.4,15.4,0,0,0,3.6,2.27c.75.36,1.54.7,2.45,1a19.23,19.23,0,0,0,1.89.55l.15,0c.62.14,1.23.25,1.84.33l.18,0c.63.08,1.25.13,1.84.16h.15c.64,0,1.25,0,1.82,0h.08c1.08,0,2.13,0,3.15-.08h.13a4.07,4.07,0,0,0,.61-.08l.41-.1.43-.1a.34.34,0,0,0,.23-.15.36.36,0,0,0,.06-.25s0,0,0,0h0l0-.23a.36.36,0,0,0-.13-.22s-.08,0-.12-.05-.07,0-.11,0h-.35c-.23,0-.45,0-.68,0l-2.08-.19-2.07-.2-.44,0h0c-.84-.09-1.67-.2-2.49-.35a12,12,0,0,1-2.87-.89,26.41,26.41,0,0,1-3.84-2.19l-.72-.48a7.51,7.51,0,0,1-1.91-1.74,4.08,4.08,0,0,1-.25-.33c-.4-.64-.74-1.26-1.05-1.86a16.25,16.25,0,0,1-1.51-4.17.81.81,0,0,0-.21-.41h0a3.25,3.25,0,0,0-.35-.31h0l-.73-.55-.29-.23c-.34-.25-.67-.49-1-.75s-.32-.29-.48-.44a4.64,4.64,0,0,1-.4-.36c-1.58-1.67-3.19-3.52-4.94-5.64a10.57,10.57,0,0,1-2.1-4.29c-.06-.26-.13-.52-.19-.77l-.3-1.17c-.06-.2-.11-.41-.17-.62-.24-.9-.46-1.82-.61-2.73,0-.1,0-.2,0-.29-.05-.33-.09-.67-.11-1a40.46,40.46,0,0,1,.36-7.49c.58-4.92,2.45-9.44,4.32-13.64a70.5,70.5,0,0,0,3.42-9.14l.06-.22c.07-.25.13-.5.19-.75s.17-.64.25-1c0-.13,0-.27.08-.41.1-.44.2-.88.28-1.33h0c.12-.68.21-1.37.29-2.06.19-1.65.28-3.32.37-4.95l0-.44,0-.29a43.28,43.28,0,0,0,0-5.84c-.25-3.24-.6-6.37-1-9.31-.28-1.92-.69-3.86-1.09-5.72-.13-.61-.26-1.21-.38-1.81l-.15-.72c-.3-1.52-.62-3.09-1.05-4.61a15.48,15.48,0,0,1-.21-8.51,22.63,22.63,0,0,1,4.71-9.09,27,27,0,0,1,5.13-4.51,20,20,0,0,1,2.58-1.53,11.33,11.33,0,0,1,2.17-.74,6.71,6.71,0,0,1,.89-.19l.62-.07c1.49-.17,2.88-.27,4.18-.3l.71,0h.11a6.4,6.4,0,0,1,6,3.17l.32.52a9.81,9.81,0,0,0,.7,1,5.27,5.27,0,0,0,.84.86,6.16,6.16,0,0,0,3.32,1.33,6.85,6.85,0,0,0,2.47-.27,8.1,8.1,0,0,0,.79-.26c.85-.34,1.68-.7,2.51-1.05,1.13-.47,2.29-1,3.44-1.4a2.75,2.75,0,0,1,.41-.11l.18,0,.26,0h.17a3.31,3.31,0,0,1,.55.07h0a2.35,2.35,0,0,1,.56.2.31.31,0,0,1,.1.05,3.87,3.87,0,0,1,.43.27l.1.07a3.25,3.25,0,0,1,.41.42l0,0a5.75,5.75,0,0,1,1,3.68c0,1.5,0,3,0,4.49,0,1,0,1.92,0,2.89a4.27,4.27,0,0,0,.1.79c.05.25.13.69.05.79a.53.53,0,0,1-.2.13,3.41,3.41,0,0,1-.73.17,6.6,6.6,0,0,0-.67.14l-.8.24-.09,0a33.58,33.58,0,0,0-7.57,2.87,55.07,55.07,0,0,0-5.42,3.53,5.59,5.59,0,0,0-.83.78l-.09.12c-.22.25-.42.52-.62.78s-.39.52-.6.76h0s0,0,0,0a.34.34,0,0,0-.07.24s0,.05,0,.08a.39.39,0,0,0,.07.16l.16.14h0a.33.33,0,0,0,.39.05.21.21,0,0,0,.11,0h0l.29-.27s0,0,0,0l.2-.17.81-.72c.34-.31.69-.62,1.05-.92a15.69,15.69,0,0,1,1.32-1c.07,0,.14-.06.2-.1a11.72,11.72,0,0,1,1.85-.88c.41-.17.83-.34,1.24-.53a26.71,26.71,0,0,1,5.37-1.89l.5-.11c.5-.11,1-.22,1.53-.32l1.13-.19.51-.07.7-.09h0c.83-.1,1.72-.18,2.7-.26.37,0,.7,0,1.06,0l1.08-.05c.34,0,.66,0,1,0s.68,0,1,0a36.47,36.47,0,0,1,9.18,2.08l1.91.68a42.47,42.47,0,0,1,4.52,2,26.73,26.73,0,0,1,3.12,1.83l.2.14a26.58,26.58,0,0,1,5.87,5.19A21.61,21.61,0,0,1,304.37,80,32.46,32.46,0,0,1,306,90.74a.44.44,0,0,0,.08.25.34.34,0,0,0,.22.13.32.32,0,0,0,.33-.13s.08-.07.09-.11l.15-.43c0-.11.08-.21.11-.32a10.52,10.52,0,0,0,.53-1.76c.13-.76.21-1.55.28-2.31s.12-1.24.22-1.86a11.78,11.78,0,0,0-.52-5.34c0-.08-.07-.18-.1-.27a18.24,18.24,0,0,0-.64-1.71,26.69,26.69,0,0,0-1.23-2.45c-.15-.27-.34-.53-.51-.8a25,25,0,0,0-3.56-4.52c-.37-.37-.71-.74-1.09-1.09A24.06,24.06,0,0,0,298,66.28l0,0c-.6-.41-1.2-.83-1.76-1.28l0,0c-.16-.13-.34-.23-.5-.35a25.06,25.06,0,0,0-5.43-2.82l-1.67-.7A27.17,27.17,0,0,0,285.4,60l-1.47-.45c-.93-.3-1.84-.55-2.72-.77-.33-.08-.64-.13-1-.2-.55-.12-1.1-.23-1.63-.31-.36-.06-.71-.1-1.06-.14s-1-.11-1.5-.14c-.32,0-.64,0-.95,0l-.5,0c-.55,0-1.1,0-1.73.06a.65.65,0,0,1-.22,0s-.05,0-.07,0a.43.43,0,0,1-.16-.2l0,0A14.79,14.79,0,0,1,271,51a11.27,11.27,0,0,0-.91-4.94,7.45,7.45,0,0,0-2.31-2.65,4.46,4.46,0,0,0-.66-.4,4.71,4.71,0,0,0-1.47-.45h-.13c-.21,0-.43,0-.65,0h-.18a10.71,10.71,0,0,0-1.26.11l-.16,0c-.4.07-.8.15-1.19.24H262l-.92.24-1.37.34-1.64.41-.15,0-1.53.35a4.17,4.17,0,0,1-.75.08,2,2,0,0,1-1.71-1,9.08,9.08,0,0,0-.64-.89l-.3-.41a8.39,8.39,0,0,0-.65-.78,8.22,8.22,0,0,0-3.24-2.35,7.7,7.7,0,0,0-1-.35h0a14,14,0,0,0-1.78-.35l-.51-.06a16.54,16.54,0,0,0-1.85-.11h-.12l-.6,0-.65,0-.77.06-.67.07-.71.08-.84.12-.58.09-1.45.25h0l-.33.06-.33.06a.67.67,0,0,1-.81-.28l-.05-.07-.06-.1c-.08-.12-.17-.26-.28-.45a1.31,1.31,0,0,0-.16-.26c-.17-.17-.25-.31-.24-.4s.07-.19.41-.4a3.36,3.36,0,0,0,1.62-2.39.56.56,0,0,1,.17-.18l0,0a10.35,10.35,0,0,0,2.54-1.54,8.15,8.15,0,0,0,1.78-2.07,4.78,4.78,0,0,0,.53-4.34,6.55,6.55,0,0,0-.85-1.54,6.94,6.94,0,0,0-1.38-1.38,7.66,7.66,0,0,0-4.75-1.63h-.07a9,9,0,0,0-3.85.6l-.08-.24c-.14-.38-.27-.74-.37-1.09,0,0,0,0,0,0s-.06-.14-.08-.22c-1-3.62-4.1-4.88-6.35-5.5h-.08a8.24,8.24,0,0,0-.94-.19l-.31,0a8.46,8.46,0,0,0-.87-.05h-.2c-.36,0-.72,0-1.07.05h0a9,9,0,0,0-1,.15l-.18,0-.82.17-.17,0-.87.23a20.76,20.76,0,0,0-6.31,2.94,21.15,21.15,0,0,0-4.06,3.77,42.24,42.24,0,0,0-2.83,3.74,12.71,12.71,0,0,0-1.16,2.14,32.92,32.92,0,0,0-1.22,3.3c-.19.57-.38,1.14-.58,1.7a1,1,0,0,1-.43.64.76.76,0,0,1-.33.12,6.71,6.71,0,0,0-3.69,2.2.1.1,0,0,1,0,.05C195,39.15,194.52,42.55,196,46.7h0l0,.06a3.26,3.26,0,0,0,1,1.23,7.56,7.56,0,0,0,1.4.93,6.13,6.13,0,0,0,2.49.75,6.6,6.6,0,0,0,1.4-.06l.23,0,0,.08s0,0,0,0a3.57,3.57,0,0,0,1.79,2.4,4.78,4.78,0,0,0,2.69.79H207a14.26,14.26,0,0,0,2.82-.53l.06,0,.11,0a10.28,10.28,0,0,0,1.15-.47A8.19,8.19,0,0,0,214.37,49.15Z"/><path d="M300.61,101.17a1.29,1.29,0,0,0,.26-.29l.44-.62.14-.18c.16-.23.32-.46.49-.68a23.64,23.64,0,0,0,2.26-3.72c.13-.27.27-.54.38-.83l.12-.34a8.76,8.76,0,0,0,.49-5.38.37.37,0,0,0-.29-.25l-.07,0h0s-.05,0-.08,0-.11,0-.15.06a.37.37,0,0,0-.12.2,22.82,22.82,0,0,1-3.61,8.57v0h0a6.58,6.58,0,0,0,.14-1.4,32.17,32.17,0,0,0-.36-4.07,10,10,0,0,0-.78-2.27l-.14-.32a1.13,1.13,0,0,0-1-.52h0a.41.41,0,0,0-.18,0,1.22,1.22,0,0,0-.45.69s0,0,0,0h0l0,.09c0,.13-.07.25-.1.38a2.58,2.58,0,0,1-.12.42c-.17.45-.35.89-.53,1.33l-.15.4c-.33.81-.65,1.62-1,2.44a17,17,0,0,1-3.6,6,22.64,22.64,0,0,0-.89-7.47,1.66,1.66,0,0,0-.13-.32l-.09-.14a2.14,2.14,0,0,0-.13-.19,1.15,1.15,0,0,0-.64-.42c-.41-.07-.76.3-1.07.63h0l-.07.07a1,1,0,0,0-.22.53.66.66,0,0,1,0,.15c-.18.5-.36,1-.53,1.52s-.4,1.16-.62,1.74l0,.09c-.21.55-.43,1.1-.68,1.62a18.79,18.79,0,0,1-1,1.86c-.27.43-.56.86-.85,1.28s-.4.57-.6.84a21,21,0,0,1-1.72,2c-.11.12-.22.25-.34.37l0-.22c0-.27,0-.53-.08-.8s-.1-.76-.13-1.13a20.72,20.72,0,0,0-.82-4.61,20.5,20.5,0,0,0-.91-2.45s-.07-.14-.13-.23l-.06-.09a1.7,1.7,0,0,0-.1-.14,1,1,0,0,0-.23-.19l-.09,0a.76.76,0,0,0-.16-.06H280l-.1,0h-.09l-.16.06-.07,0a.71.71,0,0,0-.14.1l-.07,0-.07.07-.09.07a4.58,4.58,0,0,0-.35.42,3.18,3.18,0,0,0-.38.64s-.06.1-.08.15a31.66,31.66,0,0,1-5.54,9.6l-.51.57,0-.37a17.46,17.46,0,0,0-1.3-6.12c-.14-.32-.26-.65-.41-1-.35-.72-.77-1.4-1.17-2.07l-.21-.34a4,4,0,0,0-.39-.53l-.16-.2h0a.35.35,0,0,0-.25-.14h-.05a.33.33,0,0,0-.23.1l-.06,0-.17.15a2.38,2.38,0,0,0-.49.55l-.07.08c-.32.66-.62,1.32-.92,2l0,.08a31.39,31.39,0,0,1-2.68,5c-.2.28-.39.57-.61.85a13.05,13.05,0,0,0-.81,1.14l-.35.48h0c0,.07-.09.13-.13.19a25.25,25.25,0,0,0-2.54-9v0c-.09-.19-.19-.4-.31-.61a3.54,3.54,0,0,0-.44-.63,1.35,1.35,0,0,0-.21-.2l-.11-.06-.16-.1-.14,0a1,1,0,0,0-.16-.06l-.14,0h-.24l-.05,0c-.41.11-.65.7-.71,1-.13.69-.26,1.39-.38,2.09-.18,1-.36,2.06-.6,3.07a6.47,6.47,0,0,1-.84,2,10.94,10.94,0,0,1-.83,1.15l-.12-.17a3.39,3.39,0,0,0-.2-.28c-1-1.39-2.17-3-4.24-3.59-.4-.12-.8-.27-1.19-.41-1.24-.42-2.46-.9-3.65-1.39l-.19-.07A9.68,9.68,0,0,1,239,94.16c0-.1-.09-.17-.13-.27a2.67,2.67,0,0,1-.08-2.35.78.78,0,0,1,.36-.3.66.66,0,0,1,.23.24.34.34,0,0,1,.07.11,1.53,1.53,0,0,1,.06.25c0,.13,0,.28,0,.44a3.24,3.24,0,0,0,0,.43.42.42,0,0,0,.06.19.38.38,0,0,0,.16.12.85.85,0,0,0,.37.08h.11l.16,0,.07,0,0,0a.66.66,0,0,0,.22-.22l.07-.09a1.61,1.61,0,0,0,.16-.47s0,0,0,0A2.43,2.43,0,0,0,239.8,90a1.84,1.84,0,0,0-2.05.62s-.05,0-.07.06a.33.33,0,0,0,0,.06,3.42,3.42,0,0,0-.38,3.1,11.38,11.38,0,0,0,1.92,4,10.84,10.84,0,0,0,4.36,3.37c.9.39,1.84.75,2.74,1.1q1,.38,2,.78l.18.07.12.06a9.74,9.74,0,0,1,3.18,2.11,8.31,8.31,0,0,1,1,1.28,1.07,1.07,0,0,0,.71.53h.05s0,0,0,0a1.18,1.18,0,0,0,.62-.13,2.1,2.1,0,0,0,.3-.15l.06-.06a6.76,6.76,0,0,0,.64-.54l.12-.13a5.88,5.88,0,0,0,.53-.58l0-.06a8.29,8.29,0,0,0,.48-.68l0,0c.13-.21.26-.44.38-.67a.54.54,0,0,0,.05-.11l.24-.51.13-.33.12-.33c.07-.19.13-.37.18-.56a1.42,1.42,0,0,0,.07-.22c.08-.28.15-.56.21-.81v0c.05-.22.08-.45.12-.67s.11-.52.15-.77a16.45,16.45,0,0,1,.93,2.23,16.25,16.25,0,0,1,.64,2.56c.12.69.21,1.38.29,2.08s.17,1.29.27,1.93h0a1.47,1.47,0,0,0,.2.51.93.93,0,0,0,.13.15.88.88,0,0,0,.24.19s.07.08.12.1a1.23,1.23,0,0,0,1.17-.23l0,0a3.11,3.11,0,0,0,.58-.57c.23-.3.44-.6.66-.9s.27-.37.4-.55.33-.47.51-.7l.58-.77A21.81,21.81,0,0,0,267,102a9.41,9.41,0,0,0,.42-.91c.07-.17.16-.35.23-.52l.51-1.2.14-.3a15.6,15.6,0,0,1,1.34,3.1,19,19,0,0,1,.55,2.5c.05.34.11.68.15,1s.05.48.07.73a15.77,15.77,0,0,0,.27,2h0a2.05,2.05,0,0,0,.15.42.86.86,0,0,0,.07.1,1,1,0,0,0,.17.23l.1.09.19.13.14.06.07,0a1,1,0,0,0,.25,0h0s.09,0,.13,0a1.36,1.36,0,0,0,.44-.11A2,2,0,0,0,273,109c.17-.2.32-.4.48-.61s.31-.39.47-.57a27.92,27.92,0,0,0,4.8-7.14c.32-.73.65-1.46,1-2.21l.07-.16.08-.18c0,.1.06.2.08.3s.05.17.08.26.11.43.17.64a12.69,12.69,0,0,1,.36,1.57c.16,1,.28,2.07.39,3.08.09.8.18,1.59.29,2.39a1.83,1.83,0,0,0,.15.5l.05.11a1.47,1.47,0,0,0,.23.31l0,0a1.12,1.12,0,0,0,.29.19h0l.09,0a1,1,0,0,0,.24,0h0l.08,0a1,1,0,0,0,.3,0l.15-.05a1.93,1.93,0,0,0,.34-.19l.08,0a4.86,4.86,0,0,0,.41-.38,2.4,2.4,0,0,0,.24-.22l.66-.8.7-.84.76-.91a21.63,21.63,0,0,0,2.74-4.18l.13-.24c0-.08.07-.17.11-.25.2-.43.4-.87.57-1.31l.34-.88c.13-.32.25-.64.38-1l0-.11c.07,1.06.13,2.13.2,3.19l.12,2c0,.15,0,.3,0,.45a6.18,6.18,0,0,0,.09,1,1.26,1.26,0,0,0,.16.44.22.22,0,0,0,0,.08.9.9,0,0,0,.38.34s0,0,0,0a1.12,1.12,0,0,0,.27,0l.13,0,.15,0a1.9,1.9,0,0,0,.48-.23h0a11.56,11.56,0,0,0,1.69-1.48h0l.05-.06a21.16,21.16,0,0,0,3.39-5.63,22.36,22.36,0,0,0,.91-2.35c.07-.19.14-.37.2-.56a2,2,0,0,1,.08-.22l.12-.36c.1.71.2,1.37.23,2a21.17,21.17,0,0,1-.28,5.6,1.19,1.19,0,0,0,.29,1c.27.25.73.12,1.07,0A1.27,1.27,0,0,0,300.61,101.17Z"/><path d="M245.75,110.36l0,.09h0l0,.1a1.22,1.22,0,0,0,.1.24,12.92,12.92,0,0,0,1.72,2.19,16.46,16.46,0,0,0,1.93,1.7l.31.25h0a28.3,28.3,0,0,0,5.84,3.46c.41.18.83.33,1.26.47l.11,0h0c.68.22,1.37.4,2.06.57s1.43.32,2.13.47l.27.06a25.22,25.22,0,0,0,4.16.46c.35,0,.68,0,1.05,0h0a38.17,38.17,0,0,0,5-.36c2.17-.29,4.32-.71,6.43-1.19,1-.23,2-.46,3-.71l1.27-.31a26.69,26.69,0,0,0,9.24-4.14c.58-.42,1.14-.85,1.67-1.32a24.32,24.32,0,0,0,5.86-7.17l0-.06.16-.3a3.89,3.89,0,0,0,.63-2.45.37.37,0,0,0-.09-.2.47.47,0,0,0-.12-.07l-.07,0h0a.35.35,0,0,0-.35.15c-.16.25-.3.49-.44.72a10.18,10.18,0,0,1-.83,1.26.08.08,0,0,0,0,0,47.91,47.91,0,0,1-6.28,6.08c-.29.24-.61.46-.92.69a17.5,17.5,0,0,1-3.27,1.77c-.5.22-1,.43-1.6.64l-.09,0c-1.12.39-2.29.77-3.5,1.11l-.08,0c-1.24.35-2.52.67-3.83,1h0l-1,.2c-2.09.44-4.24.8-6.41,1.08l-.72.11c-.17,0-.34,0-.52,0a29.27,29.27,0,0,1-9.77-.61c-.34-.08-.69-.14-1-.24s-.51-.17-.77-.26-.75-.27-1.12-.43l-.39-.15-1.11-.46c-.32-.12-.63-.26-.95-.39a33.15,33.15,0,0,1-5.54-3c-.33-.21-.67-.43-1-.66l-1.27-.9-.12-.09-.33-.23a.42.42,0,0,0-.24-.07h0a.37.37,0,0,0-.22.1l-.16.17h0s0,0,0,.06a.2.2,0,0,0-.06.12A.28.28,0,0,0,245.75,110.36Z"/><path d="M213.39,86.72a1.43,1.43,0,0,0,.31,1.44,1.35,1.35,0,0,0,1.18,0l.21-.07a1.78,1.78,0,0,0,.62-.49l.14-.16a6.75,6.75,0,0,1,2.85-1.8,1.19,1.19,0,0,0-.08.16l0,.07-.26.51c-.17.36-.34.72-.52,1.05a33.45,33.45,0,0,0-2.08,4.83,44.23,44.23,0,0,0-1.48,5.57,1.64,1.64,0,0,0,.55,1.4h0a.55.55,0,0,0,.32.09h0a1.5,1.5,0,0,0,.71-.16l.1,0,.3-.19c.33-.27.64-.56,1-.85l.46-.41c.46-.42.91-.84,1.39-1.23a13.29,13.29,0,0,1,1.33-1l0,0-.21.64-.11.31c-.07.24-.15.48-.23.72-.31,1-.63,1.93-.93,2.9-.6,1.95-1,4.86-.62,5.69a.36.36,0,0,0,.33.21h0a.36.36,0,0,0,.32-.26l.26-.75c.19-.58.37-1.14.57-1.7l.89-2.46c.5-1.35,1-2.7,1.45-4,.15-.44.31-.87.46-1.31a.24.24,0,0,0,0-.07v0a3.32,3.32,0,0,0,.16-1,1.45,1.45,0,0,0-.23-.85h0a.72.72,0,0,0-.24-.19l-.11,0a1.17,1.17,0,0,0-.2-.06l-.15,0-.21,0h-1a1.13,1.13,0,0,0-.6.23l-.36.23c-.48.3-1,.59-1.42.91l-.67.5-.6.44-.09.06a33.67,33.67,0,0,1,2.46-6.66c.33-.68.68-1.34,1-2s.54-1,.8-1.54a3,3,0,0,0,.29-.81.29.29,0,0,0,0-.09.76.76,0,0,0,0-.15s0-.09,0-.13a1.31,1.31,0,0,0-.37-.87h0a1.1,1.1,0,0,0-.35-.24l-.09,0a1.09,1.09,0,0,0-.39-.08h-.1a1.86,1.86,0,0,0-.47.09h-.05a4.37,4.37,0,0,0-.45.19c-.78.38-1.58.74-2.43,1.12l0,0-.35.15A62.76,62.76,0,0,1,220,77.64l1.26-2.14c.34-.59.69-1.18,1-1.77h0a.37.37,0,0,0-.1-.48l-.26-.18h-.07a.35.35,0,0,0-.17,0,.37.37,0,0,0-.22.1l-.09.08-.17.17a4.55,4.55,0,0,0-.6.64l-.46.63-.35.5a44.43,44.43,0,0,0-4.53,7.18C214.56,83.9,213.94,85.34,213.39,86.72Z"/><path d="M240.08,56.84c.09-.33.19-.66.29-1,0-.12.06-.24.1-.37.1-.3.22-.6.33-.89s.1-.3.16-.44a1.74,1.74,0,0,1,.11-.18l.05-.05a.67.67,0,0,1,.15-.14l0,0a.75.75,0,0,1,.18-.08.59.59,0,0,1,.29,0,4.38,4.38,0,0,1,1.26.7,10.82,10.82,0,0,1,2.43,3.48c.32.66.62,1.34.9,2a8.88,8.88,0,0,1,.42,1.35l.06.23.12.43h0a.45.45,0,0,0,.14.19l.06,0a.37.37,0,0,0,.15,0h0s.05,0,.08,0l.06,0s.05,0,.07,0a.32.32,0,0,0,.12-.26.27.27,0,0,0,0-.13c0-.21,0-.41,0-.61s0-.45,0-.67,0-.36-.07-.54-.06-.49-.1-.72-.07-.32-.1-.47-.09-.49-.15-.73-.09-.29-.14-.44-.13-.46-.21-.69-.12-.3-.18-.45-.16-.41-.25-.61-.19-.35-.28-.52-.16-.33-.25-.48a10.71,10.71,0,0,0-.59-.9l0,0c-.22-.31-.46-.61-.71-.9a6.91,6.91,0,0,0-2.11-1.68l-.07,0a2.75,2.75,0,0,0-3.29,1.37c-1.51,2.3-1.61,4.88-1.58,7.53a24.13,24.13,0,0,0,.71,4.79,7.08,7.08,0,0,0,1.1,2.24,1.68,1.68,0,0,0,.24.29s0,0,0,0l.09.07a1.41,1.41,0,0,0,.92.34,1.83,1.83,0,0,0,.55-.1,2.34,2.34,0,0,0,.24-.09,4,4,0,0,0,.8-.51l.07,0,0,0a3.81,3.81,0,0,0,1.24-2.72,13.64,13.64,0,0,0-.05-2.38,6,6,0,0,0-1-2.85,6.21,6.21,0,0,0-2.29-2,.45.45,0,0,1-.09-.1s-.05-.07-.06-.07l0-.07Zm-.48,3.66c1.21,1.11,1.28,2.61,1.24,4.19a1.69,1.69,0,0,1-.36.75l-.06.1c-.84-1-1.09-3.42-.82-5.05h0Z"/><path d="M231.69,158.63q.15.3.33.6c1.31,2.1,4.21,4.1,7.29,5.25l.1,0,.58.19.46.15.26.07.72.19h.06a12.23,12.23,0,0,0,2.71.33,8.9,8.9,0,0,0,1.57-.14,7,7,0,0,0,1.43-.4.38.38,0,0,0,.22-.29.31.31,0,0,0,0-.19.33.33,0,0,0-.11-.15l-.67-.53-.46-.36c-.53-.4-1-.8-1.52-1.21-.31-.27-.63-.53-.92-.82a29.44,29.44,0,0,1-2.81-3.38l-.14-.18-.11-.15-.65-.93c-.56-.83-1.13-1.74-1.72-2.77,0-.08-.08-.16-.13-.24-.47-.84-.92-1.72-1.34-2.57l-.6-1.19s-.07-.06-.1-.09-.07-.08-.13-.1h0a.36.36,0,0,0-.29,0h0l-.24.14a.38.38,0,0,0-.09.12s0,0-.05.05a.53.53,0,0,0,0,.13s0,.06,0,.09c1,4.65,3.44,8.76,7.53,12.88a12.12,12.12,0,0,1-3.74-.9c-.49-.2-1-.43-1.5-.7a35.31,35.31,0,0,1-3.8-2.4l0,0-1.52-1a.36.36,0,0,0-.44,0h0a.37.37,0,0,0-.11.2A.36.36,0,0,0,231.69,158.63Z"/><path d="M275.42,85.3a.36.36,0,0,0,.29.13h0l.1,0s0,0,0,0a.26.26,0,0,0,.11-.1l0,0c0-.06.07-.1.07-.16a.33.33,0,0,0,0-.15c0-.19-.06-.35-.09-.52a2.23,2.23,0,0,1,0-.23,4,4,0,0,0-.26-.71,10.84,10.84,0,0,0-2.34-3.17,23.06,23.06,0,0,0-1.93-1.67l0,0c-.15-.11-.31-.23-.5-.35l-.11-.06a3.58,3.58,0,0,0-.52-.25l-.19-.07a2.77,2.77,0,0,0-.66-.15h-.09a2.41,2.41,0,0,0-.38,0h0a2.4,2.4,0,0,0-.46,0h0a3.35,3.35,0,0,0-.75.26l-.15.07-.06.05a1.55,1.55,0,0,0-.33.3,1.67,1.67,0,0,0-.28.53,1.82,1.82,0,0,0,.58,2.1l.37.32.66.53,0,0c.14.1.3.18.45.27a4.05,4.05,0,0,0,.35.21l.24.08a3.07,3.07,0,0,0,1.77.07h0a1.06,1.06,0,0,0,.68-1.3,19.54,19.54,0,0,1,2.33,2.68C274.71,84.4,275.05,84.86,275.42,85.3Zm-5.07-4a15.93,15.93,0,0,1-1.47-1.15,1.58,1.58,0,0,1-.1-.47v0h0a2.59,2.59,0,0,1,.4-.1.57.57,0,0,1,.13,0h0l.17,0a1.68,1.68,0,0,1,.9.83,1.07,1.07,0,0,1,.07.19,1.84,1.84,0,0,1,.13.89Z"/><path d="M114.71,199a13.27,13.27,0,0,1-7.56,2.1,9.09,9.09,0,0,1-8.76-9V172.32a9,9,0,0,1,9-9,19.07,19.07,0,0,1,5.68.86,18.61,18.61,0,0,1,5.13,2.54v6.82h1.46V161.73h-1.46V165a19.52,19.52,0,0,0-5.21-2.32,20.25,20.25,0,0,0-5.49-.76,20.94,20.94,0,0,0-14.16,5.54Q87,173,87,182.22a20.46,20.46,0,0,0,20.11,20.37,14.91,14.91,0,0,0,8.33-2.27,20.35,20.35,0,0,0,6.16-6.1l-1.24-.81A19.21,19.21,0,0,1,114.71,199Z"/><path d="M136.82,172.81a14.19,14.19,0,0,0-10.49,4.4,14.92,14.92,0,0,0,0,21,14.69,14.69,0,0,0,21,0,14.82,14.82,0,0,0,0-21A14.2,14.2,0,0,0,136.82,172.81Zm5.35,14.89v8a5.38,5.38,0,0,1-10.75,0V179.67a5.13,5.13,0,0,1,1.59-3.78,5.35,5.35,0,0,1,7.57,0,5.13,5.13,0,0,1,1.59,3.78Z"/><path d="M168.23,172.81a14.17,14.17,0,0,0-10.49,4.4,14.92,14.92,0,0,0,0,21,14.69,14.69,0,0,0,20.95,0,14.82,14.82,0,0,0,0-21A14.2,14.2,0,0,0,168.23,172.81Zm5.35,14.89v8a5.43,5.43,0,0,1-5.41,5.4,5.45,5.45,0,0,1-5.35-5.4V179.67a5.1,5.1,0,0,1,1.6-3.78,5.19,5.19,0,0,1,3.75-1.57,5.3,5.3,0,0,1,3.82,1.57,5.13,5.13,0,0,1,1.59,3.78Z"/><path d="M215.55,163.13a4.42,4.42,0,0,0-1.27,3.19,4.36,4.36,0,0,0,1.27,3.14,4.22,4.22,0,0,0,3.11,1.3,4.42,4.42,0,0,0,4.43-4.44,4.36,4.36,0,0,0-1.29-3.19,4.3,4.3,0,0,0-3.14-1.29A4.21,4.21,0,0,0,215.55,163.13Z"/><path d="M235.69,187.13h18.92a26.9,26.9,0,0,0-1.16-5.75,12.24,12.24,0,0,0-3.06-4.95,11.58,11.58,0,0,0-4-2.67,14.64,14.64,0,0,0-15.68,3.48,15.14,15.14,0,0,0-2.67,17.22V195a6.1,6.1,0,0,1-5.35,6.06V180.43a7.56,7.56,0,0,0-7.63-7.62h-2.7v1.51h2V195a8.06,8.06,0,0,0,.16,1.58,5.83,5.83,0,0,1-.91,1.94,6.13,6.13,0,0,1-2.92,2.21l-7.79-21.94,1.7-1.81c.56-.6,1.13-1.18,1.71-1.76a3.08,3.08,0,0,1,1-.67,2.79,2.79,0,0,1,1.16-.25,4,4,0,0,1,1.11.16,2.35,2.35,0,0,1,.94.6l1-1a4.85,4.85,0,0,0-1.43-.92,4.27,4.27,0,0,0-1.6-.32,4.78,4.78,0,0,0-1.78.35,4.19,4.19,0,0,0-1.51,1.06l-2.95,3.13-2.95,3.13-3,3.14-2.94,3.13V169.4a7.12,7.12,0,0,0-2.36-5.32,7.52,7.52,0,0,0-5.37-2.24H183v1.51h1.89v39.24h8.49V188.92L197,185c.76,2.09,1.5,4.16,2.24,6.21s1.47,4.11,2.19,6.16a7.53,7.53,0,0,0,2.89,3.82,7.55,7.55,0,0,0,7.14.83,7.31,7.31,0,0,0,2.51-1.67,7.55,7.55,0,0,0,1.32-1.74,7.5,7.5,0,0,0,1.28,1.74,7.26,7.26,0,0,0,5.35,2.21,7.38,7.38,0,0,0,5.38-2.21,7.28,7.28,0,0,0,2.08-3.77,16,16,0,0,0,1.32,1.58,13.81,13.81,0,0,0,10.35,4.4,15,15,0,0,0,7.44-2A14.1,14.1,0,0,0,254,195.3l-1.29-.76a12.71,12.71,0,0,1-4.92,4.81,13.54,13.54,0,0,1-6.71,1.78,5.43,5.43,0,0,1-5.4-5.4v-8.6Zm0-4.46v-3a5.12,5.12,0,0,1,1.59-3.78,5.42,5.42,0,0,1,7.63,0,5.12,5.12,0,0,1,1.59,3.78v6H235.69Z"/><polygon points="46.59 92.91 62.31 92.91 62.31 106.82 64.64 106.82 64.64 90.49 15.32 90.49 15.32 106.38 17.65 106.38 17.65 92.91 33.46 92.91 33.46 153.29 26.11 153.29 26.11 155.62 53.93 155.62 53.93 153.29 46.59 153.29 46.59 92.91"/><rect x="54.81" y="122.54" width="18.57" height="8.12"/><path d="M169.51,144l-2.07-1.21a20.12,20.12,0,0,1-7.86,7.69,21.64,21.64,0,0,1-10.71,2.85,8.71,8.71,0,0,1-8.64-8.64V130.92h30.23a42.77,42.77,0,0,0-1.85-9.2,19.53,19.53,0,0,0-4.88-7.91,18.66,18.66,0,0,0-6.35-4.27,23.41,23.41,0,0,0-25,5.57,23.42,23.42,0,0,0-6.78,16.76,23.17,23.17,0,0,0,5.74,15.54,9.35,9.35,0,0,1-1.64,2.6,10.56,10.56,0,0,1-2.55,2.07l-14-33.6a12,12,0,0,0-1.77-3.07,11,11,0,0,0-2.55-2.29,11.23,11.23,0,0,0,6.26-4.06,11.48,11.48,0,0,0-9-18.57H74.41v2.42h6.83v60.38H74.41v2.33h26.78v-2.33H94.37V113.47H96.7l14.42,34.64a11.62,11.62,0,0,0,4.67,5.61,12.34,12.34,0,0,0,13.08.05,11.25,11.25,0,0,0,4.14-4.54,22,22,0,0,0,15.86,6.39,24.06,24.06,0,0,0,11.87-3.15A22.58,22.58,0,0,0,169.51,144Zm-29.28-20.17V119a8.17,8.17,0,0,1,2.55-6A8.67,8.67,0,0,1,155,113a8.17,8.17,0,0,1,2.55,6v9.59H140.23ZM94.37,111.05V92.91H106a9.07,9.07,0,0,1,0,18.14Z"/><path d="M165,110.45h2.72l15.55,25.22c-.52.86-1.05,1.73-1.6,2.59s-1.08,1.7-1.6,2.5-1.05,1.73-1.59,2.6-1.08,1.73-1.6,2.59l-.35.52-.34.51a22.63,22.63,0,0,1-4,4.32,8.17,8.17,0,0,1-5.4,2v2.33a10.64,10.64,0,0,0,7.13-2.63,23.57,23.57,0,0,0,5-5.83c.52-.81,1-1.59,1.52-2.34s1-1.52,1.42-2.33l1.43-2.29,1.42-2.29q1.38,2.16,2.72,4.41t2.72,4.4l2.72,4.45c.89,1.47,1.8,3,2.72,4.45h13.91l-17.88-28.76,6.91-11.06a5.4,5.4,0,0,0,4.58,3.28h.43a6,6,0,0,0,3.89-1.42,5,5,0,0,0,1.72-4.1,5,5,0,0,0-1.72-4,5.73,5.73,0,0,0-3.8-1.47,5.08,5.08,0,0,0-2.64.56,6,6,0,0,0-2.2,2.12q-1.38,2.34-2.81,4.62T193,120l-1.42,2.29c-.5.78-1,1.54-1.43,2.29l-6-9.58a16.88,16.88,0,0,0-4.79-5,11.16,11.16,0,0,0-6.44-2h-8.72l.08,2.42Z"/><path d="M359.62,176.64a2.48,2.48,0,0,0-.52-.5,1.48,1.48,0,0,0,.94-.53,1.78,1.78,0,0,0,.33-1.12,2,2,0,0,0-.21-.94,1.26,1.26,0,0,0-.56-.56,3,3,0,0,0-1.13-.16H356.4v5.93h1v-2.48h.2a1.48,1.48,0,0,1,.5.07.7.7,0,0,1,.29.24,10.1,10.1,0,0,1,.52.88l.71,1.29h1.17l-.59-1.16A8.59,8.59,0,0,0,359.62,176.64Zm-1.51-1.3h-.73v-1.5h.77a4.11,4.11,0,0,1,.8,0,.54.54,0,0,1,.3.24.75.75,0,0,1,.12.45.82.82,0,0,1-.12.47.52.52,0,0,1-.29.24A3.59,3.59,0,0,1,358.11,175.34Z"/><path d="M358.23,170a5.75,5.75,0,1,0,5.75,5.75A5.76,5.76,0,0,0,358.23,170Zm0,10.32a4.57,4.57,0,1,1,4.57-4.57A4.57,4.57,0,0,1,358.23,180.36Z"/><g class="cls-8"><path class="cls-9" d="M256.36,177.3c-.23-.41-.46-.82-.72-1.21l-1.38-2.15,2.31,1.08,1.32.59-.34.81a1.14,1.14,0,0,1,.1.19l-.23.12-.1.24-.19-.08Z"/><path class="cls-9" d="M272.52,180h-.69l0-1.47h1.44l1.43-.06.09,1.47q-.75,0-1.5.06Zm-3.67-.16c-1-.09-2-.22-3-.38l.24-1.45q1.41.23,2.85.36Zm8.93-.2-.2-1.46c.94-.13,1.89-.3,2.83-.5l.31,1.44C279.74,179.32,278.76,179.49,277.78,179.63ZM263,178.85c-.81-.2-1.62-.43-2.41-.68l-.32-.1.33-1.45.43.14c.77.25,1.54.47,2.33.66Zm20.63-.47-.4-1.42c.92-.26,1.84-.56,2.75-.87l.48,1.39C285.5,177.8,284.55,178.1,283.6,178.38Zm5.6-2-.56-1.36c.89-.37,1.77-.76,2.63-1.18l.64,1.33C291,175.64,290.12,176,289.2,176.42Zm5.35-2.58-.72-1.29q1.28-.7,2.49-1.47l.78,1.25C296.27,172.85,295.42,173.35,294.55,173.84Zm5-3.15-.85-1.21c.79-.56,1.56-1.13,2.31-1.73l.92,1.15C301.18,169.52,300.39,170.11,299.57,170.69Zm35.45-2-2.47-.88a5.19,5.19,0,0,1-.46-.36l1-1.11.26.21,2.19.75Zm3.28,0-.37-1.43h0a9.21,9.21,0,0,0,1.55-.53l1-.48.65,1.32-1.07.5A10.66,10.66,0,0,1,338.3,168.63ZM304.21,167l-1-1.1,2.15-2,1,1.08-.11.1Zm39.57-.92-.77-1.25c.81-.51,1.61-1.05,2.36-1.61l.89,1.17C345.47,165,344.63,165.54,343.78,166.06Zm-13.58-.93a26.06,26.06,0,0,0-2.13-1.91l.93-1.14a27.49,27.49,0,0,1,2.24,2Zm-21.66-2.33-1.2-.85a5.64,5.64,0,0,0,.4-.67l.16-.21,1.5-1.38,1,1.09-1.4,1.29A6.81,6.81,0,0,1,308.54,162.8Zm40-.35-1-1.08.86-.82c.39-.4.79-.8,1.17-1.21l1.07,1c-.39.42-.8.83-1.2,1.24Zm-22.79-.91a26,26,0,0,0-2.47-1.4l.64-1.32a24.27,24.27,0,0,1,2.63,1.49Zm-13.19-2.23-.56-1.37a12.68,12.68,0,0,1,3-.8l.2,1.45A11.12,11.12,0,0,0,312.58,159.31Zm8.11-.2a14.47,14.47,0,0,0-2.72-.56l.14-1.47a16,16,0,0,1,3,.62Zm31.95-1-1.12-.95q.93-1.1,1.8-2.25l1.17.89C353.9,156.61,353.28,157.38,352.64,158.13Zm3.58-4.73-1.22-.82c.53-.8,1.05-1.61,1.54-2.44l1.27.76C357.3,151.75,356.77,152.58,356.22,153.4Zm3-5.09-1.31-.68c.45-.86.87-1.72,1.28-2.6l1.33.62C360.15,146.54,359.72,147.43,359.26,148.31Zm2.48-5.38-1.37-.55c.36-.9.7-1.8,1-2.71l1.39.48C362.45,141.08,362.11,142,361.74,142.93Zm1.93-5.59-1.4-.43c.27-.91.55-1.84.82-2.79l1.42.39C364.24,135.48,364,136.42,363.67,137.34Zm1.56-5.7-1.44-.32c.22-1,.39-1.92.52-2.83l1.46.22C365.63,129.65,365.46,130.61,365.23,131.64Zm.89-5.84-1.46-.21.08-.53c.1-.71.22-1.5.29-2.33l1.47.12c-.08.87-.2,1.68-.3,2.42Zm.47-5.93h-1.47v-.32c0-.89,0-1.75,0-2.59l1.48,0c0,.85,0,1.73,0,2.63ZM365,114.06v-.12c0-.86-.08-1.82-.15-2.8l1.47-.1c.07,1,.11,2,.15,2.87Zm-.42-5.79c-.06-.43-.12-.86-.19-1.29s-.18-1-.29-1.54l1.45-.3c.11.54.2,1.07.29,1.59s.14.91.2,1.35Zm-1.12-5.65c-.23-.9-.5-1.83-.78-2.79l1.41-.42c.29,1,.56,1.92.79,2.84Zm-1.69-5.54c-.33-.94-.66-1.85-1-2.73l1.38-.52c.34.89.68,1.82,1,2.77Zm-2-5.46c-.23-.61-.49-1.26-.78-1.93l-.32-.74,1.34-.6.33.75c.3.69.56,1.36.81,2Zm-2.38-5.25c-.46-.86-.92-1.72-1.39-2.56l1.3-.71c.47.85.93,1.71,1.39,2.58Zm-2.81-5.11-1.44-2.53,1.27-.75,1.46,2.55Zm-3-5c-.52-.78-1.08-1.56-1.68-2.35l1.18-.89c.61.82,1.19,1.62,1.72,2.42Zm-3.47-4.62c-.37-.45-.76-.9-1.16-1.37l-.73-.82,1.09-1,.75.85c.41.47.8.93,1.18,1.39Zm-3.89-4.29-1.64-1.63-.43-.42,1-1,.34.34c.63.63,1.19,1.17,1.74,1.73ZM340,63.27c-.66-.65-1.37-1.33-2.1-2l1-1.09c.75.67,1.47,1.36,2.15,2Zm-4.31-3.84c-.75-.6-1.52-1.18-2.3-1.75l.86-1.19c.8.58,1.59,1.17,2.36,1.79ZM331,56l-1.08-.7c-.44-.28-.9-.56-1.37-.83l.75-1.27c.48.28,1,.57,1.41.86l1.1.71Zm-5-2.93c-.81-.43-1.67-.86-2.59-1.3l.64-1.33c.93.45,1.81.89,2.63,1.32Zm-38.54-1v-.22a7.7,7.7,0,0,1,.62-3l1.36.56a6.33,6.33,0,0,0-.5,2.39V52Zm33.31-1.51c-.89-.38-1.79-.74-2.69-1.1l.54-1.37c.92.36,1.82.73,2.73,1.12Zm-5.41-2.15c-.84-.32-1.75-.65-2.72-.94l.43-1.41c1,.3,1.94.65,2.81,1Zm-24.53-1.26-1.14-.94c.27-.32.45-.5.45-.5a8.11,8.11,0,0,1,2.24-1.35l.54,1.37a6.66,6.66,0,0,0-1.78,1.06h0S291.07,47,290.89,47.19Zm19-.38c-.91-.2-1.87-.4-2.85-.58l.28-1.45c1,.19,2,.39,2.88.59Zm-5.7-1.07c-.94-.14-1.89-.26-2.86-.34l.13-1.47c1,.09,2,.21,2.94.35Zm-8.62-.47-.06-1.47c.71,0,1.42,0,2.13,0h.84l0,1.48h-.82C297,45.23,296.29,45.25,295.6,45.27Z"/><path class="cls-9" d="M292.94,58.05l-3.15-1.29c-.45-.19-.9-.36-1.34-.51l.25-.72c-.06-.08-.11-.16-.16-.24l.31-.18.08-.25.2.07.67-.41a5.68,5.68,0,0,0,.81,1Z"/><path class="cls-9" d="M286.29,55.57c-.41-.12-.83-.24-1.25-.38l-1-.3.43-1.41,1,.31,1.22.37Zm-4.37-1.27c-.75-.18-1.48-.34-2.21-.46l.26-1.45c.76.13,1.52.29,2.29.48Z"/><path class="cls-9" d="M277.48,53.51l-1.43-.12-.61,0-.07-.61c-.06-.51-.09-1-.1-1.53l1.47,0c0,.26,0,.53,0,.8l.86.08Z"/><path class="cls-9" d="M275.11,48.31a13.75,13.75,0,0,0-.59-2.75l1.4-.46a15.25,15.25,0,0,1,.65,3ZM273.34,43a12.33,12.33,0,0,0-1.76-2.16l1-1.05a13,13,0,0,1,2,2.43Zm-4-3.86a9.3,9.3,0,0,0-2.54-1l.33-1.44a11.08,11.08,0,0,1,2.95,1.17Zm-8.11-.88L261,36.86a17,17,0,0,1,3.07-.42l.05,1.48A15,15,0,0,0,261.27,38.3Z"/><path class="cls-9" d="M256.49,39.48l-.29-.39c-.29-.38-.58-.74-.89-1.08l1.09-1c.23.26.46.52.68.8l1-.25.35,1.43Z"/><path class="cls-9" d="M253.13,36.07a12.85,12.85,0,0,0-2.55-1.39l.55-1.36A13.79,13.79,0,0,1,254,34.87Z"/><path class="cls-9" d="M247.76,33.87c-.47-.09-.94-.16-1.41-.22l-1.07-.13.51-1a10.72,10.72,0,0,0,.57-1.25l1.38.52c-.07.16-.13.33-.21.5l.51.09Z"/><path class="cls-9" d="M248.44,28.63,247,28.54c0-.19,0-.38,0-.57a9,9,0,0,0-.29-2.25l1.43-.37a10.51,10.51,0,0,1,.33,2.62C248.46,28.19,248.46,28.41,248.44,28.63Zm-2.85-5.55a11,11,0,0,0-1.77-2.26l1-1.05a12.42,12.42,0,0,1,2,2.57Zm-4.06-4a12.82,12.82,0,0,0-2.64-1.21l.45-1.4a14,14,0,0,1,2.95,1.35Z"/><path class="cls-9" d="M236,17.29c-.33,0-.68,0-1,0h-.81l-.23-.38a11.36,11.36,0,0,0-.75-1.15l1.17-.89a9.12,9.12,0,0,1,.64.94c.37,0,.74,0,1.11,0Z"/><path class="cls-9" d="M199.54,25.79l-1.33-.64a18.73,18.73,0,0,1,1.39-2.41l.23-.32,1.21.83-.23.33A18.77,18.77,0,0,0,199.54,25.79Zm3.28-5-1.17-.91c.68-.87,1.33-1.65,2-2.38l1.08,1C204.1,19.23,203.46,20,202.82,20.82Zm4.06-4.37-1-1.11A24.73,24.73,0,0,1,208,13.69l.39-.27.81,1.23-.36.25A22.21,22.21,0,0,0,206.88,16.45Zm24.35-2.78a13.39,13.39,0,0,0-2.45-1.54l.65-1.32a15.48,15.48,0,0,1,2.72,1.71Zm-19.43-.52-.66-1.31A25.54,25.54,0,0,1,214,10.59l.51,1.38A25.53,25.53,0,0,0,211.8,13.15Zm5.58-2.05L217,9.67a23.57,23.57,0,0,1,3.11-.58l.16,1.46A20.33,20.33,0,0,0,217.38,11.1Zm8.66,0-.5-.15a12.33,12.33,0,0,0-2.34-.41L223.32,9a13.46,13.46,0,0,1,2.61.46l.54.15Z"/><path class="cls-9" d="M196.33,31l-.78-1.25c.35-.22.72-.42,1.09-.61.12-.36.24-.73.37-1.1l1.39.48-.46,1.38-.1.31-.29.13A11,11,0,0,0,196.33,31Z"/><path class="cls-9" d="M206.6,58.94l0-1.47c.22,0,.44,0,.64,0a20,20,0,0,0,2.26-.34l.3,1.44a22.67,22.67,0,0,1-2.41.37C207.13,58.92,206.87,58.94,206.6,58.94Zm-3.25-.52A11.51,11.51,0,0,1,200.43,57l.83-1.22A9.93,9.93,0,0,0,203.81,57Zm-5.15-3a12.68,12.68,0,0,1-3-1.15l.69-1.3a11.2,11.2,0,0,0,2.68,1Zm-5.69-3a9.37,9.37,0,0,1-2.06-2.58l1.3-.69a8,8,0,0,0,1.74,2.18Zm-3.13-5.64a19.72,19.72,0,0,1-.51-3.14l1.47-.11a17.85,17.85,0,0,0,.47,2.9Zm1-6.16-1.46-.19a15.68,15.68,0,0,1,.74-3.13l1.39.49A14.22,14.22,0,0,0,190.4,40.6Zm1.93-5.44-1.25-.77a16.11,16.11,0,0,1,1.53-2.08c.14-.16.28-.32.43-.47l1.06,1-.38.43A14.7,14.7,0,0,0,192.33,35.16Z"/><path class="cls-9" d="M216,59.41l-1.47-.07c0-.39,0-.79.08-1.18l-.9-1-.21.11-.31.13-.36.16-.59-1.35.62-.27.43-.23.64-.34.48.37,1.73,1.9,0,.33C216.1,58.46,216.06,58.94,216,59.41Z"/><path class="cls-9" d="M214.88,66l-.12-1.09c-.07-.67-.13-1.41-.17-2.21l1.47-.08c0,.77.1,1.49.16,2.15l.12,1Z"/><path class="cls-9" d="M216,72.19l-1.19-.86.6-.85.1-.12-.18-1.12L216.8,69l.29,1.78-.33.39s-.09.1-.13.16Z"/><path class="cls-9" d="M208,91.83l-1.37-.54.75-1.89-.06-.21,1.42-.39a2.78,2.78,0,0,0,.12.38l.09.26Zm.55-5.47-1.46-.18a6.61,6.61,0,0,1,.43-1.67c.14-.38.3-.75.45-1.14l1.36.57c-.15.37-.3.74-.44,1.11A5.15,5.15,0,0,0,208.51,86.36Zm1.87-4.92L209,80.83c.15-.35.32-.7.49-1.06s.47-1,.72-1.46l1.31.69c-.25.46-.48.92-.7,1.39Zm2.54-4.77-1.25-.78c.51-.8,1-1.58,1.55-2.32l1.21.85C213.92,75.14,213.41,75.89,212.92,76.67Z"/><polygon class="cls-9" points="204.36 96.93 205.57 93.86 206.62 94.27 206.75 94.22 206.81 94.35 206.94 94.4 206.89 94.53 207.36 95.56 204.36 96.93"/><path class="cls-9" d="M209.82,95.38l-1.37-.32h0l0,0v0l-.59-1.27,2.75-1.26-.39,1.5C210.05,94.44,209.93,94.91,209.82,95.38Z"/><path class="cls-9" d="M208.06,99.53A7.75,7.75,0,0,1,207.9,98v-.25a5.46,5.46,0,0,1,0-.57l1.46.17c0,.15,0,.3,0,.45V98a6.21,6.21,0,0,0,.12,1.21Z"/><path class="cls-9" d="M210.77,106.71l-1.08-.86a12.23,12.23,0,0,0-1.14-.79l.77-1.26.2.13.09-1.13a7.46,7.46,0,0,1-.74-1.09l1.29-.72a5.91,5.91,0,0,0,.76,1.09l.21.23Z"/><path class="cls-9" d="M192.63,111.54l-1.25-.77c.45-.73.9-1.47,1.34-2.22l1.27.75C193.54,110.06,193.09,110.8,192.63,111.54Zm2.74-4.32-1.14-.93a12.09,12.09,0,0,1,2-1.94l.9,1.17A10.34,10.34,0,0,0,195.37,107.22Zm3.83-2.92-.58-1.36a11.66,11.66,0,0,1,2.68-.76l.22,1.46A9.58,9.58,0,0,0,199.2,104.3Zm7.14-.26a10.14,10.14,0,0,0-2.38-.47l.11-1.47a11.49,11.49,0,0,1,2.73.54Z"/><polygon class="cls-9" points="189.84 116.02 188.43 113.79 189.68 113 189.84 113.25 190 113 191.25 113.78 189.84 116.02"/><path class="cls-9" d="M186.8,111.29a23.71,23.71,0,0,0-1.88-2.24l1.06-1a24.2,24.2,0,0,1,2,2.39Zm-4.05-4.2c-.37-.29-.76-.57-1.15-.84a13.92,13.92,0,0,0-1.26-.79l.72-1.28c.47.26.93.54,1.38.85s.82.59,1.22.9Zm-5.05-2.81a15.73,15.73,0,0,0-2.81-.66l.2-1.46a16.84,16.84,0,0,1,3.08.73Zm-5.73-.82h-3V102h3Zm-6.06,0h-3V102h3Z"/><path class="cls-9" d="M159.2,105.48l-1-.39c-.44-.16-.89-.31-1.35-.46l.44-1.4.4.12,0-1.36h2.23v1.47h-.71Z"/><path class="cls-9" d="M123.1,120.27l-1.35-.6a29,29,0,0,1,1.39-2.72l1.27.73A28.57,28.57,0,0,0,123.1,120.27Zm2.89-5-1.19-.86c.58-.81,1.22-1.61,1.9-2.39l1.11,1C127.16,113.7,126.55,114.47,126,115.24Zm3.84-4.37-1-1.07a28.61,28.61,0,0,1,2.31-2L132,109A28,28,0,0,0,129.83,110.87Zm4.59-3.55-.77-1.25a27,27,0,0,1,2.69-1.46L137,106A26.12,26.12,0,0,0,134.42,107.32Zm5.24-2.45-.47-1.4a28.46,28.46,0,0,1,2.95-.81l.31,1.44A23.42,23.42,0,0,0,139.66,104.87ZM154,104a26.63,26.63,0,0,0-2.88-.39l.12-1.46a27,27,0,0,1,3,.4Zm-8.69-.31-.16-1.47a30.47,30.47,0,0,1,3.05-.18v1.47A27.7,27.7,0,0,0,145.32,103.64Z"/><path class="cls-9" d="M121.1,126.5l-1.41-3.37.9-.37.06-.19.22.07.18-.08.07.16.93.3c-.14.45-.28.91-.4,1.37Z"/><rect class="cls-9" x="118.19" y="118.12" width="1.47" height="2.51" transform="translate(-36.76 54.9) rotate(-22.61)"/><path class="cls-9" d="M116.8,116.19c-.19-.43-.4-.86-.62-1.26l-.28-.52.44-.39c.34-.31.68-.63,1-1l1.08,1c-.22.24-.45.46-.68.68.14.28.28.57.41.86Z"/><path class="cls-9" d="M120.35,111.64l-1.23-.82a15.17,15.17,0,0,0,1.37-2.49l1.35.59A17.58,17.58,0,0,1,120.35,111.64Zm2.46-5.66-1.43-.33a15.33,15.33,0,0,0,.38-2.81l1.47.07A17.2,17.2,0,0,1,122.81,106Zm-1.14-6a16,16,0,0,0-.58-2.78l1.41-.43a17.16,17.16,0,0,1,.63,3ZM120,94.6a15,15,0,0,0-1.53-2.38l1.16-.9a17.19,17.19,0,0,1,1.68,2.6Zm-3.46-4.47a16.92,16.92,0,0,0-2.25-1.74l.8-1.24A19.07,19.07,0,0,1,117.55,89Zm-4.76-3a15.7,15.7,0,0,0-2.71-.82l.3-1.45a17.26,17.26,0,0,1,3,.91Zm-5.53-1.15h-3V84.46h3Zm-5.92,0h-3V84.46h3Zm-5.94,0h-3V84.46h3Zm-5.94,0h-3V84.46h3Zm-5.94,0h-3V84.46h3Zm-5.94,0h-3V84.46h3Zm-5.94,0h-3V84.46h3Zm-6,0h-3V84.46h3Zm-5.94,0h-3V84.46h3Zm-5.94,0h-3V84.46h3Zm-5.94,0h-3V84.46h3Zm-5.94,0H38V84.46h3Zm-5.94,0H32V84.46h3Zm-5.94,0h-3V84.46h3Zm-5.95,0h-3V84.46h3Zm-5.94,0h-3V84.46h3Z"/><polygon class="cls-9" points="10.46 86.67 8.98 86.67 8.98 84.46 11.19 84.46 11.19 85.93 10.46 85.93 10.46 86.67"/><path class="cls-9" d="M10.46,107.6H9V105h1.48Zm0-5.24H9V99.75h1.48Zm0-5.23H9V94.51h1.48Zm0-5.23H9V89.28h1.48Z"/><polygon class="cls-9" points="11.19 112.42 8.98 112.42 8.98 110.21 10.46 110.21 10.46 110.95 11.19 110.95 11.19 112.42"/><rect class="cls-9" x="14.52" y="110.95" width="3.33" height="1.47"/><polygon class="cls-9" points="23.39 112.42 21.18 112.42 21.18 110.95 21.92 110.95 21.92 110.21 23.39 110.21 23.39 112.42"/><rect class="cls-9" x="21.92" y="103.19" width="1.47" height="3.51"/><polygon class="cls-9" points="23.39 99.69 21.92 99.69 21.92 97.47 24.13 97.47 24.13 98.95 23.39 98.95 23.39 99.69"/><polygon class="cls-9" points="28.59 99.69 27.12 99.69 27.12 98.95 26.39 98.95 26.39 97.47 28.59 97.47 28.59 99.69"/><path class="cls-9" d="M28.6,143.39H27.12v-3.12H28.6Zm0-6.24H27.12V134H28.6Zm0-6.24H27.12v-3.13H28.6Zm0-6.25H27.12v-3.12H28.6Zm0-6.24H27.12v-3.13H28.6Zm0-6.25H27.12v-3.12H28.6Zm0-6.24H27.12v-3.12H28.6Z"/><polygon class="cls-9" points="28.59 148.72 26.39 148.72 26.39 147.25 27.12 147.25 27.12 146.51 28.59 146.51 28.59 148.72"/><polygon class="cls-9" points="21.25 149.46 19.78 149.46 19.78 147.25 21.99 147.25 21.99 148.72 21.25 148.72 21.25 149.46"/><rect class="cls-9" x="19.78" y="152.79" width="1.47" height="3.33"/><polygon class="cls-9" points="21.99 161.66 19.78 161.66 19.78 159.45 21.25 159.45 21.25 160.19 21.99 160.19 21.99 161.66"/><path class="cls-9" d="M88.36,161.66h-3v-1.47h3Zm-6,0h-3v-1.47h3Zm-6,0h-3v-1.47h3Zm-6,0h-3v-1.47h3Zm-6,0h-3v-1.47h3Zm-6,0h-3v-1.47h3Zm-6,0h-3v-1.47h3Zm-6,0h-3v-1.47h3Zm-6,0h-3v-1.47h3Zm-6,0H31v-1.47h3Zm-6,0H25v-1.47h3Z"/><path class="cls-9" d="M92.07,162.36l-.5-.7h-.19v-.26l-.17-.24.17-.12v-.85h3.94l-2.06,1.35C92.86,161.8,92.46,162.07,92.07,162.36Z"/><path class="cls-9" d="M107,208.63h-.29c-.77,0-1.52,0-2.26-.12l.13-1.46c.7.06,1.42.1,2.14.11h.72l0,1.47Zm3.49-.26-.23-1.46a19.75,19.75,0,0,0,2.76-.64l.43,1.41A21.2,21.2,0,0,1,110.51,208.37Zm-9-.3a26.14,26.14,0,0,1-2.92-.78l.47-1.4a23.2,23.2,0,0,0,2.75.74Zm14.82-1.51-.64-1.32a17.68,17.68,0,0,0,1.9-1.06l.55-.36.83,1.22-.59.39A20.45,20.45,0,0,1,116.3,206.56Zm-20.54-.41a25.29,25.29,0,0,1-2.64-1.47l.79-1.24a22.45,22.45,0,0,0,2.49,1.38Zm-5.1-3.23a29.9,29.9,0,0,1-2.23-2l1-1a27.07,27.07,0,0,0,2.12,1.91Zm-4.25-4.26a25.6,25.6,0,0,1-1.77-2.44l1.24-.8a24.57,24.57,0,0,0,1.67,2.31Zm-3.25-5.08a26.07,26.07,0,0,1-1.14-2.8l1.39-.47a25,25,0,0,0,1.08,2.63Zm-1.94-5.72a29.31,29.31,0,0,1-.45-3l1.47-.14a26.24,26.24,0,0,0,.42,2.82Zm.91-6H80.65a29.67,29.67,0,0,1,.18-3l1.46.16C82.19,180,82.14,180.91,82.13,181.88Zm.62-5.67-1.44-.32a24.44,24.44,0,0,1,.83-2.91l1.39.49A23.47,23.47,0,0,0,82.75,176.21Zm1.89-5.36-1.32-.66a23.52,23.52,0,0,1,1.54-2.61l1.22.83A21.39,21.39,0,0,0,84.64,170.85Zm3.18-4.69-1.1-1a24,24,0,0,1,2.14-2.14l1,1.1A23.83,23.83,0,0,0,87.82,166.16Z"/><path class="cls-9" d="M122.52,203.21l-.57-.55c-.19.18-.38.35-.58.51l-1-1.11c.36-.31.71-.63,1.06-1l.53-.51.79.84c.24.25.48.48.73.71Z"/><path class="cls-9" d="M138.54,208.54l-2.59-.06,0-1.47,2.51.06.24,0,.16,1.46Zm-5.53-.21a20.48,20.48,0,0,1-2.88-.67l.44-1.41a19.58,19.58,0,0,0,2.67.63Zm8.8-.35-.37-1.43a18,18,0,0,0,2.6-.87l.57,1.35A18.09,18.09,0,0,1,141.81,208Zm-14.43-1.42a19.8,19.8,0,0,1-2.55-1.5l.83-1.21a18.82,18.82,0,0,0,2.37,1.39Zm19.86-.89-.77-1.25a19.6,19.6,0,0,0,2.23-1.61l.94,1.13A21.68,21.68,0,0,1,147.24,205.67Z"/><path class="cls-9" d="M152.63,201.91c-.15-.16-.29-.31-.42-.47l-.43.47-1.08-1c.33-.36.64-.71.94-1.08l.57-.71.57.71c.3.37.6.73.93,1.08Z"/><path class="cls-9" d="M169.49,208.53l-3-.07,0-1.47,3,.07Zm-6.17-.4a20.48,20.48,0,0,1-3-.9l.53-1.38a18.73,18.73,0,0,0,2.79.84Zm9.34,0-.33-1.43a18.33,18.33,0,0,0,2.78-.87l.55,1.36A19,19,0,0,1,172.66,208.11Zm-15.18-2.25a20.16,20.16,0,0,1-2.57-1.8l.93-1.14a19.35,19.35,0,0,0,2.39,1.67Z"/><path class="cls-9" d="M180.07,205.79H178.6v-.1l-.12.07-.76-1.26c.4-.25.8-.5,1.18-.78l1.17-.83Z"/><polygon class="cls-9" points="180.81 208.63 178.6 208.63 178.6 206.42 180.07 206.42 180.07 207.16 180.81 207.16 180.81 208.63"/><path class="cls-9" d="M193.72,208.63h-3.23v-1.47h3.23Zm-6.46,0H184v-1.47h3.23Z"/><polygon class="cls-9" points="199.16 208.63 196.95 208.63 196.95 207.16 197.69 207.16 197.69 206.42 199.16 206.42 199.16 208.63"/><path class="cls-9" d="M198.92,204.8l-.14-.14h-1.09v-3.52l1.3,1.58a12.91,12.91,0,0,0,.95,1l-.78.81v.12h-.11Z"/><path class="cls-9" d="M208.42,208.63l-.75,0,.08-1.47a12.23,12.23,0,0,0,2.89-.19l.27,1.45A13.9,13.9,0,0,1,208.42,208.63Zm-3.94-.58a13.71,13.71,0,0,1-3-1.31l.75-1.27a12.45,12.45,0,0,0,2.65,1.17Z"/><path class="cls-9" d="M214,207.41l-.62-1.33a12.24,12.24,0,0,0,1.23-.67l.38-.23.39.24a11,11,0,0,0,1.22.65l-.62,1.34c-.33-.16-.67-.33-1-.51C214.69,207.08,214.36,207.26,214,207.41Z"/><path class="cls-9" d="M221.42,208.63a14.17,14.17,0,0,1-2.77-.33l.32-1.43a13.56,13.56,0,0,0,2.48.29Zm2.78-.23-.27-1.45a12.16,12.16,0,0,0,2.39-.7l.56,1.36A13.76,13.76,0,0,1,224.2,208.4Z"/><path class="cls-9" d="M229.35,206.26l-.83-1.21c.37-.26.74-.55,1.1-.85l.42-.37.47.31a13.39,13.39,0,0,0,1.21.73l-.72,1.29-.85-.49C229.89,205.87,229.63,206.07,229.35,206.26Z"/><path class="cls-9" d="M240.8,208.63h-.6l0-1.47h.57a19.25,19.25,0,0,0,2.41-.15l.18,1.46A20.24,20.24,0,0,1,240.8,208.63ZM237,208.3a19.11,19.11,0,0,1-3.1-.82l.5-1.38a17.92,17.92,0,0,0,2.86.75Zm9.5-.47-.4-1.41a20.83,20.83,0,0,0,2.79-1l.61,1.34A21.23,21.23,0,0,1,246.52,207.83Zm5.8-2.62-.8-1.24a18.5,18.5,0,0,0,2.38-1.79l1,1.11A20.48,20.48,0,0,1,252.32,205.21ZM257.1,201l-1.14-.94a18.8,18.8,0,0,0,1.69-2.43l1.27.74A20.85,20.85,0,0,1,257.1,201Zm2.9-5.76-1.44-.31A19.8,19.8,0,0,0,259,192l1.47.1A22.5,22.5,0,0,1,260,195.23ZM259,189c0-.7-.07-1.44-.15-2.24,0-.26-.05-.52-.08-.78l1.46-.17.09.81c.08.82.13,1.6.16,2.33Zm-.72-6c-.21-1-.47-2-.77-2.92l1.4-.44a31.07,31.07,0,0,1,.81,3Z"/></g><g class="cls-10"><path class="cls-3" d="M89.71,183.37c0-5.57,1.83-9.89,5.6-13.19.17-.15.35-.28.52-.42a10.66,10.66,0,0,1,1.2-3A23.23,23.23,0,0,0,94,169c-3.77,3.3-5.6,7.62-5.6,13.19A17.45,17.45,0,0,0,93.65,195a20.14,20.14,0,0,0,1.84,1.65c-.17-.16-.34-.3-.5-.46a17.42,17.42,0,0,1-5.28-12.81"/><path class="cls-3" d="M144.44,178.22c.21.15.42.32.62.48l0,0a14.6,14.6,0,0,0-1.93-1.64,7.46,7.46,0,0,1,.45,2.61V195.7a7.44,7.44,0,0,1-.45,2.6,14.53,14.53,0,0,0,1.79-1.5v-16a7.46,7.46,0,0,0-.46-2.61"/><path class="cls-3" d="M128.45,179.85a.52.52,0,0,0,.11-.1v-.11a7.34,7.34,0,0,1,.45-2.59,12.89,12.89,0,0,0-1.89,1.62,12.78,12.78,0,0,0,0,18,13.73,13.73,0,0,0,1.3,1.15,12.81,12.81,0,0,1,0-18"/><path class="cls-3" d="M175.85,178.22c.21.15.41.32.62.48,0,0,0,0,0,0a14.67,14.67,0,0,0-1.94-1.64,7.46,7.46,0,0,1,.46,2.61V195.7a7.44,7.44,0,0,1-.46,2.6,13.18,13.18,0,0,0,1.79-1.5v-16a7.46,7.46,0,0,0-.45-2.61"/><path class="cls-3" d="M159.86,179.85l.11-.1v-.11a7.34,7.34,0,0,1,.45-2.59,13.5,13.5,0,0,0-1.9,1.62,12.8,12.8,0,0,0,0,18,11.63,11.63,0,0,0,1.3,1.15,12.78,12.78,0,0,1,0-18"/><path class="cls-3" d="M189.26,166a5.34,5.34,0,0,0-.39-.44,5.79,5.79,0,0,0-2.55-1.49v36.35h1.33V165.28a5.33,5.33,0,0,1,1.61.74"/><path class="cls-3" d="M201.88,191.68l-2.35-6.52,2-2-.68-1.9-.65.71-2,2,2.36,6.52c.73,2.06,1.47,4.12,2.19,6.17a5.36,5.36,0,0,0,2.08,2.77l.18.11a5.74,5.74,0,0,1-.93-1.69q-1.08-3.07-2.19-6.17"/><path class="cls-3" d="M217.12,176.25a4.86,4.86,0,0,1,1.46.63,3.79,3.79,0,0,0-.31-.39,5.21,5.21,0,0,0-2.49-1.43V195a5.2,5.2,0,0,0,1.59,3.85,5.85,5.85,0,0,0,1,.81,5.16,5.16,0,0,1-1.27-3.47Z"/><path class="cls-3" d="M217.67,165.77a2.1,2.1,0,0,1,1.59-.66,2.51,2.51,0,0,1,.75.12,2.37,2.37,0,0,0-.45-.63,2.15,2.15,0,0,0-1.63-.68,2.08,2.08,0,0,0-1.6.67,2.23,2.23,0,0,0-.66,1.7,2.17,2.17,0,0,0,.67,1.65,2,2,0,0,0,.89.55,2.21,2.21,0,0,1-.22-1,2.27,2.27,0,0,1,.66-1.71"/><path class="cls-3" d="M248.93,178.76c-.25-.31-.51-.6-.79-.89s-.4-.39-.61-.57a7.49,7.49,0,0,1,.36,2.34V185h1.33v-4.15a7.72,7.72,0,0,0-.29-2.07"/><path class="cls-3" d="M229.22,188.88a12.54,12.54,0,0,1,3.61-9v-.27a7.4,7.4,0,0,1,.41-2.47,13.84,13.84,0,0,0-1.7,1.5,12.93,12.93,0,0,0,0,18A13.51,13.51,0,0,0,233,198l-.12-.11a12.44,12.44,0,0,1-3.65-9"/></g><g class="cls-10"><polygon class="cls-3" points="43.54 94.92 43.54 92.99 35.41 92.99 35.41 153.12 37.34 153.12 37.34 94.92 43.54 94.92"/><polygon class="cls-3" points="70.33 126.96 70.33 125.04 56.76 125.04 56.76 128.15 58.69 128.15 58.69 126.96 70.33 126.96"/><polygon class="cls-3" points="91.32 94.92 91.32 92.99 83.19 92.99 83.19 153.12 85.12 153.12 85.12 94.92 91.32 94.92"/><path class="cls-3" d="M100.82,115.48h5.41l2.58,1.67c.11.07.2.16.31.23-.09-.13-.17-.27-.27-.4a8.46,8.46,0,0,0-2-1.76l-2.58-1.67H98.9l14,33.59A9.2,9.2,0,0,0,116,151.2a10.94,10.94,0,0,1-1.21-2.13Z"/><path class="cls-3" d="M135.52,118.76a22.59,22.59,0,0,1,1.84-1.71,10.32,10.32,0,0,1,1.9-4.48,21.62,21.62,0,0,0-5.67,34.28c.46.48.93.92,1.42,1.35a20.58,20.58,0,0,1-5.58-14.41,20.83,20.83,0,0,1,6.09-15"/><path class="cls-3" d="M160.29,115.16a6.22,6.22,0,0,0-2.91-2.61,10.6,10.6,0,0,1,2.08,6.44v9.42h1.93v-7.49c0-2.42-.26-4.46-1.1-5.76"/><path class="cls-3" d="M190.88,143q-1.37-2.29-2.76-4.48l-.58-.9,0,0-15.49-25.12h2.2a8.66,8.66,0,0,1,5,1.55c.34.24.67.5,1,.76a14,14,0,0,0-2.91-2.68,8.54,8.54,0,0,0-5-1.55h-2.2l15.49,25.12v0l.57.89q1.41,2.2,2.77,4.48c.87,1.47,1.77,2.92,2.7,4.38s4,6.61,4.71,7.7h.75l-3.54-5.78c-.93-1.46-1.82-2.9-2.7-4.37"/><path class="cls-3" d="M202.24,114a3.36,3.36,0,0,1,1.21-1.17,2.38,2.38,0,0,1,1.16-.29h.32a2.81,2.81,0,0,1,1,.18,2.22,2.22,0,0,0-.74-1.23,3.27,3.27,0,0,0-2.19-.88h-.31a2.56,2.56,0,0,0-1.17.29,3.37,3.37,0,0,0-1.2,1.18l-.77,1.28.64,1.43a2.83,2.83,0,0,0,1,1.3,3.1,3.1,0,0,0,.78.38l-.53-1.19c.26-.42.51-.85.76-1.28"/></g></g></g></svg>