<svg xmlns="http://www.w3.org/2000/svg" viewBox="0 0 291 216"><defs><style>.cls-1{fill:#333;}.cls-2{fill:#999;}.cls-3{fill:gray;}.cls-4{fill:#ccb6a2;}.cls-5,.cls-6{opacity:0.75;}.cls-6{fill:#b3b3b3;}.cls-7{fill:#e1c6ab;}.cls-8{fill:#59422d;}.cls-9{fill:#795a37;}.cls-10{fill:#684d32;}.cls-11{fill:#c69c6d;}</style></defs><title>scene_EndCondition_1</title><g id="Layer_2" data-name="Layer 2"><g id="Layer_1-2" data-name="Layer 1"><rect class="cls-1" x="1" width="288" height="216"/><polyline class="cls-2" points="33 73 258.83 73 289 104 289 198 274.37 198 1 198 1 147 1 99 32.09 73"/><rect class="cls-3" x="1" y="173.45" width="288" height="24.47"/><g id="Layer_7" data-name="Layer 7"><path class="cls-4" d="M17.47,79c3-2,7.51-3.65,14.53-4,22-1,57.91,2.49,62,3,8,1,43.5,0,58,0,13.5,0,40.5.87,54,1,8.75.08,26.27.65,35,0,7-.52,20-3,28,3s22,23,22,23v57l-54,1-88,3-63-3-56-1s-17.3,2.91-23,2c-1.88-.3-7-3-7-3V99s5-7,9-12C10.5,85.13,17.47,79,17.47,79Z"/></g></g><g id="Layer_2-2" data-name="Layer 2" class="cls-5"><path class="cls-6" d="M189.38,101.76a10.9,10.9,0,0,1-4.82,12.1C178.42,117.56,169,121,146,121c-19.34,0-31-4.42-37.64-7.82a11,11,0,0,1-5.55-12.41L128,0h35Z"/><path class="cls-7" d="M190,105c0,10-15,17-44.5,16S102,113.11,102,104s20.53-12,44-12S190,95.89,190,105Z"/></g><g id="Layer_6" data-name="Layer 6"><polygon class="cls-8" points="117 99.84 117 106 114 106 117 99.84"/><polygon class="cls-8" points="137 101 139 98 143 99 140 100.67 137 101"/><polygon class="cls-8" points="166.62 109.24 165.4 106.37 169.91 102.33 172.69 109.58 166.62 109.24"/></g><g id="Layer_5" data-name="Layer 5"><polygon class="cls-9" points="139 108 143 111 149 108.33 149 107 142 107 139 108"/><polygon class="cls-9" points="159 118 162 118 162 114 158 114 157 116 159 118"/><polygon class="cls-9" points="186 108 184 106 180 108 183 109 186 108"/><polygon class="cls-9" points="150 103 153 105 154 102 151 101 150 103"/><polygon class="cls-9" points="162 100.5 162 103 165 103 166 100.5 168 99 164 98 162 100.5"/><polygon class="cls-9" points="128 118 133 118 133 115.33 131 114 128 116.67 128 118"/><polygon class="cls-9" points="123 100 130 102 132 99 130 99.33 127 98 125 99.33 123 100"/><polygon class="cls-9" points="119 109 123 111 127 110 126 109.67 123 107 119 109"/><polygon class="cls-10" points="137 101 139 98 143 99 140 100 137 101"/><polygon class="cls-10" points="117 99.84 116.73 105.49 114.65 104.68 117 99.84"/><polygon class="cls-10" points="167.15 108.27 166.07 105.78 169.91 102.33 172.01 108.53 167.15 108.27"/></g><g id="Layer_4" data-name="Layer 4"><polygon class="cls-11" points="119 109 123 110 127 110 126 109 123 107 119 109"/><polygon class="cls-11" points="139 108 143 110 149 108 149 107 142 107 139 108"/><polygon class="cls-11" points="123 100 130 101 132 99 130 99 127 98 125 99 123 100"/><polygon class="cls-11" points="162 100 162 102 165 102 166 100 168 99 164 98 162 100"/><polygon class="cls-11" points="150 103 153 104 154 102 151 101 150 103"/><polygon class="cls-11" points="159 117 162 117 162 114 158 114 157 116 159 117"/><polygon class="cls-11" points="186 108 184 106 180 108 183 108 186 108"/><polygon class="cls-11" points="128 117 133 117 133 115 131 114 128 116 128 117"/></g></g></svg>