<svg xmlns="http://www.w3.org/2000/svg" viewBox="0 0 391.48 105"><defs><style>.cls-1{fill:#99d9d9;}.cls-2{fill:#fff;}.cls-3{fill:#62cbc9;}.cls-4{font-size:25px;font-family:MarketDeco, Market Deco;}.cls-5{letter-spacing:-0.03em;}.cls-6{letter-spacing:-0.17em;}.cls-7{letter-spacing:-0.05em;}</style></defs><title>startButtonUnpressed</title><g id="Layer_2" data-name="Layer 2"><g id="Layer_2-2" data-name="Layer 2"><rect class="cls-1" width="391.48" height="105"/><path class="cls-2" d="M367,52.11c-5.87,3.58-10,12.71-10,23.48a8.65,8.65,0,0,1-8.75,8.52H42.41a8.65,8.65,0,0,1-8.75-8.52c0-10.77-4.11-19.9-10-23.48,5.87-3.57,10-12.7,10-23.47a8.66,8.66,0,0,1,8.75-8.53h305.9a8.66,8.66,0,0,1,8.75,8.53C357.06,39.41,361.17,48.54,367,52.11Z"/><path class="cls-3" d="M348.31,25.66a3.08,3.08,0,0,1,3.16,3c0,9.22,2.66,17.71,7.33,23.47-4.67,5.76-7.33,14.26-7.33,23.48a3.07,3.07,0,0,1-3.16,3H42.41a3.07,3.07,0,0,1-3.16-3c0-9.22-2.66-17.72-7.33-23.48,4.67-5.76,7.33-14.25,7.33-23.47a3.08,3.08,0,0,1,3.16-3h305.9m0-1H42.41a4.07,4.07,0,0,0-4.15,4c0,9.34-2.87,18-7.63,23.47,4.76,5.49,7.63,14.13,7.63,23.48a4.06,4.06,0,0,0,4.15,4h305.9a4.06,4.06,0,0,0,4.15-4c0-9.35,2.87-18,7.64-23.48-4.77-5.48-7.64-14.13-7.64-23.47a4.07,4.07,0,0,0-4.15-4Z"/><text class="cls-4" transform="translate(148.9 62.15)"><tspan class="cls-5">S</tspan><tspan class="cls-6" x="12.01" y="0">t</tspan><tspan x="22.49" y="0">a</tspan><tspan class="cls-7" x="39.91" y="0">r</tspan><tspan x="51.54" y="0">t</tspan></text></g></g></svg>