<svg xmlns="http://www.w3.org/2000/svg" viewBox="0 0 189 68.36"><defs><style>.cls-1{fill:#666;}.cls-2{fill:gray;}.cls-3{fill:#b3b3b3;}.cls-4{fill:#999;}</style></defs><title>Cookie Sheets</title><g id="Layer_2" data-name="Layer 2"><g id="Layer_1-2" data-name="Layer 1"><polygon class="cls-1" points="186.2 20.36 120.2 68.36 10.2 68.36 10.2 61.36 78.2 15.36 186.2 15.36 186.2 20.36"/><polygon class="cls-2" points="82.2 16.35 82.2 20.35 15.2 67.35 15.2 61.36 82.2 16.35"/><rect class="cls-3" x="79.2" y="18.36" width="99" height="4"/><rect class="cls-4" x="11.2" y="61.36" width="109" height="6"/><polygon class="cls-4" points="78.2 16.36 11.2 61.36 15.2 61.36 82.2 16.36 78.2 16.36"/><polygon class="cls-4" points="180.7 16.36 115.7 61.36 120.2 61.36 185.2 16.36 180.7 16.36"/><polygon class="cls-2" points="185.2 16.36 185.2 20.36 120.2 67.36 120.2 61.36 185.2 16.36"/><polyline class="cls-4" points="15.2 61.36 18.2 59.36 118.73 59.36 116.2 61.36 15.2 61.36"/><polyline class="cls-4" points="79.2 18.36 82.2 16.36 182.73 16.36 180.2 18.36 79.2 18.36"/><polygon class="cls-1" points="79.2 22.36 26.58 59.36 118.59 59.36 172.03 22.36 79.2 22.36"/><polygon class="cls-1" points="189 10 123 58 13 58 13 51 81 5 189 5 189 10"/><polygon class="cls-4" points="85 5.99 85 9.99 18 56.99 18 51 85 5.99"/><rect class="cls-3" x="82" y="8" width="99" height="4"/><rect class="cls-4" x="14" y="51" width="109" height="6"/><polygon class="cls-3" points="81 6 14 51 18 51 85 6 81 6"/><polygon class="cls-3" points="183.5 6 118.5 51 123 51 188 6 183.5 6"/><polygon class="cls-2" points="188 6 188 10 123 57 123 51 188 6"/><polyline class="cls-3" points="18 51 21 49 121.53 49 119 51 18 51"/><polyline class="cls-3" points="82 8 85 6 185.53 6 183 8 82 8"/><polygon class="cls-2" points="82 12 29.39 49 121.39 49 174.84 12 82 12"/><polygon class="cls-4" points="79 2.99 79 6.99 12 53.99 12 48 79 2.99"/><rect class="cls-3" x="76" y="5" width="99" height="4"/><rect class="cls-4" x="8" y="48" width="109" height="6"/><polygon class="cls-3" points="75 3 8 48 12 48 79 3 75 3"/><polygon class="cls-3" points="177.5 3 112.5 48 117 48 182 3 177.5 3"/><polygon class="cls-2" points="182 3 182 7 117 54 117 48 182 3"/><polyline class="cls-3" points="12 48 15 46 115.53 46 113 48 12 48"/><polyline class="cls-3" points="76 5 79 3 179.53 3 177 5 76 5"/><polygon class="cls-2" points="76 9 23.39 46 115.39 46 168.84 9 76 9"/><polygon class="cls-1" points="176 5 110 53 0 53 0 46 68 0 176 0 176 5"/><polygon class="cls-4" points="72 0.99 72 4.99 5 51.99 5 46 72 0.99"/><rect class="cls-3" x="69" y="3" width="99" height="4"/><rect class="cls-3" x="1" y="46" width="109" height="6"/><polygon class="cls-3" points="68 1 1 46 5 46 72 1 68 1"/><polygon class="cls-3" points="170.5 1 105.5 46 110 46 175 1 170.5 1"/><polygon class="cls-2" points="175 1 175 5 110 52 110 46 175 1"/><polyline class="cls-3" points="5 46 8 44 108.53 44 106 46 5 46"/><polyline class="cls-3" points="69 3 72 1 172.53 1 170 3 69 3"/><polygon class="cls-2" points="69 7 16.39 44 108.39 44 161.84 7 69 7"/></g></g></svg>