<svg xmlns="http://www.w3.org/2000/svg" viewBox="0 0 75.03 71.8"><defs><style>.cls-1,.cls-3{fill:#9ad7d7;}.cls-2{fill:#64c7c7;}.cls-3,.cls-6,.cls-7,.cls-8{stroke:#64c7c7;stroke-miterlimit:10;}.cls-3{stroke-width:0.5px;}.cls-4{fill:#e6e6e6;}.cls-5{fill:#142626;}.cls-6,.cls-7,.cls-8{fill:none;}.cls-6,.cls-7{stroke-linecap:round;}.cls-7{stroke-width:0.75px;}.cls-9{fill:#a58355;}</style></defs><title>Dino Toy-001</title><g id="Layer_2" data-name="Layer 2"><g id="Layer_1-2" data-name="Layer 1"><path class="cls-1" d="M7.62,26.68a3.51,3.51,0,0,1,1.61.63,42.17,42.17,0,0,1,3.56,4.44c.12,2.26,1.69,6.15,1.63,9.42,0,1.73-.86,2.59-1.73,4.33A26.32,26.32,0,0,0,11,49.82c-.28,1.27-.64,4.07,0,5.2s3,2.34,3.4,2.56l.13.06c.31.1,1.67.57,1.67.84v.87l-3.47,3.46L14.42,62l-1.73,2.59,3.47-1.73v1.73l5.07-5.07A.94.94,0,0,0,21,58c-1.91-.9-5.2-2.78-3.95-4.66a21.62,21.62,0,0,0,2.53-4.49,1,1,0,0,1,1-.65L30.87,49H32.6l12.71-1.72.22-.05c.6-.24,3.63-1.41,4.39-1.69A17.34,17.34,0,0,0,56,41.17c1.25-1.38,3.13-4.64,4.33-6.06C63.67,31.14,75,20.39,75,20.39s-5.83,2.4-7.79,3.46-6,4-7.8,5.2-4.87,3.64-6.92,4.32c-2.26.76-7.18.42-9.53,0a14.92,14.92,0,0,1-4.2-1.44c-2.18-1.12-4.75-4.36-6.19-6.35-1.69-2.35-4-7.74-5.19-10.39-.95-2.12-2.14-7.76-3.28-9.8C23.22,3.75,22.66,2.18,19.75,1A11,11,0,0,0,16.63.08,11.62,11.62,0,0,0,10.4.89,10.85,10.85,0,0,0,7.4,3a14.41,14.41,0,0,0-2.77,3.8A7.1,7.1,0,0,0,4,9.71v3.38a.83.83,0,0,1-.24.64C.71,16.35,1,16.75.57,17.79c-.84,1.88-.86,5.2,2.6,7.79a6,6,0,0,0,4.45,1.1"/><path class="cls-2" d="M34.22,49.86c0,2.6-6.06,5.19-10.39,4.33s-8.66-9.53-9.52-13c-.76-3-1.52-7.4-1.69-8.43a2.28,2.28,0,0,1,0-.45V29.4a2.69,2.69,0,0,1,2.34-2.69,9.37,9.37,0,0,1,7.18,2.37C27.9,33.92,34.22,45.64,34.22,49.86Z"/><path class="cls-3" d="M35.09,42.07c-1.3,1.94-5.2,8.65-5.2,8.65s-1.73,5.2.87,8.66,4.33,3.46,4.33,3.46l-.87,1.74L33.36,68l1.73-2.6-1.7,5.15,3.41-4.2L36,69.7s7.1-7.58,6-7.72-.73-1.46-.86-1.73c-.87-1.73-1.56-3.56-2.6-5.2s.78-3.22.78-3.22,2.75-1.88,3.89-2.7c1.39-1,1.62-5.74.52-7.93-.86-1.73-2.73-3.42-5.19-2.6A5.91,5.91,0,0,0,35.09,42.07Z"/><path class="cls-3" d="M28.93,28.28C28.58,31,27.24,38.6,23,38.6l-1.74.87.87-1.73-1.73.86.86-1.73H19.5L21.23,36a4.26,4.26,0,0,0,2.6-.87c.87-.87,1.73-6.06,1.73-6.06s-.86-3.46.87-4.33c1.07-.53,1.81.58,2.22,1.51A4,4,0,0,1,28.93,28.28Z"/><path class="cls-2" d="M8.25,29.08a23.89,23.89,0,0,0-3.47,4.33,7.28,7.28,0,0,0-.89,2.51l2.63,4.41V38.68L8.25,41.2V37.74l.86,1.73a16.06,16.06,0,0,0,0-1.73,26.09,26.09,0,0,0-.77-2.8h0c1-1.93,1.64-2,1.64-2l1.08-.76c.38-.26,1.21.17,1.53.49V29.39L10.4,27.78a8.17,8.17,0,0,1-.81-.58c-.38-.38-.23-.23-.92-.35l-.58.35.64.48a.38.38,0,0,1,.09.51Z"/><path class="cls-1" d="M17.71,21.76l-5,3.74a2.3,2.3,0,0,1-.33.21c-.82.44-4.13,2-6.27,1.84S.48,27.31,0,21.7C-.3,17.43,2,15.23,3.13,14.51a3.05,3.05,0,0,1,1.32-.19c2-.16,9-.65,10.72,0,1.11.44,2.39,2.41,3.27,4A2.63,2.63,0,0,1,17.71,21.76Z"/><path class="cls-4" d="M4.65,14.3,9,14.05S10.85,8.33,7.38,8.3C4.52,8.27,4.65,14.3,4.65,14.3Z"/><path class="cls-4" d="M11.68,14s0-5.7,3.49-5.7.6,6.42.6,6.42Z"/><path class="cls-5" d="M12.59,14.16s.79-3.84,2.2-3.58c1.84.35.37,4,.37,4Z"/><path class="cls-5" d="M8.18,14.1s.84-3.75-1-3.75c-1.27,0-1.69,3.9-1.69,3.9"/><path class="cls-6" d="M19.06,20.16c0,.77-2.19,2.15-2.19,2.15l-3,2.26a16.15,16.15,0,0,1-2.93,1.76c-.46.22-1.19.52-1.85.81a9.61,9.61,0,0,1-3.8.35,5.86,5.86,0,0,1-3.12-1"/><path class="cls-7" d="M1.17,22.58s0-2,.46-1.84.12,2,.12,2"/><path class="cls-7" d="M6.71,23.39s-.12-2.19.34-2.31.47,2.2.47,2.2"/><path class="cls-8" d="M12.65,8.33a2.9,2.9,0,0,1,3.17-.52c2.15.69,2.89.35,2.89.35"/><path class="cls-8" d="M9.65,8.33A3.68,3.68,0,0,0,7.52,7.7c-1,.11-1.68,1.09-2.14,1.09"/><path class="cls-9" d="M23.86,16.93s-1,.75,0,1.37a19.59,19.59,0,0,1,1.62,1.12s1.12-.87.24-1.49A9,9,0,0,0,23.86,16.93Z"/><path class="cls-9" d="M30,33.61c.62,1,1.37.75,1.37.25s.12-1.24-.63-1.24S30,33.61,30,33.61Z"/><path class="cls-9" d="M15.14,3.61c.75,1,.75,1.25,1.25.75s.49-1.62,0-1.5A4.57,4.57,0,0,0,15.14,3.61Z"/><path class="cls-9" d="M8.92,3.73a1.14,1.14,0,0,0,1.74.13s.12-1.37-.37-1.25S8.92,3.73,8.92,3.73Z"/><path class="cls-9" d="M16.51,24.28c.62.87,1.74,0,1.74,0s-.74-1.87-1.49-1.37A1,1,0,0,0,16.51,24.28Z"/><path class="cls-9" d="M34.81,54.53c1,1,1.25-.37,1.25-.37s-1.25-1.13-1.25-.38Z"/><path class="cls-9" d="M30.65,59.23s.93-1,1.3-.22.12,2,0,1.8S30.65,59.23,30.65,59.23Z"/><path class="cls-9" d="M47.1,33.79s-.34,4.43,2.78,3.43a3.1,3.1,0,0,0,2.36-3.76S47.94,34.21,47.1,33.79Z"/><path class="cls-9" d="M68.62,26.56h-.15a6,6,0,0,0-2.91.58c-.74.62-2,2-1.74,2.24a9.19,9.19,0,0,0,1.17.78"/><path class="cls-9" d="M43.15,40.21a4.49,4.49,0,0,1,.75,1.5,3.76,3.76,0,0,1,.42,1.51,1.48,1.48,0,0,1-1.54,1C42,44.07,41.91,42.08,42,42S42.79,39.85,43.15,40.21Z"/><path class="cls-9" d="M15.14,48.8s-1.24,1.87-.5,2.12a3.92,3.92,0,0,0,2.12,0A13.65,13.65,0,0,0,15.14,48.8Z"/><path class="cls-4" d="M36.18,43.7s-.12,1.12-1,1.37-.88-.25-.75-.38S36.18,43.7,36.18,43.7Z"/><path class="cls-4" d="M10.6,52.82s1.06-.16,1.18.71-.87,1.5-.87,1.5A4.66,4.66,0,0,1,10.6,52.82Z"/><path class="cls-4" d="M2.07,16.68c-.62,1.75,2.74,1.5,2.49.87s.25-2-.62-1.86A4.6,4.6,0,0,0,2.07,16.68Z"/><path class="cls-4" d="M14.27,18.92c.25,1.12,2.74.5,1.87-.37s-1.62-.87-1.87-.37S14.27,18.92,14.27,18.92Z"/><path class="cls-4" d="M21.29,1.79a1.46,1.46,0,0,0,.45,1.94c1.12.75,1.75.48,1.75.48S23.58,3.57,21.29,1.79Z"/><path class="cls-4" d="M36.18,30.75s.38,2.49,2,2.74.63-.87.13-1.25S36.18,30.75,36.18,30.75Z"/><path class="cls-4" d="M54.61,39.84c-2,1.24-2.49,2.61-2,3s1.63,0,1.63,0,1.73-2.62,1-2.87S54.61,39.84,54.61,39.84Z"/></g></g></svg>