<svg xmlns="http://www.w3.org/2000/svg" xmlns:xlink="http://www.w3.org/1999/xlink" viewBox="0 0 3220.84 1342.71"><defs><style>.cls-1,.cls-18,.cls-24{fill:none;}.cls-2{clip-path:url(#clip-path);}.cls-29,.cls-3{fill:#efebe1;}.cls-3,.cls-31{stroke:#fff;}.cls-18,.cls-24,.cls-3,.cls-31{stroke-miterlimit:10;stroke-width:3px;}.cls-4{fill:#bc955c;}.cls-5{fill:gray;}.cls-6{fill:#d8ad73;}.cls-7{fill:#333;}.cls-8{fill:#b3b3b3;}.cls-9{fill:#e6e6e6;}.cls-10{fill:#afe8e3;}.cls-11{fill:#bc955a;}.cls-12{fill:#8c6d45;}.cls-13{fill:#666;}.cls-14{fill:#ccc;}.cls-15{fill:#999;}.cls-16{fill:#707070;}.cls-17{fill:#62cbc9;}.cls-18{stroke:#999;}.cls-19{fill:#fff;}.cls-20{fill:#55a59f;}.cls-21{fill:#6d6d6d;}.cls-22{fill:#4d4d4d;}.cls-23{fill:#1a1a1a;}.cls-24{stroke:#707070;}.cls-25{fill:#c6c6c6;}.cls-26{fill:url(#linear-gradient);}.cls-27{fill:url(#linear-gradient-2);}.cls-28{fill:url(#linear-gradient-3);}.cls-30{fill:#a8a192;}.cls-31{fill:#fffdf8;}</style><clipPath id="clip-path" transform="translate(805.78 364.07)"><rect id="frame" class="cls-1" width="1280" height="960"/></clipPath><linearGradient id="linear-gradient" x1="1165.76" y1="190.44" x2="1172.36" y2="190.44" gradientUnits="userSpaceOnUse"><stop offset="0" stop-color="#ccc"/><stop offset="1" stop-color="gray"/></linearGradient><linearGradient id="linear-gradient-2" x1="1165.76" y1="425.52" x2="1172.36" y2="425.52" xlink:href="#linear-gradient"/><linearGradient id="linear-gradient-3" x1="1165.76" y1="660.26" x2="1172.36" y2="660.26" xlink:href="#linear-gradient"/></defs><title>Asset 1</title><g id="Layer_2" data-name="Layer 2"><g id="farBackground"><g class="cls-2"><g id="bg"><g id="bg-2" data-name="bg"><rect id="bg-3" data-name="bg" class="cls-3" x="605.79" y="1.5" width="2108.86" height="960"/><polygon class="cls-4" points="3.36 1340.58 605.72 961.5 2713.68 961.5 2111.32 1340.58 3.36 1340.58"/><polygon class="cls-5" points="3.36 380.57 605.79 1.5 605.72 961.5 3.36 1340.58 3.36 380.57"/></g><polygon class="cls-6" points="76.34 1342.71 0 1342.71 60.7 1304.54 137.05 1304.54 76.34 1342.71"/><polygon class="cls-6" points="162.69 1342.71 86.34 1342.71 147.04 1304.54 223.39 1304.54 162.69 1342.71"/><polygon class="cls-6" points="249.03 1342.71 172.69 1342.71 233.39 1304.54 309.73 1304.54 249.03 1342.71"/><polygon class="cls-6" points="335.37 1342.71 259.03 1342.71 319.73 1304.54 396.08 1304.54 335.37 1342.71"/><polygon class="cls-6" points="420.42 1342.71 344.08 1342.71 404.78 1304.54 481.13 1304.54 420.42 1342.71"/><polygon class="cls-6" points="506.77 1342.71 430.42 1342.71 491.13 1304.54 567.47 1304.54 506.77 1342.71"/><polygon class="cls-6" points="593.11 1342.71 516.77 1342.71 577.47 1304.54 653.81 1304.54 593.11 1342.71"/><polygon class="cls-6" points="679.45 1342.71 603.11 1342.71 663.81 1304.54 740.16 1304.54 679.45 1342.71"/><polygon class="cls-6" points="767.84 1342.71 691.5 1342.71 752.2 1304.54 828.54 1304.54 767.84 1342.71"/><polygon class="cls-6" points="854.18 1342.71 777.84 1342.71 838.54 1304.54 914.89 1304.54 854.18 1342.71"/><polygon class="cls-6" points="940.53 1342.71 864.18 1342.71 924.89 1304.54 1001.23 1304.54 940.53 1342.71"/><polygon class="cls-6" points="1026.87 1342.71 950.53 1342.71 1011.23 1304.54 1087.57 1304.54 1026.87 1342.71"/><polygon class="cls-6" points="1111.92 1342.71 1035.58 1342.71 1096.28 1304.54 1172.62 1304.54 1111.92 1342.71"/><polygon class="cls-6" points="1198.27 1342.71 1121.92 1342.71 1182.62 1304.54 1258.97 1304.54 1198.27 1342.71"/><polygon class="cls-6" points="1284.61 1342.71 1208.26 1342.71 1268.97 1304.54 1345.31 1304.54 1284.61 1342.71"/><polygon class="cls-6" points="1370.95 1342.71 1294.61 1342.71 1355.31 1304.54 1431.65 1304.54 1370.95 1342.71"/><polygon class="cls-6" points="1457.3 1342.71 1380.95 1342.71 1441.65 1304.54 1518 1304.54 1457.3 1342.71"/><polygon class="cls-6" points="1543.64 1342.71 1467.29 1342.71 1528 1304.54 1604.34 1304.54 1543.64 1342.71"/><polygon class="cls-6" points="1629.98 1342.71 1553.64 1342.71 1614.34 1304.54 1690.68 1304.54 1629.98 1342.71"/><polygon class="cls-6" points="1716.32 1342.71 1639.98 1342.71 1700.68 1304.54 1777.03 1304.54 1716.32 1342.71"/><polygon class="cls-6" points="1801.37 1342.71 1725.03 1342.71 1785.73 1304.54 1862.08 1304.54 1801.37 1342.71"/><polygon class="cls-6" points="1887.72 1342.71 1811.37 1342.71 1872.08 1304.54 1948.42 1304.54 1887.72 1342.71"/><polygon class="cls-6" points="1974.06 1342.71 1897.72 1342.71 1958.42 1304.54 2034.76 1304.54 1974.06 1342.71"/><polygon class="cls-6" points="2060.4 1342.71 1984.06 1342.71 2044.76 1304.54 2121.11 1304.54 2060.4 1342.71"/><polygon class="cls-6" points="144.34 1299.71 68 1299.71 128.7 1261.54 205.05 1261.54 144.34 1299.71"/><polygon class="cls-6" points="230.69 1299.71 154.34 1299.71 215.04 1261.54 291.39 1261.54 230.69 1299.71"/><polygon class="cls-6" points="317.03 1299.71 240.69 1299.71 301.39 1261.54 377.73 1261.54 317.03 1299.71"/><polygon class="cls-6" points="403.37 1299.71 327.03 1299.71 387.73 1261.54 464.08 1261.54 403.37 1299.71"/><polygon class="cls-6" points="488.42 1299.71 412.08 1299.71 472.78 1261.54 549.13 1261.54 488.42 1299.71"/><polygon class="cls-6" points="574.77 1299.71 498.42 1299.71 559.13 1261.54 635.47 1261.54 574.77 1299.71"/><polygon class="cls-6" points="661.11 1299.71 584.77 1299.71 645.47 1261.54 721.81 1261.54 661.11 1299.71"/><polygon class="cls-6" points="747.45 1299.71 671.11 1299.71 731.81 1261.54 808.16 1261.54 747.45 1299.71"/><polygon class="cls-6" points="835.84 1299.71 759.5 1299.71 820.2 1261.54 896.54 1261.54 835.84 1299.71"/><polygon class="cls-6" points="922.18 1299.71 845.84 1299.71 906.54 1261.54 982.89 1261.54 922.18 1299.71"/><polygon class="cls-6" points="1008.53 1299.71 932.18 1299.71 992.89 1261.54 1069.23 1261.54 1008.53 1299.71"/><polygon class="cls-6" points="1094.87 1299.71 1018.53 1299.71 1079.23 1261.54 1155.57 1261.54 1094.87 1299.71"/><polygon class="cls-6" points="1179.92 1299.71 1103.58 1299.71 1164.28 1261.54 1240.62 1261.54 1179.92 1299.71"/><polygon class="cls-6" points="1266.27 1299.71 1189.92 1299.71 1250.62 1261.54 1326.97 1261.54 1266.27 1299.71"/><polygon class="cls-6" points="1352.61 1299.71 1276.26 1299.71 1336.97 1261.54 1413.31 1261.54 1352.61 1299.71"/><polygon class="cls-6" points="1438.95 1299.71 1362.61 1299.71 1423.31 1261.54 1499.65 1261.54 1438.95 1299.71"/><polygon class="cls-6" points="1525.3 1299.71 1448.95 1299.71 1509.65 1261.54 1586 1261.54 1525.3 1299.71"/><polygon class="cls-6" points="1611.64 1299.71 1535.29 1299.71 1596 1261.54 1672.34 1261.54 1611.64 1299.71"/><polygon class="cls-6" points="1697.98 1299.71 1621.64 1299.71 1682.34 1261.54 1758.68 1261.54 1697.98 1299.71"/><polygon class="cls-6" points="1784.32 1299.71 1707.98 1299.71 1768.68 1261.54 1845.03 1261.54 1784.32 1299.71"/><polygon class="cls-6" points="1869.37 1299.71 1793.03 1299.71 1853.73 1261.54 1930.08 1261.54 1869.37 1299.71"/><polygon class="cls-6" points="1955.72 1299.71 1879.37 1299.71 1940.08 1261.54 2016.42 1261.54 1955.72 1299.71"/><polygon class="cls-6" points="2042.06 1299.71 1965.72 1299.71 2026.42 1261.54 2102.76 1261.54 2042.06 1299.71"/><polygon class="cls-6" points="2128.4 1299.71 2052.06 1299.71 2112.76 1261.54 2189.11 1261.54 2128.4 1299.71"/><polygon class="cls-6" points="213.34 1256.71 137 1256.71 197.7 1218.54 274.05 1218.54 213.34 1256.71"/><polygon class="cls-6" points="299.69 1256.71 223.34 1256.71 284.05 1218.54 360.39 1218.54 299.69 1256.71"/><polygon class="cls-6" points="386.03 1256.71 309.69 1256.71 370.39 1218.54 446.73 1218.54 386.03 1256.71"/><polygon class="cls-6" points="472.37 1256.71 396.03 1256.71 456.73 1218.54 533.08 1218.54 472.37 1256.71"/><polygon class="cls-6" points="557.42 1256.71 481.08 1256.71 541.78 1218.54 618.13 1218.54 557.42 1256.71"/><polygon class="cls-6" points="643.77 1256.71 567.42 1256.71 628.13 1218.54 704.47 1218.54 643.77 1256.71"/><polygon class="cls-6" points="730.11 1256.71 653.77 1256.71 714.47 1218.54 790.81 1218.54 730.11 1256.71"/><polygon class="cls-6" points="816.45 1256.71 740.11 1256.71 800.81 1218.54 877.16 1218.54 816.45 1256.71"/><polygon class="cls-6" points="904.84 1256.71 828.5 1256.71 889.2 1218.54 965.54 1218.54 904.84 1256.71"/><polygon class="cls-6" points="991.18 1256.71 914.84 1256.71 975.54 1218.54 1051.89 1218.54 991.18 1256.71"/><polygon class="cls-6" points="1077.53 1256.71 1001.18 1256.71 1061.89 1218.54 1138.23 1218.54 1077.53 1256.71"/><polygon class="cls-6" points="1163.87 1256.71 1087.53 1256.71 1148.23 1218.54 1224.57 1218.54 1163.87 1256.71"/><polygon class="cls-6" points="1248.92 1256.71 1172.58 1256.71 1233.28 1218.54 1309.62 1218.54 1248.92 1256.71"/><polygon class="cls-6" points="1335.27 1256.71 1258.92 1256.71 1319.62 1218.54 1395.97 1218.54 1335.27 1256.71"/><polygon class="cls-6" points="1421.61 1256.71 1345.26 1256.71 1405.97 1218.54 1482.31 1218.54 1421.61 1256.71"/><polygon class="cls-6" points="1507.95 1256.71 1431.61 1256.71 1492.31 1218.54 1568.65 1218.54 1507.95 1256.71"/><polygon class="cls-6" points="1594.3 1256.71 1517.95 1256.71 1578.65 1218.54 1655 1218.54 1594.3 1256.71"/><polygon class="cls-6" points="1680.64 1256.71 1604.29 1256.71 1665 1218.54 1741.34 1218.54 1680.64 1256.71"/><polygon class="cls-6" points="1766.98 1256.71 1690.64 1256.71 1751.34 1218.54 1827.68 1218.54 1766.98 1256.71"/><polygon class="cls-6" points="1853.32 1256.71 1776.98 1256.71 1837.68 1218.54 1914.03 1218.54 1853.32 1256.71"/><polygon class="cls-6" points="1938.37 1256.71 1862.03 1256.71 1922.73 1218.54 1999.08 1218.54 1938.37 1256.71"/><polygon class="cls-6" points="2024.72 1256.71 1948.37 1256.71 2009.08 1218.54 2085.42 1218.54 2024.72 1256.71"/><polygon class="cls-6" points="2111.06 1256.71 2034.72 1256.71 2095.42 1218.54 2171.76 1218.54 2111.06 1256.71"/><polygon class="cls-6" points="2197.4 1256.71 2121.06 1256.71 2181.76 1218.54 2258.11 1218.54 2197.4 1256.71"/><polygon class="cls-6" points="281.34 1213.71 205 1213.71 265.7 1175.54 342.05 1175.54 281.34 1213.71"/><polygon class="cls-6" points="367.69 1213.71 291.34 1213.71 352.05 1175.54 428.39 1175.54 367.69 1213.71"/><polygon class="cls-6" points="454.03 1213.71 377.69 1213.71 438.39 1175.54 514.73 1175.54 454.03 1213.71"/><polygon class="cls-6" points="540.37 1213.71 464.03 1213.71 524.73 1175.54 601.08 1175.54 540.37 1213.71"/><polygon class="cls-6" points="625.42 1213.71 549.08 1213.71 609.78 1175.54 686.13 1175.54 625.42 1213.71"/><polygon class="cls-6" points="711.77 1213.71 635.42 1213.71 696.13 1175.54 772.47 1175.54 711.77 1213.71"/><polygon class="cls-6" points="798.11 1213.71 721.77 1213.71 782.47 1175.54 858.81 1175.54 798.11 1213.71"/><polygon class="cls-6" points="884.45 1213.71 808.11 1213.71 868.81 1175.54 945.16 1175.54 884.45 1213.71"/><polygon class="cls-6" points="972.84 1213.71 896.5 1213.71 957.2 1175.54 1033.54 1175.54 972.84 1213.71"/><polygon class="cls-6" points="1059.18 1213.71 982.84 1213.71 1043.54 1175.54 1119.89 1175.54 1059.18 1213.71"/><polygon class="cls-6" points="1145.53 1213.71 1069.18 1213.71 1129.89 1175.54 1206.23 1175.54 1145.53 1213.71"/><polygon class="cls-6" points="1231.87 1213.71 1155.53 1213.71 1216.23 1175.54 1292.57 1175.54 1231.87 1213.71"/><polygon class="cls-6" points="1316.92 1213.71 1240.58 1213.71 1301.28 1175.54 1377.62 1175.54 1316.92 1213.71"/><polygon class="cls-6" points="1403.27 1213.71 1326.92 1213.71 1387.62 1175.54 1463.97 1175.54 1403.27 1213.71"/><polygon class="cls-6" points="1489.61 1213.71 1413.26 1213.71 1473.97 1175.54 1550.31 1175.54 1489.61 1213.71"/><polygon class="cls-6" points="1575.95 1213.71 1499.61 1213.71 1560.31 1175.54 1636.65 1175.54 1575.95 1213.71"/><polygon class="cls-6" points="1662.3 1213.71 1585.95 1213.71 1646.65 1175.54 1723 1175.54 1662.3 1213.71"/><polygon class="cls-6" points="1748.64 1213.71 1672.29 1213.71 1733 1175.54 1809.34 1175.54 1748.64 1213.71"/><polygon class="cls-6" points="1834.98 1213.71 1758.64 1213.71 1819.34 1175.54 1895.68 1175.54 1834.98 1213.71"/><polygon class="cls-6" points="1921.32 1213.71 1844.98 1213.71 1905.68 1175.54 1982.03 1175.54 1921.32 1213.71"/><polygon class="cls-6" points="2006.37 1213.71 1930.03 1213.71 1990.73 1175.54 2067.08 1175.54 2006.37 1213.71"/><polygon class="cls-6" points="2092.72 1213.71 2016.37 1213.71 2077.08 1175.54 2153.42 1175.54 2092.72 1213.71"/><polygon class="cls-6" points="2179.06 1213.71 2102.72 1213.71 2163.42 1175.54 2239.76 1175.54 2179.06 1213.71"/><polygon class="cls-6" points="2265.4 1213.71 2189.06 1213.71 2249.76 1175.54 2326.11 1175.54 2265.4 1213.71"/><polygon class="cls-6" points="349.34 1170.71 273 1170.71 333.7 1132.54 410.05 1132.54 349.34 1170.71"/><polygon class="cls-6" points="435.69 1170.71 359.34 1170.71 420.05 1132.54 496.39 1132.54 435.69 1170.71"/><polygon class="cls-6" points="522.03 1170.71 445.69 1170.71 506.39 1132.54 582.73 1132.54 522.03 1170.71"/><polygon class="cls-6" points="608.37 1170.71 532.03 1170.71 592.73 1132.54 669.08 1132.54 608.37 1170.71"/><polygon class="cls-6" points="693.42 1170.71 617.08 1170.71 677.78 1132.54 754.13 1132.54 693.42 1170.71"/><polygon class="cls-6" points="779.77 1170.71 703.42 1170.71 764.13 1132.54 840.47 1132.54 779.77 1170.71"/><polygon class="cls-6" points="866.11 1170.71 789.77 1170.71 850.47 1132.54 926.81 1132.54 866.11 1170.71"/><polygon class="cls-6" points="952.45 1170.71 876.11 1170.71 936.81 1132.54 1013.16 1132.54 952.45 1170.71"/><polygon class="cls-6" points="1040.84 1170.71 964.5 1170.71 1025.2 1132.54 1101.54 1132.54 1040.84 1170.71"/><polygon class="cls-6" points="1127.18 1170.71 1050.84 1170.71 1111.54 1132.54 1187.89 1132.54 1127.18 1170.71"/><polygon class="cls-6" points="1213.53 1170.71 1137.18 1170.71 1197.89 1132.54 1274.23 1132.54 1213.53 1170.71"/><polygon class="cls-6" points="1299.87 1170.71 1223.53 1170.71 1284.23 1132.54 1360.57 1132.54 1299.87 1170.71"/><polygon class="cls-6" points="1384.92 1170.71 1308.58 1170.71 1369.28 1132.54 1445.62 1132.54 1384.92 1170.71"/><polygon class="cls-6" points="1471.27 1170.71 1394.92 1170.71 1455.62 1132.54 1531.97 1132.54 1471.27 1170.71"/><polygon class="cls-6" points="1557.61 1170.71 1481.26 1170.71 1541.97 1132.54 1618.31 1132.54 1557.61 1170.71"/><polygon class="cls-6" points="1643.95 1170.71 1567.61 1170.71 1628.31 1132.54 1704.65 1132.54 1643.95 1170.71"/><polygon class="cls-6" points="1730.3 1170.71 1653.95 1170.71 1714.65 1132.54 1791 1132.54 1730.3 1170.71"/><polygon class="cls-6" points="1816.64 1170.71 1740.29 1170.71 1801 1132.54 1877.34 1132.54 1816.64 1170.71"/><polygon class="cls-6" points="1902.98 1170.71 1826.64 1170.71 1887.34 1132.54 1963.68 1132.54 1902.98 1170.71"/><polygon class="cls-6" points="1989.32 1170.71 1912.98 1170.71 1973.68 1132.54 2050.03 1132.54 1989.32 1170.71"/><polygon class="cls-6" points="2074.37 1170.71 1998.03 1170.71 2058.73 1132.54 2135.08 1132.54 2074.37 1170.71"/><polygon class="cls-6" points="2160.72 1170.71 2084.37 1170.71 2145.08 1132.54 2221.42 1132.54 2160.72 1170.71"/><polygon class="cls-6" points="2247.06 1170.71 2170.72 1170.71 2231.42 1132.54 2307.76 1132.54 2247.06 1170.71"/><polygon class="cls-6" points="2333.4 1170.71 2257.06 1170.71 2317.76 1132.54 2394.11 1132.54 2333.4 1170.71"/><polygon class="cls-6" points="417.34 1127.71 341 1127.71 401.7 1089.54 478.05 1089.54 417.34 1127.71"/><polygon class="cls-6" points="503.69 1127.71 427.34 1127.71 488.05 1089.54 564.39 1089.54 503.69 1127.71"/><polygon class="cls-6" points="590.03 1127.71 513.69 1127.71 574.39 1089.54 650.73 1089.54 590.03 1127.71"/><polygon class="cls-6" points="676.37 1127.71 600.03 1127.71 660.73 1089.54 737.08 1089.54 676.37 1127.71"/><polygon class="cls-6" points="761.42 1127.71 685.08 1127.71 745.78 1089.54 822.13 1089.54 761.42 1127.71"/><polygon class="cls-6" points="847.77 1127.71 771.42 1127.71 832.13 1089.54 908.47 1089.54 847.77 1127.71"/><polygon class="cls-6" points="934.11 1127.71 857.77 1127.71 918.47 1089.54 994.81 1089.54 934.11 1127.71"/><polygon class="cls-6" points="1020.45 1127.71 944.11 1127.71 1004.81 1089.54 1081.16 1089.54 1020.45 1127.71"/><polygon class="cls-6" points="1108.84 1127.71 1032.5 1127.71 1093.2 1089.54 1169.54 1089.54 1108.84 1127.71"/><polygon class="cls-6" points="1195.18 1127.71 1118.84 1127.71 1179.54 1089.54 1255.89 1089.54 1195.18 1127.71"/><polygon class="cls-6" points="1281.53 1127.71 1205.18 1127.71 1265.89 1089.54 1342.23 1089.54 1281.53 1127.71"/><polygon class="cls-6" points="1367.87 1127.71 1291.53 1127.71 1352.23 1089.54 1428.57 1089.54 1367.87 1127.71"/><polygon class="cls-6" points="1452.92 1127.71 1376.58 1127.71 1437.28 1089.54 1513.62 1089.54 1452.92 1127.71"/><polygon class="cls-6" points="1539.27 1127.71 1462.92 1127.71 1523.62 1089.54 1599.97 1089.54 1539.27 1127.71"/><polygon class="cls-6" points="1625.61 1127.71 1549.26 1127.71 1609.97 1089.54 1686.31 1089.54 1625.61 1127.71"/><polygon class="cls-6" points="1711.95 1127.71 1635.61 1127.71 1696.31 1089.54 1772.65 1089.54 1711.95 1127.71"/><polygon class="cls-6" points="1798.3 1127.71 1721.95 1127.71 1782.65 1089.54 1859 1089.54 1798.3 1127.71"/><polygon class="cls-6" points="1884.64 1127.71 1808.29 1127.71 1869 1089.54 1945.34 1089.54 1884.64 1127.71"/><polygon class="cls-6" points="1970.98 1127.71 1894.64 1127.71 1955.34 1089.54 2031.68 1089.54 1970.98 1127.71"/><polygon class="cls-6" points="2057.32 1127.71 1980.98 1127.71 2041.68 1089.54 2118.03 1089.54 2057.32 1127.71"/><polygon class="cls-6" points="2142.37 1127.71 2066.03 1127.71 2126.73 1089.54 2203.08 1089.54 2142.37 1127.71"/><polygon class="cls-6" points="2228.72 1127.71 2152.37 1127.71 2213.08 1089.54 2289.42 1089.54 2228.72 1127.71"/><polygon class="cls-6" points="2315.06 1127.71 2238.72 1127.71 2299.42 1089.54 2375.76 1089.54 2315.06 1127.71"/><polygon class="cls-6" points="2401.4 1127.71 2325.06 1127.71 2385.76 1089.54 2462.11 1089.54 2401.4 1127.71"/><polygon class="cls-6" points="486.34 1084.71 410 1084.71 470.7 1046.54 547.05 1046.54 486.34 1084.71"/><polygon class="cls-6" points="572.69 1084.71 496.34 1084.71 557.04 1046.54 633.39 1046.54 572.69 1084.71"/><polygon class="cls-6" points="659.03 1084.71 582.69 1084.71 643.39 1046.54 719.73 1046.54 659.03 1084.71"/><polygon class="cls-6" points="745.37 1084.71 669.03 1084.71 729.73 1046.54 806.08 1046.54 745.37 1084.71"/><polygon class="cls-6" points="830.42 1084.71 754.08 1084.71 814.78 1046.54 891.13 1046.54 830.42 1084.71"/><polygon class="cls-6" points="916.77 1084.71 840.42 1084.71 901.13 1046.54 977.47 1046.54 916.77 1084.71"/><polygon class="cls-6" points="1003.11 1084.71 926.77 1084.71 987.47 1046.54 1063.81 1046.54 1003.11 1084.71"/><polygon class="cls-6" points="1089.45 1084.71 1013.11 1084.71 1073.81 1046.54 1150.16 1046.54 1089.45 1084.71"/><polygon class="cls-6" points="1177.84 1084.71 1101.5 1084.71 1162.2 1046.54 1238.54 1046.54 1177.84 1084.71"/><polygon class="cls-6" points="1264.18 1084.71 1187.84 1084.71 1248.54 1046.54 1324.89 1046.54 1264.18 1084.71"/><polygon class="cls-6" points="1350.53 1084.71 1274.18 1084.71 1334.89 1046.54 1411.23 1046.54 1350.53 1084.71"/><polygon class="cls-6" points="1436.87 1084.71 1360.53 1084.71 1421.23 1046.54 1497.57 1046.54 1436.87 1084.71"/><polygon class="cls-6" points="1521.92 1084.71 1445.58 1084.71 1506.28 1046.54 1582.62 1046.54 1521.92 1084.71"/><polygon class="cls-6" points="1608.27 1084.71 1531.92 1084.71 1592.62 1046.54 1668.97 1046.54 1608.27 1084.71"/><polygon class="cls-6" points="1694.61 1084.71 1618.26 1084.71 1678.97 1046.54 1755.31 1046.54 1694.61 1084.71"/><polygon class="cls-6" points="1780.95 1084.71 1704.61 1084.71 1765.31 1046.54 1841.65 1046.54 1780.95 1084.71"/><polygon class="cls-6" points="1867.3 1084.71 1790.95 1084.71 1851.65 1046.54 1928 1046.54 1867.3 1084.71"/><polygon class="cls-6" points="1953.64 1084.71 1877.29 1084.71 1938 1046.54 2014.34 1046.54 1953.64 1084.71"/><polygon class="cls-6" points="2039.98 1084.71 1963.64 1084.71 2024.34 1046.54 2100.68 1046.54 2039.98 1084.71"/><polygon class="cls-6" points="2126.32 1084.71 2049.98 1084.71 2110.68 1046.54 2187.03 1046.54 2126.32 1084.71"/><polygon class="cls-6" points="2211.37 1084.71 2135.03 1084.71 2195.73 1046.54 2272.08 1046.54 2211.37 1084.71"/><polygon class="cls-6" points="2297.72 1084.71 2221.37 1084.71 2282.08 1046.54 2358.42 1046.54 2297.72 1084.71"/><polygon class="cls-6" points="2384.06 1084.71 2307.72 1084.71 2368.42 1046.54 2444.76 1046.54 2384.06 1084.71"/><polygon class="cls-6" points="2470.4 1084.71 2394.06 1084.71 2454.76 1046.54 2531.11 1046.54 2470.4 1084.71"/><polygon class="cls-6" points="554.34 1041.71 478 1041.71 538.7 1003.54 615.05 1003.54 554.34 1041.71"/><polygon class="cls-6" points="640.69 1041.71 564.34 1041.71 625.04 1003.54 701.39 1003.54 640.69 1041.71"/><polygon class="cls-6" points="727.03 1041.71 650.69 1041.71 711.39 1003.54 787.73 1003.54 727.03 1041.71"/><polygon class="cls-6" points="813.37 1041.71 737.03 1041.71 797.73 1003.54 874.08 1003.54 813.37 1041.71"/><polygon class="cls-6" points="898.42 1041.71 822.08 1041.71 882.78 1003.54 959.13 1003.54 898.42 1041.71"/><polygon class="cls-6" points="984.77 1041.71 908.42 1041.71 969.13 1003.54 1045.47 1003.54 984.77 1041.71"/><polygon class="cls-6" points="1071.11 1041.71 994.77 1041.71 1055.47 1003.54 1131.81 1003.54 1071.11 1041.71"/><polygon class="cls-6" points="1157.45 1041.71 1081.11 1041.71 1141.81 1003.54 1218.16 1003.54 1157.45 1041.71"/><polygon class="cls-6" points="1245.84 1041.71 1169.5 1041.71 1230.2 1003.54 1306.54 1003.54 1245.84 1041.71"/><polygon class="cls-6" points="1332.18 1041.71 1255.84 1041.71 1316.54 1003.54 1392.89 1003.54 1332.18 1041.71"/><polygon class="cls-6" points="1418.53 1041.71 1342.18 1041.71 1402.89 1003.54 1479.23 1003.54 1418.53 1041.71"/><polygon class="cls-6" points="1504.87 1041.71 1428.53 1041.71 1489.23 1003.54 1565.57 1003.54 1504.87 1041.71"/><polygon class="cls-6" points="1589.92 1041.71 1513.58 1041.71 1574.28 1003.54 1650.62 1003.54 1589.92 1041.71"/><polygon class="cls-6" points="1676.27 1041.71 1599.92 1041.71 1660.62 1003.54 1736.97 1003.54 1676.27 1041.71"/><polygon class="cls-6" points="1762.61 1041.71 1686.26 1041.71 1746.97 1003.54 1823.31 1003.54 1762.61 1041.71"/><polygon class="cls-6" points="1848.95 1041.71 1772.61 1041.71 1833.31 1003.54 1909.65 1003.54 1848.95 1041.71"/><polygon class="cls-6" points="1935.3 1041.71 1858.95 1041.71 1919.65 1003.54 1996 1003.54 1935.3 1041.71"/><polygon class="cls-6" points="2021.64 1041.71 1945.29 1041.71 2006 1003.54 2082.34 1003.54 2021.64 1041.71"/><polygon class="cls-6" points="2107.98 1041.71 2031.64 1041.71 2092.34 1003.54 2168.68 1003.54 2107.98 1041.71"/><polygon class="cls-6" points="2194.32 1041.71 2117.98 1041.71 2178.68 1003.54 2255.03 1003.54 2194.32 1041.71"/><polygon class="cls-6" points="2279.37 1041.71 2203.03 1041.71 2263.73 1003.54 2340.08 1003.54 2279.37 1041.71"/><polygon class="cls-6" points="2365.72 1041.71 2289.37 1041.71 2350.08 1003.54 2426.42 1003.54 2365.72 1041.71"/><polygon class="cls-6" points="2452.06 1041.71 2375.72 1041.71 2436.42 1003.54 2512.76 1003.54 2452.06 1041.71"/><polygon class="cls-6" points="2538.4 1041.71 2462.06 1041.71 2522.76 1003.54 2599.11 1003.54 2538.4 1041.71"/><polygon class="cls-6" points="621.34 999.72 545 999.72 605.7 961.54 682.05 961.54 621.34 999.72"/><polygon class="cls-6" points="707.69 999.72 631.34 999.72 692.04 961.54 768.39 961.54 707.69 999.72"/><polygon class="cls-6" points="794.03 999.72 717.69 999.72 778.39 961.54 854.73 961.54 794.03 999.72"/><polygon class="cls-6" points="880.37 999.72 804.03 999.72 864.73 961.54 941.08 961.54 880.37 999.72"/><polygon class="cls-6" points="965.42 999.72 889.08 999.72 949.78 961.54 1026.13 961.54 965.42 999.72"/><polygon class="cls-6" points="1051.77 999.72 975.42 999.72 1036.13 961.54 1112.47 961.54 1051.77 999.72"/><polygon class="cls-6" points="1138.11 999.72 1061.77 999.72 1122.47 961.54 1198.81 961.54 1138.11 999.72"/><polygon class="cls-6" points="1224.45 999.72 1148.11 999.72 1208.81 961.54 1285.16 961.54 1224.45 999.72"/><polygon class="cls-6" points="1312.84 999.72 1236.5 999.72 1297.2 961.54 1373.54 961.54 1312.84 999.72"/><polygon class="cls-6" points="1399.18 999.72 1322.84 999.72 1383.54 961.54 1459.89 961.54 1399.18 999.72"/><polygon class="cls-6" points="1485.53 999.72 1409.18 999.72 1469.89 961.54 1546.23 961.54 1485.53 999.72"/><polygon class="cls-6" points="1571.87 999.72 1495.53 999.72 1556.23 961.54 1632.57 961.54 1571.87 999.72"/><polygon class="cls-6" points="1656.92 999.72 1580.58 999.72 1641.28 961.54 1717.62 961.54 1656.92 999.72"/><polygon class="cls-6" points="1743.27 999.72 1666.92 999.72 1727.62 961.54 1803.97 961.54 1743.27 999.72"/><polygon class="cls-6" points="1829.61 999.72 1753.26 999.72 1813.97 961.54 1890.31 961.54 1829.61 999.72"/><polygon class="cls-6" points="1915.95 999.72 1839.61 999.72 1900.31 961.54 1976.65 961.54 1915.95 999.72"/><polygon class="cls-6" points="2002.3 999.72 1925.95 999.72 1986.65 961.54 2063 961.54 2002.3 999.72"/><polygon class="cls-6" points="2088.64 999.72 2012.29 999.72 2073 961.54 2149.34 961.54 2088.64 999.72"/><polygon class="cls-6" points="2174.98 999.72 2098.64 999.72 2159.34 961.54 2235.68 961.54 2174.98 999.72"/><polygon class="cls-6" points="2261.32 999.72 2184.98 999.72 2245.68 961.54 2322.03 961.54 2261.32 999.72"/><polygon class="cls-6" points="2346.37 999.72 2270.03 999.72 2330.73 961.54 2407.08 961.54 2346.37 999.72"/><polygon class="cls-6" points="2432.72 999.72 2356.37 999.72 2417.08 961.54 2493.42 961.54 2432.72 999.72"/><polygon class="cls-6" points="2519.06 999.72 2442.72 999.72 2503.42 961.54 2579.76 961.54 2519.06 999.72"/><polygon class="cls-6" points="2605.4 999.72 2529.06 999.72 2589.76 961.54 2666.11 961.54 2605.4 999.72"/><rect class="cls-7" x="605.94" y="885.15" width="76.34" height="76.35"/><rect class="cls-7" x="692.29" y="885.15" width="76.34" height="76.35"/><rect class="cls-7" x="778.63" y="885.15" width="76.34" height="76.35"/><rect class="cls-7" x="864.97" y="885.15" width="76.34" height="76.35"/><rect class="cls-7" x="950.02" y="885.15" width="76.34" height="76.35"/><rect class="cls-7" x="1036.37" y="885.15" width="76.34" height="76.35"/><rect class="cls-7" x="1122.71" y="885.15" width="76.34" height="76.35"/><rect class="cls-7" x="1209.05" y="885.15" width="76.34" height="76.35"/><rect class="cls-7" x="1297.44" y="885.15" width="76.34" height="76.35"/><rect class="cls-7" x="1383.78" y="885.15" width="76.34" height="76.35"/><rect class="cls-7" x="1470.13" y="885.15" width="76.34" height="76.35"/><rect class="cls-7" x="1556.47" y="885.15" width="76.34" height="76.35"/><rect class="cls-7" x="1641.52" y="885.15" width="76.34" height="76.35"/><rect class="cls-7" x="1727.86" y="885.15" width="76.34" height="76.35"/><rect class="cls-7" x="1814.21" y="885.15" width="76.34" height="76.35"/><rect class="cls-7" x="1900.55" y="885.15" width="76.34" height="76.35"/><rect class="cls-7" x="1986.89" y="885.15" width="76.34" height="76.35"/><rect class="cls-7" x="2073.24" y="885.15" width="76.34" height="76.35"/><rect class="cls-7" x="2159.58" y="885.15" width="76.34" height="76.35"/><rect class="cls-7" x="2245.92" y="885.15" width="76.34" height="76.35"/><rect class="cls-7" x="2330.97" y="885.15" width="76.34" height="76.35"/><rect class="cls-7" x="2417.32" y="885.15" width="76.34" height="76.35"/><rect class="cls-7" x="2503.66" y="885.15" width="76.34" height="76.35"/><rect class="cls-7" x="2590" y="885.15" width="76.34" height="76.35"/><rect class="cls-8" x="605.79" y="875.15" width="2107.89" height="86.35"/><rect class="cls-7" x="605.94" y="885.15" width="76.34" height="76.35"/><rect class="cls-7" x="692.29" y="885.15" width="76.34" height="76.35"/><rect class="cls-7" x="778.63" y="885.15" width="76.34" height="76.35"/><rect class="cls-7" x="864.97" y="885.15" width="76.34" height="76.35"/><rect class="cls-7" x="950.02" y="885.15" width="76.34" height="76.35"/><rect class="cls-7" x="1036.37" y="885.15" width="76.34" height="76.35"/><rect class="cls-7" x="1122.71" y="885.15" width="76.34" height="76.35"/><rect class="cls-7" x="1209.05" y="885.15" width="76.34" height="76.35"/><rect class="cls-7" x="1297.44" y="885.15" width="76.34" height="76.35"/><rect class="cls-7" x="1383.78" y="885.15" width="76.34" height="76.35"/><rect class="cls-7" x="1470.13" y="885.15" width="76.34" height="76.35"/><rect class="cls-7" x="1556.47" y="885.15" width="76.34" height="76.35"/><rect class="cls-7" x="1641.52" y="885.15" width="76.34" height="76.35"/><rect class="cls-7" x="1727.86" y="885.15" width="76.34" height="76.35"/><rect class="cls-7" x="1814.21" y="885.15" width="76.34" height="76.35"/><rect class="cls-7" x="1900.55" y="885.15" width="76.34" height="76.35"/><rect class="cls-7" x="1986.89" y="885.15" width="76.34" height="76.35"/><rect class="cls-7" x="2073.24" y="885.15" width="76.34" height="76.35"/><rect class="cls-7" x="2159.58" y="885.15" width="76.34" height="76.35"/><rect class="cls-7" x="2245.92" y="885.15" width="76.34" height="76.35"/><rect class="cls-7" x="2330.97" y="885.15" width="76.34" height="76.35"/><rect class="cls-7" x="2417.32" y="885.15" width="76.34" height="76.35"/><rect class="cls-7" x="2503.66" y="885.15" width="76.34" height="76.35"/><rect class="cls-7" x="2590" y="885.15" width="76.34" height="76.35"/></g><g id="picture"><polygon class="cls-9" points="1465.78 479.7 1475.78 469.7 1475.78 330 1465.78 330 1465.78 479.7"/><polygon class="cls-5" points="1475.78 469.7 1465.78 479.7 1788.4 479.7 1788.4 469.7 1475.78 469.7"/><polygon class="cls-9" points="1475.78 469.7 1485.78 459.7 1788.4 459.7 1788.4 469.7 1475.78 469.7"/><polygon class="cls-5" points="1475.78 469.7 1475.78 330 1485.78 330 1485.78 459.7 1475.78 469.7"/><rect class="cls-10" x="1485.78" y="330" width="302.62" height="129.7"/><polygon class="cls-11" points="1465.78 479.7 1475.78 469.7 1475.78 330 1465.78 330 1465.78 479.7"/><polygon class="cls-12" points="1475.78 469.7 1465.78 479.7 1788.4 479.7 1788.4 469.7 1475.78 469.7"/><polygon class="cls-11" points="1475.78 469.7 1485.78 459.7 1788.4 459.7 1788.4 469.7 1475.78 469.7"/><polygon class="cls-12" points="1475.78 469.7 1475.78 330 1485.78 330 1485.78 459.7 1475.78 469.7"/><path class="cls-13" d="M680-34.06V95.63H982.62v20H660V-34.06h20m0-3H660a3,3,0,0,0-3,3V115.63a3,3,0,0,0,3,3H982.62a3,3,0,0,0,3-3v-20a3,3,0,0,0-3-3H683V-34.06a3,3,0,0,0-3-3Z" transform="translate(805.78 364.07)"/><path class="cls-13" d="M982.62-34.06V115.63H660V-34.06H982.62m0-3H660a3,3,0,0,0-3,3V115.63a3,3,0,0,0,3,3H982.62a3,3,0,0,0,3-3V-34.06a3,3,0,0,0-3-3Z" transform="translate(805.78 364.07)"/></g><g id="cooler"><polygon class="cls-14" points="1564.71 652.62 1683.14 578.09 1934.63 578.09 1816.2 652.62 1564.71 652.62"/><rect class="cls-8" x="1564.71" y="652.62" width="251.49" height="480.81"/><polygon class="cls-5" points="1816.2 652.62 1934.63 578.09 1934.63 1058.9 1816.2 1133.43 1816.2 652.62"/><polyline class="cls-15" points="1564.71 652.62 1564.71 1133.43 1816.2 1133.43 1816.2 652.62"/><polyline class="cls-5" points="1934.63 578.09 1934.63 1058.9 1816.2 1133.43 1816.2 652.62"/><path class="cls-16" d="M1128.86,214v480.8l-118.44,74.54H758.93V288.56L877.37,214h251.49m3-3H876.5l-.73.46L757.34,286l-1.41.88V772.37h255.36l.73-.47,118.43-74.53,1.41-.88V211Z" transform="translate(805.78 364.07)"/></g><g id="box"><rect class="cls-8" x="1599.38" y="563.77" width="142.43" height="78.43"/><polygon class="cls-5" points="1741.81 563.77 1808.88 521.56 1808.88 599.99 1741.81 642.2 1741.81 563.77"/><polyline class="cls-17" points="1599.38 563.77 1599.38 642.2 1741.81 642.2 1741.81 563.77"/><polyline class="cls-18" points="1741.81 563.77 1724.76 581.84 1718.22 575.6 1703.85 588.45 1697.33 582.22 1683.01 594.97 1676.47 588.72 1676.47 588.79 1662.1 601.58 1655.56 595.34 1655.56 595.35 1641.19 608.13 1634.65 601.89 1634.65 601.96 1620.29 614.75 1613.75 608.5 1613.75 608.5 1599.38 621.29 1599.38 618.87"/><polyline class="cls-9" points="1599.38 563.77 1599.38 621.29 1613.75 608.5 1613.75 608.5 1620.29 614.75 1634.65 601.96 1634.65 601.89 1641.19 608.13 1655.56 595.35 1655.56 595.34 1662.1 601.58 1676.47 588.79 1676.47 588.72 1683.01 594.97 1697.33 582.22 1703.85 588.45 1718.22 575.6 1724.76 581.84 1741.81 563.77"/><polygon class="cls-19" points="1599.38 563.77 1666.45 521.56 1808.88 521.56 1741.81 563.77 1599.38 563.77"/><polyline class="cls-20" points="1808.88 521.56 1808.88 599.99 1741.81 642.2 1741.81 563.77"/><path class="cls-15" d="M1003.1,157.49v78.43L936,278.13H793.6V199.7l67.08-42.21H1003.1m3-3H859.81l-.73.46L792,197.16l-1.41.88v83.09H936.9l.73-.46,67.07-42.21,1.4-.88V154.49Z" transform="translate(805.78 364.07)"/></g><g id="box-2" data-name="box"><rect class="cls-8" x="1613.11" y="483.31" width="142.43" height="78.43"/><polygon class="cls-5" points="1755.54 483.31 1822.62 441.1 1822.62 519.53 1755.54 561.74 1755.54 483.31"/><polyline class="cls-17" points="1613.11 483.31 1613.11 561.74 1755.54 561.74 1755.54 483.31"/><polyline class="cls-18" points="1755.54 483.31 1738.49 501.39 1731.95 495.14 1717.59 508 1711.06 501.77 1696.74 514.51 1690.2 508.27 1690.2 508.34 1675.84 521.13 1669.3 514.88 1669.3 514.89 1654.93 527.68 1648.39 521.44 1648.39 521.51 1634.02 534.3 1627.48 528.05 1627.48 528.05 1613.11 540.84 1613.11 538.42"/><polyline class="cls-9" points="1613.11 483.31 1613.11 540.84 1627.48 528.05 1627.48 528.05 1634.02 534.3 1648.39 521.51 1648.39 521.44 1654.93 527.68 1669.3 514.89 1669.3 514.88 1675.84 521.13 1690.2 508.34 1690.2 508.27 1696.74 514.51 1711.06 501.77 1717.59 508 1731.95 495.14 1738.49 501.39 1755.54 483.31"/><polygon class="cls-19" points="1613.11 483.31 1680.19 441.1 1822.62 441.1 1755.54 483.31 1613.11 483.31"/><polyline class="cls-20" points="1822.62 441.1 1822.62 519.53 1755.54 561.74 1755.54 483.31"/><path class="cls-15" d="M1016.84,77v78.43l-67.08,42.21H807.34V119.25L874.41,77h142.43m3-3H873.54l-.73.46-67.07,42.21-1.4.88v83.09H950.63l.73-.46L1018.44,158l1.4-.88V74Z" transform="translate(805.78 364.07)"/></g><g id="displayCase"><path class="cls-13" d="M485.33,191.46V691.61H192.91L61.52,774.29V744.46L174.7,673.23l18.21-11.46L174.7,673.23v-263L61.52,481.46V451.62L174.7,380.4l67.76-178.09,17.24-10.85L192.91,368.94,259.7,191.46H485.33M218.24,661.77H399.57V221.3H277.06L218.24,377.6V661.77M259.7,188.46a3,3,0,0,0-1.6.46l-17.24,10.85a3,3,0,0,0-1.2,1.47l-67.4,177.15L59.93,449.08a3,3,0,0,0-1.41,2.54v29.84a3,3,0,0,0,3,3,3,3,0,0,0,1.6-.46L171.7,415.67V671.58L59.93,741.92a3,3,0,0,0-1.41,2.54v29.83a3,3,0,0,0,3,3,3,3,0,0,0,1.6-.46l130.66-82.22H485.33a3,3,0,0,0,3-3V191.46a3,3,0,0,0-3-3H259.7Zm19.43,35.84H396.57V658.77H221.24V378.15L279.13,224.3Z" transform="translate(805.78 364.07)"/><polygon class="cls-21" points="980.48 744.47 1048.24 566.37 1065.47 555.53 998.69 733 980.48 744.47"/><polygon class="cls-5" points="867.3 1138.36 998.69 1055.67 998.69 1025.84 867.3 1108.52 867.3 1138.36"/><polygon class="cls-5" points="867.3 845.52 998.69 762.84 998.69 733 867.3 815.69 867.3 845.52"/><polygon class="cls-15" points="867.3 1138.36 998.69 1055.67 1291.1 1055.67 1159.71 1138.36 867.3 1138.36"/><polygon class="cls-8" points="1024.02 1025.84 1024.02 741.67 1082.83 585.36 1205.35 585.36 1205.35 555.53 1065.47 555.53 998.69 733 998.69 1055.67 1205.35 1055.67 1205.35 1025.84 1024.02 1025.84"/><rect class="cls-8" x="1205.35" y="555.53" width="85.76" height="500.15"/><polygon class="cls-5" points="934.08 638.21 1065.47 555.53 1291.1 555.53 1159.71 638.21 934.08 638.21"/><polygon class="cls-5" points="980.48 744.47 998.69 733 998.69 1025.84 980.48 1037.3 980.48 744.47"/><polygon class="cls-9" points="867.3 827.55 998.69 744.87 1291.1 659.25 1291.1 669.25 1159.71 751.94 867.3 837.55 867.3 827.55"/><polygon class="cls-8" points="867.3 837.55 1159.71 751.94 1159.71 741.94 867.3 827.55 867.3 837.55"/><polygon class="cls-5" points="1159.71 741.94 1291.1 659.25 1291.1 669.25 1159.71 751.94 1159.71 741.94"/><path class="cls-13" d="M485.33,295.19v10L353.94,387.87,61.52,473.49v-10L192.91,380.8l292.42-85.61m3-4-3.85,1.12L192.07,377.92l-.4.12-.36.22L59.93,461l-1.41.88v15.66l3.85-1.13,292.41-85.61.4-.11.36-.23,131.38-82.68,1.41-.88V291.19Z" transform="translate(805.78 364.07)"/><polygon class="cls-9" points="867.3 924.55 998.69 841.87 1291.1 756.25 1291.1 766.25 1159.71 848.94 867.3 934.55 867.3 924.55"/><polygon class="cls-8" points="867.3 934.55 1159.71 848.94 1159.71 838.94 867.3 924.55 867.3 934.55"/><polygon class="cls-5" points="1159.71 838.94 1291.1 756.25 1291.1 766.25 1159.71 848.94 1159.71 838.94"/><path class="cls-13" d="M485.33,392.19v10L353.94,484.87,61.52,570.49v-10L192.91,477.8l292.42-85.61m3-4-3.85,1.12L192.07,474.92l-.4.12-.36.22L59.93,558l-1.41.88v15.66l3.85-1.13,292.41-85.61.4-.11.36-.23,131.38-82.68,1.41-.88V388.19Z" transform="translate(805.78 364.07)"/><polygon class="cls-9" points="867.3 1020.55 998.69 937.87 1291.1 852.25 1291.1 862.25 1159.71 944.94 867.3 1030.55 867.3 1020.55"/><polygon class="cls-8" points="867.3 1030.55 1159.71 944.94 1159.71 934.94 867.3 1020.55 867.3 1030.55"/><polygon class="cls-5" points="1159.71 934.94 1291.1 852.25 1291.1 862.25 1159.71 944.94 1159.71 934.94"/><path class="cls-13" d="M485.33,488.19v10L353.94,580.87,61.52,666.49v-10L192.91,573.8l292.42-85.61m3-4-3.85,1.12L192.07,570.92l-.4.12-.36.22L59.93,654l-1.41.88v15.66l3.85-1.13,292.41-85.61.4-.11.36-.23,131.38-82.68,1.41-.88V484.19Z" transform="translate(805.78 364.07)"/><polygon class="cls-9" points="867.3 1117.55 998.69 1034.87 1291.1 949.25 1291.1 959.25 1159.71 1041.94 867.3 1127.55 867.3 1117.55"/><polygon class="cls-8" points="867.3 1127.55 1159.71 1041.94 1159.71 1031.94 867.3 1117.55 867.3 1127.55"/><polygon class="cls-5" points="1159.71 1031.94 1291.1 949.25 1291.1 959.25 1159.71 1041.94 1159.71 1031.94"/><path class="cls-13" d="M485.33,585.19v10L353.94,677.87,61.52,763.49v-10L192.91,670.8l292.42-85.61m3-4-3.85,1.13L192.07,667.92l-.4.12-.36.22L59.93,751l-1.41.88v15.66l3.85-1.13,292.41-85.61.4-.11.36-.23,131.38-82.68,1.41-.88V581.18Z" transform="translate(805.78 364.07)"/><polygon class="cls-22" points="892.63 1108.52 892.63 824.35 951.44 668.05 1073.96 668.05 1073.96 638.21 934.08 638.21 867.3 815.69 867.3 1138.36 1073.96 1138.36 1073.96 1108.52 892.63 1108.52"/><rect class="cls-22" x="1073.96" y="638.21" width="85.76" height="500.15"/><path class="cls-23" d="M353.94,274.15V774.29l131.39-82.68V191.46ZM477.13,665.57l-115,72.37V300.18l115-72.37Z" transform="translate(805.78 364.07)"/><path class="cls-13" d="M485.33,191.46V691.61L353.94,774.29H61.52V451.62l66.79-177.47L259.7,191.46H485.33L353.94,274.15l131.39-82.69M362.13,737.94l115-72.37V227.81l-115,72.37V737.94M86.85,744.46H268.18V304H145.67L86.85,460.29V744.46m398.48-556H259.7a3,3,0,0,0-1.6.46L126.71,271.61a3,3,0,0,0-1.21,1.48L58.72,450.57a2.88,2.88,0,0,0-.2,1.05V774.29a3,3,0,0,0,3,3H353.94a3,3,0,0,0,1.6-.46l131.38-82.68a3,3,0,0,0,1.41-2.54V191.5a2.88,2.88,0,0,0-.07-.65h0a2.42,2.42,0,0,0-.1-.36h0a2.74,2.74,0,0,0-.69-1.1h0a2.8,2.8,0,0,0-.5-.41h0a3.07,3.07,0,0,0-1.49-.46h-.11ZM365.13,301.84l109-68.6V663.92l-109,68.59V301.84ZM147.74,307H265.18V741.46H89.85V460.83L147.74,307Z" transform="translate(805.78 364.07)"/></g><g id="bw_box" data-name="bw box"><rect class="cls-8" x="3008.34" y="575" width="142.43" height="78.43"/><polygon class="cls-5" points="3150.77 575 3217.84 532.79 3217.84 611.23 3150.77 653.43 3150.77 575"/><polyline class="cls-8" points="3008.34 575 3008.34 653.43 3150.77 653.43 3150.77 575"/><path class="cls-16" d="M2412.07,168.73v78.43L2345,289.37H2202.57V210.94l67.07-42.21h142.43m3-3h-146.3l-.73.46L2201,208.4l-1.4.88v83.09h146.29l.73-.46,67.07-42.21,1.41-.88V165.73Z" transform="translate(805.78 364.07)"/><polyline class="cls-24" points="3150.77 575 3133.72 593.08 3127.18 586.83 3112.82 599.69 3106.29 593.46 3091.97 606.21 3085.43 599.96 3085.43 600.03 3071.07 612.82 3064.53 606.57 3064.53 606.58 3050.16 619.37 3043.62 613.13 3043.62 613.2 3029.25 625.99 3022.71 619.74 3022.71 619.74 3008.34 632.53 3008.34 630.11"/><polyline class="cls-25" points="3008.34 575 3008.34 632.53 3022.71 619.74 3022.71 619.74 3029.25 625.99 3043.62 613.2 3043.62 613.13 3050.16 619.37 3064.53 606.58 3064.53 606.57 3071.07 612.82 3085.43 600.03 3085.43 599.96 3091.97 606.21 3106.29 593.46 3112.82 599.69 3127.18 586.83 3133.72 593.08 3150.77 575"/><polygon class="cls-9" points="3008.34 575 3075.42 532.79 3217.84 532.79 3150.77 575 3008.34 575"/><polyline class="cls-5" points="3217.84 532.79 3217.84 611.23 3150.77 653.43 3150.77 575"/></g><g id="warmer"><rect class="cls-8" x="1858.11" y="365.61" width="217.81" height="686.74"/><polygon class="cls-5" points="1739.86 1126.78 1858.11 1052.36 1858.11 349.05 1739.86 421.99 1739.86 1126.78"/><polygon class="cls-15" points="1739.85 1126.78 1858.11 1052.36 2092.58 1052.36 1974.33 1126.78 1739.85 1126.78"/><polygon class="cls-9" points="1739.85 1091.67 1858.11 1017.25 2075.93 1017.25 1957.67 1091.67 1739.85 1091.67"/><rect class="cls-8" x="1739.86" y="1091.67" width="217.81" height="8.08"/><path class="cls-13" d="M1270.15,653.18,1151.9,727.6v8.09H934.08V727.6h0l118.26-74.42h217.82m0-3H1052.33a3,3,0,0,0-1.6.46L932.47,725.06a3,3,0,0,0-1.39,2.81v7.82a3,3,0,0,0,3,3H1151.9a3,3,0,0,0,3-3v-6.43l116.85-73.54a3,3,0,0,0-1.6-5.54Z" transform="translate(805.78 364.07)"/><polygon class="cls-9" points="1739.85 1055.67 1858.11 981.25 2075.93 981.25 1957.67 1055.67 1739.85 1055.67"/><rect class="cls-8" x="1739.86" y="1055.67" width="217.81" height="8.08"/><path class="cls-13" d="M1270.15,617.18,1151.9,691.6v8.08H934.08V691.6h0l118.26-74.42h217.82m0-3H1052.33a3,3,0,0,0-1.6.46L932.47,689.06a3,3,0,0,0-1.39,2.81v7.81a3,3,0,0,0,3,3H1151.9a3,3,0,0,0,3-3v-6.42l116.85-73.54a3,3,0,0,0-1.6-5.54Z" transform="translate(805.78 364.07)"/><polygon class="cls-9" points="1739.85 1019.66 1858.11 945.24 2075.93 945.24 1957.67 1019.66 1739.85 1019.66"/><rect class="cls-8" x="1739.86" y="1019.66" width="217.81" height="8.08"/><path class="cls-13" d="M1270.15,581.18,1151.9,655.6v8.08H934.08V655.6h0l118.26-74.42h217.82m0-3H1052.33a3,3,0,0,0-1.6.46L932.47,653.06a3,3,0,0,0-1.39,2.8v7.82a3,3,0,0,0,3,3H1151.9a3,3,0,0,0,3-3v-6.42l116.85-73.54a3,3,0,0,0-1.6-5.54Z" transform="translate(805.78 364.07)"/><polygon class="cls-9" points="1739.85 983.66 1858.11 909.24 2075.93 909.24 1957.67 983.66 1739.85 983.66"/><rect class="cls-8" x="1739.86" y="983.66" width="217.81" height="8.08"/><path class="cls-13" d="M1270.15,545.18,1151.9,619.6v8.08H934.08V619.6h0l118.26-74.42h217.82m0-3H1052.33a3,3,0,0,0-1.6.46L932.47,617.06a3,3,0,0,0-1.39,2.8v7.82a3,3,0,0,0,3,3H1151.9a3,3,0,0,0,3-3v-6.43l116.85-73.54a3,3,0,0,0-1.6-5.53Z" transform="translate(805.78 364.07)"/><polygon class="cls-9" points="1739.85 947.66 1858.11 873.24 2075.93 873.24 1957.67 947.66 1739.85 947.66"/><rect class="cls-8" x="1739.86" y="947.66" width="217.81" height="8.08"/><path class="cls-13" d="M1270.15,509.17,1151.9,583.59v8.09H934.08v-8.09h0l118.26-74.42h217.82m0-3H1052.33a3,3,0,0,0-1.6.46L932.47,581.06a3,3,0,0,0-1.39,2.8v7.82a3,3,0,0,0,3,3H1151.9a3,3,0,0,0,3-3v-6.43l116.85-73.54a3,3,0,0,0-1.6-5.54Z" transform="translate(805.78 364.07)"/><polygon class="cls-15" points="1739.85 892.31 1858.11 817.89 2092.58 817.89 1974.33 892.31 1739.85 892.31"/><polygon class="cls-9" points="1739.85 856.93 1858.11 782.51 2075.93 782.51 1957.67 856.93 1739.85 856.93"/><rect class="cls-8" x="1739.86" y="856.93" width="217.81" height="8.08"/><path class="cls-13" d="M1270.15,418.44,1151.9,492.86V501H934.08v-8.09h0l118.26-74.42h217.82m0-3H1052.33a3,3,0,0,0-1.6.46L932.47,490.32a3,3,0,0,0-1.39,2.81V501a3,3,0,0,0,3,3H1151.9a3,3,0,0,0,3-3v-6.43L1271.75,421a3,3,0,0,0-1.6-5.54Z" transform="translate(805.78 364.07)"/><polygon class="cls-9" points="1739.85 820.93 1858.11 746.5 2075.93 746.5 1957.67 820.93 1739.85 820.93"/><rect class="cls-8" x="1739.86" y="820.93" width="217.81" height="8.08"/><path class="cls-13" d="M1270.15,382.44,1151.9,456.86v8.08H934.08v-8.08h0l118.26-74.42h217.82m0-3H1052.33a3,3,0,0,0-1.6.46L932.47,454.32a3,3,0,0,0-1.39,2.81v7.81a3,3,0,0,0,3,3H1151.9a3,3,0,0,0,3-3v-6.42L1271.75,385a3,3,0,0,0-1.6-5.54Z" transform="translate(805.78 364.07)"/><polygon class="cls-9" points="1739.85 784.92 1858.11 710.5 2075.93 710.5 1957.67 784.92 1739.85 784.92"/><rect class="cls-8" x="1739.86" y="784.92" width="217.81" height="8.08"/><path class="cls-13" d="M1270.15,346.44,1151.9,420.86v8.08H934.08v-8.08h0l118.26-74.42h217.82m0-3H1052.33a3,3,0,0,0-1.6.46L932.47,418.32a3,3,0,0,0-1.39,2.8v7.82a3,3,0,0,0,3,3H1151.9a3,3,0,0,0,3-3v-6.42L1271.75,349a3,3,0,0,0-1.6-5.54Z" transform="translate(805.78 364.07)"/><polygon class="cls-9" points="1739.85 748.92 1858.11 674.5 2075.93 674.5 1957.67 748.92 1739.85 748.92"/><rect class="cls-8" x="1739.86" y="748.92" width="217.81" height="8.08"/><path class="cls-13" d="M1270.15,310.44,1151.9,384.86v8.08H934.08v-8.08h0l118.26-74.42h217.82m0-3H1052.33a3,3,0,0,0-1.6.46L932.47,382.32a3,3,0,0,0-1.39,2.8v7.82a3,3,0,0,0,3,3H1151.9a3,3,0,0,0,3-3v-6.43L1271.75,313a3,3,0,0,0-1.6-5.53Z" transform="translate(805.78 364.07)"/><polygon class="cls-9" points="1739.85 712.92 1858.11 638.5 2075.93 638.5 1957.67 712.92 1739.85 712.92"/><rect class="cls-8" x="1739.86" y="712.92" width="217.81" height="8.08"/><path class="cls-13" d="M1270.15,274.43,1151.9,348.85v8.09H934.08v-8.09h0l118.26-74.42h217.82m0-3H1052.33a3,3,0,0,0-1.6.46L932.47,346.32a3,3,0,0,0-1.39,2.8v7.82a3,3,0,0,0,3,3H1151.9a3,3,0,0,0,3-3v-6.43L1271.75,277a3,3,0,0,0-1.6-5.54Z" transform="translate(805.78 364.07)"/><polygon class="cls-15" points="1739.85 657.85 1858.11 583.43 2092.58 583.43 1974.33 657.85 1739.85 657.85"/><polygon class="cls-9" points="1739.85 621.85 1858.11 547.43 2075.93 547.43 1957.67 621.85 1739.85 621.85"/><rect class="cls-8" x="1739.86" y="621.85" width="217.81" height="8.08"/><path class="cls-13" d="M1270.15,183.36,1151.9,257.78v8.09H934.08v-8.09h0l118.26-74.42h217.82m0-3H1052.33a3,3,0,0,0-1.6.46L932.47,255.24a3,3,0,0,0-1.39,2.81v7.82a3,3,0,0,0,3,3H1151.9a3,3,0,0,0,3-3v-6.43l116.85-73.54a3,3,0,0,0-1.6-5.54Z" transform="translate(805.78 364.07)"/><polygon class="cls-9" points="1739.85 585.85 1858.11 511.42 2075.93 511.42 1957.67 585.85 1739.85 585.85"/><rect class="cls-8" x="1739.86" y="585.84" width="217.81" height="8.08"/><path class="cls-13" d="M1270.15,147.36,1151.9,221.78v8.08H934.08v-8.08h0l118.26-74.42h217.82m0-3H1052.33a3,3,0,0,0-1.6.46L932.47,219.24a3,3,0,0,0-1.39,2.8v7.82a3,3,0,0,0,3,3H1151.9a3,3,0,0,0,3-3v-6.42l116.85-73.54a3,3,0,0,0-1.6-5.54Z" transform="translate(805.78 364.07)"/><polygon class="cls-9" points="1739.85 549.84 1858.11 475.42 2075.93 475.42 1957.67 549.84 1739.85 549.84"/><rect class="cls-8" x="1739.86" y="549.84" width="217.81" height="8.08"/><path class="cls-13" d="M1270.15,111.36,1151.9,185.78v8.08H934.08v-8.08h0l118.26-74.42h217.82m0-3H1052.33a3,3,0,0,0-1.6.46L932.47,183.24a3,3,0,0,0-1.39,2.8v7.82a3,3,0,0,0,3,3H1151.9a3,3,0,0,0,3-3v-6.43l116.85-73.53a3,3,0,0,0-1.6-5.54Z" transform="translate(805.78 364.07)"/><polygon class="cls-9" points="1739.85 513.84 1858.11 439.42 2075.93 439.42 1957.67 513.84 1739.85 513.84"/><rect class="cls-8" x="1739.86" y="513.84" width="217.81" height="8.08"/><path class="cls-13" d="M1270.15,75.35,1151.9,149.78v8.08H934.08v-8.08h0l118.26-74.43h217.82m0-3H1052.33a2.93,2.93,0,0,0-1.6.47L932.47,147.24a3,3,0,0,0-1.39,2.8v7.82a3,3,0,0,0,3,3H1151.9a3,3,0,0,0,3-3v-6.43l116.85-73.54a3,3,0,0,0-1.6-5.54Z" transform="translate(805.78 364.07)"/><polygon class="cls-9" points="1739.85 477.84 1858.11 403.42 2075.93 403.42 1957.67 477.84 1739.85 477.84"/><rect class="cls-8" x="1739.86" y="477.84" width="217.81" height="8.08"/><path class="cls-13" d="M1270.15,39.35,1151.9,113.77v8.09H934.08v-8.09h0l118.26-74.42h217.82m0-3H1052.33a3,3,0,0,0-1.6.46L932.47,111.23a3,3,0,0,0-1.39,2.81v7.82a3,3,0,0,0,3,3H1151.9a3,3,0,0,0,3-3v-6.43l116.85-73.54a3,3,0,0,0-1.6-5.54Z" transform="translate(805.78 364.07)"/><path class="cls-8" d="M917.43,59.32V779.37h251.12v-720ZM1151.9,762.71H934.08V544.9H1151.9Zm0-234.46H934.08V310.44H1151.9ZM934.08,293.78V76H1151.9V293.78Z" transform="translate(805.78 364.07)"/><path class="cls-13" d="M1168.55,59.32V779.37H917.43v-720h251.12M934.08,293.78H1151.9V76H934.08V293.78m0,234.47H1151.9V310.44H934.08V528.25m0,234.46H1151.9V544.9H934.08V762.71M1168.55,56.32H917.43a3,3,0,0,0-3,3V779.37a3,3,0,0,0,3,3h251.12a3,3,0,0,0,3-3v-720a3,3,0,0,0-3-3ZM937.08,79H1148.9V290.78H937.08V79Zm0,234.47H1148.9V525.25H937.08V313.44Zm0,234.46H1148.9V759.71H937.08V547.9Z" transform="translate(805.78 364.07)"/><polygon class="cls-5" points="1974.33 1143.43 1974.33 423.25 2092.58 348.83 2092.58 1069.01 1974.33 1143.43"/><path class="cls-13" d="M1286.8-15.23V704.94l-118.25,74.43V59.19L1286.8-15.23m0-3a2.94,2.94,0,0,0-1.59.46L1167,56.65a3,3,0,0,0-1.4,2.54V779.37a3,3,0,0,0,4.6,2.53l118.25-74.42a3,3,0,0,0,1.4-2.54V-15.23a3,3,0,0,0-1.55-2.63,3,3,0,0,0-1.45-.37Z" transform="translate(805.78 364.07)"/><polygon class="cls-25" points="2123.86 1186.26 2123.86 471.76 1977.42 428.93 1977.42 1143.43 2123.86 1186.26"/><polygon class="cls-9" points="1993.29 425.32 1977.42 428.93 2123.86 471.76 2139.73 468.15 1993.29 425.32"/><polygon class="cls-15" points="2139.73 1182.65 2139.73 468.15 2123.86 471.76 2123.86 1186.26 2139.73 1182.65"/><path class="cls-13" d="M1187.51,61.26,1334,104.09V818.58l-15.87,3.61-146.43-42.82V64.87l15.86-3.61m0-3a3,3,0,0,0-.66.07L1171,61.94a3,3,0,0,0-2.33,2.93v714.5a3,3,0,0,0,2.15,2.87l146.44,42.83a3,3,0,0,0,.84.12,3.05,3.05,0,0,0,.67-.07l15.86-3.61a3,3,0,0,0,2.34-2.93V104.09a3,3,0,0,0-2.16-2.88L1188.36,58.38a3.06,3.06,0,0,0-.85-.12Z" transform="translate(805.78 364.07)"/><polygon class="cls-9" points="1695.03 401.93 1831.33 316.16 2120.76 316.16 1984.46 401.93 1695.03 401.93"/><rect class="cls-8" x="1695.03" y="401.93" width="289.43" height="27"/><polygon class="cls-5" points="1984.46 401.93 2120.76 316.16 2120.76 343.16 1984.46 428.93 1984.46 401.93"/><polygon class="cls-9" points="1722.93 241.2 1841.37 166.67 2092.86 166.67 1974.42 241.2 1722.93 241.2"/><rect class="cls-8" x="1722.93" y="241.2" width="251.49" height="153.65"/><polygon class="cls-5" points="1974.42 241.2 2092.86 166.67 2092.86 320.32 1974.42 394.85 1974.42 241.2"/><path class="cls-13" d="M1287.08-197.4V-47.91H1315v27l-136.3,85.78H889.25v-27l27.91-17.56V-122.86l118.43-74.54h251.49m0-3H1035.59a3,3,0,0,0-1.6.46L915.56-125.4a3,3,0,0,0-1.4,2.54V18.65l-26.5,16.68a3,3,0,0,0-1.41,2.54v27a3,3,0,0,0,3,3h289.43a3,3,0,0,0,1.6-.46l136.3-85.78a3,3,0,0,0,1.4-2.54v-27a3,3,0,0,0-3-3h-24.9V-197.4a3,3,0,0,0-3-3Z" transform="translate(805.78 364.07)"/><path class="cls-26" d="M1165.76,151.71v76.22c0,.68,1.47,1.24,3.3,1.24s3.3-.56,3.3-1.24V151.71Z" transform="translate(805.78 364.07)"/><ellipse class="cls-9" cx="1974.83" cy="515.77" rx="3.3" ry="1.24"/><path class="cls-13" d="M1169.06,150.47c1.82,0,3.3.55,3.3,1.24v76.22c0,.68-1.48,1.24-3.3,1.24s-3.3-.56-3.3-1.24V151.71c0-.69,1.47-1.24,3.3-1.24m0-3c-3.83,0-6.3,1.66-6.3,4.24v76.22c0,2.58,2.47,4.24,6.3,4.24s6.3-1.66,6.3-4.24V151.71c0-2.58-2.47-4.24-6.3-4.24Z" transform="translate(805.78 364.07)"/><path class="cls-27" d="M1165.76,386.79V463c0,.69,1.47,1.24,3.3,1.24s3.3-.55,3.3-1.24V386.79Z" transform="translate(805.78 364.07)"/><ellipse class="cls-9" cx="1974.83" cy="750.85" rx="3.3" ry="1.24"/><path class="cls-13" d="M1169.06,385.55c1.82,0,3.3.55,3.3,1.24V463c0,.69-1.48,1.24-3.3,1.24s-3.3-.55-3.3-1.24V386.79c0-.69,1.47-1.24,3.3-1.24m0-3c-3.83,0-6.3,1.66-6.3,4.24V463c0,2.58,2.47,4.24,6.3,4.24s6.3-1.66,6.3-4.24V386.79c0-2.58-2.47-4.24-6.3-4.24Z" transform="translate(805.78 364.07)"/><path class="cls-28" d="M1165.76,621.53v76.22c0,.69,1.47,1.24,3.3,1.24s3.3-.55,3.3-1.24V621.53Z" transform="translate(805.78 364.07)"/><ellipse class="cls-9" cx="1974.83" cy="985.59" rx="3.3" ry="1.24"/><path class="cls-13" d="M1169.06,620.29c1.82,0,3.3.55,3.3,1.24v76.22c0,.69-1.48,1.24-3.3,1.24s-3.3-.55-3.3-1.24V621.53c0-.69,1.47-1.24,3.3-1.24m0-3c-3.83,0-6.3,1.66-6.3,4.24v76.22c0,2.58,2.47,4.24,6.3,4.24s6.3-1.66,6.3-4.24V621.53c0-2.58-2.47-4.24-6.3-4.24Z" transform="translate(805.78 364.07)"/></g><g id="shelf"><rect class="cls-29" x="932.72" y="488.92" width="415.71" height="5.23"/><polygon class="cls-30" points="1386.72 464.82 1348.43 488.92 1348.43 494.15 1386.72 470.05 1386.72 464.82"/><polygon class="cls-31" points="1386.72 464.82 971 464.82 932.71 488.92 1348.43 488.92 1386.72 464.82 1386.72 464.82"/><path class="cls-13" d="M580.94,100.75V106l-38.29,24.1H126.94v-5.24h0l38.29-24.1H580.94m0-3H165.22a3,3,0,0,0-1.59.46l-38.3,24.1a3,3,0,0,0-1.39,2.75v5a3,3,0,0,0,3,3H542.65a2.93,2.93,0,0,0,1.6-.47l38.29-24.09a3,3,0,0,0,1.4-2.54v-5.24a3,3,0,0,0-3-3Z" transform="translate(805.78 364.07)"/></g><g id="shelf-2" data-name="shelf"><rect class="cls-29" x="932.72" y="411.2" width="415.71" height="5.23"/><polygon class="cls-30" points="1386.72 387.1 1348.43 411.2 1348.43 416.44 1386.72 392.34 1386.72 387.1"/><polygon class="cls-31" points="1386.72 387.1 971 387.1 932.71 411.2 1348.43 411.2 1386.72 387.1 1386.72 387.1"/><path class="cls-13" d="M580.94,23v5.23l-38.29,24.1H126.94V47.14h0L165.22,23H580.94m0-3H165.22a3,3,0,0,0-1.59.46l-38.3,24.1a3,3,0,0,0-1.39,2.75v5a3,3,0,0,0,3,3H542.65a3,3,0,0,0,1.6-.46l38.29-24.1a3,3,0,0,0,1.4-2.54V23a3,3,0,0,0-3-3Z" transform="translate(805.78 364.07)"/></g></g></g></g></svg>