<svg id="Layer_1" data-name="Layer 1" xmlns="http://www.w3.org/2000/svg" viewBox="0 0 751 337.6"><defs><style>.cls-1{fill:#b3b3b3;}.cls-2{fill:#e6e6e6;}.cls-3{fill:gray;}.cls-4{fill:#494949;}.cls-5{fill:none;stroke:#494949;stroke-miterlimit:10;}</style></defs><title>env_table</title><rect class="cls-1" x="106.6" y="24.6" width="50.9" height="255.4"/><polygon class="cls-2" points="157.4 24.6 106.6 24.6 129.4 11 180.3 11 157.4 24.6"/><polygon class="cls-3" points="157.4 24.6 157.4 280 180.3 266.5 180.3 11 157.4 24.6"/><path class="cls-4" d="M220.3,29.8V285.2l-22.8,13.5H146.6V43.4l22.8-13.5h50.9m1-1.1H169.1l-.2.1L146.1,42.4l-.5.3v257h52.2l.2-.1,22.8-13.5.5-.3V28.8Z" transform="translate(-40 -18.8)"/><rect class="cls-1" x="666.3" y="24.6" width="50.9" height="255.4"/><polygon class="cls-2" points="717.1 24.6 666.3 24.6 689.1 11 740 11 717.1 24.6"/><polygon class="cls-3" points="717.1 24.6 717.1 280 740 266.5 740 11 717.1 24.6"/><path class="cls-4" d="M780,29.8V285.2l-22.8,13.5H706.3V43.4l22.8-13.5H780m1-1.1H728.8l-.2.1L705.8,42.4l-.5.3v257h52.2l.2-.1,22.8-13.5.5-.3V28.8Z" transform="translate(-40 -18.8)"/><rect class="cls-3" x="28.82" y="217.14" width="562.9" height="16.59"/><polygon class="cls-1" points="591.64 217.14 28.82 217.14 134.41 154.57 697.31 154.57 591.64 217.14"/><polygon class="cls-3" points="591.64 217.14 591.64 233.73 697.31 171.16 697.31 154.57 591.64 217.14"/><polygon class="cls-5" points="697.31 154.57 134.41 154.57 28.82 217.14 28.82 233.73 591.73 233.73 591.73 233.68 697.31 171.16 697.31 154.57"/><rect class="cls-1" x="11" y="81.2" width="50.9" height="255.4"/><polygon class="cls-2" points="61.8 81.2 11 81.2 33.8 67.7 84.6 67.7 61.8 81.2"/><polygon class="cls-3" points="61.8 81.2 61.8 336.6 84.6 323.1 84.6 67.7 61.8 81.2"/><path class="cls-4" d="M124.6,86.5V341.9l-22.8,13.5H51V100L73.8,86.5h50.8m1-1H73.5l-.2.1L50.4,99.1l-.4.3v257h52.2l.2-.1,22.8-13.5.5-.3V85.5Z" transform="translate(-40 -18.8)"/><rect class="cls-1" x="570.7" y="81.2" width="50.9" height="255.4"/><polygon class="cls-2" points="621.5 81.2 570.7 81.2 593.5 67.7 644.3 67.7 621.5 81.2"/><polygon class="cls-3" points="621.5 81.2 621.5 336.6 644.3 323.1 644.3 67.7 621.5 81.2"/><path class="cls-4" d="M684.3,86.5V341.9l-22.8,13.5H610.6V100l22.8-13.5h50.9m1-1H633.1l-.2.1L610.1,99.1l-.5.3v257h52.2l.2-.1,22.8-13.5.5-.3V85.5Z" transform="translate(-40 -18.8)"/><rect class="cls-1" x="1" y="71.2" width="630.7" height="41"/><polygon class="cls-2" points="631.6 71.2 1 71.2 119.3 1 750 1 631.6 71.2"/><polygon class="cls-3" points="631.6 71.2 631.6 112.2 750 42 750 1 631.6 71.2"/><path class="cls-4" d="M790,19.8v41L671.6,131H41V90L159.3,19.8H790m1-1H159l-.2.1L40.4,89.1l-.4.3V132H672l.2-.1L790.5,61.7l.5-.3V18.8Z" transform="translate(-40 -18.8)"/></svg>