<?xml version="1.0" encoding="utf-8"?>
<!-- Generator: Adobe Illustrator 24.0.2, SVG Export Plug-In . SVG Version: 6.00 Build 0)  -->
<svg version="1.1" xmlns="http://www.w3.org/2000/svg" xmlns:xlink="http://www.w3.org/1999/xlink" x="0px" y="0px"
	 viewBox="0 0 1280 960" style="enable-background:new 0 0 1280 960;" xml:space="preserve">
<style type="text/css">
	.st0{clip-path:url(#frame_3_);}
	.st1{fill:#EFEBE1;stroke:#FFFFFF;stroke-miterlimit:10;}
	.st2{fill:#BC955C;}
	.st3{fill:#808080;}
	.st4{fill:#D8AD73;}
	.st5{fill:#333333;}
	.st6{fill:#B3B3B3;}
	.st7{fill:#E6E6E6;}
	.st8{fill:#AFE8E3;}
	.st9{fill:#BC955A;}
	.st10{fill:#8C6D45;}
	.st11{fill:#666666;}
	.st12{fill:#CCCCCC;}
	.st13{fill:#999999;}
	.st14{fill:#707070;}
	.st15{fill:#62CBC9;}
	.st16{fill:none;stroke:#999999;stroke-width:2;stroke-miterlimit:10;}
	.st17{fill:#FFFFFF;}
	.st18{fill:#55A59F;}
	.st19{fill:#6D6D6D;}
	.st20{fill:#4D4D4D;}
	.st21{fill:#1A1A1A;}
	.st22{fill:none;stroke:#707070;stroke-width:2;stroke-miterlimit:10;}
	.st23{fill:#C6C6C6;}
	.st24{fill:url(#SVGID_1_);}
	.st25{fill:url(#SVGID_2_);}
	.st26{fill:url(#SVGID_3_);}
	.st27{fill:#EFEBE1;}
	.st28{fill:#A8A192;}
	.st29{fill:#FFFDF8;stroke:#FFFFFF;stroke-miterlimit:10;}
	.st30{display:none;}
	.st31{display:inline;}
	.st32{clip-path:url(#SVGID_5_);fill:#999999;}
	.st33{clip-path:url(#SVGID_5_);fill:#808080;}
	.st34{clip-path:url(#SVGID_5_);fill:#B3B3B3;}
	.st35{clip-path:url(#SVGID_5_);fill:#666666;}
	.st36{clip-path:url(#SVGID_5_);fill:#E6E6E6;}
	.st37{clip-path:url(#SVGID_5_);}
	.st38{clip-path:url(#SVGID_7_);fill:url(#SVGID_8_);}
	.st39{clip-path:url(#SVGID_10_);fill:none;stroke:#664D24;stroke-width:3.0792;stroke-miterlimit:10;}
	.st40{clip-path:url(#SVGID_12_);fill:url(#SVGID_13_);}
	.st41{clip-path:url(#SVGID_15_);fill:none;stroke:#664D24;stroke-width:3.0792;stroke-miterlimit:10;}
	.st42{clip-path:url(#SVGID_17_);fill:url(#SVGID_18_);}
	.st43{clip-path:url(#SVGID_20_);fill:none;stroke:#664D24;stroke-width:3.0792;stroke-miterlimit:10;}
	.st44{clip-path:url(#SVGID_20_);fill:#B79A72;}
	.st45{clip-path:url(#SVGID_22_);fill:url(#SVGID_23_);}
	.st46{clip-path:url(#SVGID_25_);fill:none;stroke:#664D24;stroke-width:3.0792;stroke-miterlimit:10;}
	.st47{clip-path:url(#SVGID_27_);fill:url(#SVGID_28_);}
	.st48{clip-path:url(#SVGID_30_);fill:none;stroke:#664D24;stroke-width:3.0792;stroke-miterlimit:10;}
	.st49{clip-path:url(#SVGID_30_);fill:#B79A72;}
	.st50{clip-path:url(#SVGID_30_);fill:#664D24;}
	.st51{display:inline;opacity:0.8;}
	.st52{fill:#515151;}
</style>
<g id="farBackground">
	<g>
		<defs>
			<rect id="frame_4_" width="1280" height="960"/>
		</defs>
		<clipPath id="frame_3_">
			<use xlink:href="#frame_4_"  style="overflow:visible;"/>
		</clipPath>
		<g id="bg_2_" class="st0">
			<g id="bg">
				<rect id="bg_1_" x="-200" y="-362.6" class="st1" width="2108.9" height="960"/>
				<polygon class="st2" points="-802.4,976.5 -200.1,597.4 1907.9,597.4 1305.5,976.5 				"/>
				<polygon class="st3" points="-802.4,16.5 -200,-362.6 -200.1,597.4 -802.4,976.5 				"/>
			</g>
			<g>
				<g>
					<g>
						<polygon class="st4" points="-729.4,978.6 -805.8,978.6 -745.1,940.5 -668.7,940.5 						"/>
						<polygon class="st4" points="-643.1,978.6 -719.4,978.6 -658.7,940.5 -582.4,940.5 						"/>
						<polygon class="st4" points="-556.7,978.6 -633.1,978.6 -572.4,940.5 -496,940.5 						"/>
						<polygon class="st4" points="-470.4,978.6 -546.7,978.6 -486,940.5 -409.7,940.5 						"/>
						<polygon class="st4" points="-385.4,978.6 -461.7,978.6 -401,940.5 -324.7,940.5 						"/>
						<polygon class="st4" points="-299,978.6 -375.4,978.6 -314.7,940.5 -238.3,940.5 						"/>
						<polygon class="st4" points="-212.7,978.6 -289,978.6 -228.3,940.5 -152,940.5 						"/>
						<polygon class="st4" points="-126.3,978.6 -202.7,978.6 -142,940.5 -65.6,940.5 						"/>
						<polygon class="st4" points="-37.9,978.6 -114.3,978.6 -53.6,940.5 22.8,940.5 						"/>
						<polygon class="st4" points="48.4,978.6 -27.9,978.6 32.8,940.5 109.1,940.5 						"/>
						<polygon class="st4" points="134.8,978.6 58.4,978.6 119.1,940.5 195.5,940.5 						"/>
						<polygon class="st4" points="221.1,978.6 144.8,978.6 205.5,940.5 281.8,940.5 						"/>
						<polygon class="st4" points="306.1,978.6 229.8,978.6 290.5,940.5 366.8,940.5 						"/>
						<polygon class="st4" points="392.5,978.6 316.1,978.6 376.8,940.5 453.2,940.5 						"/>
						<polygon class="st4" points="478.8,978.6 402.5,978.6 463.2,940.5 539.5,940.5 						"/>
						<polygon class="st4" points="565.2,978.6 488.8,978.6 549.5,940.5 625.9,940.5 						"/>
						<polygon class="st4" points="651.5,978.6 575.2,978.6 635.9,940.5 712.2,940.5 						"/>
						<polygon class="st4" points="737.9,978.6 661.5,978.6 722.2,940.5 798.6,940.5 						"/>
						<polygon class="st4" points="824.2,978.6 747.9,978.6 808.6,940.5 884.9,940.5 						"/>
						<polygon class="st4" points="910.5,978.6 834.2,978.6 894.9,940.5 971.2,940.5 						"/>
						<polygon class="st4" points="995.6,978.6 919.3,978.6 980,940.5 1056.3,940.5 						"/>
						<polygon class="st4" points="1081.9,978.6 1005.6,978.6 1066.3,940.5 1142.6,940.5 						"/>
						<polygon class="st4" points="1168.3,978.6 1091.9,978.6 1152.6,940.5 1229,940.5 						"/>
						<polygon class="st4" points="1254.6,978.6 1178.3,978.6 1239,940.5 1315.3,940.5 						"/>
					</g>
				</g>
				<g>
					<g>
						<polygon class="st4" points="-661.4,935.6 -737.8,935.6 -677.1,897.5 -600.7,897.5 						"/>
						<polygon class="st4" points="-575.1,935.6 -651.4,935.6 -590.7,897.5 -514.4,897.5 						"/>
						<polygon class="st4" points="-488.7,935.6 -565.1,935.6 -504.4,897.5 -428,897.5 						"/>
						<polygon class="st4" points="-402.4,935.6 -478.7,935.6 -418,897.5 -341.7,897.5 						"/>
						<polygon class="st4" points="-317.4,935.6 -393.7,935.6 -333,897.5 -256.7,897.5 						"/>
						<polygon class="st4" points="-231,935.6 -307.4,935.6 -246.7,897.5 -170.3,897.5 						"/>
						<polygon class="st4" points="-144.7,935.6 -221,935.6 -160.3,897.5 -84,897.5 						"/>
						<polygon class="st4" points="-58.3,935.6 -134.7,935.6 -74,897.5 2.4,897.5 						"/>
						<polygon class="st4" points="30.1,935.6 -46.3,935.6 14.4,897.5 90.8,897.5 						"/>
						<polygon class="st4" points="116.4,935.6 40.1,935.6 100.8,897.5 177.1,897.5 						"/>
						<polygon class="st4" points="202.8,935.6 126.4,935.6 187.1,897.5 263.5,897.5 						"/>
						<polygon class="st4" points="289.1,935.6 212.8,935.6 273.5,897.5 349.8,897.5 						"/>
						<polygon class="st4" points="374.1,935.6 297.8,935.6 358.5,897.5 434.8,897.5 						"/>
						<polygon class="st4" points="460.5,935.6 384.1,935.6 444.8,897.5 521.2,897.5 						"/>
						<polygon class="st4" points="546.8,935.6 470.5,935.6 531.2,897.5 607.5,897.5 						"/>
						<polygon class="st4" points="633.2,935.6 556.8,935.6 617.5,897.5 693.9,897.5 						"/>
						<polygon class="st4" points="719.5,935.6 643.2,935.6 703.9,897.5 780.2,897.5 						"/>
						<polygon class="st4" points="805.9,935.6 729.5,935.6 790.2,897.5 866.6,897.5 						"/>
						<polygon class="st4" points="892.2,935.6 815.9,935.6 876.6,897.5 952.9,897.5 						"/>
						<polygon class="st4" points="978.5,935.6 902.2,935.6 962.9,897.5 1039.2,897.5 						"/>
						<polygon class="st4" points="1063.6,935.6 987.3,935.6 1048,897.5 1124.3,897.5 						"/>
						<polygon class="st4" points="1149.9,935.6 1073.6,935.6 1134.3,897.5 1210.6,897.5 						"/>
						<polygon class="st4" points="1236.3,935.6 1159.9,935.6 1220.6,897.5 1297,897.5 						"/>
						<polygon class="st4" points="1322.6,935.6 1246.3,935.6 1307,897.5 1383.3,897.5 						"/>
					</g>
				</g>
				<g>
					<g>
						<polygon class="st4" points="-592.4,892.6 -668.8,892.6 -608.1,854.5 -531.7,854.5 						"/>
						<polygon class="st4" points="-506.1,892.6 -582.4,892.6 -521.7,854.5 -445.4,854.5 						"/>
						<polygon class="st4" points="-419.7,892.6 -496.1,892.6 -435.4,854.5 -359,854.5 						"/>
						<polygon class="st4" points="-333.4,892.6 -409.7,892.6 -349,854.5 -272.7,854.5 						"/>
						<polygon class="st4" points="-248.4,892.6 -324.7,892.6 -264,854.5 -187.7,854.5 						"/>
						<polygon class="st4" points="-162,892.6 -238.4,892.6 -177.7,854.5 -101.3,854.5 						"/>
						<polygon class="st4" points="-75.7,892.6 -152,892.6 -91.3,854.5 -15,854.5 						"/>
						<polygon class="st4" points="10.7,892.6 -65.7,892.6 -5,854.5 71.4,854.5 						"/>
						<polygon class="st4" points="99.1,892.6 22.7,892.6 83.4,854.5 159.8,854.5 						"/>
						<polygon class="st4" points="185.4,892.6 109.1,892.6 169.8,854.5 246.1,854.5 						"/>
						<polygon class="st4" points="271.8,892.6 195.4,892.6 256.1,854.5 332.5,854.5 						"/>
						<polygon class="st4" points="358.1,892.6 281.8,892.6 342.5,854.5 418.8,854.5 						"/>
						<polygon class="st4" points="443.1,892.6 366.8,892.6 427.5,854.5 503.8,854.5 						"/>
						<polygon class="st4" points="529.5,892.6 453.1,892.6 513.8,854.5 590.2,854.5 						"/>
						<polygon class="st4" points="615.8,892.6 539.5,892.6 600.2,854.5 676.5,854.5 						"/>
						<polygon class="st4" points="702.2,892.6 625.8,892.6 686.5,854.5 762.9,854.5 						"/>
						<polygon class="st4" points="788.5,892.6 712.2,892.6 772.9,854.5 849.2,854.5 						"/>
						<polygon class="st4" points="874.9,892.6 798.5,892.6 859.2,854.5 935.6,854.5 						"/>
						<polygon class="st4" points="961.2,892.6 884.9,892.6 945.6,854.5 1021.9,854.5 						"/>
						<polygon class="st4" points="1047.5,892.6 971.2,892.6 1031.9,854.5 1108.2,854.5 						"/>
						<polygon class="st4" points="1132.6,892.6 1056.3,892.6 1117,854.5 1193.3,854.5 						"/>
						<polygon class="st4" points="1218.9,892.6 1142.6,892.6 1203.3,854.5 1279.6,854.5 						"/>
						<polygon class="st4" points="1305.3,892.6 1228.9,892.6 1289.6,854.5 1366,854.5 						"/>
						<polygon class="st4" points="1391.6,892.6 1315.3,892.6 1376,854.5 1452.3,854.5 						"/>
					</g>
				</g>
				<g>
					<g>
						<polygon class="st4" points="-524.4,849.6 -600.8,849.6 -540.1,811.5 -463.7,811.5 						"/>
						<polygon class="st4" points="-438.1,849.6 -514.4,849.6 -453.7,811.5 -377.4,811.5 						"/>
						<polygon class="st4" points="-351.7,849.6 -428.1,849.6 -367.4,811.5 -291,811.5 						"/>
						<polygon class="st4" points="-265.4,849.6 -341.7,849.6 -281,811.5 -204.7,811.5 						"/>
						<polygon class="st4" points="-180.4,849.6 -256.7,849.6 -196,811.5 -119.7,811.5 						"/>
						<polygon class="st4" points="-94,849.6 -170.4,849.6 -109.7,811.5 -33.3,811.5 						"/>
						<polygon class="st4" points="-7.7,849.6 -84,849.6 -23.3,811.5 53,811.5 						"/>
						<polygon class="st4" points="78.7,849.6 2.3,849.6 63,811.5 139.4,811.5 						"/>
						<polygon class="st4" points="167.1,849.6 90.7,849.6 151.4,811.5 227.8,811.5 						"/>
						<polygon class="st4" points="253.4,849.6 177.1,849.6 237.8,811.5 314.1,811.5 						"/>
						<polygon class="st4" points="339.8,849.6 263.4,849.6 324.1,811.5 400.5,811.5 						"/>
						<polygon class="st4" points="426.1,849.6 349.8,849.6 410.5,811.5 486.8,811.5 						"/>
						<polygon class="st4" points="511.1,849.6 434.8,849.6 495.5,811.5 571.8,811.5 						"/>
						<polygon class="st4" points="597.5,849.6 521.1,849.6 581.8,811.5 658.2,811.5 						"/>
						<polygon class="st4" points="683.8,849.6 607.5,849.6 668.2,811.5 744.5,811.5 						"/>
						<polygon class="st4" points="770.2,849.6 693.8,849.6 754.5,811.5 830.9,811.5 						"/>
						<polygon class="st4" points="856.5,849.6 780.2,849.6 840.9,811.5 917.2,811.5 						"/>
						<polygon class="st4" points="942.9,849.6 866.5,849.6 927.2,811.5 1003.6,811.5 						"/>
						<polygon class="st4" points="1029.2,849.6 952.9,849.6 1013.6,811.5 1089.9,811.5 						"/>
						<polygon class="st4" points="1115.5,849.6 1039.2,849.6 1099.9,811.5 1176.2,811.5 						"/>
						<polygon class="st4" points="1200.6,849.6 1124.3,849.6 1185,811.5 1261.3,811.5 						"/>
						<polygon class="st4" points="1286.9,849.6 1210.6,849.6 1271.3,811.5 1347.6,811.5 						"/>
						<polygon class="st4" points="1373.3,849.6 1296.9,849.6 1357.6,811.5 1434,811.5 						"/>
						<polygon class="st4" points="1459.6,849.6 1383.3,849.6 1444,811.5 1520.3,811.5 						"/>
					</g>
				</g>
				<g>
					<g>
						<polygon class="st4" points="-456.4,806.6 -532.8,806.6 -472.1,768.5 -395.7,768.5 						"/>
						<polygon class="st4" points="-370.1,806.6 -446.4,806.6 -385.7,768.5 -309.4,768.5 						"/>
						<polygon class="st4" points="-283.7,806.6 -360.1,806.6 -299.4,768.5 -223,768.5 						"/>
						<polygon class="st4" points="-197.4,806.6 -273.7,806.6 -213,768.5 -136.7,768.5 						"/>
						<polygon class="st4" points="-112.4,806.6 -188.7,806.6 -128,768.5 -51.7,768.5 						"/>
						<polygon class="st4" points="-26,806.6 -102.4,806.6 -41.7,768.5 34.7,768.5 						"/>
						<polygon class="st4" points="60.3,806.6 -16,806.6 44.7,768.5 121,768.5 						"/>
						<polygon class="st4" points="146.7,806.6 70.3,806.6 131,768.5 207.4,768.5 						"/>
						<polygon class="st4" points="235.1,806.6 158.7,806.6 219.4,768.5 295.8,768.5 						"/>
						<polygon class="st4" points="321.4,806.6 245.1,806.6 305.8,768.5 382.1,768.5 						"/>
						<polygon class="st4" points="407.8,806.6 331.4,806.6 392.1,768.5 468.5,768.5 						"/>
						<polygon class="st4" points="494.1,806.6 417.8,806.6 478.5,768.5 554.8,768.5 						"/>
						<polygon class="st4" points="579.1,806.6 502.8,806.6 563.5,768.5 639.8,768.5 						"/>
						<polygon class="st4" points="665.5,806.6 589.1,806.6 649.8,768.5 726.2,768.5 						"/>
						<polygon class="st4" points="751.8,806.6 675.5,806.6 736.2,768.5 812.5,768.5 						"/>
						<polygon class="st4" points="838.2,806.6 761.8,806.6 822.5,768.5 898.9,768.5 						"/>
						<polygon class="st4" points="924.5,806.6 848.2,806.6 908.9,768.5 985.2,768.5 						"/>
						<polygon class="st4" points="1010.9,806.6 934.5,806.6 995.2,768.5 1071.6,768.5 						"/>
						<polygon class="st4" points="1097.2,806.6 1020.9,806.6 1081.6,768.5 1157.9,768.5 						"/>
						<polygon class="st4" points="1183.5,806.6 1107.2,806.6 1167.9,768.5 1244.2,768.5 						"/>
						<polygon class="st4" points="1268.6,806.6 1192.3,806.6 1253,768.5 1329.3,768.5 						"/>
						<polygon class="st4" points="1354.9,806.6 1278.6,806.6 1339.3,768.5 1415.6,768.5 						"/>
						<polygon class="st4" points="1441.3,806.6 1364.9,806.6 1425.6,768.5 1502,768.5 						"/>
						<polygon class="st4" points="1527.6,806.6 1451.3,806.6 1512,768.5 1588.3,768.5 						"/>
					</g>
				</g>
				<g>
					<g>
						<polygon class="st4" points="-388.4,763.6 -464.8,763.6 -404.1,725.5 -327.7,725.5 						"/>
						<polygon class="st4" points="-302.1,763.6 -378.4,763.6 -317.7,725.5 -241.4,725.5 						"/>
						<polygon class="st4" points="-215.7,763.6 -292.1,763.6 -231.4,725.5 -155,725.5 						"/>
						<polygon class="st4" points="-129.4,763.6 -205.7,763.6 -145,725.5 -68.7,725.5 						"/>
						<polygon class="st4" points="-44.4,763.6 -120.7,763.6 -60,725.5 16.3,725.5 						"/>
						<polygon class="st4" points="42,763.6 -34.4,763.6 26.3,725.5 102.7,725.5 						"/>
						<polygon class="st4" points="128.3,763.6 52,763.6 112.7,725.5 189,725.5 						"/>
						<polygon class="st4" points="214.7,763.6 138.3,763.6 199,725.5 275.4,725.5 						"/>
						<polygon class="st4" points="303.1,763.6 226.7,763.6 287.4,725.5 363.8,725.5 						"/>
						<polygon class="st4" points="389.4,763.6 313.1,763.6 373.8,725.5 450.1,725.5 						"/>
						<polygon class="st4" points="475.8,763.6 399.4,763.6 460.1,725.5 536.5,725.5 						"/>
						<polygon class="st4" points="562.1,763.6 485.8,763.6 546.5,725.5 622.8,725.5 						"/>
						<polygon class="st4" points="647.1,763.6 570.8,763.6 631.5,725.5 707.8,725.5 						"/>
						<polygon class="st4" points="733.5,763.6 657.1,763.6 717.8,725.5 794.2,725.5 						"/>
						<polygon class="st4" points="819.8,763.6 743.5,763.6 804.2,725.5 880.5,725.5 						"/>
						<polygon class="st4" points="906.2,763.6 829.8,763.6 890.5,725.5 966.9,725.5 						"/>
						<polygon class="st4" points="992.5,763.6 916.2,763.6 976.9,725.5 1053.2,725.5 						"/>
						<polygon class="st4" points="1078.9,763.6 1002.5,763.6 1063.2,725.5 1139.6,725.5 						"/>
						<polygon class="st4" points="1165.2,763.6 1088.9,763.6 1149.6,725.5 1225.9,725.5 						"/>
						<polygon class="st4" points="1251.5,763.6 1175.2,763.6 1235.9,725.5 1312.2,725.5 						"/>
						<polygon class="st4" points="1336.6,763.6 1260.3,763.6 1321,725.5 1397.3,725.5 						"/>
						<polygon class="st4" points="1422.9,763.6 1346.6,763.6 1407.3,725.5 1483.6,725.5 						"/>
						<polygon class="st4" points="1509.3,763.6 1432.9,763.6 1493.6,725.5 1570,725.5 						"/>
						<polygon class="st4" points="1595.6,763.6 1519.3,763.6 1580,725.5 1656.3,725.5 						"/>
					</g>
				</g>
				<g>
					<g>
						<polygon class="st4" points="-319.4,720.6 -395.8,720.6 -335.1,682.5 -258.7,682.5 						"/>
						<polygon class="st4" points="-233.1,720.6 -309.4,720.6 -248.7,682.5 -172.4,682.5 						"/>
						<polygon class="st4" points="-146.7,720.6 -223.1,720.6 -162.4,682.5 -86,682.5 						"/>
						<polygon class="st4" points="-60.4,720.6 -136.7,720.6 -76,682.5 0.3,682.5 						"/>
						<polygon class="st4" points="24.6,720.6 -51.7,720.6 9,682.5 85.3,682.5 						"/>
						<polygon class="st4" points="111,720.6 34.6,720.6 95.3,682.5 171.7,682.5 						"/>
						<polygon class="st4" points="197.3,720.6 121,720.6 181.7,682.5 258,682.5 						"/>
						<polygon class="st4" points="283.7,720.6 207.3,720.6 268,682.5 344.4,682.5 						"/>
						<polygon class="st4" points="372.1,720.6 295.7,720.6 356.4,682.5 432.8,682.5 						"/>
						<polygon class="st4" points="458.4,720.6 382.1,720.6 442.8,682.5 519.1,682.5 						"/>
						<polygon class="st4" points="544.8,720.6 468.4,720.6 529.1,682.5 605.5,682.5 						"/>
						<polygon class="st4" points="631.1,720.6 554.8,720.6 615.5,682.5 691.8,682.5 						"/>
						<polygon class="st4" points="716.1,720.6 639.8,720.6 700.5,682.5 776.8,682.5 						"/>
						<polygon class="st4" points="802.5,720.6 726.1,720.6 786.8,682.5 863.2,682.5 						"/>
						<polygon class="st4" points="888.8,720.6 812.5,720.6 873.2,682.5 949.5,682.5 						"/>
						<polygon class="st4" points="975.2,720.6 898.8,720.6 959.5,682.5 1035.9,682.5 						"/>
						<polygon class="st4" points="1061.5,720.6 985.2,720.6 1045.9,682.5 1122.2,682.5 						"/>
						<polygon class="st4" points="1147.9,720.6 1071.5,720.6 1132.2,682.5 1208.6,682.5 						"/>
						<polygon class="st4" points="1234.2,720.6 1157.9,720.6 1218.6,682.5 1294.9,682.5 						"/>
						<polygon class="st4" points="1320.5,720.6 1244.2,720.6 1304.9,682.5 1381.2,682.5 						"/>
						<polygon class="st4" points="1405.6,720.6 1329.3,720.6 1390,682.5 1466.3,682.5 						"/>
						<polygon class="st4" points="1491.9,720.6 1415.6,720.6 1476.3,682.5 1552.6,682.5 						"/>
						<polygon class="st4" points="1578.3,720.6 1501.9,720.6 1562.6,682.5 1639,682.5 						"/>
						<polygon class="st4" points="1664.6,720.6 1588.3,720.6 1649,682.5 1725.3,682.5 						"/>
					</g>
				</g>
				<g>
					<g>
						<polygon class="st4" points="-251.4,677.6 -327.8,677.6 -267.1,639.5 -190.7,639.5 						"/>
						<polygon class="st4" points="-165.1,677.6 -241.4,677.6 -180.7,639.5 -104.4,639.5 						"/>
						<polygon class="st4" points="-78.7,677.6 -155.1,677.6 -94.4,639.5 -18,639.5 						"/>
						<polygon class="st4" points="7.6,677.6 -68.7,677.6 -8,639.5 68.3,639.5 						"/>
						<polygon class="st4" points="92.6,677.6 16.3,677.6 77,639.5 153.3,639.5 						"/>
						<polygon class="st4" points="179,677.6 102.6,677.6 163.3,639.5 239.7,639.5 						"/>
						<polygon class="st4" points="265.3,677.6 189,677.6 249.7,639.5 326,639.5 						"/>
						<polygon class="st4" points="351.7,677.6 275.3,677.6 336,639.5 412.4,639.5 						"/>
						<polygon class="st4" points="440.1,677.6 363.7,677.6 424.4,639.5 500.8,639.5 						"/>
						<polygon class="st4" points="526.4,677.6 450.1,677.6 510.8,639.5 587.1,639.5 						"/>
						<polygon class="st4" points="612.8,677.6 536.4,677.6 597.1,639.5 673.5,639.5 						"/>
						<polygon class="st4" points="699.1,677.6 622.8,677.6 683.5,639.5 759.8,639.5 						"/>
						<polygon class="st4" points="784.1,677.6 707.8,677.6 768.5,639.5 844.8,639.5 						"/>
						<polygon class="st4" points="870.5,677.6 794.1,677.6 854.8,639.5 931.2,639.5 						"/>
						<polygon class="st4" points="956.8,677.6 880.5,677.6 941.2,639.5 1017.5,639.5 						"/>
						<polygon class="st4" points="1043.2,677.6 966.8,677.6 1027.5,639.5 1103.9,639.5 						"/>
						<polygon class="st4" points="1129.5,677.6 1053.2,677.6 1113.9,639.5 1190.2,639.5 						"/>
						<polygon class="st4" points="1215.9,677.6 1139.5,677.6 1200.2,639.5 1276.6,639.5 						"/>
						<polygon class="st4" points="1302.2,677.6 1225.9,677.6 1286.6,639.5 1362.9,639.5 						"/>
						<polygon class="st4" points="1388.5,677.6 1312.2,677.6 1372.9,639.5 1449.2,639.5 						"/>
						<polygon class="st4" points="1473.6,677.6 1397.3,677.6 1458,639.5 1534.3,639.5 						"/>
						<polygon class="st4" points="1559.9,677.6 1483.6,677.6 1544.3,639.5 1620.6,639.5 						"/>
						<polygon class="st4" points="1646.3,677.6 1569.9,677.6 1630.6,639.5 1707,639.5 						"/>
						<polygon class="st4" points="1732.6,677.6 1656.3,677.6 1717,639.5 1793.3,639.5 						"/>
					</g>
				</g>
				<g>
					<g>
						<polygon class="st4" points="-184.4,635.6 -260.8,635.6 -200.1,597.5 -123.7,597.5 						"/>
						<polygon class="st4" points="-98.1,635.6 -174.4,635.6 -113.7,597.5 -37.4,597.5 						"/>
						<polygon class="st4" points="-11.7,635.6 -88.1,635.6 -27.4,597.5 49,597.5 						"/>
						<polygon class="st4" points="74.6,635.6 -1.7,635.6 59,597.5 135.3,597.5 						"/>
						<polygon class="st4" points="159.6,635.6 83.3,635.6 144,597.5 220.3,597.5 						"/>
						<polygon class="st4" points="246,635.6 169.6,635.6 230.3,597.5 306.7,597.5 						"/>
						<polygon class="st4" points="332.3,635.6 256,635.6 316.7,597.5 393,597.5 						"/>
						<polygon class="st4" points="418.7,635.6 342.3,635.6 403,597.5 479.4,597.5 						"/>
						<polygon class="st4" points="507.1,635.6 430.7,635.6 491.4,597.5 567.8,597.5 						"/>
						<polygon class="st4" points="593.4,635.6 517.1,635.6 577.8,597.5 654.1,597.5 						"/>
						<polygon class="st4" points="679.8,635.6 603.4,635.6 664.1,597.5 740.5,597.5 						"/>
						<polygon class="st4" points="766.1,635.6 689.8,635.6 750.5,597.5 826.8,597.5 						"/>
						<polygon class="st4" points="851.1,635.6 774.8,635.6 835.5,597.5 911.8,597.5 						"/>
						<polygon class="st4" points="937.5,635.6 861.1,635.6 921.8,597.5 998.2,597.5 						"/>
						<polygon class="st4" points="1023.8,635.6 947.5,635.6 1008.2,597.5 1084.5,597.5 						"/>
						<polygon class="st4" points="1110.2,635.6 1033.8,635.6 1094.5,597.5 1170.9,597.5 						"/>
						<polygon class="st4" points="1196.5,635.6 1120.2,635.6 1180.9,597.5 1257.2,597.5 						"/>
						<polygon class="st4" points="1282.9,635.6 1206.5,635.6 1267.2,597.5 1343.6,597.5 						"/>
						<polygon class="st4" points="1369.2,635.6 1292.9,635.6 1353.6,597.5 1429.9,597.5 						"/>
						<polygon class="st4" points="1455.5,635.6 1379.2,635.6 1439.9,597.5 1516.2,597.5 						"/>
						<polygon class="st4" points="1540.6,635.6 1464.3,635.6 1525,597.5 1601.3,597.5 						"/>
						<polygon class="st4" points="1626.9,635.6 1550.6,635.6 1611.3,597.5 1687.6,597.5 						"/>
						<polygon class="st4" points="1713.3,635.6 1636.9,635.6 1697.6,597.5 1774,597.5 						"/>
						<polygon class="st4" points="1799.6,635.6 1723.3,635.6 1784,597.5 1860.3,597.5 						"/>
					</g>
				</g>
			</g>
			<g>
				<rect x="-199.8" y="521.1" class="st5" width="76.3" height="76.3"/>
				<rect x="-113.5" y="521.1" class="st5" width="76.3" height="76.3"/>
				<rect x="-27.1" y="521.1" class="st5" width="76.3" height="76.3"/>
				<rect x="59.2" y="521.1" class="st5" width="76.3" height="76.3"/>
				<rect x="144.2" y="521.1" class="st5" width="76.3" height="76.3"/>
				<rect x="230.6" y="521.1" class="st5" width="76.3" height="76.3"/>
				<rect x="316.9" y="521.1" class="st5" width="76.3" height="76.3"/>
				<rect x="403.3" y="521.1" class="st5" width="76.3" height="76.3"/>
				<rect x="491.7" y="521.1" class="st5" width="76.3" height="76.3"/>
				<rect x="578" y="521.1" class="st5" width="76.3" height="76.3"/>
				<rect x="664.3" y="521.1" class="st5" width="76.3" height="76.3"/>
				<rect x="750.7" y="521.1" class="st5" width="76.3" height="76.3"/>
				<rect x="835.7" y="521.1" class="st5" width="76.3" height="76.3"/>
				<rect x="922.1" y="521.1" class="st5" width="76.3" height="76.3"/>
				<rect x="1008.4" y="521.1" class="st5" width="76.3" height="76.3"/>
				<rect x="1094.8" y="521.1" class="st5" width="76.3" height="76.3"/>
				<rect x="1181.1" y="521.1" class="st5" width="76.3" height="76.3"/>
				<rect x="1267.5" y="521.1" class="st5" width="76.3" height="76.3"/>
				<rect x="1353.8" y="521.1" class="st5" width="76.3" height="76.3"/>
				<rect x="1440.1" y="521.1" class="st5" width="76.3" height="76.3"/>
				<rect x="1525.2" y="521.1" class="st5" width="76.3" height="76.3"/>
				<rect x="1611.5" y="521.1" class="st5" width="76.3" height="76.3"/>
				<rect x="1697.9" y="521.1" class="st5" width="76.3" height="76.3"/>
				<rect x="1784.2" y="521.1" class="st5" width="76.3" height="76.3"/>
			</g>
			<g>
				<rect x="-200" y="511.1" class="st6" width="2107.9" height="86.3"/>
				<g>
					<rect x="-199.8" y="521.1" class="st5" width="76.3" height="76.3"/>
					<rect x="-113.5" y="521.1" class="st5" width="76.3" height="76.3"/>
					<rect x="-27.1" y="521.1" class="st5" width="76.3" height="76.3"/>
					<rect x="59.2" y="521.1" class="st5" width="76.3" height="76.3"/>
					<rect x="144.2" y="521.1" class="st5" width="76.3" height="76.3"/>
					<rect x="230.6" y="521.1" class="st5" width="76.3" height="76.3"/>
					<rect x="316.9" y="521.1" class="st5" width="76.3" height="76.3"/>
					<rect x="403.3" y="521.1" class="st5" width="76.3" height="76.3"/>
					<rect x="491.7" y="521.1" class="st5" width="76.3" height="76.3"/>
					<rect x="578" y="521.1" class="st5" width="76.3" height="76.3"/>
					<rect x="664.3" y="521.1" class="st5" width="76.3" height="76.3"/>
					<rect x="750.7" y="521.1" class="st5" width="76.3" height="76.3"/>
					<rect x="835.7" y="521.1" class="st5" width="76.3" height="76.3"/>
					<rect x="922.1" y="521.1" class="st5" width="76.3" height="76.3"/>
					<rect x="1008.4" y="521.1" class="st5" width="76.3" height="76.3"/>
					<rect x="1094.8" y="521.1" class="st5" width="76.3" height="76.3"/>
					<rect x="1181.1" y="521.1" class="st5" width="76.3" height="76.3"/>
					<rect x="1267.5" y="521.1" class="st5" width="76.3" height="76.3"/>
					<rect x="1353.8" y="521.1" class="st5" width="76.3" height="76.3"/>
					<rect x="1440.1" y="521.1" class="st5" width="76.3" height="76.3"/>
					<rect x="1525.2" y="521.1" class="st5" width="76.3" height="76.3"/>
					<rect x="1611.5" y="521.1" class="st5" width="76.3" height="76.3"/>
					<rect x="1697.9" y="521.1" class="st5" width="76.3" height="76.3"/>
					<rect x="1784.2" y="521.1" class="st5" width="76.3" height="76.3"/>
				</g>
			</g>
		</g>
		<g id="picture" class="st0">
			<g>
				<g>
					<polygon class="st7" points="660,115.6 670,105.6 670,-34.1 660,-34.1 					"/>
					<polygon class="st3" points="670,105.6 660,115.6 982.6,115.6 982.6,105.6 					"/>
					<polygon class="st7" points="670,105.6 680,95.6 982.6,95.6 982.6,105.6 					"/>
					<polygon class="st3" points="670,105.6 670,-34.1 680,-34.1 680,95.6 					"/>
					<rect x="680" y="-34.1" class="st8" width="302.6" height="129.7"/>
				</g>
				<g>
					<g>
						<polygon class="st9" points="660,115.6 670,105.6 670,-34.1 660,-34.1 						"/>
						<polygon class="st10" points="670,105.6 660,115.6 982.6,115.6 982.6,105.6 						"/>
						<polygon class="st9" points="670,105.6 680,95.6 982.6,95.6 982.6,105.6 						"/>
						<polygon class="st10" points="670,105.6 670,-34.1 680,-34.1 680,95.6 						"/>
					</g>
					<g>
						<path class="st11" d="M680-34.1V95.6h302.6v10v10H660V-34.1h10H680 M680-35.1h-10h-10c-0.6,0-1,0.4-1,1v149.7c0,0.6,0.4,1,1,1
							h322.6c0.6,0,1-0.4,1-1v-10v-10c0-0.6-0.4-1-1-1H681V-34.1C681-34.6,680.6-35.1,680-35.1L680-35.1z"/>
					</g>
				</g>
			</g>
			<g>
				<g>
					<path class="st11" d="M982.6-34.1V95.6v10v10H660V-34.1h10h10H982.6 M982.6-35.1H680h-10h-10c-0.6,0-1,0.4-1,1v149.7
						c0,0.6,0.4,1,1,1h322.6c0.6,0,1-0.4,1-1v-10v-10V-34.1C983.6-34.6,983.2-35.1,982.6-35.1L982.6-35.1z"/>
				</g>
			</g>
		</g>
		<g id="cooler" class="st0">
			<g>
				<polygon class="st12" points="758.9,288.6 877.4,214 1128.9,214 1010.4,288.6 				"/>
				<rect x="758.9" y="288.6" class="st6" width="251.5" height="480.8"/>
				<polygon class="st3" points="1010.4,288.6 1128.9,214 1128.9,694.8 1010.4,769.4 				"/>
				<polyline class="st13" points="758.9,288.6 758.9,769.4 1010.4,769.4 1010.4,288.6 				"/>
				<polyline class="st3" points="1128.9,214 1128.9,694.8 1010.4,769.4 1010.4,288.6 				"/>
			</g>
			<g>
				<path class="st14" d="M1128.9,214v480.8l-118.4,74.5H758.9V288.6L877.4,214H1128.9 M1129.9,213h-1H877.4h-0.3l-0.2,0.2
					l-118.4,74.5l-0.5,0.3v0.6v480.8v1h1h251.5h0.3l0.2-0.2l118.4-74.5l0.5-0.3v-0.6V214V213L1129.9,213z"/>
			</g>
		</g>
		<g id="box_1_" class="st0">
			<rect x="793.6" y="199.7" class="st6" width="142.4" height="78.4"/>
			<polygon class="st3" points="936,199.7 1003.1,157.5 1003.1,235.9 936,278.1 			"/>
			<polyline class="st15" points="793.6,199.7 793.6,278.1 936,278.1 936,199.7 			"/>
			<g>
				<polyline class="st16" points="936,199.7 919,217.8 912.4,211.5 898.1,224.4 891.5,218.2 877.2,230.9 870.7,224.7 870.7,224.7 
					856.3,237.5 849.8,231.3 849.8,231.3 835.4,244.1 828.9,237.8 828.9,237.9 814.5,250.7 808,244.4 808,244.4 793.6,257.2 
					793.6,254.8 				"/>
				<polyline class="st7" points="793.6,199.7 793.6,257.2 808,244.4 808,244.4 814.5,250.7 828.9,237.9 828.9,237.8 835.4,244.1 
					849.8,231.3 849.8,231.3 856.3,237.5 870.7,224.7 870.7,224.7 877.2,230.9 891.5,218.2 898.1,224.4 912.4,211.5 919,217.8 
					936,199.7 				"/>
			</g>
			<polygon class="st17" points="793.6,199.7 860.7,157.5 1003.1,157.5 936,199.7 			"/>
			<polyline class="st18" points="1003.1,157.5 1003.1,235.9 936,278.1 936,199.7 			"/>
			<g>
				<path class="st13" d="M1003.1,157.5v78.4L936,278.1H793.6v-78.4l67.1-42.2H1003.1 M1004.1,156.5h-1H860.7h-0.3l-0.2,0.2
					l-67.1,42.2l-0.5,0.3v0.6v78.4v1h1H936h0.3l0.2-0.2l67.1-42.2l0.5-0.3v-0.6v-78.4V156.5L1004.1,156.5z"/>
			</g>
		</g>
		<g id="box" class="st0">
			<rect x="807.3" y="119.2" class="st6" width="142.4" height="78.4"/>
			<polygon class="st3" points="949.8,119.2 1016.8,77 1016.8,155.5 949.8,197.7 			"/>
			<polyline class="st15" points="807.3,119.2 807.3,197.7 949.8,197.7 949.8,119.2 			"/>
			<g>
				<polyline class="st16" points="949.8,119.2 932.7,137.3 926.2,131.1 911.8,143.9 905.3,137.7 891,150.4 884.4,144.2 
					884.4,144.3 870.1,157.1 863.5,150.8 863.5,150.8 849.2,163.6 842.6,157.4 842.6,157.4 828.2,170.2 821.7,164 821.7,164 
					807.3,176.8 807.3,174.4 				"/>
				<polyline class="st7" points="807.3,119.2 807.3,176.8 821.7,164 821.7,164 828.2,170.2 842.6,157.4 842.6,157.4 849.2,163.6 
					863.5,150.8 863.5,150.8 870.1,157.1 884.4,144.3 884.4,144.2 891,150.4 905.3,137.7 911.8,143.9 926.2,131.1 932.7,137.3 
					949.8,119.2 				"/>
			</g>
			<polygon class="st17" points="807.3,119.2 874.4,77 1016.8,77 949.8,119.2 			"/>
			<polyline class="st18" points="1016.8,77 1016.8,155.5 949.8,197.7 949.8,119.2 			"/>
			<g>
				<path class="st13" d="M1016.8,77v78.4l-67.1,42.2H807.3v-78.4L874.4,77H1016.8 M1017.8,76h-1H874.4h-0.3l-0.2,0.2l-67.1,42.2
					l-0.5,0.3v0.6v78.4v1h1h142.4h0.3l0.2-0.2l67.1-42.2l0.5-0.3v-0.6V77V76L1017.8,76z"/>
			</g>
		</g>
		<g id="displayCase" class="st0">
			<g>
				<path class="st11" d="M485.3,191.5v500.1h-85.8h0H192.9L61.5,774.3v-29.8l131.4-82.7l-18.2,11.5v-263L61.5,481.5v-29.8
					l113.2-71.2l67.8-178.1l17.2-10.8l-66.8,177.5l66.8-177.5h139.9h0H485.3 M218.2,661.8h181.3V221.3H277.1l-58.8,156.3V661.8
					 M259.7,190.5c-0.2,0-0.4,0.1-0.5,0.2l-17.2,10.8c-0.2,0.1-0.3,0.3-0.4,0.5l-67.6,177.8L61,450.8c-0.3,0.2-0.5,0.5-0.5,0.8v29.8
					c0,0.4,0.2,0.7,0.5,0.9c0.2,0.1,0.3,0.1,0.5,0.1c0.2,0,0.4-0.1,0.5-0.2L173.7,412v260.6L61,743.6c-0.3,0.2-0.5,0.5-0.5,0.8v29.8
					c0,0.4,0.2,0.7,0.5,0.9c0.2,0.1,0.3,0.1,0.5,0.1c0.2,0,0.4-0.1,0.5-0.2l131.1-82.5h206.4h85.8c0.6,0,1-0.4,1-1V191.5
					c0-0.6-0.4-1-1-1h-85.8L259.7,190.5C259.7,190.5,259.7,190.5,259.7,190.5L259.7,190.5z M277.7,222.3h120.8v438.5H219.2v-283
					L277.7,222.3L277.7,222.3z"/>
			</g>
			<polygon class="st19" points="174.7,380.4 242.5,202.3 259.7,191.5 192.9,368.9 			"/>
			<polygon class="st3" points="61.5,774.3 192.9,691.6 192.9,661.8 61.5,744.5 			"/>
			<polygon class="st3" points="61.5,481.5 192.9,398.8 192.9,368.9 61.5,451.6 			"/>
			<polygon class="st13" points="61.5,774.3 192.9,691.6 485.3,691.6 353.9,774.3 			"/>
			<g>
				<polygon class="st6" points="218.2,661.8 218.2,377.6 277.1,221.3 399.6,221.3 399.6,191.5 259.7,191.5 192.9,368.9 
					192.9,691.6 399.6,691.6 399.6,661.8 				"/>
				<rect x="399.6" y="191.5" class="st6" width="85.8" height="500.1"/>
			</g>
			<polygon class="st3" points="128.3,274.1 259.7,191.5 485.3,191.5 353.9,274.1 			"/>
			<polygon class="st3" points="174.7,380.4 192.9,368.9 192.9,661.8 174.7,673.2 			"/>
			<g>
				<g>
					<g>
						<polygon class="st7" points="61.5,463.5 192.9,380.8 485.3,295.2 485.3,305.2 353.9,387.9 61.5,473.5 						"/>
						<polygon class="st6" points="61.5,473.5 353.9,387.9 353.9,377.9 61.5,463.5 						"/>
						<polygon class="st3" points="353.9,377.9 485.3,295.2 485.3,305.2 353.9,387.9 						"/>
					</g>
					<g>
						<path class="st11" d="M485.3,295.2v10l-131.4,82.7L61.5,473.5v-10l131.4-82.7L485.3,295.2 M486.3,293.9l-1.3,0.4l-292.4,85.6
							l-0.1,0l-0.1,0.1L61,462.6l-0.5,0.3v0.6v10v1.3l1.3-0.4l292.4-85.6l0.1,0l0.1-0.1L485.9,306l0.5-0.3v-0.6v-10V293.9
							L486.3,293.9z"/>
					</g>
				</g>
				<g>
					<g>
						<polygon class="st7" points="61.5,560.5 192.9,477.8 485.3,392.2 485.3,402.2 353.9,484.9 61.5,570.5 						"/>
						<polygon class="st6" points="61.5,570.5 353.9,484.9 353.9,474.9 61.5,560.5 						"/>
						<polygon class="st3" points="353.9,474.9 485.3,392.2 485.3,402.2 353.9,484.9 						"/>
					</g>
					<g>
						<path class="st11" d="M485.3,392.2v10l-131.4,82.7L61.5,570.5v-10l131.4-82.7L485.3,392.2 M486.3,390.9l-1.3,0.4l-292.4,85.6
							l-0.1,0l-0.1,0.1L61,559.6l-0.5,0.3v0.6v10v1.3l1.3-0.4l292.4-85.6l0.1,0l0.1-0.1L485.9,403l0.5-0.3v-0.6v-10V390.9
							L486.3,390.9z"/>
					</g>
				</g>
				<g>
					<g>
						<polygon class="st7" points="61.5,656.5 192.9,573.8 485.3,488.2 485.3,498.2 353.9,580.9 61.5,666.5 						"/>
						<polygon class="st6" points="61.5,666.5 353.9,580.9 353.9,570.9 61.5,656.5 						"/>
						<polygon class="st3" points="353.9,570.9 485.3,488.2 485.3,498.2 353.9,580.9 						"/>
					</g>
					<g>
						<path class="st11" d="M485.3,488.2v10l-131.4,82.7L61.5,666.5v-10l131.4-82.7L485.3,488.2 M486.3,486.9l-1.3,0.4l-292.4,85.6
							l-0.1,0l-0.1,0.1L61,655.6l-0.5,0.3v0.6v10v1.3l1.3-0.4l292.4-85.6l0.1,0l0.1-0.1L485.9,499l0.5-0.3v-0.6v-10V486.9
							L486.3,486.9z"/>
					</g>
				</g>
				<g>
					<g>
						<polygon class="st7" points="61.5,753.5 192.9,670.8 485.3,585.2 485.3,595.2 353.9,677.9 61.5,763.5 						"/>
						<polygon class="st6" points="61.5,763.5 353.9,677.9 353.9,667.9 61.5,753.5 						"/>
						<polygon class="st3" points="353.9,667.9 485.3,585.2 485.3,595.2 353.9,677.9 						"/>
					</g>
					<g>
						<path class="st11" d="M485.3,585.2v10l-131.4,82.7L61.5,763.5v-10l131.4-82.7L485.3,585.2 M486.3,583.9l-1.3,0.4l-292.4,85.6
							l-0.1,0l-0.1,0.1L61,752.6l-0.5,0.3v0.6v10v1.3l1.3-0.4l292.4-85.6l0.1,0l0.1-0.1L485.9,596l0.5-0.3v-0.6v-10V583.9
							L486.3,583.9z"/>
					</g>
				</g>
			</g>
			<g>
				<polygon class="st20" points="86.9,744.5 86.9,460.3 145.7,304 268.2,304 268.2,274.1 128.3,274.1 61.5,451.6 61.5,774.3 
					268.2,774.3 268.2,744.5 				"/>
				<rect x="268.2" y="274.1" class="st20" width="85.8" height="500.1"/>
			</g>
			<path class="st21" d="M353.9,274.1v500.1l131.4-82.7V191.5L353.9,274.1z M477.1,665.6l-115,72.4V300.2l115-72.4V665.6z"/>
			<g>
				<path class="st11" d="M485.3,191.5v500.1l-131.4,82.7h-85.8H61.5V451.6l66.8-177.5l131.4-82.7H485.3l-131.4,82.7L485.3,191.5
					 M362.1,737.9l115-72.4V227.8l-115,72.4V737.9 M86.9,744.5h181.3V304H145.7L86.9,460.3V744.5 M485.3,190.5
					C485.3,190.5,485.3,190.5,485.3,190.5l-225.6,0c-0.2,0-0.4,0.1-0.5,0.2l-131.4,82.7c-0.2,0.1-0.3,0.3-0.4,0.5L60.6,451.3
					c0,0.1-0.1,0.2-0.1,0.4v322.7c0,0.6,0.4,1,1,1h206.7h85.8c0.2,0,0.4-0.1,0.5-0.2l131.4-82.7c0.3-0.2,0.5-0.5,0.5-0.8V191.5
					c0-0.1,0-0.1,0-0.2c0,0,0,0,0,0c0,0,0,0,0,0c0,0,0,0,0,0c0,0,0,0,0,0c0,0,0,0,0,0c0,0,0,0,0,0c0,0,0,0,0,0c0,0,0,0,0,0
					c0,0,0,0,0,0c0,0,0,0,0,0c0,0,0,0,0,0c0,0,0,0,0,0c0,0,0,0,0,0c0,0,0,0,0,0c0,0,0,0,0,0c0,0,0,0,0,0c0,0,0,0,0,0c0,0,0,0,0,0
					c0,0,0,0,0,0c0,0,0,0,0,0c0,0,0,0,0,0c0,0,0,0,0,0c0-0.1-0.1-0.3-0.2-0.4c0,0,0,0,0,0c0,0,0,0,0,0c0,0,0,0,0,0c0,0,0,0,0,0
					c0,0-0.1-0.1-0.1-0.1c0,0,0,0,0,0c0,0,0,0,0,0c0,0,0,0,0,0c0,0,0,0,0,0c0,0,0,0,0,0c0,0,0,0,0,0
					C485.7,190.5,485.6,190.5,485.3,190.5C485.4,190.5,485.4,190.5,485.3,190.5C485.4,190.5,485.4,190.5,485.3,190.5
					C485.4,190.5,485.4,190.5,485.3,190.5C485.4,190.5,485.4,190.5,485.3,190.5C485.4,190.5,485.4,190.5,485.3,190.5
					C485.4,190.5,485.4,190.5,485.3,190.5C485.4,190.5,485.3,190.5,485.3,190.5L485.3,190.5z M363.1,300.7l113-71.1V665l-113,71.1
					V300.7L363.1,300.7z M146.4,305h120.8v438.5H87.9v-283L146.4,305L146.4,305z"/>
			</g>
		</g>
		<g id="bw_box" class="st0">
			<rect x="2202.6" y="210.9" class="st6" width="142.4" height="78.4"/>
			<polygon class="st3" points="2345,210.9 2412.1,168.7 2412.1,247.2 2345,289.4 			"/>
			<polyline class="st6" points="2202.6,210.9 2202.6,289.4 2345,289.4 2345,210.9 			"/>
			<g>
				<path class="st14" d="M2412.1,168.7v78.4l-67.1,42.2h-142.4v-78.4l67.1-42.2H2412.1 M2413.1,167.7h-1h-142.4h-0.3l-0.2,0.2
					l-67.1,42.2l-0.5,0.3v0.6v78.4v1h1H2345h0.3l0.2-0.2l67.1-42.2l0.5-0.3v-0.6v-78.4V167.7L2413.1,167.7z"/>
			</g>
			<g>
				<polyline class="st22" points="2345,210.9 2327.9,229 2321.4,222.8 2307,235.6 2300.5,229.4 2286.2,242.1 2279.7,235.9 
					2279.7,236 2265.3,248.8 2258.7,242.5 2258.7,242.5 2244.4,255.3 2237.8,249.1 2237.8,249.1 2223.5,261.9 2216.9,255.7 
					2216.9,255.7 2202.6,268.5 2202.6,266 				"/>
				<polyline class="st23" points="2202.6,210.9 2202.6,268.5 2216.9,255.7 2216.9,255.7 2223.5,261.9 2237.8,249.1 2237.8,249.1 
					2244.4,255.3 2258.7,242.5 2258.7,242.5 2265.3,248.8 2279.7,236 2279.7,235.9 2286.2,242.1 2300.5,229.4 2307,235.6 
					2321.4,222.8 2327.9,229 2345,210.9 				"/>
			</g>
			<polygon class="st7" points="2202.6,210.9 2269.6,168.7 2412.1,168.7 2345,210.9 			"/>
			<polyline class="st3" points="2412.1,168.7 2412.1,247.2 2345,289.4 2345,210.9 			"/>
		</g>
		<g id="warmer" class="st0">
			<rect x="1052.3" y="1.5" class="st6" width="217.8" height="686.7"/>
			<polygon class="st3" points="934.1,762.7 1052.3,688.3 1052.3,-15 934.1,57.9 			"/>
			<polygon class="st13" points="934.1,762.7 1052.3,688.3 1286.8,688.3 1168.5,762.7 			"/>
			<g>
				<g>
					<g>
						<polygon class="st7" points="934.1,727.6 1052.3,653.2 1270.2,653.2 1151.9,727.6 						"/>
						<rect x="934.1" y="727.6" class="st6" width="217.8" height="8.1"/>
					</g>
					<g>
						<path class="st11" d="M1270.2,653.2l-118.3,74.4v8.1H934.1v-8.1h0l118.3-74.4H1270.2 M1270.2,652.2h-217.8
							c-0.2,0-0.4,0.1-0.5,0.2l-118.3,74.4c-0.3,0.2-0.5,0.6-0.5,1v7.9c0,0.6,0.4,1,1,1h217.8c0.6,0,1-0.4,1-1v-7.5l117.8-74.1
							c0.4-0.2,0.6-0.7,0.4-1.1S1270.6,652.2,1270.2,652.2L1270.2,652.2z"/>
					</g>
				</g>
				<g>
					<g>
						<polygon class="st7" points="934.1,691.6 1052.3,617.2 1270.2,617.2 1151.9,691.6 						"/>
						<rect x="934.1" y="691.6" class="st6" width="217.8" height="8.1"/>
					</g>
					<g>
						<path class="st11" d="M1270.2,617.2l-118.3,74.4v8.1H934.1v-8.1h0l118.3-74.4H1270.2 M1270.2,616.2h-217.8
							c-0.2,0-0.4,0.1-0.5,0.2l-118.3,74.4c-0.3,0.2-0.5,0.6-0.5,1v7.9c0,0.6,0.4,1,1,1h217.8c0.6,0,1-0.4,1-1v-7.5l117.8-74.1
							c0.4-0.2,0.6-0.7,0.4-1.1S1270.6,616.2,1270.2,616.2L1270.2,616.2z"/>
					</g>
				</g>
				<g>
					<g>
						<polygon class="st7" points="934.1,655.6 1052.3,581.2 1270.2,581.2 1151.9,655.6 						"/>
						<rect x="934.1" y="655.6" class="st6" width="217.8" height="8.1"/>
					</g>
					<g>
						<path class="st11" d="M1270.2,581.2l-118.3,74.4v8.1H934.1v-8.1h0l118.3-74.4H1270.2 M1270.2,580.2h-217.8
							c-0.2,0-0.4,0.1-0.5,0.2l-118.3,74.4c-0.3,0.2-0.5,0.6-0.5,1v7.9c0,0.6,0.4,1,1,1h217.8c0.6,0,1-0.4,1-1v-7.5l117.8-74.1
							c0.4-0.2,0.6-0.7,0.4-1.1C1271,580.5,1270.6,580.2,1270.2,580.2L1270.2,580.2z"/>
					</g>
				</g>
				<g>
					<g>
						<polygon class="st7" points="934.1,619.6 1052.3,545.2 1270.2,545.2 1151.9,619.6 						"/>
						<rect x="934.1" y="619.6" class="st6" width="217.8" height="8.1"/>
					</g>
					<g>
						<path class="st11" d="M1270.2,545.2l-118.3,74.4v8.1H934.1v-8.1h0l118.3-74.4H1270.2 M1270.2,544.2h-217.8
							c-0.2,0-0.4,0.1-0.5,0.2l-118.3,74.4c-0.3,0.2-0.5,0.6-0.5,1v7.9c0,0.6,0.4,1,1,1h217.8c0.6,0,1-0.4,1-1v-7.5l117.8-74.1
							c0.4-0.2,0.6-0.7,0.4-1.1S1270.6,544.2,1270.2,544.2L1270.2,544.2z"/>
					</g>
				</g>
				<g>
					<g>
						<polygon class="st7" points="934.1,583.6 1052.3,509.2 1270.2,509.2 1151.9,583.6 						"/>
						<rect x="934.1" y="583.6" class="st6" width="217.8" height="8.1"/>
					</g>
					<g>
						<path class="st11" d="M1270.2,509.2l-118.3,74.4v8.1H934.1v-8.1h0l118.3-74.4H1270.2 M1270.2,508.2h-217.8
							c-0.2,0-0.4,0.1-0.5,0.2l-118.3,74.4c-0.3,0.2-0.5,0.6-0.5,1v7.9c0,0.6,0.4,1,1,1h217.8c0.6,0,1-0.4,1-1v-7.5l117.8-74.1
							c0.4-0.2,0.6-0.7,0.4-1.1C1271,508.5,1270.6,508.2,1270.2,508.2L1270.2,508.2z"/>
					</g>
				</g>
			</g>
			<polygon class="st13" points="934.1,528.2 1052.3,453.8 1286.8,453.8 1168.5,528.2 			"/>
			<g>
				<g>
					<polygon class="st7" points="934.1,492.9 1052.3,418.4 1270.2,418.4 1151.9,492.9 					"/>
					<rect x="934.1" y="492.9" class="st6" width="217.8" height="8.1"/>
				</g>
				<g>
					<path class="st11" d="M1270.2,418.4l-118.3,74.4v8.1H934.1v-8.1h0l118.3-74.4H1270.2 M1270.2,417.4h-217.8
						c-0.2,0-0.4,0.1-0.5,0.2L933.5,492c-0.3,0.2-0.5,0.6-0.5,1v7.9c0,0.6,0.4,1,1,1h217.8c0.6,0,1-0.4,1-1v-7.5l117.8-74.1
						c0.4-0.2,0.6-0.7,0.4-1.1C1271,417.7,1270.6,417.4,1270.2,417.4L1270.2,417.4z"/>
				</g>
			</g>
			<g>
				<g>
					<polygon class="st7" points="934.1,456.9 1052.3,382.4 1270.2,382.4 1151.9,456.9 					"/>
					<rect x="934.1" y="456.9" class="st6" width="217.8" height="8.1"/>
				</g>
				<g>
					<path class="st11" d="M1270.2,382.4l-118.3,74.4v8.1H934.1v-8.1h0l118.3-74.4H1270.2 M1270.2,381.4h-217.8
						c-0.2,0-0.4,0.1-0.5,0.2L933.5,456c-0.3,0.2-0.5,0.6-0.5,1v7.9c0,0.6,0.4,1,1,1h217.8c0.6,0,1-0.4,1-1v-7.5l117.8-74.1
						c0.4-0.2,0.6-0.7,0.4-1.1C1271,381.7,1270.6,381.4,1270.2,381.4L1270.2,381.4z"/>
				</g>
			</g>
			<g>
				<g>
					<polygon class="st7" points="934.1,420.9 1052.3,346.4 1270.2,346.4 1151.9,420.9 					"/>
					<rect x="934.1" y="420.9" class="st6" width="217.8" height="8.1"/>
				</g>
				<g>
					<path class="st11" d="M1270.2,346.4l-118.3,74.4v8.1H934.1v-8.1h0l118.3-74.4H1270.2 M1270.2,345.4h-217.8
						c-0.2,0-0.4,0.1-0.5,0.2L933.5,420c-0.3,0.2-0.5,0.6-0.5,1v7.9c0,0.6,0.4,1,1,1h217.8c0.6,0,1-0.4,1-1v-7.5l117.8-74.1
						c0.4-0.2,0.6-0.7,0.4-1.1C1271,345.7,1270.6,345.4,1270.2,345.4L1270.2,345.4z"/>
				</g>
			</g>
			<g>
				<g>
					<polygon class="st7" points="934.1,384.9 1052.3,310.4 1270.2,310.4 1151.9,384.9 					"/>
					<rect x="934.1" y="384.9" class="st6" width="217.8" height="8.1"/>
				</g>
				<g>
					<path class="st11" d="M1270.2,310.4l-118.3,74.4v8.1H934.1v-8.1h0l118.3-74.4H1270.2 M1270.2,309.4h-217.8
						c-0.2,0-0.4,0.1-0.5,0.2L933.5,384c-0.3,0.2-0.5,0.6-0.5,1v7.9c0,0.6,0.4,1,1,1h217.8c0.6,0,1-0.4,1-1v-7.5l117.8-74.1
						c0.4-0.2,0.6-0.7,0.4-1.1C1271,309.7,1270.6,309.4,1270.2,309.4L1270.2,309.4z"/>
				</g>
			</g>
			<g>
				<g>
					<polygon class="st7" points="934.1,348.9 1052.3,274.4 1270.2,274.4 1151.9,348.9 					"/>
					<rect x="934.1" y="348.9" class="st6" width="217.8" height="8.1"/>
				</g>
				<g>
					<path class="st11" d="M1270.2,274.4l-118.3,74.4v8.1H934.1v-8.1h0l118.3-74.4H1270.2 M1270.2,273.4h-217.8
						c-0.2,0-0.4,0.1-0.5,0.2L933.5,348c-0.3,0.2-0.5,0.6-0.5,1v7.9c0,0.6,0.4,1,1,1h217.8c0.6,0,1-0.4,1-1v-7.5l117.8-74.1
						c0.4-0.2,0.6-0.7,0.4-1.1C1271,273.7,1270.6,273.4,1270.2,273.4L1270.2,273.4z"/>
				</g>
			</g>
			<polygon class="st13" points="934.1,293.8 1052.3,219.4 1286.8,219.4 1168.5,293.8 			"/>
			<g>
				<g>
					<polygon class="st7" points="934.1,257.8 1052.3,183.4 1270.2,183.4 1151.9,257.8 					"/>
					<rect x="934.1" y="257.8" class="st6" width="217.8" height="8.1"/>
				</g>
				<g>
					<path class="st11" d="M1270.2,183.4l-118.3,74.4v8.1H934.1v-8.1h0l118.3-74.4H1270.2 M1270.2,182.4h-217.8
						c-0.2,0-0.4,0.1-0.5,0.2l-118.3,74.4c-0.3,0.2-0.5,0.6-0.5,1v7.9c0,0.6,0.4,1,1,1h217.8c0.6,0,1-0.4,1-1v-7.5l117.8-74.1
						c0.4-0.2,0.6-0.7,0.4-1.1C1271,182.7,1270.6,182.4,1270.2,182.4L1270.2,182.4z"/>
				</g>
			</g>
			<g>
				<g>
					<polygon class="st7" points="934.1,221.8 1052.3,147.4 1270.2,147.4 1151.9,221.8 					"/>
					<rect x="934.1" y="221.8" class="st6" width="217.8" height="8.1"/>
				</g>
				<g>
					<path class="st11" d="M1270.2,147.4l-118.3,74.4v8.1H934.1v-8.1h0l118.3-74.4H1270.2 M1270.2,146.4h-217.8
						c-0.2,0-0.4,0.1-0.5,0.2l-118.3,74.4c-0.3,0.2-0.5,0.6-0.5,1v7.9c0,0.6,0.4,1,1,1h217.8c0.6,0,1-0.4,1-1v-7.5l117.8-74.1
						c0.4-0.2,0.6-0.7,0.4-1.1C1271,146.7,1270.6,146.4,1270.2,146.4L1270.2,146.4z"/>
				</g>
			</g>
			<g>
				<g>
					<polygon class="st7" points="934.1,185.8 1052.3,111.4 1270.2,111.4 1151.9,185.8 					"/>
					<rect x="934.1" y="185.8" class="st6" width="217.8" height="8.1"/>
				</g>
				<g>
					<path class="st11" d="M1270.2,111.4l-118.3,74.4v8.1H934.1v-8.1h0l118.3-74.4H1270.2 M1270.2,110.4h-217.8
						c-0.2,0-0.4,0.1-0.5,0.2l-118.3,74.4c-0.3,0.2-0.5,0.6-0.5,1v7.9c0,0.6,0.4,1,1,1h217.8c0.6,0,1-0.4,1-1v-7.5l117.8-74.1
						c0.4-0.2,0.6-0.7,0.4-1.1S1270.6,110.4,1270.2,110.4L1270.2,110.4z"/>
				</g>
			</g>
			<g>
				<g>
					<polygon class="st7" points="934.1,149.8 1052.3,75.4 1270.2,75.4 1151.9,149.8 					"/>
					<rect x="934.1" y="149.8" class="st6" width="217.8" height="8.1"/>
				</g>
				<g>
					<path class="st11" d="M1270.2,75.4l-118.3,74.4v8.1H934.1v-8.1h0l118.3-74.4H1270.2 M1270.2,74.4h-217.8
						c-0.2,0-0.4,0.1-0.5,0.2l-118.3,74.4c-0.3,0.2-0.5,0.6-0.5,1v7.9c0,0.6,0.4,1,1,1h217.8c0.6,0,1-0.4,1-1v-7.5l117.8-74.1
						c0.4-0.2,0.6-0.7,0.4-1.1S1270.6,74.4,1270.2,74.4L1270.2,74.4z"/>
				</g>
			</g>
			<g>
				<g>
					<polygon class="st7" points="934.1,113.8 1052.3,39.4 1270.2,39.4 1151.9,113.8 					"/>
					<rect x="934.1" y="113.8" class="st6" width="217.8" height="8.1"/>
				</g>
				<g>
					<path class="st11" d="M1270.2,39.4l-118.3,74.4v8.1H934.1v-8.1h0l118.3-74.4H1270.2 M1270.2,38.4h-217.8
						c-0.2,0-0.4,0.1-0.5,0.2l-118.3,74.4c-0.3,0.2-0.5,0.6-0.5,1v7.9c0,0.6,0.4,1,1,1h217.8c0.6,0,1-0.4,1-1v-7.5l117.8-74.1
						c0.4-0.2,0.6-0.7,0.4-1.1C1271,38.6,1270.6,38.4,1270.2,38.4L1270.2,38.4z"/>
				</g>
			</g>
			<g>
				<path class="st6" d="M917.4,59.3v234.5v16.7v217.8v16.7v234.5h251.1V544.9v-16.7V310.4v-16.7V59.3H917.4z M1151.9,762.7H934.1
					V544.9h217.8V762.7z M1151.9,528.2H934.1V310.4h217.8V528.2z M934.1,293.8V76h217.8v217.8H934.1z"/>
				<g>
					<path class="st11" d="M1168.5,59.3v234.5v16.7v217.8v16.7v234.5H917.4V544.9v-16.7V310.4v-16.7V59.3H1168.5 M934.1,293.8h217.8
						V76H934.1V293.8 M934.1,528.2h217.8V310.4H934.1V528.2 M934.1,762.7h217.8V544.9H934.1V762.7 M1168.5,58.3H917.4
						c-0.6,0-1,0.4-1,1v234.5v16.7v217.8v16.7v234.5c0,0.6,0.4,1,1,1h251.1c0.6,0,1-0.4,1-1V544.9v-16.7V310.4v-16.7V59.3
						C1169.5,58.8,1169.1,58.3,1168.5,58.3L1168.5,58.3z M935.1,77h215.8v215.8H935.1V77L935.1,77z M935.1,311.4h215.8v215.8H935.1
						V311.4L935.1,311.4z M935.1,545.9h215.8v215.8H935.1V545.9L935.1,545.9z"/>
				</g>
			</g>
			<g>
				<polygon class="st3" points="1168.5,779.4 1168.5,59.2 1286.8,-15.2 1286.8,704.9 				"/>
				<g>
					<path class="st11" d="M1286.8-15.2v720.2l-118.3,74.4V59.2L1286.8-15.2 M1286.8-16.2c-0.2,0-0.4,0.1-0.5,0.2L1168,58.3
						c-0.3,0.2-0.5,0.5-0.5,0.8v720.2c0,0.4,0.2,0.7,0.5,0.9c0.2,0.1,0.3,0.1,0.5,0.1c0.2,0,0.4-0.1,0.5-0.2l118.3-74.4
						c0.3-0.2,0.5-0.5,0.5-0.8V-15.2c0-0.4-0.2-0.7-0.5-0.9C1287.1-16.2,1287-16.2,1286.8-16.2L1286.8-16.2z"/>
				</g>
			</g>
			<g>
				<g>
					<polygon class="st23" points="1318.1,822.2 1318.1,107.7 1171.6,64.9 1171.6,779.4 					"/>
					<polygon class="st7" points="1187.5,61.3 1171.6,64.9 1318.1,107.7 1333.9,104.1 					"/>
					<polygon class="st13" points="1333.9,818.6 1333.9,104.1 1318.1,107.7 1318.1,822.2 					"/>
				</g>
				<g>
					<path class="st11" d="M1187.5,61.3l146.4,42.8v714.5l-15.9,3.6l-146.4-42.8V64.9L1187.5,61.3 M1187.5,60.3c-0.1,0-0.1,0-0.2,0
						l-15.9,3.6c-0.5,0.1-0.8,0.5-0.8,1v714.5c0,0.4,0.3,0.8,0.7,1l146.4,42.8c0.1,0,0.2,0,0.3,0c0.1,0,0.1,0,0.2,0l15.9-3.6
						c0.5-0.1,0.8-0.5,0.8-1V104.1c0-0.4-0.3-0.8-0.7-1l-146.4-42.8C1187.7,60.3,1187.6,60.3,1187.5,60.3L1187.5,60.3z"/>
				</g>
			</g>
			<g>
				<g>
					<polygon class="st7" points="889.3,37.9 1025.6,-47.9 1315,-47.9 1178.7,37.9 					"/>
					<rect x="889.3" y="37.9" class="st6" width="289.4" height="27"/>
					<polygon class="st3" points="1178.7,37.9 1315,-47.9 1315,-20.9 1178.7,64.9 					"/>
				</g>
				<g>
					<polygon class="st7" points="917.2,-122.9 1035.6,-197.4 1287.1,-197.4 1168.6,-122.9 					"/>
					<rect x="917.2" y="-122.9" class="st6" width="251.5" height="153.6"/>
					<polygon class="st3" points="1168.6,-122.9 1287.1,-197.4 1287.1,-43.7 1168.6,30.8 					"/>
				</g>
				<g>
					<path class="st11" d="M1287.1-197.4v149.5h27.9v27l-136.3,85.8H889.3v-27l27.9-17.6v-143.2l118.4-74.5H1287.1 M1287.1-198.4
						h-251.5c-0.2,0-0.4,0.1-0.5,0.2l-118.4,74.5c-0.3,0.2-0.5,0.5-0.5,0.8V19.8L888.7,37c-0.3,0.2-0.5,0.5-0.5,0.8v27
						c0,0.6,0.4,1,1,1h289.4c0.2,0,0.4-0.1,0.5-0.2l136.3-85.8c0.3-0.2,0.5-0.5,0.5-0.8v-27c0-0.6-0.4-1-1-1h-26.9v-148.5
						C1288.1-197.9,1287.6-198.4,1287.1-198.4L1287.1-198.4z"/>
				</g>
			</g>
			<g>
				<g>
					<linearGradient id="SVGID_1_" gradientUnits="userSpaceOnUse" x1="1165.7551" y1="190.4383" x2="1172.3595" y2="190.4383">
						<stop  offset="0" style="stop-color:#CCCCCC"/>
						<stop  offset="1" style="stop-color:#808080"/>
					</linearGradient>
					<path class="st24" d="M1165.8,151.7v76.2c0,0.7,1.5,1.2,3.3,1.2s3.3-0.6,3.3-1.2v-76.2H1165.8z"/>
					<ellipse class="st7" cx="1169.1" cy="151.7" rx="3.3" ry="1.2"/>
				</g>
				<g>
					<path class="st11" d="M1169.1,150.5c1.8,0,3.3,0.6,3.3,1.2v76.2c0,0.7-1.5,1.2-3.3,1.2s-3.3-0.6-3.3-1.2v-76.2
						C1165.8,151,1167.2,150.5,1169.1,150.5 M1169.1,149.5c-2.1,0-4.3,0.7-4.3,2.2v76.2c0,1.5,2.2,2.2,4.3,2.2
						c2.1,0,4.3-0.7,4.3-2.2v-76.2C1173.4,150.2,1171.2,149.5,1169.1,149.5L1169.1,149.5z"/>
				</g>
			</g>
			<g>
				<g>
					<linearGradient id="SVGID_2_" gradientUnits="userSpaceOnUse" x1="1165.7551" y1="425.5194" x2="1172.3595" y2="425.5194">
						<stop  offset="0" style="stop-color:#CCCCCC"/>
						<stop  offset="1" style="stop-color:#808080"/>
					</linearGradient>
					<path class="st25" d="M1165.8,386.8V463c0,0.7,1.5,1.2,3.3,1.2s3.3-0.6,3.3-1.2v-76.2H1165.8z"/>
					<ellipse class="st7" cx="1169.1" cy="386.8" rx="3.3" ry="1.2"/>
				</g>
				<g>
					<path class="st11" d="M1169.1,385.6c1.8,0,3.3,0.6,3.3,1.2V463c0,0.7-1.5,1.2-3.3,1.2s-3.3-0.6-3.3-1.2v-76.2
						C1165.8,386.1,1167.2,385.6,1169.1,385.6 M1169.1,384.6c-2.1,0-4.3,0.7-4.3,2.2V463c0,1.5,2.2,2.2,4.3,2.2
						c2.1,0,4.3-0.7,4.3-2.2v-76.2C1173.4,385.2,1171.2,384.6,1169.1,384.6L1169.1,384.6z"/>
				</g>
			</g>
			<g>
				<g>
					<linearGradient id="SVGID_3_" gradientUnits="userSpaceOnUse" x1="1165.7551" y1="660.2595" x2="1172.3595" y2="660.2595">
						<stop  offset="0" style="stop-color:#CCCCCC"/>
						<stop  offset="1" style="stop-color:#808080"/>
					</linearGradient>
					<path class="st26" d="M1165.8,621.5v76.2c0,0.7,1.5,1.2,3.3,1.2s3.3-0.6,3.3-1.2v-76.2H1165.8z"/>
					<ellipse class="st7" cx="1169.1" cy="621.5" rx="3.3" ry="1.2"/>
				</g>
				<g>
					<path class="st11" d="M1169.1,620.3c1.8,0,3.3,0.6,3.3,1.2v76.2c0,0.7-1.5,1.2-3.3,1.2s-3.3-0.6-3.3-1.2v-76.2
						C1165.8,620.8,1167.2,620.3,1169.1,620.3 M1169.1,619.3c-2.1,0-4.3,0.7-4.3,2.2v76.2c0,1.5,2.2,2.2,4.3,2.2
						c2.1,0,4.3-0.7,4.3-2.2v-76.2C1173.4,620,1171.2,619.3,1169.1,619.3L1169.1,619.3z"/>
				</g>
			</g>
		</g>
		<g id="shelf" class="st0">
			<g>
				<rect x="126.9" y="124.9" class="st27" width="415.7" height="5.2"/>
				<polygon class="st28" points="580.9,100.8 542.7,124.9 542.7,130.1 580.9,106 				"/>
				<polygon class="st29" points="580.9,100.8 165.2,100.8 126.9,124.9 542.7,124.9 580.9,100.8 				"/>
			</g>
			<g>
				<path class="st11" d="M580.9,100.8v5.2l-38.3,24.1v0H126.9v-5.2h0l38.3-24.1H580.9 M580.9,99.8H165.2c-0.2,0-0.4,0.1-0.5,0.2
					L126.4,124c-0.3,0.2-0.5,0.6-0.5,1v5.1c0,0.6,0.4,1,1,1h415.7c0.2,0,0.4-0.1,0.5-0.2l38.3-24.1c0.3-0.2,0.5-0.5,0.5-0.8v-5.2
					C581.9,100.2,581.5,99.8,580.9,99.8L580.9,99.8z"/>
			</g>
		</g>
		<g id="shelf_1_" class="st0">
			<g>
				<rect x="126.9" y="47.1" class="st27" width="415.7" height="5.2"/>
				<polygon class="st28" points="580.9,23 542.7,47.1 542.7,52.4 580.9,28.3 				"/>
				<polygon class="st29" points="580.9,23 165.2,23 126.9,47.1 542.7,47.1 580.9,23 				"/>
			</g>
			<g>
				<path class="st11" d="M580.9,23v5.2l-38.3,24.1v0H126.9v-5.2h0L165.2,23H580.9 M580.9,22H165.2c-0.2,0-0.4,0.1-0.5,0.2
					l-38.3,24.1c-0.3,0.2-0.5,0.6-0.5,1v5.1c0,0.6,0.4,1,1,1h415.7c0.2,0,0.4-0.1,0.5-0.2l38.3-24.1c0.3-0.2,0.5-0.5,0.5-0.8V23
					C581.9,22.5,581.5,22,580.9,22L580.9,22z"/>
			</g>
		</g>
	</g>
</g>
<g id="demo" class="st30">
	<g id="GameSpace" class="st31">
		<g>
			<defs>
				<rect id="SVGID_4_" x="85.3" y="204" width="1307.1" height="769.8"/>
			</defs>
			<clipPath id="SVGID_5_">
				<use xlink:href="#SVGID_4_"  style="overflow:visible;"/>
			</clipPath>
			<polygon class="st32" points="1340,839.8 1272.3,839.8 1269.2,570.4 1338.5,524.2 			"/>
			<polygon class="st33" points="1338.5,524.2 1361.6,508.8 1360.1,822.9 1340,839.8 			"/>
			<polygon class="st32" points="536.8,839.4 469,839.4 467.1,615 534.8,615 			"/>
			<polygon class="st33" points="534.8,615 557.9,615 556.8,822.5 536.8,839.4 			"/>
			<rect x="265.4" y="612" class="st34" width="73.9" height="361.8"/>
			<polygon class="st33" points="339.3,612 339.3,973.8 362.4,953.7 363.9,612 			"/>
			<polygon class="st34" points="353.2,764.4 353.2,793.6 1153.8,793.6 1153.8,762.8 			"/>
			<polygon class="st32" points="1155.7,763.7 353.2,764.4 503.7,656.2 1306.1,655.6 			"/>
			<polygon class="st33" points="1153.8,765.9 1153.8,796.7 1304.6,684.3 1304.6,655.1 			"/>
			<rect x="1102.9" y="612" class="st34" width="73.9" height="361.8"/>
			<polygon class="st33" points="1176.8,612 1176.8,973.8 1199.9,953.7 1201.5,612 			"/>
			<polygon class="st35" points="416.3,442.6 233.1,551.5 1210.1,553 1392.4,442.6 			"/>
			<polygon class="st35" points="233.1,615 1209,615 1210.6,552.8 233.1,551.2 			"/>
			<polygon class="st35" points="1210.6,552.8 1209,615 1392.4,490.6 1392.4,442.6 			"/>
			<polygon class="st36" points="1207.1,553.7 236.1,553.7 418.3,445.7 1389.3,445.7 			"/>
			<rect x="236.1" y="553.4" class="st34" width="971.5" height="60"/>
			<polygon class="st32" points="1207.6,613.5 1389.3,492 1389.3,445.7 1207.6,553.4 			"/>
			<g class="st37">
				<defs>
					<path id="SVGID_6_" d="M466.6,382.9c-4.6,2.7-6.2,8.6-3.6,13.3c2.7,4.6,8.6,6.2,13.3,3.6l28.9-16.7l-9.7-16.8L466.6,382.9z"/>
				</defs>
				<clipPath id="SVGID_7_">
					<use xlink:href="#SVGID_6_"  style="overflow:visible;"/>
				</clipPath>
				
					<linearGradient id="SVGID_8_" gradientUnits="userSpaceOnUse" x1="61.3168" y1="14.9145" x2="62.8564" y2="14.9145" gradientTransform="matrix(6.3065 10.9232 -10.9232 6.3065 254.3137 -387.6563)">
					<stop  offset="0" style="stop-color:#D3B484"/>
					<stop  offset="0.4109" style="stop-color:#D1B282"/>
					<stop  offset="0.5753" style="stop-color:#CAAB7C"/>
					<stop  offset="0.6956" style="stop-color:#BEA071"/>
					<stop  offset="0.7945" style="stop-color:#AC9062"/>
					<stop  offset="0.88" style="stop-color:#967A4E"/>
					<stop  offset="0.9552" style="stop-color:#7A6036"/>
					<stop  offset="1" style="stop-color:#664D24"/>
				</linearGradient>
				<polygon class="st38" points="444.7,375.3 471.6,421.8 520.9,393.4 494,346.8 				"/>
			</g>
			<g class="st37">
				<defs>
					<rect id="SVGID_9_" x="85.3" y="204" width="1307.1" height="769.8"/>
				</defs>
				<clipPath id="SVGID_10_">
					<use xlink:href="#SVGID_9_"  style="overflow:visible;"/>
				</clipPath>
				<path class="st39" d="M466.6,382.9l28.9-16.7l9.7,16.8l-28.9,16.7c-4.6,2.7-10.6,1.1-13.3-3.6
					C460.4,391.5,462,385.6,466.6,382.9z"/>
			</g>
			<g class="st37">
				<defs>
					<path id="SVGID_11_" d="M563.1,310.3c-1.4,0.8-2.8,1.8-4,2.8c-5.1,3.6-14.9,10.9-28.2,22.3c-6.7,5.8-19.5,20.6-26.5,22.9
						c-2.6,0.8-6.1,1.1-9.8,1.7c-3.5-0.2-7.1,0.6-10.4,2.5c-8.9,5.2-12,16.6-6.8,25.5c5.2,8.9,16.6,12,25.5,6.8
						c3.2-1.9,5.6-4.5,7.2-7.6c2.4-2.9,4.4-5.9,6.5-7.8c5.4-4.9,24.7-8.6,33.1-11.5c21.6-7.5,31.6-12.1,36.6-14.7l1.2-0.7l-0.1-0.1
						c11.7-6.7,15.6-21.6,8.9-33.3c-4.5-7.8-12.7-12.2-21.1-12.2C571.1,307,567,308.1,563.1,310.3"/>
				</defs>
				<clipPath id="SVGID_12_">
					<use xlink:href="#SVGID_11_"  style="overflow:visible;"/>
				</clipPath>
				
					<linearGradient id="SVGID_13_" gradientUnits="userSpaceOnUse" x1="24.2161" y1="-5.2498" x2="25.7557" y2="-5.2498" gradientTransform="matrix(15.8614 27.4728 27.4728 -15.8614 285.3554 -416.6778)">
					<stop  offset="0" style="stop-color:#D3B484"/>
					<stop  offset="0.4109" style="stop-color:#D1B282"/>
					<stop  offset="0.5753" style="stop-color:#CAAB7C"/>
					<stop  offset="0.6956" style="stop-color:#BEA071"/>
					<stop  offset="0.7945" style="stop-color:#AC9062"/>
					<stop  offset="0.88" style="stop-color:#967A4E"/>
					<stop  offset="0.9552" style="stop-color:#7A6036"/>
					<stop  offset="1" style="stop-color:#664D24"/>
				</linearGradient>
				<polygon class="st40" points="570.4,250.4 643.4,376.8 505,456.6 432.1,330.3 				"/>
			</g>
			<g class="st37">
				<defs>
					<rect id="SVGID_14_" x="85.3" y="204" width="1307.1" height="769.8"/>
				</defs>
				<clipPath id="SVGID_15_">
					<use xlink:href="#SVGID_14_"  style="overflow:visible;"/>
				</clipPath>
				<path class="st41" d="M563.1,310.3c-1.4,0.8-2.8,1.8-4,2.8c-5.1,3.6-14.9,10.9-28.2,22.3c-6.7,5.8-19.5,20.6-26.5,22.9
					c-2.6,0.8-6.1,1.1-9.8,1.7c-3.5-0.2-7.1,0.6-10.4,2.5c-8.9,5.2-12,16.6-6.8,25.5c5.2,8.9,16.6,12,25.5,6.8
					c3.2-1.9,5.7-4.5,7.2-7.6c2.4-2.9,4.4-5.9,6.5-7.8c5.4-4.9,24.7-8.6,33.1-11.5c21.6-7.5,31.6-12.1,36.6-14.7l1.2-0.7l-0.1-0.1
					c11.7-6.7,15.6-21.6,8.9-33.3C589.7,307.6,574.8,303.6,563.1,310.3z"/>
			</g>
			<g class="st37">
				<defs>
					<path id="SVGID_16_" d="M454.5,325.9L260.2,438.1l65.3,113.1L519.9,439c31.2-18,41.9-58,23.9-89.2
						c-12.1-21-34.1-32.7-56.6-32.7C476.1,317.2,464.8,320,454.5,325.9"/>
				</defs>
				<clipPath id="SVGID_17_">
					<use xlink:href="#SVGID_16_"  style="overflow:visible;"/>
				</clipPath>
				
					<linearGradient id="SVGID_18_" gradientUnits="userSpaceOnUse" x1="8.8323" y1="-2.6674" x2="10.3719" y2="-2.6674" gradientTransform="matrix(42.6651 73.8981 73.8981 -42.6651 194.7751 -395.5073)">
					<stop  offset="0" style="stop-color:#D3B484"/>
					<stop  offset="0.4109" style="stop-color:#D1B282"/>
					<stop  offset="0.5753" style="stop-color:#CAAB7C"/>
					<stop  offset="0.6956" style="stop-color:#BEA071"/>
					<stop  offset="0.7945" style="stop-color:#AC9062"/>
					<stop  offset="0.88" style="stop-color:#967A4E"/>
					<stop  offset="0.9552" style="stop-color:#7A6036"/>
					<stop  offset="1" style="stop-color:#664D24"/>
				</linearGradient>
				<polygon class="st42" points="486.4,186.5 663.2,492.7 335.6,681.9 158.8,375.7 				"/>
			</g>
			<g class="st37">
				<defs>
					<rect id="SVGID_19_" x="85.3" y="204" width="1307.1" height="769.8"/>
				</defs>
				<clipPath id="SVGID_20_">
					<use xlink:href="#SVGID_19_"  style="overflow:visible;"/>
				</clipPath>
				<path class="st43" d="M454.5,325.9L260.2,438.1l65.3,113.1L519.9,439c31.2-18,41.9-58,23.9-89.2
					C525.7,318.6,485.8,307.9,454.5,325.9z"/>
				<path class="st44" d="M349.4,462c18,31.2,7.3,71.2-23.9,89.2c-31.2,18-71.2,7.3-89.2-23.9c-18-31.2-7.3-71.2,23.9-89.2
					C291.4,420.1,331.4,430.8,349.4,462"/>
				<path class="st43" d="M349.4,462c18,31.2,7.3,71.2-23.9,89.2c-31.2,18-71.2,7.3-89.2-23.9c-18-31.2-7.3-71.2,23.9-89.2
					C291.4,420.1,331.4,430.8,349.4,462z"/>
			</g>
			<g class="st37">
				<defs>
					<path id="SVGID_21_" d="M289,485.5l-28.9,16.7l9.7,16.8l28.9-16.7c4.6-2.7,6.2-8.6,3.6-13.3c-1.8-3.1-5.1-4.9-8.4-4.9
						C292.2,484.1,290.6,484.6,289,485.5"/>
				</defs>
				<clipPath id="SVGID_22_">
					<use xlink:href="#SVGID_21_"  style="overflow:visible;"/>
				</clipPath>
				
					<linearGradient id="SVGID_23_" gradientUnits="userSpaceOnUse" x1="61.3168" y1="-21.5327" x2="62.8564" y2="-21.5327" gradientTransform="matrix(6.3065 10.9232 10.9232 -6.3065 125.6599 -313.3779)">
					<stop  offset="0" style="stop-color:#D3B484"/>
					<stop  offset="0.4109" style="stop-color:#D1B282"/>
					<stop  offset="0.5753" style="stop-color:#CAAB7C"/>
					<stop  offset="0.6956" style="stop-color:#BEA071"/>
					<stop  offset="0.7945" style="stop-color:#AC9062"/>
					<stop  offset="0.88" style="stop-color:#967A4E"/>
					<stop  offset="0.9552" style="stop-color:#7A6036"/>
					<stop  offset="1" style="stop-color:#664D24"/>
				</linearGradient>
				<polygon class="st45" points="293.8,464.7 320,510.3 271.3,538.4 245.1,492.8 				"/>
			</g>
			<g class="st37">
				<defs>
					<rect id="SVGID_24_" x="85.3" y="204" width="1307.1" height="769.8"/>
				</defs>
				<clipPath id="SVGID_25_">
					<use xlink:href="#SVGID_24_"  style="overflow:visible;"/>
				</clipPath>
				<path class="st46" d="M289,485.5l-28.9,16.7l9.7,16.8l28.9-16.7c4.6-2.7,6.2-8.6,3.6-13.3C299.6,484.4,293.7,482.8,289,485.5z"
					/>
			</g>
			<g class="st37">
				<defs>
					<path id="SVGID_26_" d="M262.5,490.6c-3.3,1.9-5.7,4.6-7.3,7.8c-2.4,2.9-4.4,5.8-6.4,7.6c-5.4,4.9-24.7,8.6-33.1,11.5
						c-24.9,8.7-37.8,15.4-37.8,15.4l24.4,42.2l1.2-0.7c4.8-3,13.7-9.4,31.1-24.3c6.7-5.8,19.5-20.6,26.5-22.9
						c2.6-0.9,6.2-1.1,10-1.8c3.5,0.2,7-0.6,10.2-2.5c8.9-5.2,12-16.6,6.8-25.5c-3.5-6-9.7-9.3-16.2-9.3
						C268.6,488.1,265.4,488.9,262.5,490.6"/>
				</defs>
				<clipPath id="SVGID_27_">
					<use xlink:href="#SVGID_26_"  style="overflow:visible;"/>
				</clipPath>
				
					<linearGradient id="SVGID_28_" gradientUnits="userSpaceOnUse" x1="24.2778" y1="-9.2848" x2="25.8174" y2="-9.2848" gradientTransform="matrix(15.822 27.4045 27.4045 -15.822 91.8964 -304.8926)">
					<stop  offset="0" style="stop-color:#D3B484"/>
					<stop  offset="0.4109" style="stop-color:#D1B282"/>
					<stop  offset="0.5753" style="stop-color:#CAAB7C"/>
					<stop  offset="0.6956" style="stop-color:#BEA071"/>
					<stop  offset="0.7945" style="stop-color:#AC9062"/>
					<stop  offset="0.88" style="stop-color:#967A4E"/>
					<stop  offset="0.9552" style="stop-color:#7A6036"/>
					<stop  offset="1" style="stop-color:#664D24"/>
				</linearGradient>
				<polygon class="st47" points="264.4,438.2 330.8,553.3 206.7,624.9 140.3,509.8 				"/>
			</g>
			<g class="st37">
				<defs>
					<rect id="SVGID_29_" x="85.3" y="204" width="1307.1" height="769.8"/>
				</defs>
				<clipPath id="SVGID_30_">
					<use xlink:href="#SVGID_29_"  style="overflow:visible;"/>
				</clipPath>
				<path class="st48" d="M262.5,490.6c-3.3,1.9-5.7,4.6-7.3,7.8c-2.4,2.9-4.4,5.8-6.4,7.6c-5.4,4.9-24.7,8.6-33.1,11.5
					c-24.9,8.7-37.8,15.4-37.8,15.4l24.4,42.2l1.2-0.7c4.8-3,13.7-9.4,31.1-24.3c6.7-5.8,19.5-20.6,26.5-22.9
					c2.6-0.9,6.2-1.1,10-1.8c3.4,0.2,7-0.6,10.2-2.5c8.9-5.2,12-16.6,6.8-25.5C282.8,488.5,271.4,485.4,262.5,490.6z"/>
				<path class="st49" d="M211.1,541.6c6.7,11.7,2.7,26.5-8.9,33.3c-11.7,6.7-26.5,2.7-33.3-8.9c-6.7-11.7-2.7-26.5,8.9-33.3
					C189.5,526,204.4,530,211.1,541.6"/>
				<path class="st48" d="M211.1,541.6c6.7,11.7,2.7,26.5-8.9,33.3c-11.7,6.7-26.5,2.7-33.3-8.9c-6.7-11.7-2.7-26.5,8.9-33.3
					C189.5,526,204.4,530,211.1,541.6z"/>
				<path class="st50" d="M575.3,307c8.4,0,16.6,4.4,21.1,12.2c6.7,11.7,2.7,26.5-8.9,33.3l0.1,0.1l-1.2,0.7
					c-4.9,2.6-14.7,7.1-35.6,14.4c6.4,27.3-5.4,56.7-31,71.4L325.5,551.3c-10.3,5.9-21.5,8.8-32.6,8.8c-17.7,0-35.1-7.2-47.6-20.5
					c-4.1,4-8,8.1-10.8,10.5c-17.3,14.9-26.3,21.3-31.1,24.3l-1.2,0.7l-0.1-0.1c-3.8,2.2-8,3.3-12.2,3.3c-8.4,0-16.6-4.4-21.1-12.2
					c-6.7-11.7-2.7-26.6,8.9-33.3c1.4-0.8,2.9-1.5,4.4-2c5.7-2.6,16.9-7.5,33.4-13.3c3.5-1.2,9-2.6,14.5-4.1
					c-8.4-28.3,3.2-59.7,29.9-75.2l194.4-112.2c10.3-5.9,21.5-8.8,32.6-8.8c16.4,0,32.4,6.2,44.6,17.6c12.8-11,22.4-18.1,27.4-21.6
					c1.2-1.1,2.5-2,4-2.8C567,308.1,571.1,307,575.3,307 M575.3,302.4c-5.1,0-10.1,1.3-14.5,3.9c-1.6,0.9-3.1,2-4.5,3.2
					c-4.4,3.1-13,9.4-24.5,19.1c-12.5-10.4-28.2-16.1-44.7-16.1c-12.2,0-24.3,3.2-34.9,9.4L257.9,434.1
					c-13.7,7.9-24.4,20.4-30.1,35.1c-5.1,13-6.1,27.3-3.1,40.8c0,0,0,0-0.1,0c-3.9,1.1-7.7,2.1-10.4,3
					c-16.7,5.8-28.1,10.8-33.6,13.3c-1.7,0.6-3.4,1.4-5,2.3c-13.8,8-18.6,25.7-10.6,39.6c5.2,8.9,14.8,14.5,25.1,14.5
					c3.5,0,7-0.6,10.3-1.9l0.2,0.4l4-2.3l1.2-0.7l0.1,0l0.1,0c7.1-4.5,17.8-12.8,31.6-24.7c2.2-1.9,4.9-4.6,7.8-7.5c0,0,0,0,0,0
					c12.8,11.9,29.9,18.6,47.6,18.6c12.2,0,24.3-3.2,34.9-9.4L522.2,443c13.3-7.7,23.4-19.1,29.4-33.2c5.2-12.3,6.8-26.1,4.6-39.2
					c14.8-5.3,25.7-9.8,32.4-13.3l0.1,0l0.1,0l1.2-0.7l4-2.3l-0.2-0.4c4.7-3.8,8.1-9,9.7-15c2-7.5,1-15.3-2.9-22
					C595.2,308,585.6,302.4,575.3,302.4"/>
			</g>
		</g>
	</g>
</g>
<g id="frame" class="st30">
	<g id="frame_2_" class="st31">
		<path d="M1280,0v960H0V0H1280 M1290-10h-10H0h-10V0v960v10H0h1280h10v-10V0V-10L1290-10z"/>
	</g>
	<g id="frame_1_" class="st51">
		<path class="st52" d="M-860-520v2000h3000V-520H-860z M1280,960H0V0h1280V960z"/>
	</g>
</g>
</svg>
