<svg xmlns="http://www.w3.org/2000/svg" viewBox="0 0 753 345"><defs><style>.cls-1{fill:#999;}.cls-2{fill:gray;}.cls-3{fill:#b3b3b3;}.cls-4{fill:#666;}.cls-5{fill:#e6e6e6;}</style></defs><title>Table</title><g id="Layer_2" data-name="Layer 2"><g id="Layer_1-2" data-name="Layer 1"><polygon class="cls-1" points="719 258 675 258 673 83 718 53 719 258"/><polygon class="cls-2" points="718 53 733 43 732 247 719 258 718 53"/><polygon class="cls-1" points="197.27 257.74 153.27 257.74 152 112 196 112 197.27 257.74"/><polygon class="cls-2" points="196 112 211 112 210.27 246.74 197.27 257.74 196 112"/><rect class="cls-3" x="21" y="110" width="48" height="235"/><polygon class="cls-2" points="69 110 85 110 84 332 69 345 69 110"/><polygon class="cls-3" points="78 209 78 228 598 228 598 208 78 209"/><polygon class="cls-1" points="599.25 208.58 78.03 208.99 175.76 138.75 696.97 138.34 599.25 208.58"/><polygon class="cls-2" points="598 210 598 230 696 157 696 138 598 210"/><rect class="cls-3" x="565" y="110" width="48" height="235"/><polygon class="cls-2" points="613 110 629 110 628 332 613 345 613 110"/><polygon class="cls-4" points="634.58 71.74 0 70.74 119 0 753 0 634.58 71.74"/><polygon class="cls-4" points="0 112 633.9 112 634.9 71.57 0 70.57 0 112"/><polygon class="cls-4" points="633.9 112 753 31.17 753 0 634.9 71.57 633.9 112"/><polygon class="cls-5" points="632.68 72.16 2 72.16 120.32 2 751 2 632.68 72.16"/><rect class="cls-3" x="2" y="72" width="631" height="39"/><polygon class="cls-1" points="633 111 751 32.07 751 2 633 72 633 111"/></g></g></svg>