<svg xmlns="http://www.w3.org/2000/svg" xmlns:xlink="http://www.w3.org/1999/xlink" viewBox="0 0 287.87 182.12"><defs><style>.cls-1,.cls-2,.cls-3,.cls-4,.cls-5,.cls-6{stroke:#664d24;stroke-miterlimit:10;stroke-width:2px;}.cls-1{fill:url(#linear-gradient);}.cls-2{fill:url(#linear-gradient-2);}.cls-3{fill:url(#linear-gradient-3);}.cls-4{fill:#b79a72;}.cls-5{fill:url(#linear-gradient-4);}.cls-6{fill:url(#linear-gradient-5);}.cls-7{fill:#664d24;}</style><linearGradient id="linear-gradient" x1="-157.42" y1="69.02" x2="-157.42" y2="81.63" gradientTransform="matrix(-0.87, 0.5, 0.5, 0.87, 34.23, 67.34)" gradientUnits="userSpaceOnUse"><stop offset="0" stop-color="#d3b484"/><stop offset="0.41" stop-color="#d1b282"/><stop offset="0.58" stop-color="#caab7c"/><stop offset="0.7" stop-color="#bea071"/><stop offset="0.79" stop-color="#ac9062"/><stop offset="0.88" stop-color="#967a4e"/><stop offset="0.96" stop-color="#7a6036"/><stop offset="1" stop-color="#664d24"/></linearGradient><linearGradient id="linear-gradient-2" x1="225.55" y1="68.13" x2="225.55" y2="99.85" gradientTransform="translate(6.72 73.15) rotate(-30)" xlink:href="#linear-gradient"/><linearGradient id="linear-gradient-3" x1="104.09" y1="32.45" x2="104.09" y2="117.78" gradientTransform="translate(39.17 64.49) rotate(-30)" xlink:href="#linear-gradient"/><linearGradient id="linear-gradient-4" x1="3.17" y1="69.02" x2="3.17" y2="81.63" gradientTransform="translate(39.17 64.49) rotate(-30)" xlink:href="#linear-gradient"/><linearGradient id="linear-gradient-5" x1="2.11" y1="68.21" x2="2.11" y2="99.85" gradientTransform="translate(6.72 73.15) rotate(-30)" xlink:href="#linear-gradient"/></defs><title>Asset 1</title><g id="Layer_2" data-name="Layer 2"><g id="Layer_1-2" data-name="Layer 1"><g id="Rolling_Pin"><g id="Back_Handle"><path class="cls-1" d="M198.45,52.3l18.77-10.84,6.31,10.93L204.76,63.22a6.31,6.31,0,1,1-6.31-10.92Z"/><path class="cls-2" d="M261.13,5.12A15.48,15.48,0,0,0,258.57,7c-3.33,2.34-9.71,7.05-18.31,14.46-4.35,3.75-12.7,13.42-17.2,14.87a52.28,52.28,0,0,1-6.37,1.12,12.14,12.14,0,1,0,10.09,17.69,55.08,55.08,0,0,1,4.22-5c3.52-3.17,16.06-5.57,21.48-7.46,14-4.9,20.51-7.86,23.76-9.58l.75-.43,0-.07A15.82,15.82,0,1,0,261.13,5.12Z"/></g><g id="Roll"><path class="cls-3" d="M190.61,15.27,64.37,88.16l42.42,73.48L233,88.75a42.42,42.42,0,0,0-42.42-73.48Z"/><circle class="cls-4" cx="85.58" cy="124.9" r="42.42"/></g><g id="Handle"><path class="cls-5" d="M83.1,118.9,64.34,129.73l6.3,10.92,18.77-10.83A6.31,6.31,0,1,0,83.1,118.9Z"/><path class="cls-6" d="M65.86,122.21a12.07,12.07,0,0,0-4.76,5,54.46,54.46,0,0,1-4.15,5c-3.52,3.17-16.06,5.56-21.48,7.46-16.16,5.64-24.52,10-24.52,10l15.82,27.4.75-.43c3.12-2,8.93-6.1,20.18-15.79,4.35-3.74,12.69-13.41,17.2-14.87a55.39,55.39,0,0,1,6.47-1.13,12.14,12.14,0,1,0-5.51-22.63Z"/><circle class="cls-4" cx="18.82" cy="163.29" r="15.82"/></g><g id="Border"><path class="cls-7" d="M269,3A15.82,15.82,0,0,1,277,32.53l0,.07-.75.43c-3.2,1.7-9.55,4.59-23.1,9.35A42.43,42.43,0,0,1,233,88.75L106.79,161.64h0A42.43,42.43,0,0,1,54.73,154c-2.66,2.62-5.2,5.25-7,6.82-11.25,9.69-17.06,13.83-20.18,15.79l-.75.43,0-.07a15.82,15.82,0,1,1-12.94-28.7c3.69-1.71,11-4.87,21.68-8.62,2.29-.8,5.84-1.69,9.45-2.69A42.41,42.41,0,0,1,64.37,88.16h0L190.61,15.27A42.39,42.39,0,0,1,240.77,21c8.34-7.16,14.53-11.74,17.8-14a15.48,15.48,0,0,1,2.56-1.85A15.73,15.73,0,0,1,269,3m0-3a18.84,18.84,0,0,0-9.4,2.52,19.2,19.2,0,0,0-2.92,2.09c-2.84,2-8.43,6.11-15.91,12.42a45.37,45.37,0,0,0-51.69-4.35L62.87,85.56a45.44,45.44,0,0,0-21.6,49.31h0c-2.56.69-5,1.34-6.75,2-10.86,3.79-18.28,7-21.81,8.66A19.21,19.21,0,0,0,9.41,147a18.83,18.83,0,0,0,9.42,35.13,18.57,18.57,0,0,0,6.68-1.24l.16.28,2.6-1.5.75-.43.05,0,.05,0c4.62-2.9,11.53-8.3,20.53-16,1.42-1.23,3.2-3,5.08-4.87h0a45.4,45.4,0,0,0,53.55,6L234.53,91.35a45.06,45.06,0,0,0,19.09-21.56,45.86,45.86,0,0,0,3-25.45c9.62-3.44,16.7-6.35,21.05-8.66l.05,0,.05,0,.75-.44,2.6-1.5-.16-.27a18.83,18.83,0,0,0,4.41-24A18.89,18.89,0,0,0,269,0Z"/></g></g></g></g></svg>