<svg xmlns="http://www.w3.org/2000/svg" viewBox="0 0 734 101.48"><defs><style>.cls-1{fill:#b3b3b3;}.cls-2{fill:#2e85a3;}.cls-3{fill:#318baa;}.cls-4{fill:#3396cc;}.cls-5{fill:#e2c6ac;}.cls-6{fill:#31859b;}.cls-7{font-size:9px;}.cls-7,.cls-8{fill:#282828;font-family:Magneto-Bold, Magneto;font-weight:700;}.cls-8{font-size:4px;}</style></defs><title>parchmentPlayspaceNoGradients</title><g id="Layer_2" data-name="Layer 2"><g id="Layer_2-2" data-name="Layer 2"><polygon class="cls-1" points="583 57.38 583 54.38 584 55.38 585.13 53.51 586 54.38 586.91 52.77 588 53.38 588.63 52.06 590 52.38 590.57 51.27 600 47.38 600 50.38 583 57.38"/><polygon class="cls-2" points="620.74 101.48 620.74 57.44 734 5 734 37.51 620.74 101.48"/><polygon class="cls-2" points="620.74 101.48 580.89 100.44 580.89 56.91 620.74 57.44 620.74 101.48"/><polygon class="cls-2" points="734 5 704.37 3.24 581.41 56.91 620.74 57.44 734 5"/><polygon class="cls-3" points="621.41 100.16 621.41 57.15 732 5.96 732 37.7 621.41 100.16"/><polygon class="cls-4" points="621.41 100.16 582.5 99.14 582.5 56.64 621.41 57.15 621.41 100.16"/><polygon class="cls-3" points="732 5.96 703.07 4.23 583.01 56.64 621.41 57.15 732 5.96"/><path class="cls-5" d="M590.25,55.11,699.23,6s12.25-8,28.14,2.15L621.52,57.74Z"/><path class="cls-5" d="M619.18,57.15c-16.74-10.29-31.92-.51-31.92-.51Z"/><path class="cls-5" d="M103,97.38c16.08-1.23,141.13-6.63,188-3,60.37,4.69,191.92,20.72,241-24,45-41,88-13,88-13l106-49c-.24-.29-5-3.91-5.24-4.15C699-13.62,621,30.38,604,36.38c-3.89,1.38-51,5-60,4s-101-3-107-2-155,2-155,2-162.14-11.56-185-4c-27.58,9.13-95,59-97,64C0,100.38,77.31,99.36,103,97.38Z"/><circle class="cls-3" cx="601.5" cy="79.88" r="11.5"/><ellipse class="cls-6" cx="601" cy="79.88" rx="8" ry="8.5"/><text class="cls-7" transform="matrix(0.83, -0.41, 0.44, 0.9, 631.06, 75.35)">B</text><text class="cls-7" transform="matrix(0.83, -0.41, 0.44, 0.9, 637.21, 72.32)">e</text><text class="cls-7" transform="matrix(0.83, -0.41, 0.44, 0.9, 641.76, 70.08)">s</text><text class="cls-7" transform="matrix(0.83, -0.41, 0.44, 0.9, 646.14, 67.92)">t</text><text class="cls-7" transform="matrix(0.83, -0.41, 0.44, 0.9, 649.38, 66.32)"> </text><text class="cls-7" transform="matrix(0.83, -0.41, 0.44, 0.9, 652.23, 64.92)">P</text><text class="cls-7" transform="matrix(0.83, -0.41, 0.44, 0.9, 658.21, 61.97)">a</text><text class="cls-7" transform="matrix(0.83, -0.41, 0.44, 0.9, 662.9, 59.66)">r</text><text class="cls-7" transform="matrix(0.83, -0.41, 0.44, 0.9, 667.16, 57.56)">c</text><text class="cls-7" transform="matrix(0.83, -0.41, 0.44, 0.9, 671.67, 55.34)">h</text><text class="cls-7" transform="matrix(0.83, -0.41, 0.44, 0.9, 676.65, 52.89)">m</text><text class="cls-7" transform="matrix(0.83, -0.41, 0.44, 0.9, 683.78, 49.37)">e</text><text class="cls-7" transform="matrix(0.83, -0.41, 0.44, 0.9, 688.35, 47.12)">n</text><text class="cls-7" transform="matrix(0.83, -0.41, 0.44, 0.9, 693.29, 44.69)">t</text><text class="cls-7" transform="matrix(0.83, -0.41, 0.44, 0.9, 696.53, 43.09)"> </text><text class="cls-7" transform="matrix(0.83, -0.41, 0.44, 0.9, 699.37, 41.69)">P</text><text class="cls-7" transform="matrix(0.83, -0.41, 0.44, 0.9, 705.35, 38.74)">a</text><text class="cls-7" transform="matrix(0.83, -0.41, 0.44, 0.9, 710.06, 36.42)">p</text><text class="cls-7" transform="matrix(0.83, -0.41, 0.44, 0.9, 714.83, 34.07)">e</text><text class="cls-7" transform="matrix(0.83, -0.41, 0.44, 0.9, 719.37, 31.83)">r</text><text class="cls-8" transform="matrix(0.89, -0.46, 0.46, 0.89, 635.06, 81.33)">W</text><text class="cls-8" transform="translate(638.58 79.52) rotate(-27.18)">o</text><text class="cls-8" transform="matrix(0.89, -0.46, 0.46, 0.89, 640.65, 78.46)">w</text><text class="cls-8" transform="translate(643.58 76.95) rotate(-27.18)">!</text><text class="cls-8" transform="matrix(0.89, -0.46, 0.46, 0.89, 645.18, 76.13)"> </text><text class="cls-8" transform="translate(646.54 75.43) rotate(-27.18)">T</text><text class="cls-8" transform="translate(649.2 74.07) rotate(-27.18)">h</text><text class="cls-8" transform="translate(651.58 72.84) rotate(-27.18)">e</text><text class="cls-8" transform="translate(653.74 71.74) rotate(-27.18)"> </text><text class="cls-8" transform="translate(655.1 71.03) rotate(-27.18)">b</text><text class="cls-8" transform="translate(657.21 69.95) rotate(-27.18)">e</text><text class="cls-8" transform="translate(659.38 68.84) rotate(-27.18)">s</text><text class="cls-8" transform="translate(661.47 67.76) rotate(-27.18)">t</text><text class="cls-8" transform="translate(663.01 66.98) rotate(-27.18)">!</text></g></g></svg>