<svg xmlns="http://www.w3.org/2000/svg" viewBox="0 0 60.71 57.11"><defs><style>.cls-1{fill:#7c7c7c;}</style></defs><title>silhouetteDino-001</title><g id="Layer_2" data-name="Layer 2"><g id="Layer_1-2" data-name="Layer 1"><path class="cls-1" d="M6.17,21.59a2.85,2.85,0,0,1,1.3.51,34,34,0,0,1,2.88,3.59c.09,1.83,1.37,5,1.32,7.62,0,1.4-.7,2.1-1.4,3.5a21.12,21.12,0,0,0-1.4,3.5c-.23,1-.52,3.29,0,4.21a9.27,9.27,0,0,0,2.75,2.07l.1,0c.25.08,1.35.46,1.35.68V48l-2.8,2.8,1.4-.7-1.4,2.1,2.8-1.4v1.4l4.11-4.1A.77.77,0,0,0,17,46.88c-1.54-.72-4.2-2.24-3.19-3.76a18,18,0,0,0,2.05-3.63A.77.77,0,0,1,16.6,39l8.38.65h1.4l10.28-1.39a.58.58,0,0,0,.18,0l3.55-1.37a14,14,0,0,0,4.91-3.5c1-1.12,2.52-3.76,3.5-4.9C51.52,25.19,60.71,16.5,60.71,16.5S56,18.44,54.4,19.3s-4.86,3.25-6.3,4.2-4,2.95-5.61,3.5c-1.82.61-5.81.34-7.7,0a12,12,0,0,1-3.4-1.16c-1.77-.91-3.85-3.53-5-5.14-1.37-1.91-3.24-6.26-4.2-8.41-.77-1.72-1.74-6.28-2.65-7.93C18.79,3,18.34,1.76,16,.81A8.61,8.61,0,0,0,13.46.07a9.36,9.36,0,0,0-5,.65A8.52,8.52,0,0,0,6,2.4,11.45,11.45,0,0,0,3.75,5.48a5.64,5.64,0,0,0-.49,2.38v2.73a.67.67,0,0,1-.2.52C.57,13.23.84,13.55.46,14.39c-.67,1.52-.7,4.21,2.1,6.31a4.9,4.9,0,0,0,3.61.89"/><path class="cls-1" d="M27.69,40.34c0,2.1-4.9,4.2-8.41,3.5s-7-7.7-7.7-10.5c-.62-2.46-1.23-6-1.37-6.83a2.19,2.19,0,0,1,0-.36V23.79a2.18,2.18,0,0,1,1.9-2.18,7.59,7.59,0,0,1,5.8,1.92C22.58,27.44,27.69,36.93,27.69,40.34Z"/><path class="cls-1" d="M28.39,34c-1.05,1.57-4.2,7-4.2,7s-1.4,4.2.7,7,3.5,2.8,3.5,2.8l-.7,1.4-.7,2.8,1.4-2.1L27,57.11l2.75-3.39-.63,2.67s5.75-6.13,4.85-6.24-.59-1.18-.7-1.4c-.7-1.4-1.26-2.88-2.1-4.21s.63-2.6.63-2.6,2.23-1.53,3.15-2.19c1.13-.81,1.31-4.64.42-6.41-.7-1.4-2.2-2.77-4.2-2.11A4.81,4.81,0,0,0,28.39,34Z"/><path class="cls-1" d="M23.4,22.88c-.27,2.19-1.36,8.35-4.82,8.35l-1.4.71.7-1.41-1.4.7.7-1.4h-1.4l1.4-.7a3.46,3.46,0,0,0,2.1-.7c.7-.7,1.4-4.9,1.4-4.9s-.7-2.8.7-3.5c.87-.44,1.47.47,1.8,1.22A3.14,3.14,0,0,1,23.4,22.88Z"/><path class="cls-1" d="M6.67,23.53A19.15,19.15,0,0,0,3.87,27a5.77,5.77,0,0,0-.72,2l2.12,3.57V31.3l1.4,2V30.53l.7,1.41a12.8,12.8,0,0,0,0-1.41,20.59,20.59,0,0,0-.62-2.26h0c.78-1.56,1.32-1.66,1.32-1.66L9,26c.3-.21,1,.13,1.24.4V23.78L8.42,22.47A7.86,7.86,0,0,1,7.76,22c-.31-.31-.18-.19-.74-.28L6.55,22l.51.38a.31.31,0,0,1,.08.42Z"/><path class="cls-1" d="M14.33,17.61l-4,3a1.27,1.27,0,0,1-.27.18c-.66.35-3.34,1.61-5.07,1.48S.39,22.09,0,17.56a6,6,0,0,1,2.5-5.82,2.56,2.56,0,0,1,1.07-.16c1.62-.12,7.26-.52,8.68,0,.89.35,1.93,2,2.64,3.22A2.16,2.16,0,0,1,14.33,17.61Z"/></g></g></svg>