<svg xmlns="http://www.w3.org/2000/svg" xmlns:xlink="http://www.w3.org/1999/xlink" viewBox="0 0 954 937.04"><defs><style>.cls-1{fill:#473117;}.cls-2{fill:#e4be70;}.cls-3{fill:url(#radial-gradient);}.cls-4{fill:#cb862a;}.cls-5{fill:#67481c;}.cls-6{fill:#fff;}.cls-7{fill:#906828;stroke:#473117;stroke-miterlimit:10;stroke-width:2px;}</style><radialGradient id="radial-gradient" cx="477" cy="468.52" r="581.79" gradientUnits="userSpaceOnUse"><stop offset="0" stop-color="#e4be70"/><stop offset="0.46" stop-color="#e2bc6e"/><stop offset="0.63" stop-color="#dcb569"/><stop offset="0.75" stop-color="#d0aa5f"/><stop offset="0.85" stop-color="#bf9951"/><stop offset="0.93" stop-color="#aa833f"/><stop offset="1" stop-color="#906828"/><stop offset="1" stop-color="#906828"/></radialGradient></defs><title>Asset 2</title><g id="Layer_2" data-name="Layer 2"><g id="Layer_1-2" data-name="Layer 1"><path id="border" class="cls-1" d="M949.58,436C942,400.68,926,358.8,904.9,321.46c-21.7-73-58.87-138.35-114.24-190.82C753.2,86,641.24,21.37,572.89,7.24,542.68,1,513.9-.73,491,4.3Q469.73,1.88,447.3.55C375.12-3.4,304.44,14.14,241.63,49.34c-48.25,9.45-104.31,53.72-153.37,114.87-45.72,57-68.63,128.89-63.7,182.27a553,553,0,0,0-13.24,79.06c-14,54.66-15.16,121.08-2.61,188,16.06,85.58,63.34,147.32,118.53,177.17,9.26,24.09,28.89,45.62,57.08,62.7a105.64,105.64,0,0,0,45.88,14.49c30.67,40.51,124.86,73.87,222.62,68.64,36.76-2,71.37-7,101.51-14.5q15-1.95,29.37-4.73c38.72,2.37,81.76-3.55,118.36-17.27,55.61-20.86,106.54-63.94,128.59-107.18,40.42-27.9,68-75.58,92.34-136.81,10.59-26.61,13.32-58.31,9.41-89.35C952,529.91,959.62,483,949.58,436Z"/><path id="base" class="cls-2" d="M907.65,463.72c10.65,230.69-153,462.95-463.74,440.49C247.53,890,29.85,761.06,29.85,480.69s202.3-470.85,418.79-459C767.47,40.6,897,233,907.65,463.72Z"/><g id="silhouette"><path class="cls-2" d="M279.19,316C219.89,405.17,128.93,448.88,76,413.68s-37.2-152.24,29.79-235.74C173.68,93.35,255.6,42.57,308.51,77.77S338.49,226.91,279.19,316Z"/><path class="cls-2" d="M29.85,607C4,469.36,38.8,333.8,126.91,308.18s174.27,57.93,213.36,192.35-.63,264.18-88.73,289.8S55.36,742.94,29.85,607Z"/><path class="cls-2" d="M197.53,836c-48.35-29.3-70.39-72.32-55.85-118.59s66.46-55,123.68-37,91.83,70.05,77.29,116.33S249.81,867.68,197.53,836Z"/><path class="cls-2" d="M453.91,915.37c-112.38,6-219.85-41.38-222.44-89.82s103-71.23,215.4-77.25,205.59,28.36,208.18,76.8S566.29,909.35,453.91,915.37Z"/><path class="cls-2" d="M691.9,880.52c-80.4,30.14-193.35,20.86-213.71-33.43S531,723.38,611.39,693.24s190.39-30.27,210.75,24S772.3,850.37,691.9,880.52Z"/><path class="cls-2" d="M902.85,647.55C863.59,746.18,815.72,808,714.75,804.46c-71.64-2.5-98-121-66.23-222.28s113-166,181.43-144.49S932.21,573.83,902.85,647.55Z"/><path class="cls-2" d="M928.25,437.51c18.81,88.08-27.3,175.69-97.4,190.66s-142.18-44.29-161-132.37,25.31-246.94,95.42-261.91S909.44,349.43,928.25,437.51Z"/><path class="cls-2" d="M536.4,158.63C476.6,143.9,436.31,103,444.2,66.68c9.71-44.67,64-51.09,124.36-38.62C650.22,45,797.09,137.3,788.21,173.36S596.21,173.36,536.4,158.63Z"/></g><path id="gradient" class="cls-3" d="M928.25,437.51C921,403.75,905.7,363.75,885.59,328.1,864.86,258.39,829.37,196,776.5,145.89,740.73,103.25,633.82,41.56,568.56,28.06c-28.85-6-56.33-7.6-78.21-2.81q-20.3-2.3-41.71-3.58c-68.92-3.76-136.41,13-196.38,46.6-46.07,9-99.61,51.29-146.45,109.67C62.15,232.36,40.28,301,45,352a527.69,527.69,0,0,0-12.64,75.49C19,479.68,17.87,543.09,29.85,607,45.18,688.67,90.33,747.63,143,776.13c8.84,23,27.59,43.56,54.5,59.87a100.89,100.89,0,0,0,43.81,13.83c29.29,38.69,119.23,70.54,212.57,65.54,35.1-1.88,68.15-6.67,96.92-13.84q14.29-1.86,28-4.51c37,2.25,78.07-3.4,113-16.5,53.1-19.91,101.73-61,122.79-102.34,38.59-26.64,64.89-72.17,88.16-130.63,10.12-25.41,12.72-55.68,9-85.32C930.55,527.14,937.83,482.39,928.25,437.51Z"/><g id="toppings"><path class="cls-4" d="M617.22,161.6c0,17.52-12.21,36.8-27.28,36.8s-27.28-14.21-27.28-31.73S574.87,135,589.94,135,617.22,144.07,617.22,161.6Z"/><path class="cls-1" d="M617.62,161.6a53.18,53.18,0,0,1-5.84,22.56,37.38,37.38,0,0,1-7,9.68A23.57,23.57,0,0,1,594,200c-8.48,1.79-17.35-1.32-23.47-7.15a36.48,36.48,0,0,1-10.85-22.28,39.9,39.9,0,0,1,4.92-24.66,31.72,31.72,0,0,1,8.84-9.71c.46-.32.91-.65,1.38-.95l1.47-.83c.5-.26,1-.56,1.5-.79l1.56-.65a22.48,22.48,0,0,1,3.23-1,25.11,25.11,0,0,1,3.33-.65l.84-.11.85,0,1.69,0a11,11,0,0,1,1.64.07l1.6.14c1.07.09,2.12.35,3.18.52s2.08.56,3.12.84a27.67,27.67,0,0,1,10.89,6.66,25.68,25.68,0,0,1,6.37,10.54A36.58,36.58,0,0,1,617.62,161.6Zm-.8,0a26.14,26.14,0,0,0-2.59-11,20,20,0,0,0-7.25-8,24.91,24.91,0,0,0-9.78-3.5c-.87-.09-1.72-.21-2.58-.28s-1.73-.09-2.6-.08a26.23,26.23,0,0,0-5,.42c-6.34,1.16-12,5.29-15.77,10.91a30,30,0,0,0-4.26,9.36,34.33,34.33,0,0,0-1,10.47A30.6,30.6,0,0,0,574.23,189a23.47,23.47,0,0,0,8.65,5.84c.84.25,1.65.6,2.51.78l1.29.27a6.39,6.39,0,0,0,1.3.2l1.32.12.65.06h.65a9.24,9.24,0,0,0,1.28-.07,9.36,9.36,0,0,0,1.28-.17,21.66,21.66,0,0,0,9.61-4.48,35.38,35.38,0,0,0,7.56-8.27A38.48,38.48,0,0,0,616.82,161.6Z"/><path class="cls-4" d="M206.24,548.51c9.91,14.46,9.68,38-4,47.38s-32.87,5.3-42.77-9.15-6.81-33.8,6.91-43.19S196.34,534.06,206.24,548.51Z"/><path class="cls-1" d="M206.57,548.29A48.19,48.19,0,0,1,214,571.47a36.87,36.87,0,0,1-1.28,12.45,26.36,26.36,0,0,1-6.39,11.19,31,31,0,0,1-24.18,8.28,35.06,35.06,0,0,1-23-11.86,37,37,0,0,1-9.35-24.65,32.93,32.93,0,0,1,3-13.35c.46-1.06,1.08-2,1.62-3.06s1.28-1.94,1.95-2.88,1.52-1.76,2.27-2.63,1.69-1.58,2.54-2.36,1.86-1.37,2.78-2.05,1.92-1.12,2.87-1.68,2-1,3-1.43,2.08-.78,3.11-1.16a31.13,31.13,0,0,1,13.13-1.4A26.75,26.75,0,0,1,198,539.34,31.41,31.41,0,0,1,206.57,548.29Zm-.66.45A23.74,23.74,0,0,0,197,541a21,21,0,0,0-11.14-1.88,29.18,29.18,0,0,0-10.56,3.29c-.81.46-1.63.88-2.42,1.35s-1.58,1-2.34,1.5-1.53,1.07-2.24,1.62-1.36,1.11-2,1.71a28.69,28.69,0,0,0-7.46,29.16,30.48,30.48,0,0,0,5.1,9.61,29.26,29.26,0,0,0,18.76,10.7,27,27,0,0,0,11-.7c.88-.31,1.8-.52,2.66-.89s1.73-.7,2.55-1.17,1.66-.91,2.41-1.43a18.58,18.58,0,0,0,2.17-1.69,24.69,24.69,0,0,0,6.32-9.27,35.14,35.14,0,0,0,2.44-11.47A36.59,36.59,0,0,0,205.91,548.74Z"/><path class="cls-4" d="M799.12,621.52c-13.07,13.82-38.21,18.84-51.5,6.28s-13.45-33.95-.38-47.76,34.42-14.84,47.71-2.28S812.19,607.7,799.12,621.52Z"/><path class="cls-1" d="M799.41,621.79a48,48,0,0,1-10.65,8.05,52.28,52.28,0,0,1-12.44,5,40.31,40.31,0,0,1-13.57,1.31,28.86,28.86,0,0,1-13.29-4.36,34.12,34.12,0,0,1-14.34-23.73,37.62,37.62,0,0,1,7.17-27.18,39.54,39.54,0,0,1,24.09-15.37,35.8,35.8,0,0,1,14.79.25c1.21.28,2.4.7,3.59,1.05s2.32.93,3.47,1.43,2.19,1.2,3.28,1.81,2,1.42,3.06,2.14,1.86,1.65,2.79,2.48,1.62,1.76,2.44,2.64,1.47,1.88,2.21,2.82,1.31,2,2,3a34.12,34.12,0,0,1,4.66,13.52,28.9,28.9,0,0,1-1.74,13.85A33.34,33.34,0,0,1,799.41,621.79Zm-.58-.55A25.76,25.76,0,0,0,805,610a23.12,23.12,0,0,0,.56-6.29l-.1-1.56-.27-1.53a20.28,20.28,0,0,0-.76-3,32.22,32.22,0,0,0-6-10.63c-.68-.77-1.32-1.56-2-2.31s-1.42-1.47-2.15-2.18-1.51-1.41-2.26-2.05-1.52-1.22-2.31-1.79a31.52,31.52,0,0,0-33.25-1.53,32.84,32.84,0,0,0-9.14,7.73,31.77,31.77,0,0,0-7,22.7,30.14,30.14,0,0,0,3.44,11.69c.54.87,1,1.81,1.59,2.63s1.17,1.71,1.86,2.47,1.36,1.57,2.1,2.27a22.91,22.91,0,0,0,2.33,1.95,27.32,27.32,0,0,0,11.42,4.68,38.37,38.37,0,0,0,12.83,0A39.78,39.78,0,0,0,798.83,621.24Z"/><path class="cls-5" d="M277.79,225.35c-15.49,3-35.06-7-38.18-23.31s6.92-31.92,22.42-34.88,30.58,7.86,33.69,24.16S293.29,222.39,277.79,225.35Z"/><path class="cls-1" d="M277.87,225.74a36.47,36.47,0,0,1-11.61,0,42.74,42.74,0,0,1-11.19-3.33,34.6,34.6,0,0,1-9.88-6.6,27.2,27.2,0,0,1-6.72-10.19l-.86-3c-.21-1-.36-2-.54-3s-.17-2-.25-3.07,0-2.06,0-3.1a33.26,33.26,0,0,1,3-12,32.07,32.07,0,0,1,7.42-10.13,30.46,30.46,0,0,1,11-6.43,31.51,31.51,0,0,1,25.18,2.41,32.16,32.16,0,0,1,9.83,8.52c.62.9,1.3,1.76,1.85,2.7s1.13,1.87,1.57,2.86.9,2,1.27,3,.68,2.06,1,3.1l.65,3.17c.13,1,.23,2.06.34,3.09s.08,2.08.12,3.12-.08,2.09-.13,3.12A33,33,0,0,1,296.64,212a24.8,24.8,0,0,1-18.77,13.78Zm-.15-.78a19.51,19.51,0,0,0,9.79-5.14,19.76,19.76,0,0,0,5.12-9.36c.2-.87.33-1.76.5-2.61l.22-2.65c0-.9.06-1.77,0-2.66s-.09-1.77-.17-2.65-.18-1.76-.3-2.63l-.45-2.62-.56-2.6-.7-2.43A29.44,29.44,0,0,0,279.35,174a23.66,23.66,0,0,0-19.27-3.1,25.32,25.32,0,0,0-15.5,12.79,28.13,28.13,0,0,0-3.09,10.06c-.05.88-.19,1.77-.18,2.66s0,1.79.07,2.68.18,1.79.31,2.67l.58,2.57c2,6.8,7.13,12.71,13.58,16.54A31.08,31.08,0,0,0,277.72,225Z"/><path class="cls-5" d="M504.61,823c-16.15,6.79-40.07-.33-47.64-18.35s-.62-38.12,15.53-44.91,35.39,2.31,43,20.32S520.76,816.23,504.61,823Z"/><path class="cls-1" d="M504.76,823.39a37.55,37.55,0,0,1-13,2.54,45.73,45.73,0,0,1-13.24-1.62,40.06,40.06,0,0,1-12.31-5.65,32.87,32.87,0,0,1-9.5-10.06l-1.63-3.12-1.28-3.24c-.38-1.09-.67-2.22-1-3.33s-.49-2.28-.73-3.42a39.56,39.56,0,0,1,.12-14,35.85,35.85,0,0,1,5.39-13.16A32.24,32.24,0,0,1,482,754a35,35,0,0,1,14.54,2A37.32,37.32,0,0,1,509,763.73a30.13,30.13,0,0,1,2.56,2.62l1.2,1.39c.19.23.4.45.59.7l.52.74a44.57,44.57,0,0,1,3.78,6.23c.48,1.11,1,2.22,1.44,3.32l1.12,3.33c.34,1.12.6,2.27.9,3.4s.44,2.32.65,3.47a41,41,0,0,1-.24,14.07,28.72,28.72,0,0,1-5.86,12.58A26.78,26.78,0,0,1,504.76,823.39Zm-.31-.74a21.23,21.23,0,0,0,9.63-8.23,23.11,23.11,0,0,0,3.21-11.89,41.14,41.14,0,0,0-2-12.16c-.33-1-.63-2-1-2.93l-1.12-2.88-1.25-2.83-1.37-2.65a36,36,0,0,0-16.9-15.64,27.29,27.29,0,0,0-11.29-2.33,25.36,25.36,0,0,0-11.2,2.86,26.13,26.13,0,0,0-8.84,7.71,30.42,30.42,0,0,0-5,10.92,34.32,34.32,0,0,0-.71,12.22c.17,1,.25,2,.49,3.06s.46,2,.76,3l1,3,1.29,2.8c3.81,7.29,10.76,13,18.82,16.05a37.47,37.47,0,0,0,12.73,2.44A30.64,30.64,0,0,0,504.45,822.65Z"/><path class="cls-5" d="M598.45,392.26c11.42,13.28,14.9,35.72,3.69,45.35s-29.56,6.68-41-6.61-11.59-31.87-.38-41.51S587,379,598.45,392.26Z"/><path class="cls-1" d="M598.75,392a54,54,0,0,1,10.33,20.68,37.29,37.29,0,0,1,1.14,11.81,23.07,23.07,0,0,1-4,11.65,18,18,0,0,1-2.08,2.45,25.75,25.75,0,0,1-2.42,2.05c-.21.16-.41.34-.62.49l-.67.42-1.34.83c-.9.55-1.89.93-2.84,1.4a27.74,27.74,0,0,1-12.36,2,36.67,36.67,0,0,1-22.48-9.91,41.67,41.67,0,0,1-7.85-9.75A37.93,37.93,0,0,1,549,414.28a31.47,31.47,0,0,1,.17-13l.4-1.61c.16-.54.36-1.06.55-1.59s.37-1.05.58-1.57l.75-1.51a16.47,16.47,0,0,1,.81-1.49l.93-1.41a22.25,22.25,0,0,1,2.08-2.67l.55-.63c.2-.2.42-.39.62-.58l1.25-1.14a10.68,10.68,0,0,1,1.28-1l1.3-.93c.86-.63,1.83-1.12,2.74-1.67s1.94-.92,2.9-1.38a27.13,27.13,0,0,1,12.56-1.9,25.55,25.55,0,0,1,11.55,4A37.21,37.21,0,0,1,598.75,392Zm-.6.52a26.62,26.62,0,0,0-9-6.64,19.88,19.88,0,0,0-10.59-1.44,24.3,24.3,0,0,0-9.62,3.58c-.71.5-1.43,1-2.12,1.46s-1.36,1-2,1.6a25.61,25.61,0,0,0-3.42,3.52c-4,5-5.4,11.72-4.54,18.4a30.39,30.39,0,0,0,3,9.78,35.13,35.13,0,0,0,6.05,8.52,30.88,30.88,0,0,0,18.46,9.22,22.9,22.9,0,0,0,10.27-1.08c.79-.35,1.63-.6,2.39-1l1.14-.62.58-.31.53-.38a23.24,23.24,0,0,0,2.07-1.55,13.26,13.26,0,0,0,1.75-1.84,21.15,21.15,0,0,0,4.2-9.61,35.69,35.69,0,0,0,.19-11.12A38.89,38.89,0,0,0,598.15,392.52Z"/><polygon class="cls-6" points="318.86 344.83 275.93 359.88 287.39 389.38 302.54 378.21 318.86 344.83"/><path class="cls-1" d="M318.67,345c-3.66,1.35-7.3,2.74-10.88,4.11l-10.63,4.16-10.41,4.11-10.31,3.93.91-2c4,9.75,8.06,19.51,12.17,29.23l-3.48-1c2.46-1.94,4.92-3.89,7.41-5.8s5-3.77,7.57-5.6l-.79.94c1.31-2.58,2.69-5.11,4.12-7.64s2.95-5.06,4.48-7.66C312,356.59,315.33,351.08,318.67,345Zm.37-.33c-2.09,5.05-4.19,10.66-6.47,16.6-1.19,3-2.35,6-3.67,9s-2.63,6.06-4,9l-.26.54-.53.4q-3.75,2.85-7.59,5.57c-2.56,1.81-5.15,3.59-7.73,5.37L286.24,393l-1-2.74c-3.53-9.95-7.16-19.86-10.75-29.78l-.55-1.52,1.47-.47,11.14-3.59,11.06-3.41,10.83-3.36C312,346.94,315.54,345.83,319,344.67Z"/><polygon class="cls-6" points="607.99 606.96 591.45 573.72 567.26 588.8 578.1 599.45 607.99 606.96"/><path class="cls-1" d="M607.79,606.8c-3-5.68-6-11.2-9-16.56l-4.43-8-4.25-7.89,2.13.6c-7.92,5.25-15.87,10.46-23.75,15.78l.4-3.63c1.88,1.71,3.75,3.41,5.59,5.15s3.65,3.51,5.42,5.33l-1.17-.66c2.29.61,4.54,1.32,6.81,2.06s4.55,1.57,6.91,2.41C597.16,603.16,602.21,605,607.79,606.8Zm.39.31c-4.38-.73-9.3-1.36-14.54-2.14-2.63-.41-5.32-.81-8-1.34s-5.43-1.06-8.12-1.7l-.64-.15-.54-.5c-1.84-1.74-3.64-3.52-5.42-5.33s-3.5-3.65-5.24-5.5l-2.08-2.2,2.48-1.42c8.24-4.73,16.42-9.58,24.62-14.38l1.46-.86.67,1.46,4,8.73,3.83,8.66C603.16,596.16,605.65,601.71,608.18,607.11Z"/><polygon class="cls-6" points="655.11 325.62 686.29 305.48 674.63 290.74 659.24 295.09 655.11 325.62"/><path class="cls-1" d="M655.24,325.41c5.32-3.62,10.47-7.25,15.46-10.84,2.49-1.79,4.94-3.59,7.39-5.3l7.34-5.12-.38,2.31-12.11-14.38,2.27.73c-5.08,1.62-10.12,3.38-15.27,4.78l1.87-2.15c-.33,2.34-.74,4.65-1.24,7s-1,4.68-1.62,7.11C657.73,314.4,656.42,319.61,655.24,325.41Zm-.26.42c.19-4.37.26-9.34.42-14.65.1-2.66.21-5.4.44-8.16s.46-5.54.82-8.28l.22-1.67,1.65-.48c5.12-1.51,10.34-2.64,15.51-3.92l1.46-.36.82,1.1,11.21,15.09,1.07,1.44-1.45.87-8.25,5c-2.75,1.64-5.49,3.2-8.2,4.77C665.29,319.66,660.05,322.74,655,325.83Z"/><polygon class="cls-6" points="328.57 659.71 350.72 688.9 363.64 678.64 358.04 664.4 328.57 659.71"/><path class="cls-1" d="M328.78,659.84c4,5,8,9.79,11.87,14.41,2,2.31,3.9,4.58,5.77,6.85l5.59,6.82-2.3-.29L362.31,677l-.66,2.46c-2-4.69-4.2-9.31-6-14.08l2,1.62c-2.26-.36-4.46-.82-6.69-1.35l-3.36-.83-3.44-.95C339.47,662.52,334.43,661.1,328.78,659.84Zm-.42-.26c4.17.31,8.95.45,14.11.69l3.93.23,4,.35c2.68.24,5.38.57,8,1l1.45.23.56,1.38c1.91,4.73,3.45,9.61,5.17,14.41l.56,1.56-1.22.9-13.25,9.85-1.37,1-.92-1.3-5.49-7.78c-1.82-2.59-3.57-5.19-5.3-7.74C335.18,669.25,331.78,664.33,328.36,659.58Z"/></g><g id="indent"><path class="cls-1" d="M356.21,55a158.24,158.24,0,0,0-35.44-2.25,192.8,192.8,0,0,0-35.2,5C262.42,63.11,240.15,72,219.18,83.14a343.1,343.1,0,0,0-58.9,40,359.64,359.64,0,0,0-49.72,51A319.31,319.31,0,0,0,72.26,234a257.65,257.65,0,0,0-22.37,67.38A216.1,216.1,0,0,0,70.58,439.78l-1.77.92L66.19,437l-2.57-3.78c-1.69-2.53-3.21-5.17-4.84-7.77-.81-1.3-1.56-2.64-2.25-4l-2.15-4.07c-.7-1.36-1.48-2.7-2.11-4.1l-2-4.18a190.4,190.4,0,0,1-12.26-35.17,208.93,208.93,0,0,1-3.9-75.28c.47-3.14.89-6.29,1.4-9.42l1.74-9.36c.68-3.1,1.42-6.19,2.16-9.28l2.5-9.18A265,265,0,0,1,55.23,225.8c1.31-2.88,2.68-5.73,4.07-8.57s2.92-5.6,4.38-8.41q4.51-8.32,9.46-16.39A343.07,343.07,0,0,1,95,161.62a361.21,361.21,0,0,1,25.14-28,355.18,355.18,0,0,1,28-25,328.53,328.53,0,0,1,30.61-21.68c2.68-1.62,5.33-3.28,8-4.86s5.4-3.15,8.16-4.64,5.52-2.93,8.31-4.34,5.6-2.78,8.43-4.11c22.66-10.54,46.75-18.34,71.53-21.76a177.13,177.13,0,0,1,37.3-1.4c3.1.3,6.17.47,9.24.94l4.59.63c1.52.24,3,.53,4.55.82a132.36,132.36,0,0,1,17.72,4.84Z"/><path class="cls-1" d="M281.16,854.59a132.64,132.64,0,0,1-29.8,4.77A123.79,123.79,0,0,1,167,830.58c-15.49-13.06-27.9-30-34.7-49.2a102,102,0,0,1-5.82-29.77,99.29,99.29,0,0,1,3.55-30l1.93.5c.42,2.66.67,5.21.94,7.7s.81,5,1.13,7.37c.55,2.42,1,4.77,1.46,7.09.65,2.32,1.14,4.59,1.78,6.82a124.6,124.6,0,0,0,10.15,24.83,134.76,134.76,0,0,0,32.42,39.35,151.79,151.79,0,0,0,44.78,25.83,171.72,171.72,0,0,0,26.45,7.44l3.51.72c1.19.29,2.36.35,3.56.58l3.61.58,1.83.3,1.83.21c1.23.15,2.46.27,3.71.45s2.53.39,3.78.45c2.53.24,5.1.46,7.76.84Z"/><path class="cls-1" d="M889.33,370.73a263.86,263.86,0,0,0-16.7-77.46A325.85,325.85,0,0,0,836,222.92,418.61,418.61,0,0,0,784.86,162a489.59,489.59,0,0,0-61-51q-16.15-11.62-33.19-22T655.85,69.69A448.63,448.63,0,0,0,582,40.09a347.73,347.73,0,0,0-38.68-9.18l-2.44-.45-2.46-.37-4.91-.74c-3.27-.48-6.57-.81-9.85-1.22s-6.59-.61-9.89-.83l-5-.25-2.47-.12-2.48-.05-5-.1c-1.65,0-3.3,0-4.95.06s-3.31,0-5,.14l-4.94.29c-1.65.07-3.29.26-4.93.43s-3.29.32-4.93.52l-4.89.74c-.82.13-1.63.23-2.45.38l-2.42.48c-1.61.33-3.24.64-4.85,1L454.82,32c-.79.22-1.6.39-2.38.64l-2.36.74c-1.56.52-3.16,1-4.7,1.53a119,119,0,0,0-17.94,8.19L426,40.72l4-3.29c1.34-1.12,2.78-2.06,4.22-3l2.16-1.48,1.09-.74,1.12-.67,4.53-2.7c1.52-.9,3.12-1.6,4.69-2.41l2.38-1.18c.8-.39,1.61-.71,2.42-1.06q2.43-1.07,4.9-2.07c1.65-.62,3.32-1.19,5-1.79,13.41-4.76,27.52-7.21,41.65-8.52l2.66-.25,2.65-.14,5.31-.26c3.54-.12,7.08-.13,10.63-.17,7.08.06,14.15.46,21.18,1.06,3.51.35,7.06.58,10.53,1.11s7,.92,10.47,1.52l5.21.85c1.74.3,3.46.64,5.19,1l5.19,1,5.14,1.18,5.14,1.18,5.1,1.31,5.1,1.31,5.07,1.43c1.69.47,3.38.95,5.06,1.46l5,1.61,5,1.61,5,1.72A414,414,0,0,1,667.7,46c6.39,2.88,12.61,6.06,18.82,9.29,3.08,1.66,6.17,3.28,9.24,5l9.14,5.14c12.07,7.08,23.78,14.75,35.23,22.8q17,12.3,33,26c10.53,9.25,20.8,18.83,30.42,29.07a393.12,393.12,0,0,1,27.33,32.11c2.12,2.8,4.27,5.59,6.29,8.48l3.07,4.29q1.56,2.13,3,4.35c1.92,3,3.91,5.86,5.76,8.87s3.72,6,5.52,9c14.28,24.28,25.57,50.48,32.35,77.72l1.24,5.1,1.07,5.15c.7,3.43,1.45,6.83,1.9,10.31s1.1,6.88,1.43,10.36.81,6.9,1,10.38l.3,5.2.14,2.58c0,.86,0,1.74,0,2.6l0,5.19c0,1.73.06,3.43-.07,5.17-.2,3.45-.36,6.88-.62,10.29l-.52,5.12-.63,5.09Z"/><path class="cls-1" d="M770.56,800.1a94.49,94.49,0,0,0,19.9-8.26A138.3,138.3,0,0,0,808.53,780a215.25,215.25,0,0,0,31.54-29.72,297.8,297.8,0,0,0,46.59-73,278.32,278.32,0,0,0,15.14-40.67A233.77,233.77,0,0,0,909.92,594a188.44,188.44,0,0,0-.86-43.25A153.85,153.85,0,0,0,897.53,509l2.09-1,1.83,2.22,1.76,2.27c1.14,1.54,2.23,3.12,3.36,4.7s2,3.26,3.06,4.91c.53.82,1,1.66,1.44,2.52l1.38,2.56a130.58,130.58,0,0,1,8.89,21.65,161.59,161.59,0,0,1,6.89,46.66l-.07,5.92-.23,5.92c-.24,3.94-.63,7.86-1.08,11.77a211.37,211.37,0,0,1-4.1,23.23c-.44,1.91-.85,3.83-1.39,5.71s-1,3.79-1.59,5.66c-1.09,3.77-2.28,7.5-3.51,11.21-2.56,7.4-5.52,14.63-8.68,21.76s-6.85,14-10.66,20.78c-1,1.69-2,3.36-3,5s-2,3.32-3.08,5c-2.09,3.28-4.19,6.56-6.47,9.7-4.55,6.32-9.21,12.54-14.36,18.39L866.16,750c-1.32,1.43-2.61,2.88-4,4.29l-4.12,4.15-4.2,4.06A178.29,178.29,0,0,1,816,790c-3.49,1.81-7,3.51-10.66,5a112.1,112.1,0,0,1-11.12,4,87,87,0,0,1-11.45,2.61c-2,.26-3.88.5-5.83.62-1,.08-1.92.16-2.9.17h-2.9Z"/><path class="cls-1" d="M686,884.71a76.26,76.26,0,0,1-9.61,6.56c-3.32,2-6.74,3.68-10.21,5.32a143,143,0,0,1-21.59,7.83,149.09,149.09,0,0,1-46,5.22c-3.91-.31-7.82-.54-11.72-1.1l-2.92-.42c-1-.16-2-.35-2.92-.53-1.94-.38-3.88-.66-5.8-1.17l-5.75-1.49c-1.92-.49-3.79-1.22-5.67-1.83-.94-.32-1.88-.62-2.82-1s-1.85-.72-2.77-1.11l-2.74-1.17c-.91-.38-1.82-.78-2.71-1.23-1.8-.86-3.55-1.81-5.31-2.72s-3.43-2-5.11-3.08c-.83-.54-1.68-1-2.49-1.6s-1.62-1.16-2.41-1.76l-2.36-1.8a25.28,25.28,0,0,1-2.3-1.86c-1.47-1.34-2.94-2.64-4.35-4-.73-.65-1.38-1.4-2.05-2.12s-1.31-1.47-1.95-2.2A63.59,63.59,0,0,1,517.6,868l.92-1.06,4.31,3.37c.72.55,1.42,1.14,2.17,1.65l2.26,1.53,2.27,1.52a26.18,26.18,0,0,0,2.29,1.47l4.72,2.73c.78.47,1.59.88,2.4,1.29l2.43,1.23,2.44,1.23c.81.39,1.66.72,2.49,1.09,1.68.7,3.33,1.47,5,2.12l5.13,1.85a144.82,144.82,0,0,0,21.12,5.34,181.39,181.39,0,0,0,21.7,2.28,223.51,223.51,0,0,0,43.61-2.33q10.83-1.62,21.51-4.12a218.25,218.25,0,0,0,21.12-5.81Z"/></g><g id="freckles"><path class="cls-7" d="M430.3,469.59c0,7.82-5.46,16.43-12.18,16.43s-12.19-6.34-12.19-14.16,5.46-14.17,12.19-14.17S430.3,461.77,430.3,469.59Z"/><path class="cls-7" d="M782.55,459.39c4.42,6.45,4.32,17-1.81,21.15s-14.67,2.37-19.09-4.09-3-15.08,3.08-19.28S778.13,452.94,782.55,459.39Z"/><path class="cls-7" d="M662.18,690.11c-5.84,6.17-17.07,8.42-23,2.81s-6-15.16-.17-21.33,15.37-6.62,21.3-1S668,683.94,662.18,690.11Z"/><path class="cls-7" d="M494.73,212.46c-7.21,3-17.89-.15-21.27-8.2s-.27-17,6.94-20,15.79,1,19.18,9.07S501.94,209.42,494.73,212.46Z"/><path class="cls-7" d="M259.57,709.68c5.1,5.94,6.65,16,1.64,20.25s-13.19,3-18.29-2.95-5.18-14.23-.17-18.53S254.47,703.75,259.57,709.68Z"/><path class="cls-7" d="M202.57,329.05c-3.49,7-12.12,12.32-18,9.38s-7.87-11-4.38-18,11.1-10.29,17-7.35S206.06,322.05,202.57,329.05Z"/></g></g></g></svg>